<svg width="400" height="107" viewBox="0 0 400 107" fill="none" xmlns="http://www.w3.org/2000/svg">
<path fill-rule="evenodd" clip-rule="evenodd" d="M73.075 3.542L72.417 4.25L73.125 3.591C73.515 3.229 73.833 2.91 73.833 2.883C73.833 2.757 73.688 2.883 73.075 3.542ZM71.714 7.083C71.716 7.542 71.748 7.709 71.786 7.456C71.825 7.17965 71.8243 6.89915 71.784 6.623C71.744 6.418 71.713 6.625 71.714 7.083ZM80.732 9.412C80.752 9.547 80.832 9.715 80.911 9.787C80.989 9.858 80.999 9.823 80.934 9.708C80.868 9.594 80.898 9.5 81 9.5C81.102 9.5 81.14 9.425 81.083 9.333C80.927 9.081 80.691 9.134 80.732 9.412ZM80.146 10.278C80.134 10.308 80.114 10.39 80.102 10.458C80.0605 10.5898 80.0024 10.7159 79.929 10.833C79.847 10.971 79.979 10.902 80.223 10.679C80.467 10.457 80.667 10.263 80.667 10.249C80.667 10.196 80.166 10.224 80.146 10.278ZM75.5 11.869C75.5 12.053 75.96 12.033 76.077 11.843C76.13 11.757 76.022 11.698 75.837 11.712C75.652 11.726 75.5 11.797 75.5 11.869ZM77.256 11.843C77.373 12.033 77.833 12.053 77.833 11.869C77.833 11.797 77.682 11.726 77.496 11.712C77.311 11.698 77.203 11.757 77.256 11.843ZM47.333 12.719C47.333 12.748 47.577 12.991 47.875 13.26L48.417 13.75L47.927 13.208C47.471 12.703 47.333 12.59 47.333 12.719ZM65.993 17.042C66.684 17.778 66.833 17.91 66.833 17.785C66.833 17.758 66.477 17.402 66.042 16.993L65.25 16.25L65.993 17.042ZM62.833 20.417C63.144 20.737 63.436 21 63.482 21C63.528 21 63.311 20.737 63 20.417C62.689 20.096 62.397 19.833 62.351 19.833C62.305 19.833 62.522 20.096 62.833 20.417ZM63.821 21.723C64.298 22.248 64.317 22.254 64.261 21.875C64.237 21.715 64.15 21.582 64.067 21.581C63.985 21.579 63.804 21.511 63.667 21.429C63.529 21.347 63.598 21.479 63.821 21.723ZM73.905 22.185C73.842 22.287 73.884 22.428 73.998 22.498C74.111 22.569 74.14 22.661 74.061 22.703C73.981 22.744 74.005 22.758 74.114 22.732C74.222 22.707 74.31 22.813 74.308 22.968C74.306 23.123 74.361 23.431 74.429 23.653C74.532 23.986 74.505 24.038 74.277 23.95C74.093 23.88 74 23.93 74 24.098C74 24.248 74.079 24.304 74.192 24.234C74.312 24.16 74.34 24.188 74.266 24.308C74.2231 24.3656 74.1677 24.4128 74.104 24.446C74.0403 24.4793 73.9699 24.4977 73.898 24.5C73.493 24.5 69.803 27.014 69.887 27.233C69.976 27.466 69.385 27.551 69.246 27.326C69.191 27.238 69.018 27.257 68.836 27.37C68.663 27.478 68.549 27.611 68.583 27.665C68.616 27.72 68.493 27.775 68.309 27.789C68.028 27.81 68.008 27.774 68.185 27.561C68.465 27.224 68.068 26.952 67.634 27.184C67.28 27.374 67.228 27.576 67.567 27.446C67.935 27.305 68.025 27.526 67.706 27.788C67.547 27.918 67.519 27.972 67.644 27.908C67.982 27.733 68.15 28.142 67.982 28.73C67.735 29.59 67.79 30.552 68.079 30.441C68.336 30.343 68.341 30.861 68.089 31.583C67.974 31.912 67.977 31.912 68.236 31.593C68.459 31.32 68.5 31.312 68.5 31.542C68.5 31.691 68.425 31.86 68.333 31.917C68.285 31.951 68.246 31.9961 68.2193 32.0486C68.1926 32.101 68.1792 32.1592 68.18 32.218C68.188 32.347 68.224 32.338 68.282 32.193C68.344 32.038 68.433 32.088 68.575 32.36C68.708 32.615 68.723 32.822 68.619 32.958C68.512 33.098 68.524 33.167 68.656 33.167C68.764 33.167 68.8 33.252 68.736 33.356C68.671 33.461 68.783 33.67 68.986 33.823C69.188 33.975 69.377 34.246 69.407 34.425C69.437 34.604 69.555 34.728 69.67 34.701C69.918 34.642 70.69 35.327 70.579 35.507C70.537 35.576 70.633 35.775 70.793 35.949C70.952 36.123 71.023 36.174 70.949 36.063C70.854 35.919 70.911 35.885 71.146 35.946C71.334 35.995 71.44 36.128 71.392 36.254C71.346 36.375 71.472 36.563 71.674 36.671C71.961 36.824 72.013 36.822 71.914 36.662C71.831 36.528 71.868 36.486 72.018 36.541C72.146 36.587 72.228 36.719 72.202 36.833C72.172 36.959 72.254 37.002 72.41 36.942C72.551 36.888 72.667 36.926 72.667 37.026C72.667 37.138 72.773 37.121 72.948 36.979C73.195 36.778 73.215 36.786 73.116 37.053C73.023 37.298 73.065 37.335 73.334 37.25C73.535 37.186 73.667 37.22 73.667 37.337C73.667 37.47 73.878 37.494 74.354 37.413C74.807 37.337 75.006 37.355 74.937 37.467C74.872 37.573 75.113 37.632 75.583 37.625C75.996 37.619 76.333 37.547 76.333 37.466C76.333 37.385 76.596 37.367 76.917 37.428C77.315 37.502 77.5 37.475 77.5 37.341C77.5 37.216 77.63 37.185 77.854 37.257C78.117 37.34 78.174 37.314 78.077 37.156C77.983 37.005 78.025 36.974 78.223 37.05C78.375 37.108 78.5 37.079 78.5 36.985C78.5 36.891 78.573 36.859 78.662 36.914C78.959 37.098 79.871 36.504 79.755 36.202C79.697 36.051 79.702 35.98 79.768 36.045C79.833 36.11 80.005 36.071 80.151 35.957C80.39 35.771 80.392 35.784 80.176 36.083C80.044 36.267 80.397 35.971 80.962 35.427C81.713 34.704 81.944 34.383 81.819 34.233C81.696 34.085 81.744 33.998 81.991 33.919C82.379 33.796 82.733 33.242 82.581 32.997C82.526 32.907 82.564 32.833 82.667 32.833C82.769 32.833 82.801 32.75 82.738 32.648C82.675 32.546 82.722 32.402 82.843 32.327C83.022 32.217 83.018 32.138 82.823 31.898C82.609 31.636 82.615 31.616 82.875 31.714C83.216 31.841 83.234 31.77 82.981 31.297C82.824 31.004 82.837 30.966 83.064 31.053C83.298 31.143 83.333 30.987 83.331 29.87C83.329 29.103 83.271 28.673 83.187 28.806C83.08 28.975 83.024 28.945 82.955 28.681C82.905 28.489 82.932 28.375 83.016 28.426C83.099 28.478 83.167 28.44 83.167 28.343C83.167 28.246 83.045 28.167 82.896 28.167C82.673 28.167 82.663 28.122 82.837 27.913C82.953 27.773 82.999 27.61 82.94 27.552C82.882 27.493 82.832 27.551 82.831 27.681C82.83 27.81 82.729 27.729 82.608 27.5C82.463 27.226 82.443 27.012 82.548 26.875C82.655 26.736 82.642 26.667 82.511 26.667C82.402 26.667 82.36 26.592 82.417 26.5C82.473 26.408 82.436 26.333 82.333 26.333C82.231 26.333 82.193 26.259 82.249 26.169C82.307 26.074 82.24 26.046 82.092 26.103C81.922 26.168 81.833 26.107 81.833 25.925C81.833 25.757 81.91 25.694 82.026 25.766C82.147 25.841 82.173 25.811 82.095 25.686C82.024 25.571 81.827 25.533 81.632 25.594C81.398 25.669 81.329 25.642 81.41 25.511C81.475 25.405 81.43 25.191 81.309 25.034C81.142 24.818 81.178 24.826 81.461 25.067C82.087 25.602 81.875 25.277 81.103 24.519C80.584 24.01 80.335 23.862 80.244 24.01C80.166 24.137 80.183 24.176 80.289 24.111C80.384 24.052 80.564 24.13 80.689 24.284C80.885 24.525 80.882 24.543 80.667 24.41C80.529 24.325 80.342 24.252 80.25 24.249C80.158 24.245 80.104 24.119 80.129 23.967C80.155 23.816 80.087 23.637 79.979 23.57C79.843 23.487 79.826 23.522 79.923 23.683C80.04 23.877 80.019 23.881 79.798 23.701C79.581 23.525 79.514 23.525 79.431 23.701C79.375 23.82 79.364 23.729 79.407 23.5C79.474 23.133 79.458 23.117 79.273 23.364C78.984 23.749 78.223 23.39 78.306 22.907C78.35 22.646 78.32 22.624 78.147 22.792C78.03 22.906 77.78 22.991 77.592 22.981C77.311 22.965 77.302 22.948 77.542 22.885C77.702 22.843 77.833 22.732 77.833 22.638C77.833 22.544 77.572 22.621 77.252 22.81C76.933 22.998 76.689 23.071 76.711 22.972C76.732 22.873 76.646 22.754 76.518 22.708C76.391 22.661 76.332 22.696 76.386 22.784C76.441 22.872 76.376 22.944 76.243 22.944C76.109 22.944 76 22.887 76 22.817C76 22.636 76.631 22.458 76.832 22.582C76.924 22.64 77 22.607 77 22.51C77 22.215 75.733 22.302 75.479 22.615C75.282 22.857 75.286 22.882 75.508 22.8C75.68 22.735 75.773 22.808 75.789 23.019C75.808 23.272 75.754 23.303 75.515 23.175C75.314 23.067 75.148 23.08 75.001 23.216C74.829 23.375 74.813 23.367 74.923 23.174C75.084 22.893 75.183 22.167 75.061 22.167C75.015 22.167 74.831 22.245 74.652 22.341C74.266 22.548 73.84 22.37 74.191 22.148C74.342 22.053 74.351 22.004 74.218 22.003C74.1554 22.0072 74.0945 22.0258 74.0402 22.0574C73.986 22.0889 73.9397 22.1326 73.905 22.185ZM6.54204 23.948C6.70204 23.99 6.96504 23.99 7.12504 23.948C7.28504 23.906 7.15404 23.872 6.83304 23.872C6.51304 23.872 6.38104 23.906 6.54204 23.948ZM66.415 24.669C66.357 24.763 66.222 24.794 66.113 24.74C66.005 24.686 66.047 24.749 66.206 24.879C66.365 25.01 66.44 25.177 66.372 25.252C66.305 25.326 66.339 25.336 66.448 25.273C66.556 25.211 66.634 25.012 66.621 24.83C66.592 24.455 66.562 24.431 66.415 24.669ZM53.583 25.667C53.373 25.757 53.342 25.81 53.5 25.81C53.637 25.81 53.9 25.745 54.083 25.667C54.293 25.576 54.324 25.523 54.167 25.523C54.029 25.523 53.767 25.588 53.583 25.667ZM26.406 27.375L25.917 27.917L26.458 27.427C26.963 26.971 27.077 26.833 26.948 26.833C26.919 26.833 26.675 27.077 26.406 27.375ZM49.511 34.095C49.956 34.569 49.982 34.579 49.935 34.255C49.888 33.939 49.722 33.778 49.394 33.73C49.198 33.701 49.227 33.793 49.511 34.095ZM26 34.052C26 34.081 26.244 34.325 26.542 34.594L27.083 35.083L26.594 34.542C26.138 34.037 26 33.923 26 34.052ZM50.384 34.72C50.327 34.812 50.367 34.832 50.474 34.766C50.58 34.701 50.667 34.731 50.667 34.833C50.667 34.936 50.742 34.973 50.833 34.917C50.925 34.86 51 34.898 51 35C51 35.102 51.075 35.14 51.167 35.083C51.258 35.027 51.333 34.905 51.333 34.814C51.333 34.722 51.258 34.693 51.167 34.75C51.075 34.807 51 34.786 51 34.704C51 34.502 50.51 34.515 50.384 34.72ZM69.904 35.111C69.921 35.1917 69.9619 35.2654 70.0212 35.3226C70.0806 35.3799 70.1558 35.418 70.237 35.432C70.514 35.473 70.515 35.459 70.239 35.154C69.884 34.763 69.852 34.758 69.904 35.111ZM20.083 41.167C20.535 41.625 20.942 42 20.987 42C21.033 42 20.701 41.625 20.25 41.167C19.799 40.708 19.392 40.333 19.346 40.333C19.3 40.333 19.632 40.708 20.083 41.167ZM15.5 43.385C15.5 43.414 15.744 43.658 16.042 43.927L16.583 44.417L16.094 43.875C15.638 43.37 15.5 43.257 15.5 43.385ZM16.833 44.719C16.833 44.748 17.077 44.991 17.375 45.26L17.917 45.75L17.427 45.208C16.971 44.703 16.833 44.59 16.833 44.719ZM51.353 46.125C51.403 46.442 51.308 46.498 51 46.333C50.757 46.203 50.667 46.207 50.667 46.345C50.667 46.45 50.554 46.492 50.417 46.44C50.279 46.387 50.167 46.424 50.167 46.523C50.167 46.622 50.058 46.661 49.925 46.61C49.753 46.543 49.714 46.598 49.79 46.8C49.886 47.056 49.866 47.059 49.583 46.833C49.297 46.605 49.281 46.61 49.389 46.899C49.49 47.168 49.47 47.183 49.25 47C49.03 46.817 49.01 46.832 49.111 47.101C49.212 47.372 49.192 47.386 48.967 47.203C48.747 47.025 48.62 47.061 48.185 47.427C47.679 47.852 47.459 48.306 47.875 48.066C47.99 48 47.907 48.14 47.691 48.378C47.475 48.615 47.207 48.775 47.097 48.732C46.986 48.69 46.75 48.826 46.573 49.036L46.25 49.417L46.653 49.083L47.057 48.75L46.664 49.292C46.302 49.79 46.01 50.055 46.25 49.667C46.307 49.575 46.313 49.5 46.264 49.5C46.094 49.5 45.654 50.511 45.753 50.672C45.808 50.761 45.771 50.833 45.671 50.833C45.54 50.833 45.539 50.928 45.667 51.167C45.807 51.428 45.793 51.5 45.605 51.5C45.441 51.5 45.394 51.614 45.459 51.859C45.527 52.121 45.495 52.183 45.342 52.089C45.182 51.99 45.164 52.054 45.265 52.354C45.43 52.84 45.424 54.254 45.255 54.877C45.146 55.278 45.169 55.323 45.44 55.227C45.694 55.137 45.712 55.158 45.542 55.342C45.254 55.653 45.281 55.833 45.617 55.833C45.837 55.833 45.856 55.878 45.7 56.033C45.408 56.325 45.456 56.506 45.792 56.38C46.047 56.285 46.055 56.306 45.855 56.552C45.693 56.75 45.684 56.833 45.823 56.833C45.931 56.833 45.973 56.908 45.917 57C45.86 57.092 45.898 57.167 46 57.167C46.102 57.167 46.132 57.254 46.066 57.362C45.987 57.488 46.033 57.523 46.195 57.461C46.341 57.405 46.444 57.459 46.444 57.592C46.444 57.717 46.37 57.773 46.28 57.717C46.184 57.658 46.168 57.701 46.241 57.819C46.31 57.931 46.488 57.976 46.637 57.919C46.785 57.862 46.853 57.869 46.788 57.934C46.723 57.999 46.763 58.172 46.876 58.318C47.063 58.557 47.05 58.559 46.75 58.338C46.501 58.155 46.522 58.218 46.833 58.588C47.392 59.255 47.882 59.656 48.025 59.568C48.09 59.527 48.198 59.582 48.264 59.69C48.34 59.812 48.313 59.84 48.192 59.766C48.087 59.701 48 59.686 48 59.733C48 59.917 49.499 60.687 49.662 60.586C49.756 60.528 49.833 60.564 49.833 60.667C49.833 60.769 49.908 60.807 50 60.75C50.092 60.693 50.167 60.731 50.167 60.835C50.167 60.947 50.301 60.98 50.5 60.917C50.704 60.852 50.833 60.887 50.833 61.007C50.833 61.133 50.983 61.165 51.25 61.098C51.479 61.041 51.667 61.064 51.667 61.151C51.667 61.237 52.06 61.316 52.542 61.327C54.062 61.361 54.5 61.413 54.5 61.559C54.5 61.638 54.612 61.659 54.75 61.606C54.887 61.554 55 61.589 55 61.686C55 61.782 55.093 61.83 55.207 61.792C55.321 61.754 55.518 61.827 55.645 61.955C55.772 62.082 55.983 62.145 56.113 62.095C56.264 62.037 56.307 62.075 56.231 62.197C56.151 62.327 56.205 62.354 56.398 62.28C56.555 62.22 56.645 62.234 56.597 62.311C56.478 62.504 57.311 62.864 57.554 62.725C57.662 62.664 57.694 62.675 57.626 62.75C57.454 62.939 58.123 63.38 58.359 63.234C58.465 63.169 58.509 63.184 58.456 63.269C58.404 63.354 58.626 63.597 58.949 63.808C59.272 64.02 59.485 64.094 59.422 63.972C59.36 63.85 59.471 63.957 59.669 64.209C59.867 64.462 60.099 64.625 60.185 64.572C60.271 64.519 60.324 64.537 60.302 64.613C60.28 64.688 60.84 65.306 61.547 65.986C62.255 66.667 62.833 67.164 62.833 67.091C62.833 67.019 62.948 67.054 63.087 67.17C63.227 67.286 63.309 67.414 63.268 67.454C63.228 67.494 63.674 68.12 64.259 68.844C64.843 69.568 65.439 70.387 65.582 70.664C65.725 70.94 65.915 71.167 66.004 71.167C66.094 71.167 66.148 71.224 66.125 71.295C66.058 71.501 66.702 72.833 66.868 72.833C66.952 72.833 66.983 72.893 66.938 72.966C66.893 73.039 67.001 73.538 67.178 74.075C67.356 74.616 67.5 75.512 67.5 76.083C67.5 76.655 67.356 77.55 67.178 78.091C67.001 78.629 66.893 79.128 66.938 79.201C66.983 79.274 66.949 79.333 66.863 79.333C66.697 79.333 66.227 80.331 66.294 80.542C66.316 80.61 66.26 80.667 66.17 80.667C65.995 80.667 65.243 81.999 65.3 82.208C65.318 82.277 65.267 82.333 65.187 82.333C65.106 82.333 64.718 82.765 64.324 83.292C63.6 84.26 59.911 88.139 59.698 88.156C59.635 88.161 59.096 88.533 58.5 88.983C57.7812 89.5131 57.0297 89.9974 56.25 90.433C55.608 90.781 55.046 91.106 55 91.157C54.9304 91.2179 54.8424 91.2538 54.75 91.259C54.396 91.279 53.667 91.542 53.667 91.649C53.667 91.711 53.535 91.771 53.375 91.783C53.215 91.795 52.746 91.845 52.333 91.894C51.921 91.943 51.115 92.031 50.542 92.088C49.969 92.146 49.5 92.267 49.5 92.356C49.5 92.446 49.43 92.477 49.345 92.424C49.156 92.307 48 92.837 48 93.041C48 93.121 47.932 93.144 47.849 93.093C47.279 92.741 44.219 96.411 44.586 97.005C44.641 97.094 44.608 97.167 44.512 97.167C44.416 97.167 44.336 97.335 44.334 97.542C44.33 98.19 44.229 98.827 44.112 98.943C43.936 99.12 43.981 100.302 44.169 100.418C44.263 100.476 44.299 100.587 44.251 100.664C44.118 100.88 44.505 102.5 44.69 102.5C44.78 102.5 44.815 102.561 44.769 102.635C44.458 103.139 46.662 105.665 48.051 106.396C49.628 107.225 56 106.907 56 105.998C56 105.897 56.067 105.855 56.148 105.905C56.893 106.366 59.269 102.397 59.334 100.583C59.39 98.997 59.409 98.833 59.54 98.833C59.608 98.833 59.654 98.665 59.644 98.458C59.634 98.252 59.741 97.771 59.883 97.39C60.025 97.009 60.097 96.653 60.043 96.598C59.989 96.544 60.036 96.5 60.149 96.5C60.261 96.5 60.307 96.425 60.25 96.333C60.193 96.242 60.231 96.167 60.333 96.167C60.436 96.167 60.473 96.092 60.417 96C60.36 95.908 60.398 95.833 60.5 95.833C60.602 95.833 60.64 95.758 60.583 95.667C60.527 95.575 60.564 95.5 60.667 95.5C60.769 95.5 60.811 95.431 60.759 95.348C60.707 95.264 60.727 95.17 60.802 95.139C60.878 95.108 61.265 94.596 61.662 94C62.058 93.404 62.64 92.598 62.953 92.208C63.266 91.819 63.487 91.5 63.444 91.5C63.401 91.5 63.881 91.002 64.512 90.394C65.142 89.785 65.611 89.211 65.553 89.118C65.496 89.025 65.53 88.999 65.629 89.06C65.729 89.122 65.859 89.094 65.918 88.998C65.977 88.903 66.464 88.459 67.001 88.012C67.538 87.565 67.926 87.143 67.864 87.073C67.801 87.004 67.836 86.996 67.941 87.056C68.047 87.116 68.359 86.959 68.635 86.708C68.911 86.456 69.216 86.232 69.312 86.211C69.408 86.189 69.883 85.921 70.368 85.616C70.853 85.31 71.494 84.963 71.792 84.843C72.09 84.724 72.333 84.548 72.333 84.452C72.333 84.356 72.374 84.319 72.425 84.369C72.475 84.419 72.975 84.317 73.536 84.143C74.098 83.968 75.011 83.818 75.566 83.811C76.121 83.803 76.765 83.718 76.996 83.621C77.227 83.525 77.508 83.461 77.619 83.479C77.915 83.527 79.5 82.691 79.5 82.487C79.5 82.392 79.576 82.361 79.67 82.419C80.09 82.678 82.779 79.224 82.429 78.874C82.378 78.823 82.413 78.688 82.507 78.575C83.157 77.792 82.957 73.167 82.273 73.167C82.184 73.167 82.158 73.12 82.215 73.063C82.771 72.507 79.02 68.765 78.216 69.073C78.097 69.119 78 69.095 78 69.021C78 68.794 76.805 68.524 75.771 68.518C75.232 68.515 74.547 68.431 74.249 68.333C73.95 68.234 73.641 68.169 73.561 68.187C73.482 68.205 73.229 68.142 73 68.047L71.958 67.612C71.615 67.468 71.333 67.384 71.333 67.425C71.333 67.466 71.202 67.383 71.042 67.24C70.881 67.098 70.184 66.622 69.492 66.183C68.6232 65.6115 67.7893 64.9883 66.995 64.317C66.313 63.73 65.679 63.25 65.586 63.25C65.564 63.2501 65.5421 63.2459 65.5217 63.2376C65.5012 63.2293 65.4826 63.217 65.4669 63.2015C65.4513 63.186 65.4388 63.1675 65.4302 63.1472C65.4216 63.1269 65.4172 63.1051 65.417 63.083C65.416 62.782 64.289 61.508 64.117 61.614C64.024 61.671 63.991 61.649 64.044 61.564C64.156 61.383 62.766 59.469 62.608 59.587C62.548 59.631 62.535 59.62 62.577 59.562C62.69 59.407 62.186 58.5 61.986 58.5C61.891 58.5 61.86 58.425 61.917 58.333C61.973 58.242 61.936 58.167 61.833 58.167C61.731 58.167 61.693 58.092 61.75 58C61.807 57.908 61.769 57.833 61.667 57.833C61.564 57.833 61.527 57.758 61.583 57.667C61.64 57.575 61.602 57.5 61.5 57.5C61.398 57.5 61.36 57.425 61.417 57.333C61.473 57.242 61.436 57.167 61.333 57.167C61.231 57.167 61.193 57.092 61.25 57C61.307 56.908 61.276 56.833 61.182 56.833C61.088 56.833 61.05 56.731 61.098 56.605C61.146 56.479 61.073 56.264 60.936 56.127C60.8591 56.0435 60.8049 55.9416 60.7786 55.8311C60.7523 55.7206 60.7549 55.6052 60.786 55.496C60.851 55.248 60.824 55.153 60.708 55.224C60.597 55.293 60.563 55.21 60.618 55C60.666 54.817 60.63 54.667 60.539 54.667C60.435 54.667 60.405 54.253 60.459 53.583C60.521 52.802 60.49 52.5 60.345 52.5C60.22 52.5 60.184 52.374 60.25 52.167C60.315 51.963 60.28 51.833 60.16 51.833C60.052 51.833 60.008 51.721 60.06 51.583C60.122 51.423 60.057 51.333 59.878 51.333C59.662 51.333 59.644 51.289 59.8 51.133C60.057 50.877 60.06 50.61 59.805 50.768C59.671 50.85 59.646 50.795 59.724 50.592C59.811 50.364 59.774 50.32 59.562 50.402C59.321 50.494 59.315 50.472 59.518 50.223C59.724 49.969 59.715 49.951 59.435 50.056C59.155 50.161 59.145 50.142 59.351 49.888C59.55 49.643 59.55 49.623 59.347 49.745C59.171 49.851 59.136 49.819 59.212 49.623C59.336 49.298 58.929 48.926 58.632 49.093C58.459 49.192 58.458 49.171 58.626 48.99C58.944 48.648 57.72 47.417 57.355 47.713C57.155 47.874 57.129 47.874 57.228 47.708C57.418 47.391 57.184 47.111 56.916 47.334C56.746 47.475 56.669 47.437 56.585 47.173C56.525 46.984 56.406 46.872 56.321 46.924C56.236 46.977 56.167 46.936 56.167 46.833C56.167 46.731 56.092 46.693 56 46.75C55.908 46.807 55.833 46.764 55.833 46.656C55.833 46.509 55.77 46.512 55.583 46.667C55.377 46.838 55.333 46.823 55.333 46.583C55.333 46.331 55.296 46.323 55.052 46.521C54.806 46.722 54.785 46.714 54.88 46.458C55.006 46.122 54.936 46.1 54.489 46.339C54.235 46.475 54.167 46.457 54.167 46.256C54.167 46.046 53.913 46 52.75 46C51.971 46 51.342 46.056 51.353 46.125ZM29.111 46.444C28.885 46.671 29.009 46.867 29.251 46.665C29.405 46.538 29.731 46.494 30.088 46.552C30.436 46.608 30.635 46.583 30.577 46.49C30.467 46.312 29.28 46.275 29.111 46.444ZM73.754 47.661C73.69 47.763 73.486 47.798 73.298 47.739C73.073 47.668 72.996 47.693 73.071 47.814C73.138 47.922 73.093 47.961 72.958 47.909C72.383 47.689 70.18 50.026 70.406 50.616C70.45 50.73 70.408 50.871 70.313 50.93C70.217 50.988 70.185 51.216 70.24 51.435C70.296 51.66 70.266 51.833 70.17 51.833C70.076 51.833 70 52.096 70 52.417C70 52.737 70.076 53 70.17 53C70.266 53 70.296 53.174 70.24 53.398C70.185 53.618 70.217 53.845 70.313 53.904C70.408 53.963 70.445 54.115 70.397 54.242C70.348 54.37 70.457 54.624 70.64 54.807C70.823 54.989 70.94 55.171 70.902 55.209C70.767 55.345 72.023 56.505 72.653 56.826C73.358 57.186 73.432 57.197 75.083 57.197C76.647 57.197 76.833 57.174 76.833 56.98C76.833 56.888 76.908 56.86 77 56.917C77.092 56.973 77.167 56.936 77.167 56.833C77.167 56.731 77.235 56.689 77.319 56.741C78.153 57.257 79.896 54.444 79.886 52.6C79.876 50.901 79.849 50.667 79.662 50.667C79.578 50.667 79.553 50.557 79.604 50.423C79.658 50.283 79.496 49.988 79.224 49.729C78.963 49.481 78.862 49.336 79 49.405C79.137 49.475 78.894 49.183 78.458 48.756C78.022 48.33 77.591 48.027 77.5 48.084C77.408 48.14 77.333 48.102 77.333 48C77.333 47.898 77.258 47.86 77.167 47.917C77.075 47.973 77 47.945 77 47.854C77 47.762 76.869 47.678 76.708 47.667C74.13 47.491 73.859 47.49 73.754 47.661ZM58.167 48.25C58.478 48.571 58.695 48.833 58.649 48.833C58.603 48.833 58.311 48.571 58 48.25C57.689 47.929 57.472 47.667 57.518 47.667C57.564 47.667 57.856 47.929 58.167 48.25ZM34.411 48.018C34.576 48.715 34.729 48.978 35.015 49.052C35.45 49.166 35.418 49.5 34.972 49.5C34.332 49.5 34.83 49.741 35.511 49.761C35.873 49.772 36.125 49.736 36.071 49.682C35.9917 49.6187 35.8935 49.5839 35.792 49.583C35.692 49.583 35.576 49.479 35.534 49.352C35.487 49.211 35.531 49.166 35.645 49.237C36 49.456 35.833 49.235 35.095 48.511C34.688 48.112 34.381 47.89 34.411 48.018ZM47.321 48.042C47.178 48.508 47.216 48.667 47.428 48.49C47.557 48.383 47.622 48.229 47.572 48.148C47.485 48.008 47.349 47.95 47.321 48.042ZM35.094 48.708L35.583 49.25L35.042 48.76C34.744 48.491 34.5 48.248 34.5 48.219C34.5 48.09 34.638 48.203 35.094 48.708ZM3.24004 50.542L2.75004 51.083L3.29204 50.594C3.59004 50.325 3.83304 50.081 3.83304 50.052C3.83304 49.923 3.69604 50.037 3.24004 50.542ZM10.167 50.583C10.478 50.904 10.77 51.167 10.815 51.167C10.861 51.167 10.644 50.904 10.333 50.583C10.022 50.262 9.73004 50 9.68504 50C9.63904 50 9.85604 50.262 10.167 50.583ZM34.68 50.143C34.672 50.271 34.561 50.328 34.421 50.275C34.285 50.223 34.105 50.307 34.017 50.464C33.93 50.62 33.811 50.699 33.752 50.641C33.694 50.583 33.461 50.706 33.235 50.916C33.009 51.126 32.32 51.568 31.704 51.899C31.087 52.23 30.171 52.793 29.667 53.15C28.113 54.249 25.138 56.167 24.987 56.167C24.908 56.167 24.89 56.287 24.946 56.434C25.021 56.629 24.966 56.684 24.739 56.641C24.088 56.515 23.378 57.553 23.984 57.745C24.291 57.842 24.042 58.833 23.71 58.833C23.656 58.833 23.66 58.784 23.721 58.724C23.781 58.663 23.747 58.513 23.645 58.39C23.502 58.219 23.522 58.167 23.73 58.167C24.061 58.167 24.086 57.902 23.766 57.779C23.638 57.73 23.394 57.802 23.225 57.94C23.055 58.078 23.01 58.144 23.125 58.086C23.24 58.028 23.343 58.06 23.354 58.157C23.366 58.254 23.386 58.39 23.4 58.458C23.414 58.527 23.819 58.985 24.301 59.475C24.783 59.966 25.157 60.276 25.131 60.164C25.105 60.052 25.219 59.938 25.384 59.911C25.631 59.869 25.649 59.904 25.483 60.104C25.324 60.296 25.327 60.39 25.498 60.549C25.642 60.682 25.679 60.685 25.609 60.559C25.55 60.454 25.623 60.322 25.771 60.265C25.984 60.183 26.02 60.241 25.945 60.539C25.851 60.911 25.854 60.912 26.112 60.583C26.371 60.255 26.374 60.255 26.286 60.625C26.226 60.883 26.258 60.963 26.391 60.88C26.767 60.645 26.974 60.702 26.912 61.025C26.861 61.289 26.915 61.33 27.195 61.241C27.405 61.174 27.594 61.216 27.675 61.346C27.782 61.52 27.865 61.516 28.102 61.323C28.359 61.113 28.384 61.115 28.302 61.333C28.224 61.543 28.432 61.583 29.59 61.583C30.35 61.583 30.969 61.546 30.966 61.5C30.946 61.199 31.033 61.153 31.263 61.344C31.479 61.524 31.549 61.523 31.663 61.34C31.702 61.2797 31.7599 61.2341 31.8276 61.2104C31.8953 61.1867 31.969 61.1862 32.037 61.209C32.168 61.259 32.366 61.152 32.48 60.971C32.646 60.704 32.732 60.68 32.93 60.844C33.134 61.013 33.155 60.995 33.056 60.732C32.948 60.443 32.964 60.438 33.251 60.667C33.502 60.867 33.536 60.87 33.421 60.68C33.315 60.503 33.348 60.47 33.551 60.548C33.7 60.605 33.874 60.569 33.937 60.467C34.006 60.356 33.976 60.329 33.861 60.4C33.737 60.476 33.706 60.425 33.771 60.254C33.842 60.071 33.933 60.042 34.072 60.157C34.215 60.276 34.506 60.078 35.094 59.462C35.547 58.988 35.767 58.709 35.583 58.842C35.284 59.059 35.271 59.057 35.457 58.818C35.571 58.672 35.61 58.499 35.545 58.434C35.48 58.369 35.548 58.362 35.697 58.419C35.845 58.476 36.023 58.431 36.092 58.319C36.178 58.18 36.144 58.154 35.984 58.239C35.855 58.307 35.938 58.199 36.167 58C36.396 57.801 36.497 57.681 36.392 57.735C36.287 57.788 36.161 57.724 36.11 57.594C36.045 57.423 36.122 57.375 36.385 57.422C36.724 57.483 36.729 57.471 36.453 57.263C36.189 57.064 36.186 57.028 36.422 56.938C36.568 56.882 36.644 56.765 36.591 56.679C36.538 56.593 36.571 56.476 36.664 56.418C36.757 56.361 36.833 56.406 36.833 56.518C36.833 56.63 36.882 56.674 36.94 56.615C36.999 56.556 36.943 56.38 36.815 56.223C36.61 55.97 36.618 55.951 36.894 56.054C37.132 56.144 37.18 56.109 37.102 55.905C37.0556 55.7941 37.0214 55.6784 37 55.56C37 55.516 36.906 55.534 36.792 55.6C36.677 55.666 36.752 55.535 36.958 55.308C37.251 54.986 37.333 54.695 37.333 53.987C37.333 53.205 37.281 53.056 36.958 52.915C36.555 52.737 36.522 52.138 36.891 51.677C37.047 51.483 37.028 51.458 36.792 51.547C36.631 51.607 36.5 51.579 36.5 51.485C36.5 51.391 36.413 51.367 36.308 51.433C36.187 51.507 36.16 51.478 36.236 51.356C36.302 51.249 36.421 51.201 36.5 51.25C36.579 51.299 36.691 51.263 36.748 51.169C36.806 51.076 36.776 51 36.682 51C36.588 51 36.553 50.888 36.606 50.751C36.66 50.61 36.587 50.459 36.435 50.401C36.288 50.344 36.22 50.213 36.283 50.108C36.346 50.003 36.265 50.024 36.103 50.156C35.865 50.349 35.782 50.353 35.675 50.18C35.575 50.018 35.459 50.01 35.201 50.148C34.945 50.285 34.839 50.279 34.777 50.124C34.715 49.971 34.69 49.976 34.68 50.143ZM36.833 52.417C36.833 52.646 36.862 52.833 36.897 52.833C36.932 52.833 36.997 52.646 37.041 52.417C37.085 52.188 37.056 52 36.977 52C36.898 52 36.833 52.188 36.833 52.417ZM21.939 53.371C21.787 53.942 21.813 54.199 22.011 54.076C22.109 54.016 22.148 53.857 22.097 53.724C22.046 53.591 22.073 53.525 22.157 53.577C22.413 53.736 22.512 53.384 22.269 53.182C22.089 53.033 22.019 53.074 21.939 53.371ZM37.167 54C37.167 54.367 37.11 54.667 37.042 54.667C36.973 54.667 36.917 54.367 36.917 54C36.917 53.633 36.973 53.333 37.042 53.333C37.11 53.333 37.167 53.633 37.167 54ZM1.70504 54.167C1.70504 54.487 1.74004 54.619 1.78204 54.458C1.82304 54.298 1.82304 54.035 1.78204 53.875C1.74004 53.715 1.70504 53.846 1.70504 54.167ZM22.9 57.25C22.701 57.4 22.665 57.491 22.802 57.495C22.923 57.498 22.967 57.585 22.901 57.692C22.826 57.813 22.855 57.84 22.977 57.764C23.084 57.698 23.129 57.575 23.077 57.49C23.025 57.406 23.099 57.382 23.241 57.436C23.384 57.491 23.5 57.457 23.5 57.361C23.5 57.054 23.225 57.003 22.9 57.25ZM10.313 57.278C10.301 57.308 10.282 57.427 10.271 57.542C10.2641 57.5983 10.2372 57.6503 10.1952 57.6885C10.1531 57.7267 10.0988 57.7485 10.042 57.75C9.86504 57.75 9.77304 57.995 9.90104 58.123C9.92304 58.145 10.144 57.951 10.392 57.693C10.714 57.356 10.77 57.222 10.588 57.222C10.448 57.222 10.324 57.247 10.313 57.278ZM5.96504 58.97C5.80804 59.032 6.16104 59.083 6.75004 59.083C7.33904 59.083 7.69204 59.032 7.53504 58.97C7.37804 58.908 7.02504 58.857 6.75004 58.857C6.47504 58.857 6.12204 58.908 5.96504 58.97ZM61.927 66.042L62.417 66.583L61.875 66.094C61.37 65.638 61.257 65.5 61.385 65.5C61.414 65.5 61.658 65.744 61.927 66.042ZM5.66704 70.133C5.66704 70.207 5.74804 70.348 5.84804 70.448C5.97804 70.578 5.97104 70.665 5.82204 70.757C5.69904 70.833 5.65704 70.816 5.71904 70.717C5.77604 70.624 5.63804 70.464 5.41104 70.361C5.16004 70.247 5.00004 70.237 5.00004 70.337C5.00004 70.427 5.07904 70.5 5.17704 70.5C5.27404 70.5 5.30404 70.58 5.24304 70.678C5.17204 70.793 5.01304 70.75 4.78804 70.553C4.59804 70.386 4.49404 70.338 4.55704 70.446C4.62404 70.562 4.53204 70.687 4.33304 70.75C4.13404 70.813 4.04204 70.938 4.11004 71.054C4.17204 71.162 4.06104 71.107 3.86204 70.933C3.64104 70.739 3.50004 70.694 3.50004 70.817C3.50004 70.929 3.42504 70.973 3.33304 70.917C3.24204 70.86 3.16704 70.898 3.16704 71C3.16704 71.102 3.10404 71.148 3.02804 71.101C2.95104 71.053 2.88904 71.121 2.88904 71.25C2.88904 71.379 2.95104 71.447 3.02804 71.399C3.10404 71.352 3.16704 71.399 3.16704 71.502C3.16704 71.606 3.03504 71.662 2.87504 71.627C2.71504 71.592 2.60404 71.469 2.62904 71.353C2.65404 71.237 2.59404 71.192 2.49604 71.252C2.37104 71.33 2.37704 71.435 2.51604 71.602C2.76004 71.896 2.64104 72.044 2.27504 71.903C2.12504 71.846 2.05004 71.713 2.10804 71.608C2.16704 71.503 1.87304 71.745 1.45404 72.146C0.94304 72.637 0.71504 72.983 0.75704 73.203C0.80304 73.44 0.75004 73.504 0.56804 73.434C0.42504 73.379 0.36004 73.408 0.41804 73.502C0.47404 73.593 0.42904 73.667 0.31704 73.667C0.19104 73.667 0.23304 73.808 0.42804 74.042C0.60004 74.248 0.63404 74.323 0.50404 74.208C0.0420397 73.803 0.00903969 74.036 0.0200397 77.584C0.0280397 80.252 0.0800397 81.138 0.22404 81.052C0.33004 80.988 0.30404 81.077 0.16704 81.249C-0.0619603 81.536 -0.0569603 81.552 0.23204 81.444C0.50104 81.343 0.51604 81.363 0.33304 81.583C0.15104 81.804 0.16504 81.824 0.43504 81.723C0.70404 81.622 0.71904 81.642 0.54004 81.863C0.28504 82.177 0.67704 82.609 1.03404 82.407C1.20704 82.309 1.20904 82.329 1.04204 82.508C0.76004 82.812 1.60904 83.755 1.92704 83.491C2.07504 83.369 2.12504 83.397 2.10704 83.594C2.09404 83.744 2.26804 83.99 2.49304 84.141C2.82804 84.366 2.87604 84.371 2.75704 84.167C2.67704 84.029 2.81504 84.13 3.06204 84.39C3.32204 84.663 3.61604 84.824 3.75604 84.771C3.89004 84.719 4.00004 84.743 4.00004 84.823C4.00004 84.903 4.15004 84.93 4.33304 84.882C4.52704 84.831 4.66704 84.877 4.66704 84.99C4.66704 85.098 4.75004 85.135 4.85204 85.072C4.9031 85.0422 4.96391 85.0338 5.0211 85.0489C5.0783 85.0639 5.1272 85.101 5.15704 85.152C5.24304 85.29 5.40304 85.299 5.71104 85.181C6.01104 85.068 6.16304 85.072 6.20504 85.197C6.23804 85.297 6.71704 85.386 7.28304 85.397C7.85404 85.408 8.25904 85.484 8.20604 85.57C8.15404 85.654 8.23704 85.675 8.38904 85.617C8.54304 85.558 8.66704 85.591 8.66704 85.691C8.66704 85.791 8.81704 85.833 9.00004 85.785C9.18304 85.737 9.33304 85.763 9.33304 85.844C9.33304 85.924 9.45804 85.942 9.61104 85.883C9.81304 85.805 9.85104 85.837 9.75004 86C9.64904 86.163 9.68704 86.195 9.88904 86.117C10.042 86.058 10.167 86.088 10.167 86.182C10.167 86.276 10.242 86.307 10.333 86.25C10.425 86.193 10.5 86.231 10.5 86.333C10.5 86.436 10.575 86.473 10.667 86.417C10.758 86.36 10.833 86.398 10.833 86.5C10.833 86.602 10.908 86.64 11 86.583C11.092 86.527 11.167 86.564 11.167 86.667C11.167 86.769 11.242 86.807 11.333 86.75C11.425 86.693 11.5 86.739 11.5 86.851C11.5 86.964 11.549 87.007 11.609 86.947C11.668 86.887 11.824 86.969 11.954 87.128C12.095 87.299 12.139 87.315 12.063 87.167C11.992 87.029 12.18 87.16 12.48 87.458C12.78 87.756 13.095 88.009 13.179 88.021L13.486 88.063C13.598 88.0907 13.6995 88.1505 13.778 88.235C13.858 88.323 13.829 88.337 13.708 88.267C13.306 88.036 13.505 88.275 14.042 88.667C14.457 88.971 14.525 88.989 14.333 88.747C14.196 88.572 14.796 89.138 15.667 90.004C16.537 90.87 17.325 91.579 17.417 91.581C17.508 91.582 17.583 91.681 17.583 91.801C17.583 91.921 17.771 92.171 18 92.357C18.229 92.543 18.31 92.639 18.18 92.57C18.03 92.491 18.061 92.602 18.263 92.872C18.439 93.107 18.651 93.258 18.734 93.207C18.817 93.157 18.84 93.188 18.785 93.277C18.687 93.435 19.539 94.877 19.68 94.793C19.718 94.769 19.738 94.774 19.724 94.803C19.71 94.833 20.022 95.545 20.418 96.387C21.175 97.999 21.49 99.205 21.515 100.583C21.533 101.584 21.941 103.167 22.181 103.167C22.276 103.167 22.307 103.242 22.25 103.333C22.193 103.425 22.231 103.5 22.333 103.5C22.436 103.5 22.479 103.565 22.43 103.645C22.272 103.901 23.552 105.479 24.475 106.168L25.367 106.833H32.857L33.563 106.347C34.788 105.505 36.376 103.432 36.048 103.104C35.991 103.047 36.02 103 36.113 103C36.687 103 37.109 98.416 36.571 98.028C36.486 97.967 36.396 97.729 36.37 97.5C36.344 97.271 36.25 97.058 36.161 97.027C36.071 96.997 36.04 96.903 36.092 96.819C36.144 96.735 36.102 96.667 36 96.667C35.898 96.667 35.86 96.592 35.917 96.5C35.973 96.408 35.936 96.333 35.833 96.333C35.731 96.333 35.688 96.268 35.737 96.187C36.273 95.32 32.221 92.5 30.438 92.5C29.591 92.5 27.495 92.105 26.542 91.767C26.152 91.628 25.832 91.568 25.831 91.632C25.829 91.697 25.773 91.666 25.706 91.564C25.555 91.334 23.802 90.419 23.613 90.471C23.537 90.491 23.515 90.443 23.564 90.364C23.659 90.21 22.342 89.395 22.113 89.466C22.037 89.489 22.02 89.435 22.076 89.346C22.164 89.203 21.602 88.772 21.306 88.756C21.244 88.753 21.132 88.682 21.056 88.598C20.976 88.512 20.997 88.493 21.105 88.554C21.208 88.613 20.601 87.969 19.756 87.122C18.911 86.276 18.013 85.321 17.76 85C17.507 84.679 17.357 84.529 17.426 84.667C17.501 84.814 17.491 84.86 17.402 84.778C17.3173 84.6995 17.2572 84.598 17.229 84.486L17.188 84.179C17.176 84.095 16.923 83.78 16.625 83.48C16.327 83.18 16.177 82.991 16.292 83.06C16.654 83.279 16.518 83.001 16.042 82.548C15.79 82.308 15.678 82.167 15.793 82.233C15.959 82.329 15.962 82.266 15.81 81.933C15.704 81.7 15.555 81.549 15.478 81.597C15.4 81.645 15.382 81.568 15.436 81.425C15.491 81.283 15.448 81.167 15.341 81.167C15.234 81.167 15.193 81.092 15.25 81C15.307 80.908 15.276 80.833 15.182 80.833C15.088 80.833 15.058 80.709 15.117 80.556C15.195 80.353 15.163 80.316 15 80.417C14.837 80.518 14.805 80.48 14.883 80.277C14.942 80.125 14.924 80 14.844 80C14.763 80 14.737 79.85 14.785 79.667C14.846 79.433 14.79 79.333 14.597 79.333C14.376 79.333 14.356 79.269 14.494 79.011C14.729 78.573 14.713 78.5 14.383 78.5C14.163 78.5 14.144 78.456 14.3 78.3C14.574 78.026 14.552 76.981 14.262 76.568C14.108 76.347 14.078 76.146 14.177 75.99C14.408 75.623 14.363 75.499 14.042 75.62C13.786 75.715 13.778 75.694 13.979 75.448C14.149 75.238 14.155 75.167 14.003 75.167C13.883 75.167 13.84 75.055 13.901 74.898C13.977 74.699 13.933 74.657 13.728 74.735C13.498 74.824 13.487 74.8 13.664 74.587C13.819 74.4 13.823 74.333 13.677 74.333C13.569 74.333 13.535 74.246 13.601 74.138C13.684 74.004 13.627 73.979 13.42 74.059C13.154 74.161 13.146 74.141 13.351 73.888C13.527 73.672 13.53 73.635 13.364 73.735C13.209 73.828 13.16 73.777 13.197 73.562C13.233 73.353 13.147 73.257 12.919 73.254C12.8279 73.2531 12.7398 73.2216 12.6688 73.1644C12.5979 73.1072 12.5483 73.0278 12.528 72.939C12.485 72.717 12.533 72.664 12.692 72.755C12.816 72.826 12.655 72.607 12.336 72.268C11.792 71.692 11.74 71.672 11.522 71.952C11.3 72.236 11.294 72.235 11.397 71.937C11.557 71.477 11.2 71.1 10.863 71.373C10.642 71.552 10.622 71.537 10.723 71.268C10.828 70.988 10.809 70.979 10.556 71.185C10.303 71.391 10.284 71.381 10.389 71.101C10.494 70.821 10.476 70.812 10.223 71.018C9.96904 71.224 9.95104 71.215 10.056 70.935C10.154 70.675 10.132 70.654 9.93504 70.818C9.77004 70.955 9.66304 70.962 9.58704 70.839C9.52604 70.741 9.40704 70.704 9.32204 70.757C9.23604 70.81 9.16704 70.721 9.16704 70.56C9.16704 70.332 9.12204 70.311 8.96704 70.467C8.65604 70.778 8.14504 70.703 8.04804 70.333C7.95904 69.991 5.66704 69.798 5.66704 70.133ZM7.56004 70.417C7.52504 70.508 7.20404 70.583 6.84704 70.583C6.49104 70.583 6.22904 70.533 6.26704 70.473C6.30504 70.412 6.26004 70.337 6.16804 70.306C6.07504 70.275 6.36504 70.25 6.81204 70.25C7.28504 70.25 7.59804 70.32 7.56004 70.417ZM2.33304 72.205C2.33304 72.312 2.25104 72.306 2.11004 72.189C1.94104 72.048 1.80404 72.093 1.53704 72.377C1.18304 72.754 1.16704 72.793 1.16704 73.26C1.16704 73.403 1.09804 73.477 1.01504 73.426C0.76304 73.27 0.91004 72.863 1.40404 72.347C1.84004 71.892 2.33304 71.817 2.33304 72.205ZM12.179 72.29C12.474 72.623 12.489 72.669 12.236 72.457C12.046 72.297 11.852 72.204 11.806 72.25C11.76 72.296 11.722 72.221 11.722 72.083C11.722 71.763 11.706 71.755 12.179 72.29ZM51.083 71.933C50.311 72.124 49.515 72.557 49.615 72.732C49.673 72.833 49.661 72.863 49.588 72.798C49.393 72.621 48.805 72.986 48.938 73.201C49.002 73.305 48.976 73.338 48.877 73.277C48.692 73.163 48.111 73.928 48.111 74.287C48.111 74.404 48.052 74.5 47.979 74.5C47.174 74.5 47.274 78.417 48.099 79.242C48.241 79.384 48.296 79.502 48.22 79.505C48.145 79.508 48.229 79.621 48.407 79.755C48.585 79.89 48.667 80 48.589 80C48.229 80 49.186 80.763 50.083 81.19C51.451 81.841 54.667 81.813 54.667 81.149C54.667 81.056 54.742 81.027 54.833 81.083C54.925 81.14 55 81.102 55 81C55 80.898 55.072 80.858 55.161 80.913C55.454 81.094 56.643 79.667 57.006 78.696C57.394 77.662 57.415 75.166 57.038 75.04C56.936 75.006 56.891 74.877 56.939 74.752C56.987 74.628 56.87 74.37 56.68 74.18C56.489 73.989 56.386 73.833 56.449 73.833C56.758 73.833 55.327 72.584 54.687 72.295C53.969 71.971 51.808 71.754 51.083 71.933ZM27.5 72.51C27.5 72.607 27.425 72.64 27.333 72.583C27.242 72.527 27.167 72.564 27.167 72.667C27.167 72.769 27.092 72.807 27 72.75C26.908 72.693 26.833 72.731 26.833 72.833C26.833 72.936 26.763 72.976 26.677 72.923C26.302 72.691 24.508 74.775 24.748 75.164C24.806 75.257 24.766 75.333 24.659 75.333C24.552 75.333 24.508 75.446 24.56 75.583C24.613 75.721 24.575 75.833 24.477 75.833C24.367 75.833 24.339 76.001 24.405 76.264C24.475 76.543 24.452 76.657 24.34 76.587C24.231 76.52 24.167 76.734 24.167 77.167C24.167 77.599 24.231 77.813 24.34 77.746C24.452 77.676 24.475 77.79 24.405 78.069C24.339 78.333 24.367 78.5 24.477 78.5C24.575 78.5 24.613 78.612 24.56 78.75C24.508 78.887 24.552 79 24.659 79C24.766 79 24.8 79.086 24.734 79.192C24.669 79.298 24.754 79.485 24.923 79.609C25.092 79.732 25.166 79.833 25.087 79.833C25.009 79.833 25.205 80.077 25.524 80.375C25.842 80.673 25.911 80.767 25.678 80.583L25.252 80.25L25.584 80.642C26.044 81.185 27.281 81.885 27.521 81.737C27.631 81.669 27.674 81.686 27.619 81.776C27.558 81.874 28.184 81.936 29.25 81.936C30.202 81.936 30.943 81.876 30.898 81.803C30.853 81.73 30.919 81.71 31.046 81.759C31.678 82.001 34.171 79.518 33.929 78.888C33.882 78.766 33.898 78.667 33.964 78.667C34.029 78.667 34.083 77.992 34.083 77.167C34.083 76.342 34.023 75.667 33.948 75.667C33.874 75.667 33.858 75.594 33.913 75.506C34.279 74.913 31.748 72.224 31.163 72.585C31.073 72.641 31 72.625 31 72.55C31 72.475 30.4 72.392 29.667 72.366C28.687 72.33 28.333 72.373 28.333 72.525C28.333 72.687 28.289 72.689 28.133 72.533C27.886 72.286 27.5 72.272 27.5 72.51ZM26.333 73.219C26.333 73.248 26.09 73.491 25.792 73.76L25.25 74.25L25.74 73.708C26.196 73.203 26.333 73.09 26.333 73.219ZM19.583 87.167C20.035 87.625 20.367 88 20.321 88C20.275 88 19.868 87.625 19.417 87.167C18.965 86.708 18.633 86.333 18.679 86.333C18.725 86.333 19.132 86.708 19.583 87.167ZM74.167 94.677C74.167 94.774 74.103 94.814 74.026 94.766C73.792 94.622 72.655 95.004 72.557 95.259C72.506 95.391 72.405 95.461 72.331 95.416C72.258 95.37 71.853 95.716 71.432 96.185C70.752 96.941 70.579 97.277 70.647 97.708C70.658 97.777 70.584 97.833 70.482 97.833C70.381 97.833 70.34 97.943 70.392 98.078C70.443 98.213 70.414 98.367 70.326 98.421C69.582 98.881 70.423 101.757 71.667 103C72.91 104.243 75.785 105.085 76.246 104.341C76.3 104.253 76.454 104.223 76.589 104.275C76.723 104.327 76.833 104.286 76.833 104.184C76.833 104.083 76.89 104.009 76.958 104.02C78.135 104.205 79.879 101.988 80.113 100.008C80.215 99.147 79.905 97.5 79.64 97.5C79.552 97.5 79.527 97.425 79.583 97.333C79.64 97.242 79.602 97.167 79.5 97.167C79.398 97.167 79.358 97.095 79.412 97.007C79.686 96.564 77.576 94.849 76.68 94.786C76.398 94.766 76.167 94.694 76.167 94.625C76.167 94.556 75.717 94.5 75.167 94.5C74.574 94.5 74.167 94.572 74.167 94.677ZM4.66704 95.859C4.66704 95.931 4.56204 95.949 4.43404 95.9C4.30504 95.851 4.15004 95.892 4.08904 95.991C4.02704 96.091 3.90604 96.128 3.81904 96.074C3.60504 95.942 2.69704 96.522 2.08304 97.181C1.80804 97.476 1.69604 97.657 1.83304 97.582C1.97104 97.507 1.87004 97.648 1.61004 97.896C1.32604 98.165 1.17504 98.447 1.23304 98.598C1.29504 98.762 1.26204 98.809 1.13604 98.731C1.00804 98.652 0.97804 98.703 1.04804 98.884C1.10504 99.034 1.08004 99.2 0.99304 99.254C0.78304 99.384 0.78504 102 0.99504 102C1.08404 102 1.11304 102.112 1.06004 102.25C1.00804 102.388 1.05204 102.5 1.15904 102.5C1.26604 102.5 1.30704 102.575 1.25004 102.667C1.19304 102.758 1.23104 102.833 1.33304 102.833C1.43604 102.833 1.47304 102.908 1.41704 103C1.36004 103.092 1.39804 103.167 1.50004 103.167C1.60204 103.167 1.64404 103.235 1.59204 103.319C1.35204 103.707 3.57304 105.514 3.98104 105.262C4.06704 105.208 4.16804 105.255 4.20504 105.366C4.29604 105.637 7.20104 105.647 7.29104 105.376C7.32604 105.271 7.44504 105.22 7.55604 105.263C7.88604 105.389 9.28204 104.401 9.81704 103.662C10.961 102.084 10.936 98.779 9.77204 97.777C9.57704 97.609 9.52904 97.526 9.66704 97.594C9.80404 97.661 9.65804 97.443 9.34204 97.108C8.74904 96.48 8.55904 96.347 8.76704 96.708C8.83404 96.823 8.68504 96.703 8.43804 96.443C8.18504 96.177 7.88304 96.009 7.74904 96.061C7.61804 96.111 7.46304 96.075 7.40504 95.981C7.34704 95.887 7.19504 95.851 7.06604 95.9C6.93804 95.949 6.83304 95.931 6.83304 95.859C6.83304 95.788 6.34604 95.729 5.75004 95.729C5.15404 95.729 4.66704 95.788 4.66704 95.859Z" fill="white"/>
<path fill-rule="evenodd" clip-rule="evenodd" d="M284.667 22.789C284.346 22.827 283.915 23.016 283.708 23.208L283.333 23.558V32.918C283.333 38.066 283.284 42.327 283.225 42.387C283.165 42.446 282.712 42.264 282.218 41.982C279.468 40.408 275.528 39.715 270.382 39.9C267.768 39.994 267.219 40.069 265.083 40.627C257.115 42.707 253.926 49.687 254.402 64C254.587 69.55 254.982 72.231 256.08 75.389C257.06 78.207 259.245 80.628 262.083 82.042C267.809 84.894 278.672 84.533 283.153 81.343C283.804 80.88 283.806 80.881 283.936 81.858C284.144 83.432 284.545 83.558 289.067 83.473L292.029 83.417L292.833 82.481V53.023C292.833 20.176 292.954 23.048 291.569 22.821C290.74 22.685 285.741 22.662 284.667 22.789ZM132.917 25.005C122.662 26.42 118.526 30.11 117.417 38.833C116.354 47.195 118.756 53.472 124 56.037C127.601 57.797 129.053 58.039 137.667 58.314C152.013 58.773 152.899 59.2 152.902 65.667C152.905 71.711 151.258 73.556 145.008 74.513C143.264 74.78 134.633 74.61 133.167 74.28C128.805 73.298 127.408 71.898 127.083 68.181C126.886 65.924 127.059 66 122.12 66C116.902 66 116.872 66.023 117.324 69.726C118.198 76.892 121.375 80.632 128.312 82.661C132.208 83.801 139.647 84.337 144.5 83.828C155.793 82.643 160.664 78.893 162.678 69.833C163.033 68.241 163.08 63.067 162.757 61.201C161.656 54.836 158.728 51.607 152.5 49.889C151.032 49.484 149.528 49.342 144.917 49.176C138.949 48.961 133.864 48.661 133.167 48.484C132.779 48.3937 132.382 48.3434 131.984 48.334C128.837 48.329 127.167 46.124 127.167 41.974C127.167 37.325 128.349 35.463 131.833 34.62C134.217 34.044 134.795 34 139.929 34C150.372 34 152.132 34.999 152.923 41.378C153.084 42.675 153.283 42.74 157.263 42.804C162.826 42.893 162.817 42.902 162.185 37.833C161.327 30.958 156.811 26.682 149 25.347C144.423 24.564 137.218 24.411 132.917 25.005ZM227.25 39.944C224.938 40.085 221.403 41.23 219.808 42.355C219.161 42.811 219.053 42.751 218.955 41.882C218.803 40.53 218.707 40.5 214.557 40.5C210.987 40.5 210.985 40.5 210.576 40.909L210.167 41.318V82.515L210.565 82.913C211.359 83.708 218.412 83.789 219.237 83.013L219.667 82.609L219.668 72.013C219.669 56.705 219.986 53.825 221.927 51.519C224.625 48.311 233.247 47.851 235.822 50.777C237.07 52.194 237.053 51.977 237.158 68.205L237.25 82.493L238.174 83.417L241.566 83.47C245.248 83.529 246.188 83.399 246.539 82.786C246.842 82.257 246.834 56.16 246.531 53.167C245.468 42.687 240.308 39.149 227.25 39.944ZM335.083 39.998C326.433 40.889 321.851 44.786 320.479 52.417C318.979 60.76 319.739 71.505 322.179 76.47C325.167 82.547 334.057 85.252 345.333 83.515C352.603 82.395 357.049 77.644 357.079 70.963C357.087 69.263 357.051 69.25 352.513 69.25C348.101 69.25 348.194 69.219 347.866 70.806C347.249 73.794 345.178 74.859 339.788 74.962C331.027 75.129 329.41 73.069 329.421 61.75C329.425 57.431 329.485 56.667 330.032 54C330.81 50.203 333.247 48.838 339.25 48.838C345.014 48.838 348 50.488 348 53.671C348 54.493 348.445 54.583 352.513 54.583C357.054 54.583 357.092 54.569 357.072 52.871C357 46.594 353.623 42.471 347.083 40.674C344.678 40.013 338.379 39.658 335.083 39.998ZM378.75 39.997C369.379 40.839 364.015 45.341 364.003 52.375C363.999 54.592 363.804 54.5 368.508 54.5H372.348L372.758 54.091C372.983 53.866 373.167 53.505 373.167 53.288C373.167 50.055 375.551 48.73 381.694 48.548C388.983 48.333 390.999 49.59 391.282 54.53L391.366 55.976L384.724 56.058C378.425 56.137 375.183 56.304 373.5 56.639C367.366 57.859 364.227 60.736 363.092 66.178C362.788 67.635 362.735 72.497 363.011 73.564C363.912 77.045 364.907 78.827 366.838 80.417C369.901 82.94 373.359 83.887 379.583 83.905C384.854 83.921 387.888 83.333 390.77 81.739L391.79 81.174L391.883 81.863C392.073 83.28 392.39 83.408 395.862 83.472C397.524 83.503 399.135 83.481 399.442 83.423L400 83.318V66.091C400 46.629 400.085 47.927 398.67 45.755C396.765 42.831 393.963 41.267 388.667 40.172C387.522 39.935 380.764 39.816 378.75 39.997ZM166.798 40.676C166.413 40.901 166.169 41.86 166.327 42.533C166.455 43.081 166.98 44.493 173.67 62.25C179.858 78.677 180.833 81.318 180.833 81.642C180.833 81.925 179.964 84.289 178.252 88.667C173.838 99.949 173.722 99.083 179.649 99.083C184.722 99.083 184.068 99.532 185.847 94.833C187.99 89.173 188.362 88.191 190.166 83.417L192.749 76.583C193.684 74.1114 194.618 71.6394 195.551 69.167C196.606 66.371 198.306 61.871 199.33 59.167C207.279 38.158 207.101 40.5 200.742 40.5C195.661 40.5 196.432 39.844 194.278 46C193.589 47.971 192.6 50.783 192.081 52.25C190.825 55.804 189.573 59.3597 188.326 62.917C186.654 67.697 186.149 69.084 186.04 69.194C185.971 69.262 185.137 67.128 184.185 64.451C183.233 61.774 182.171 58.796 181.823 57.833C181.296 56.3626 180.773 54.8906 180.254 53.417C179.816 52.1645 179.371 50.9144 178.918 49.667C178.698 49.071 178.097 47.383 177.582 45.917C176.026 41.486 175.971 41.349 175.539 40.917L175.121 40.5L171.102 40.505C168.742 40.508 166.966 40.579 166.798 40.676ZM302.789 40.708C302.177 41.174 302.167 41.513 302.167 61.933C302.167 84.031 302.115 82.942 303.174 83.311C304.012 83.603 310.025 83.564 310.749 83.261C311.609 82.902 311.583 83.569 311.583 61.722V41.36L310.775 40.5H306.919C304.092 40.5 302.991 40.556 302.789 40.708ZM275.006 49.074C280.798 49.805 282.549 51.762 283.213 58.25C283.863 64.597 282.923 70.567 280.947 72.639C278.144 75.578 269.716 75.93 266.52 73.242C263.105 70.368 263.058 53.804 266.457 50.82C268.288 49.212 271.272 48.603 275.006 49.074ZM391.362 66.25C391.331 67.167 391.244 68.179 391.168 68.5C391.091 68.821 390.938 69.496 390.827 70C390.252 72.609 388.691 74.141 385.917 74.817C385.416 74.9387 384.916 75.0654 384.417 75.197C383.464 75.45 377.413 75.435 376.581 75.177C374.8 74.626 374.456 74.484 373.924 74.077C372.055 72.652 371.943 67.609 373.745 66.027C374.382 65.467 375.918 64.841 376.715 64.817C377.037 64.8036 377.357 64.753 377.667 64.666C377.896 64.592 381.083 64.543 384.75 64.557L391.417 64.583L391.362 66.25ZM61.333 65.552C61.333 65.581 61.577 65.825 61.875 66.094L62.417 66.583L61.927 66.042C61.471 65.537 61.333 65.423 61.333 65.552ZM71.548 103.05C71.751 103.261 71.947 103.411 71.985 103.384C72.082 103.315 71.476 102.667 71.313 102.667C71.239 102.667 71.345 102.839 71.548 103.05ZM57.24 105.042L56.75 105.583L57.292 105.094C57.797 104.638 57.91 104.5 57.781 104.5C57.752 104.5 57.509 104.744 57.24 105.042Z" fill="white"/>
<path fill-rule="evenodd" clip-rule="evenodd" d="M26.756 1.363C25.943 1.792 24.106 3.6 24.249 3.831C24.306 3.924 24.287 4 24.207 4C23.803 4 23.004 6.397 23.002 7.617C22.994 11.188 19.769 16.13 14.833 20.133C13.963 20.839 13.195 21.492 13.128 21.583C13.06 21.675 13.004 21.689 13.003 21.614C13.001 21.539 12.776 21.637 12.502 21.832C10.906 22.968 7.83604 24 6.04904 24C4.07104 24 0.97804 26.155 0.26104 28.032C-0.12596 29.045 -0.0669603 34.751 0.33304 35.004C0.47104 35.091 0.52304 35.163 0.44904 35.164C0.37504 35.166 0.45004 35.399 0.61604 35.683C0.99804 36.339 2.97304 38.203 3.16204 38.086C3.24104 38.038 3.33104 38.077 3.36404 38.175C3.39604 38.272 3.53404 38.37 3.67004 38.392C3.80604 38.414 4.08504 38.525 4.29204 38.639C4.49804 38.752 4.66704 38.796 4.66704 38.735C4.66704 38.675 4.76504 38.707 4.88504 38.807C5.00504 38.907 5.96204 39.096 7.01004 39.228C9.07404 39.486 10.185 39.801 11.292 40.439C11.681 40.664 12.001 40.788 12.003 40.715C12.004 40.643 12.06 40.663 12.128 40.76C12.195 40.856 12.816 41.324 13.507 41.798C15.079 42.877 17.023 44.659 18.171 46.073C18.654 46.668 19.125 47.109 19.217 47.052C19.31 46.995 19.334 47.031 19.27 47.135C19.118 47.38 19.99 48.693 20.213 48.555C20.311 48.494 20.335 48.53 20.268 48.637C20.119 48.879 20.465 49.541 20.673 49.413C20.761 49.358 20.782 49.44 20.72 49.602C20.639 49.811 20.669 49.851 20.831 49.752C20.971 49.665 21.012 49.68 20.942 49.793C20.798 50.026 20.993 50.524 21.182 50.407C21.263 50.357 21.28 50.445 21.22 50.602C21.139 50.811 21.169 50.851 21.331 50.752C21.474 50.663 21.512 50.68 21.437 50.8C21.208 51.171 21.509 51.866 21.796 51.629C22.023 51.442 22.031 51.461 21.861 51.781C21.614 52.244 21.617 52.335 21.875 52.272C21.99 52.244 22.027 52.253 21.958 52.291C21.784 52.389 21.802 53.461 21.98 53.571C22.06 53.621 22.09 53.985 22.045 54.381C21.974 55.009 22.014 55.126 22.357 55.305C22.573 55.418 22.619 55.473 22.458 55.427C22.149 55.339 22.04 55.736 22.326 55.912C22.414 55.966 22.438 56.133 22.381 56.283C22.306 56.479 22.338 56.517 22.497 56.418C22.645 56.327 22.678 56.346 22.598 56.476C22.371 56.844 22.656 57.351 22.989 57.172C23.293 57.01 23.5 57.093 23.5 57.379C23.5 57.465 23.395 57.495 23.266 57.446C22.91 57.309 23.055 58.129 23.458 58.532L23.792 58.866L24.047 58.356C24.285 57.879 24.281 57.839 23.984 57.745C23.378 57.553 24.088 56.515 24.739 56.641C24.966 56.684 25.021 56.629 24.946 56.434C24.89 56.287 24.908 56.167 24.987 56.167C25.138 56.167 28.113 54.249 29.667 53.15C30.171 52.793 31.087 52.23 31.704 51.899C32.32 51.568 33.009 51.126 33.235 50.916C33.461 50.706 33.689 50.578 33.741 50.63C33.794 50.683 33.954 50.581 34.097 50.404C34.241 50.228 34.311 50.177 34.253 50.292C34.108 50.578 34.257 50.553 34.571 50.238C34.715 50.094 34.833 50.054 34.833 50.15C34.833 50.245 34.958 50.275 35.111 50.216C35.312 50.139 35.351 50.17 35.252 50.331C35.16 50.479 35.179 50.512 35.31 50.431C35.418 50.365 35.462 50.24 35.41 50.155C35.357 50.07 35.393 50 35.49 50C35.587 50 35.667 50.07 35.667 50.156C35.667 50.242 35.811 50.302 35.987 50.288C36.237 50.27 36.274 50.201 36.154 49.977C36.05 49.781 35.864 49.713 35.577 49.766C35.344 49.808 35.025 49.763 34.868 49.665C34.645 49.527 34.718 49.504 35.208 49.559C35.56 49.599 35.833 49.557 35.833 49.464C35.833 49.372 35.712 49.344 35.565 49.401C35.38 49.471 35.324 49.431 35.385 49.273C35.497 48.98 34.262 47.755 34.011 47.91C33.905 47.975 33.845 47.93 33.871 47.804C33.896 47.682 33.787 47.594 33.627 47.606C33.467 47.619 33.373 47.57 33.418 47.499C33.527 47.322 33.014 47.138 32.793 47.275C32.693 47.337 32.664 47.307 32.726 47.206C33.017 46.735 29.722 46.28 29.184 46.717C28.979 46.883 28.957 46.864 29.054 46.606C29.153 46.343 29.109 46.312 28.762 46.399C28.538 46.455 28.31 46.431 28.257 46.344C28.203 46.258 28.009 46.216 27.825 46.252C27.613 46.293 27.532 46.249 27.605 46.132C27.68 46.01 27.597 45.979 27.359 46.042C27.161 46.093 27.037 46.075 27.082 46.002C27.201 45.81 26.717 45.658 26.389 45.784C26.224 45.847 26.154 45.822 26.216 45.722C26.348 45.509 25.209 44.957 24.947 45.107C24.839 45.169 24.806 45.159 24.874 45.083C25.034 44.906 24.385 44.448 24.166 44.584C24.075 44.64 24 44.587 24 44.467C24 44.19 23.375 43.788 23.156 43.923C23.066 43.979 23.012 43.937 23.038 43.83C23.063 43.723 22.937 43.549 22.759 43.443C21.886 42.924 17.833 38.942 17.833 38.603C17.833 38.579 17.422 37.934 16.918 37.169C16.415 36.404 15.849 35.365 15.659 34.859C15.47 34.353 15.266 33.86 15.207 33.764C15.075 33.55 15.044 33.372 14.905 32C14.322 26.261 24.247 16.205 31.027 15.666C31.912 15.596 32.736 15.477 32.857 15.402C32.978 15.327 33.204 15.256 33.358 15.245C34.951 15.128 37.456 12.316 38.106 9.917C38.656 7.883 37.657 3.333 36.66 3.333C36.572 3.333 36.5 3.229 36.5 3.103C36.5 2.976 36.294 2.738 36.042 2.574C35.79 2.411 35.485 2.138 35.364 1.969C34.621 0.927997 28.411 0.490997 26.756 1.363ZM48.733 1.473C46.823 2.862 44.868 7.01 45.581 8.162C45.648 8.271 45.739 8.708 45.783 9.134C45.897 10.225 46.668 11.826 47.523 12.746C48.277 13.557 49.665 14.616 49.669 14.383C49.671 14.31 49.727 14.335 49.794 14.439C50.014 14.778 51.553 15.199 53.083 15.339C55.051 15.519 55.527 15.654 57.279 16.521C59.153 17.448 59.069 17.416 58.913 17.147C58.834 17.011 58.842 16.974 58.932 17.056C59.015 17.132 59.083 17.276 59.083 17.375C59.083 17.474 59.188 17.59 59.315 17.633C59.473 17.686 59.504 17.637 59.413 17.48C59.334 17.344 59.342 17.307 59.432 17.389C59.515 17.465 59.583 17.589 59.583 17.664C59.583 17.909 61.542 19.327 61.732 19.219C61.833 19.161 61.862 19.173 61.796 19.247C61.655 19.403 63.801 21.668 64.042 21.617C64.132 21.599 64.228 21.718 64.256 21.883C64.327 22.309 64.673 22.682 64.878 22.556C64.981 22.492 65.001 22.53 64.928 22.648C64.791 22.871 65.131 23.375 65.333 23.25C65.404 23.206 65.452 23.301 65.44 23.46C65.427 23.62 65.502 23.734 65.605 23.715C65.709 23.696 65.784 23.808 65.772 23.965C65.76 24.122 65.849 24.229 65.971 24.204C66.092 24.179 66.144 24.235 66.086 24.329C65.918 24.6 66.162 24.878 66.397 24.683C66.54 24.564 66.604 24.61 66.622 24.845C66.635 25.026 66.574 25.129 66.486 25.075C66.398 25.02 66.489 25.312 66.689 25.723C66.888 26.134 67.14 26.436 67.248 26.394C67.356 26.353 67.444 26.431 67.444 26.569C67.444 26.706 67.369 26.772 67.277 26.715C67.176 26.653 67.154 26.727 67.222 26.903C67.283 27.063 67.333 27.228 67.333 27.269C67.333 27.311 67.469 27.273 67.634 27.184C68.068 26.952 68.465 27.224 68.185 27.561C68.008 27.774 68.028 27.81 68.309 27.789C68.493 27.775 68.607 27.705 68.562 27.632C68.517 27.559 68.56 27.5 68.657 27.5C68.754 27.5 68.833 27.575 68.833 27.667C68.833 27.758 68.918 27.833 69.02 27.833C69.155 27.833 69.153 27.767 69.012 27.598C68.889 27.45 68.878 27.326 68.98 27.262C69.0226 27.2353 69.0739 27.2264 69.1229 27.2372C69.172 27.2481 69.2148 27.2778 69.242 27.32C69.384 27.55 69.978 27.469 69.887 27.233C69.803 27.014 73.493 24.5 73.898 24.5C73.9699 24.4977 74.0403 24.4793 74.104 24.446C74.1677 24.4128 74.2231 24.3656 74.266 24.308C74.34 24.188 74.312 24.16 74.192 24.234C74.079 24.304 74 24.248 74 24.098C74 23.93 74.093 23.88 74.277 23.95C74.505 24.038 74.532 23.986 74.429 23.653C74.3605 23.4306 74.3198 23.2005 74.308 22.968C74.31 22.778 74.219 22.715 74.031 22.775C73.791 22.852 73.786 22.839 74 22.685C74.17 22.563 74.183 22.504 74.042 22.503C73.927 22.501 73.833 22.416 73.833 22.313C73.833 22.176 73.895 22.177 74.062 22.316C74.1303 22.3685 74.21 22.4041 74.2946 22.4199C74.3793 22.4357 74.4664 22.4313 74.549 22.407C74.874 22.282 75.223 22.862 74.992 23.141C74.881 23.276 74.891 23.286 75.026 23.174C75.147 23.074 75.327 23.074 75.515 23.175C75.754 23.303 75.808 23.272 75.789 23.019C75.773 22.808 75.68 22.735 75.508 22.8C75.29 22.881 75.284 22.854 75.468 22.628C75.653 22.399 75.641 22.367 75.384 22.409C75.219 22.435 75.008 22.4 74.917 22.331C74.588 22.081 73.279 21.944 73.421 22.174C73.507 22.312 73.484 22.343 73.356 22.264C73.249 22.198 73.2 22.082 73.246 22.006C73.37 21.807 72.929 21.675 72.474 21.776C72.175 21.842 72.14 21.822 72.325 21.693C72.59 21.506 71.827 21.215 71.333 21.315C71.196 21.342 71.139 21.308 71.207 21.239C71.366 21.078 70.717 20.616 70.511 20.743C70.426 20.796 70.302 20.751 70.236 20.644C70.156 20.514 70.194 20.489 70.349 20.57C70.478 20.637 70.435 20.572 70.255 20.425C70.074 20.279 69.831 20.196 69.715 20.24C69.599 20.285 69.522 20.23 69.544 20.119C69.565 20.008 69.453 19.927 69.293 19.94C69.134 19.952 69.039 19.904 69.083 19.833C69.209 19.631 68.704 19.291 68.482 19.428C68.36 19.503 68.325 19.481 68.394 19.37C68.529 19.152 67.847 18.638 67.614 18.783C67.523 18.839 67.498 18.805 67.558 18.708C67.618 18.611 67.294 18.219 66.838 17.837C63.527 15.065 60.834 10.088 60.833 6.74C60.833 5.044 59.566 2.733 58.011 1.592L57.205 0.999997H49.383L48.733 1.473ZM75.873 2.118C75.665 2.158 75.534 2.253 75.581 2.33C75.628 2.406 75.517 2.43 75.333 2.381C75.149 2.333 74.898 2.377 74.775 2.479C74.653 2.581 74.503 2.614 74.443 2.554C74.383 2.494 74.333 2.536 74.333 2.649C74.333 2.761 74.271 2.815 74.195 2.768C73.97 2.628 72.384 4.363 72.098 5.062C71.624 6.218 71.831 9.561 72.356 9.236C72.433 9.188 72.454 9.259 72.402 9.394C72.302 9.654 73.32 10.892 73.881 11.192C74.113 11.317 74.175 11.315 74.095 11.185C74.025 11.072 74.08 11.041 74.24 11.103C74.382 11.157 74.462 11.26 74.418 11.331C74.286 11.545 75.214 11.839 75.722 11.744C76.023 11.687 76.155 11.717 76.087 11.828C76.02 11.936 76.236 12 76.667 12C77.097 12 77.313 11.936 77.246 11.828C77.179 11.718 77.311 11.687 77.612 11.742C78.194 11.848 78.708 11.702 78.565 11.47C78.497 11.36 78.587 11.338 78.812 11.41C79.069 11.491 79.167 11.452 79.167 11.266C79.167 11.124 79.263 11.048 79.386 11.094C79.603 11.178 80.288 10.564 80.208 10.358C80.185 10.298 80.248 10.25 80.347 10.25C80.661 10.25 81.013 9.633 80.827 9.409C80.707 9.264 80.76 9.181 81.018 9.114C81.296 9.041 81.358 8.926 81.295 8.598C81.251 8.366 81.279 8.216 81.357 8.265C81.515 8.362 81.532 8.277 81.59 7.125C81.612 6.69 81.571 6.333 81.497 6.333C81.424 6.333 81.407 6.172 81.459 5.974C81.516 5.754 81.487 5.655 81.384 5.719C81.282 5.782 81.243 5.674 81.286 5.449C81.596 3.828 78.116 1.687 75.873 2.118ZM5.83304 3.381C5.51304 3.481 5.21204 3.605 5.16704 3.656C5.12104 3.708 4.97604 3.773 4.84504 3.802C2.82504 4.24 1.65804 8.168 2.84504 10.535C3.26204 11.367 3.98804 12.193 4.19204 12.068C4.27004 12.02 4.33304 12.064 4.33304 12.166C4.33304 13.01 8.11404 13.386 9.50004 12.68C10.355 12.244 11.363 11.349 11.234 11.14C11.186 11.063 11.224 11 11.319 11C11.91 11 12.32 8.15 11.973 6.46C11.769 5.465 9.93504 3.481 9.47904 3.763C9.39904 3.812 9.33304 3.788 9.33304 3.708C9.33304 3.312 6.81304 3.077 5.83304 3.381ZM63 20.417C63.311 20.737 63.528 21 63.482 21C63.436 21 63.144 20.737 62.833 20.417C62.522 20.096 62.305 19.833 62.351 19.833C62.397 19.833 62.689 20.096 63 20.417ZM76.208 22.62C75.922 22.722 75.946 22.944 76.243 22.944C76.376 22.944 76.441 22.872 76.386 22.784C76.332 22.696 76.391 22.661 76.518 22.708C76.5801 22.7304 76.6322 22.7742 76.6648 22.8316C76.6975 22.889 76.7085 22.9562 76.696 23.021C76.655 23.199 76.688 23.206 76.846 23.051C76.958 22.94 77.252 22.892 77.504 22.942C77.762 22.994 78.011 22.951 78.077 22.843C78.16 22.71 78.054 22.684 77.722 22.757C77.373 22.833 77.314 22.816 77.494 22.69C77.744 22.515 76.668 22.457 76.208 22.62ZM78.262 22.981C78.161 23.145 78.427 23.392 78.875 23.552C79.048 23.614 79.171 23.574 79.178 23.453C79.185 23.341 79.255 23.4 79.333 23.583C79.412 23.767 79.482 23.814 79.488 23.688C79.498 23.494 79.543 23.494 79.782 23.688C79.98 23.848 80.026 23.854 79.937 23.706C79.686 23.287 78.413 22.736 78.262 22.981ZM80.09 23.988C80.038 24.074 80.071 24.191 80.164 24.248C80.257 24.306 80.333 24.302 80.333 24.239C80.333 24.177 80.465 24.227 80.625 24.352C80.862 24.536 80.858 24.508 80.599 24.205C80.239 23.783 80.222 23.776 80.09 23.988ZM304.5 24.995C299.822 26.703 300.605 34.292 305.557 35.24C310.341 36.155 313.559 32.351 311.939 27.693C311.054 25.148 307.557 23.879 304.5 24.995ZM81.309 25.034C81.43 25.191 81.48 25.397 81.421 25.493C81.362 25.588 81.389 25.667 81.48 25.667C81.824 25.667 81.813 25.367 81.457 25.064C81.17 24.819 81.138 24.813 81.309 25.034ZM52.333 25.627C52.333 25.723 52.202 25.769 52.042 25.728C51.664 25.633 50.238 26.359 50.29 26.621C50.311 26.731 50.232 26.784 50.112 26.738C49.823 26.627 49.266 27.257 49.426 27.515C49.506 27.644 49.482 27.675 49.362 27.601C49.099 27.439 48.477 28.499 48.603 28.895C48.662 29.082 48.635 29.167 48.537 29.106C48.446 29.05 48.326 29.172 48.271 29.377C48.115 29.959 48.149 30.803 48.333 30.917C48.3819 30.951 48.4221 30.9959 48.4506 31.0481C48.4791 31.1004 48.495 31.1585 48.497 31.218C48.496 31.341 48.427 31.321 48.316 31.167C48.176 30.971 48.158 31.007 48.233 31.333C48.286 31.563 48.33 31.811 48.331 31.885C48.332 31.959 48.421 31.965 48.528 31.899C48.661 31.817 48.688 31.871 48.613 32.067C48.443 32.51 48.938 33.346 49.293 33.213C49.538 33.121 49.551 33.144 49.373 33.364C49.052 33.758 50.395 34.959 50.793 34.635C51.027 34.446 51.047 34.458 50.944 34.732C50.839 35.012 50.858 35.021 51.111 34.815C51.361 34.612 51.383 34.618 51.289 34.869C51.205 35.093 51.316 35.193 51.799 35.327C52.613 35.553 54.167 35.551 54.167 35.323C54.167 35.226 54.241 35.193 54.331 35.249C54.563 35.392 56.046 34.71 55.926 34.515C55.872 34.428 55.916 34.302 56.023 34.236C56.145 34.16 56.174 34.187 56.099 34.308C55.868 34.682 56.277 34.493 56.737 34.014C57.02 33.718 57.153 33.446 57.076 33.321C56.993 33.187 57.017 33.158 57.145 33.237C57.438 33.418 58.019 31.967 58.126 30.79C58.2 29.972 58.167 29.763 57.942 29.637C57.79 29.553 57.668 29.393 57.669 29.283C57.671 29.161 57.735 29.18 57.833 29.333C58.088 29.727 58.038 29.246 57.753 28.566C57.618 28.241 57.439 28.018 57.356 28.07C57.272 28.121 57.215 28.033 57.227 27.873C57.24 27.714 57.159 27.601 57.048 27.623C56.936 27.645 56.885 27.559 56.934 27.432C57.031 27.179 56.366 26.627 56.135 26.769C56.056 26.818 56.012 26.768 56.038 26.658C56.063 26.548 55.979 26.42 55.852 26.374C55.697 26.318 55.664 26.361 55.753 26.504C55.84 26.646 55.819 26.677 55.69 26.598C55.582 26.531 55.539 26.406 55.593 26.318C55.647 26.231 55.417 26.045 55.083 25.906C54.312 25.584 52.333 25.383 52.333 25.627ZM29.333 25.946C25.225 26.639 23.615 31.706 26.611 34.516C29.123 36.872 33.255 36.032 34.615 32.89C34.921 32.182 35.016 29.968 34.764 29.417C34.6999 29.2806 34.6419 29.1415 34.59 29C34.451 28.49 34.283 28.167 34.155 28.167C34.07 28.167 34 28.061 34 27.931C34 27.023 30.862 25.688 29.333 25.946ZM82.47 26.919C82.413 26.976 82.467 27.219 82.591 27.458C82.715 27.697 82.778 27.954 82.732 28.03C82.685 28.105 82.726 28.167 82.823 28.167C83.037 28.167 83.032 28.074 82.775 27.365C82.665 27.062 82.528 26.861 82.47 26.919ZM67.683 27.397C67.485 27.635 67.598 28.167 67.846 28.167C67.925 28.167 67.947 28.298 67.896 28.458C67.821 28.689 67.837 28.701 67.969 28.515C68.161 28.244 68.05 27.833 67.784 27.833C67.684 27.833 67.741 27.732 67.91 27.609C68.098 27.471 68.15 27.343 68.044 27.277C67.949 27.218 67.786 27.273 67.683 27.397ZM68.111 30.444C68.05 30.506 68 30.781 68 31.056C68 31.677 68.188 31.525 68.268 30.84C68.329 30.318 68.303 30.253 68.111 30.444ZM68.278 31.569C68.144 31.92 68.399 32.717 68.676 32.808C68.883 32.876 68.884 32.848 68.683 32.605C68.555 32.449 68.456 32.099 68.464 31.828C68.479 31.288 68.419 31.204 68.278 31.569ZM81.833 34C81.696 34.089 81.649 34.163 81.729 34.164C81.809 34.166 81.771 34.294 81.645 34.449C81.492 34.638 81.485 34.69 81.624 34.606C81.81 34.494 82.248 33.83 82.131 33.836C82.105 33.837 81.971 33.911 81.833 34ZM69.639 34.779C69.9 35.264 70.649 35.913 70.606 35.618C70.558 35.294 70.196 34.861 69.793 34.645C69.517 34.497 69.496 34.515 69.639 34.779ZM48.926 47.056C48.663 47.248 48.659 47.278 48.895 47.278C49.044 47.278 49.167 47.211 49.167 47.129C49.167 47.047 49.253 47.034 49.359 47.099C49.478 47.173 49.506 47.145 49.433 47.026C49.285 46.787 49.294 46.786 48.926 47.056ZM57.243 47.693C57.172 47.816 57.177 47.859 57.254 47.788C57.439 47.621 58.684 48.836 58.551 49.053C58.493 49.146 58.533 49.166 58.641 49.099C58.897 48.941 58.93 48.998 58.103 48.186C57.557 47.65 57.34 47.525 57.243 47.693ZM47.24 48.345C46.841 48.786 47.234 48.878 47.645 48.439C47.922 48.144 47.948 48.056 47.754 48.056C47.615 48.056 47.384 48.186 47.24 48.345ZM34.907 48.657C35.277 49.043 35.31 49.129 35.063 49.065C34.891 49.02 34.663 48.799 34.557 48.575C34.313 48.056 34.338 48.062 34.907 48.657ZM46.635 49.125C46.341 49.467 46.121 49.833 46.209 49.833C46.243 49.833 46.437 49.608 46.64 49.333C47.042 48.79 47.038 48.655 46.635 49.125ZM5.02404 49.494C4.12604 49.8 2.41804 51.233 2.60104 51.528C2.64804 51.604 2.61304 51.667 2.52304 51.667C2.30204 51.667 1.94504 52.784 2.06604 53.099C2.12104 53.242 2.09204 53.307 1.99804 53.249C1.73804 53.088 1.80104 54.831 2.09004 55.803C2.24404 56.321 2.44204 56.667 2.58504 56.667C2.71604 56.667 2.78504 56.767 2.73804 56.889C2.62104 57.193 4.11904 58.554 4.43604 58.432C4.57304 58.38 4.64204 58.405 4.59004 58.488C4.43704 58.736 5.67604 59.069 6.75004 59.069C7.82404 59.069 9.06304 58.736 8.91004 58.488C8.85804 58.405 8.94504 58.387 9.10204 58.447C9.29504 58.521 9.34904 58.494 9.26904 58.364C9.19504 58.244 9.23404 58.203 9.37304 58.256C9.49604 58.303 9.81804 58.103 10.09 57.812C10.361 57.52 10.478 57.342 10.349 57.417C10.191 57.508 10.154 57.488 10.236 57.356C10.302 57.249 10.425 57.204 10.509 57.256C10.724 57.389 11.357 56.31 11.27 55.958C11.23 55.798 11.258 55.703 11.331 55.749C11.556 55.888 11.667 55.362 11.667 54.158C11.667 50.653 8.38604 48.349 5.02404 49.494ZM59.067 49.534C59.214 49.759 59.278 50.006 59.209 50.082C59.14 50.158 59.177 50.166 59.292 50.1C59.517 49.971 59.331 49.454 58.982 49.239C58.881 49.177 58.919 49.31 59.067 49.534ZM36.217 51.387C36.16 51.479 36.2 51.499 36.308 51.433C36.413 51.367 36.5 51.398 36.5 51.5C36.5 51.602 36.575 51.64 36.667 51.583C36.758 51.527 36.833 51.422 36.833 51.351C36.833 51.164 36.337 51.193 36.217 51.387ZM36.745 51.917L36.596 52.396C36.525 52.631 36.792 53 37.033 53C37.107 53 37.159 52.794 37.15 52.542L37.133 52.083L36.986 52.5C36.863 52.846 36.85 52.81 36.909 52.292C36.98 51.661 36.889 51.454 36.745 51.917ZM45.177 53.569C45.171 54.295 45.21 54.845 45.264 54.792C45.423 54.633 45.466 52.945 45.321 52.583C45.237 52.372 45.184 52.731 45.177 53.569ZM22.403 53.522C22.272 53.734 22 53.531 22 53.22C22 53.008 22.046 52.998 22.248 53.165C22.385 53.278 22.454 53.439 22.403 53.522ZM36.917 54C36.917 54.367 36.973 54.667 37.042 54.667C37.11 54.667 37.167 54.367 37.167 54C37.167 53.633 37.11 53.333 37.042 53.333C36.973 53.333 36.917 53.633 36.917 54ZM36.812 55.449C36.686 55.604 36.671 55.678 36.777 55.614C36.8007 55.5986 36.8276 55.5887 36.8556 55.5851C36.8837 55.5816 36.9121 55.5843 36.9389 55.5933C36.9658 55.6022 36.9902 55.6171 37.0105 55.6368C37.0308 55.6565 37.0463 55.6805 37.056 55.707C37.102 55.822 37.146 55.748 37.154 55.542C37.169 55.093 37.113 55.077 36.812 55.449ZM36.721 56.11C36.781 56.17 36.747 56.32 36.645 56.443C36.508 56.608 36.509 56.667 36.646 56.667C36.749 56.667 36.833 56.635 36.833 56.597C36.833 56.559 36.879 56.409 36.934 56.264C36.994 56.108 36.948 56 36.823 56C36.707 56 36.66 56.049 36.721 56.11ZM36.333 57C36.152 57.117 36.143 57.162 36.302 57.164C36.421 57.166 36.473 57.243 36.415 57.336C36.357 57.429 36.241 57.463 36.157 57.411C36.073 57.359 36.048 57.432 36.103 57.575C36.24 57.93 36.287 57.906 36.583 57.333C36.849 56.82 36.772 56.717 36.333 57ZM24 58.018C24 58.1 23.878 58.167 23.73 58.167C23.544 58.167 23.505 58.235 23.605 58.383C23.685 58.502 23.616 58.452 23.451 58.272C23.23 58.031 23.205 57.913 23.353 57.821C23.587 57.677 24 57.802 24 58.018ZM7.12704 58.948C6.9068 58.9902 6.68065 58.9912 6.46004 58.951C6.25304 58.911 6.38304 58.877 6.75004 58.875C7.11704 58.874 7.28604 58.906 7.12704 58.948ZM23.939 58.963C23.887 59.048 24.021 59.285 24.238 59.488C24.454 59.692 24.675 59.789 24.727 59.703C24.78 59.618 24.646 59.382 24.429 59.178C24.212 58.975 23.992 58.878 23.939 58.963ZM34.33 59.921C34.214 60.06 34.086 60.142 34.046 60.101C34.005 60.061 33.826 60.174 33.647 60.353C33.468 60.532 33.249 60.634 33.161 60.58C33.072 60.525 33 60.564 33 60.667C33 60.769 32.933 60.812 32.852 60.762C32.771 60.711 32.606 60.789 32.485 60.935C32.287 61.173 32.33 61.173 32.915 60.928C33.745 60.581 34.969 59.667 34.604 59.667C34.569 59.667 34.446 59.781 34.33 59.921ZM24.833 59.93C24.833 60.155 25.321 60.299 25.471 60.119C25.612 59.948 25.562 59.9 25.243 59.9C25.018 59.9 24.833 59.913 24.833 59.93ZM25.683 60.321C25.507 60.432 25.618 60.553 26.135 60.817C26.948 61.232 26.944 61.231 26.944 60.932C26.944 60.793 26.819 60.721 26.639 60.755C26.44 60.794 26.332 60.715 26.331 60.532C26.329 60.304 26.3 60.295 26.181 60.483C26.059 60.675 26.024 60.668 25.975 60.445C25.935 60.26 25.844 60.221 25.683 60.321ZM29.544 61.62C29.797 61.658 30.172 61.657 30.377 61.617C30.582 61.578 30.375 61.546 29.917 61.548C29.458 61.549 29.291 61.581 29.544 61.62ZM5.46404 70.39C5.67304 70.506 5.78504 70.665 5.71404 70.744C5.64204 70.822 5.68104 70.831 5.80004 70.762C6.08004 70.6 5.75004 70.164 5.35504 70.173C5.15804 70.177 5.18804 70.237 5.46404 70.39ZM6.16804 70.306C6.26004 70.337 6.30504 70.412 6.26704 70.473C6.22904 70.533 6.49104 70.583 6.84704 70.583C7.20404 70.583 7.52504 70.508 7.56004 70.417C7.59804 70.32 7.28504 70.25 6.81204 70.25C6.36504 70.25 6.07504 70.275 6.16804 70.306ZM8.06804 70.371C8.12204 70.639 8.65004 70.75 8.86204 70.538C8.96404 70.436 8.89804 70.345 8.67704 70.288C8.48804 70.238 8.37504 70.266 8.42604 70.349C8.47804 70.432 8.44604 70.5 8.35704 70.5C8.26804 70.5 8.15604 70.423 8.11004 70.329C8.06304 70.235 8.04404 70.254 8.06804 70.371ZM4.20804 70.52C3.58104 70.701 3.57304 70.717 3.94904 71.021C4.10404 71.147 4.18104 71.167 4.12104 71.066C4.05904 70.964 4.19004 70.8 4.41604 70.697C4.67604 70.579 4.85804 70.571 4.92204 70.676C4.95134 70.7193 4.99641 70.7494 5.04762 70.7598C5.09884 70.7703 5.15211 70.7603 5.19604 70.732C5.30704 70.663 5.28904 70.574 5.14304 70.482C4.88204 70.317 4.91704 70.315 4.20804 70.52ZM9.16704 70.677C9.16704 70.774 9.23604 70.81 9.32204 70.757C9.40704 70.704 9.52504 70.739 9.58304 70.833C9.64204 70.928 9.76004 70.962 9.84504 70.91C9.93004 70.857 10 70.898 10 71C10 71.102 10.075 71.14 10.167 71.083C10.258 71.027 10.333 71.064 10.333 71.167C10.333 71.269 10.408 71.307 10.5 71.25C10.592 71.193 10.667 71.239 10.667 71.351C10.667 71.464 10.716 71.506 10.776 71.446C10.837 71.386 11.001 71.429 11.142 71.543C11.346 71.709 11.372 71.708 11.27 71.538C10.985 71.063 9.16704 70.318 9.16704 70.677ZM2.78804 71.182C2.46804 71.369 2.54604 71.667 2.91604 71.667C3.04304 71.667 3.13504 71.518 3.12104 71.333C3.11468 71.2233 3.10434 71.1139 3.09004 71.005L2.78804 71.182ZM1.37104 72.379C0.41104 73.35 0.34104 73.491 0.83304 73.454C1.01704 73.44 1.16704 73.333 1.16704 73.215C1.16704 72.799 1.19004 72.747 1.53704 72.377C1.80404 72.093 1.94104 72.048 2.11004 72.189C2.25704 72.311 2.33304 72.315 2.33304 72.201C2.33304 72.106 2.24004 71.985 2.12504 71.932C2.01004 71.879 2.09404 71.881 2.31104 71.936C2.59004 72.006 2.68504 71.972 2.63404 71.82C2.49204 71.394 2.22804 71.511 1.37104 72.379ZM11.419 71.829C11.354 71.935 11.345 72.067 11.4 72.122C11.455 72.177 11.5 72.13 11.5 72.018C11.5 71.906 11.576 71.861 11.669 71.918C11.763 71.976 11.788 72.112 11.726 72.22C11.664 72.328 11.675 72.36 11.751 72.291C11.904 72.153 12.5 72.623 12.5 72.882C12.5 72.972 12.692 73.223 12.926 73.44C13.165 73.661 13.3 73.919 13.234 74.026C13.16 74.146 13.189 74.173 13.31 74.098C13.575 73.934 13.13 73.197 12.233 72.316C11.773 71.865 11.499 71.701 11.419 71.829ZM25.74 73.708L25.25 74.25L25.792 73.76C26.297 73.304 26.41 73.167 26.281 73.167C26.252 73.167 26.009 73.41 25.74 73.708ZM34.053 77.167C34.053 77.762 34.084 78.006 34.121 77.708C34.158 77.3479 34.158 76.9851 34.121 76.625C34.084 76.327 34.053 76.571 34.053 77.167ZM0.26104 81.483C0.21004 81.565 0.29904 81.775 0.45904 81.949C0.61904 82.123 0.69404 82.18 0.62604 82.076C0.55804 81.971 0.55204 81.837 0.61304 81.776C0.67304 81.716 0.63004 81.667 0.51804 81.667C0.40604 81.667 0.36004 81.592 0.41704 81.5C0.47304 81.408 0.48204 81.333 0.43604 81.333C0.39104 81.333 0.31104 81.401 0.26104 81.483ZM0.93304 82.474C0.88504 82.551 1.09704 82.857 1.40404 83.155C1.80604 83.544 1.99804 83.638 2.09004 83.489C2.16604 83.367 2.15004 83.324 2.05104 83.385C1.85104 83.509 0.94704 82.609 1.10904 82.447C1.17104 82.384 1.17704 82.333 1.12104 82.333C1.06504 82.333 0.98104 82.396 0.93304 82.474ZM19.417 87.167C19.868 87.625 20.275 88 20.321 88C20.367 88 20.035 87.625 19.583 87.167C19.132 86.708 18.725 86.333 18.679 86.333C18.633 86.333 18.965 86.708 19.417 87.167Z" fill="white"/>
</svg>
