<svg xmlns="http://www.w3.org/2000/svg" width="1007" height="669"><defs xmlns="http://www.w3.org/1999/xhtml"><style type="text/css">text.nonterminal,text.terminal{font-family:-apple-system,BlinkMacSystemFont,&quot;Segoe UI&quot;,Roboto,Ubuntu,Cantarell,Helvetica,sans-serif;font-size:12px}text.terminal{fill:#fff;font-weight:700}text.nonterminal{fill:#e289a4;font-weight:400}.line{fill:none;stroke:#636273}polygon,rect{fill:none;stroke:none}rect.terminal{fill:none;stroke:#be2f5b}rect.nonterminal{fill:rgba(255,255,255,.1);stroke:none}</style></defs><polygon points="9 17 1 13 1 21"/><polygon points="17 17 9 13 9 21"/><rect x="31" y="3" width="72" height="32" rx="10"/><rect x="29" y="1" width="72" height="32" class="terminal" rx="10"/><text class="terminal" x="39" y="21">CREATE</text><rect x="123" y="3" width="62" height="32" rx="10"/><rect x="121" y="1" width="62" height="32" class="terminal" rx="10"/><text class="terminal" x="131" y="21">TABLE</text><rect x="225" y="35" width="34" height="32" rx="10"/><rect x="223" y="33" width="34" height="32" class="terminal" rx="10"/><text class="terminal" x="233" y="53">IF</text><rect x="279" y="35" width="48" height="32" rx="10"/><rect x="277" y="33" width="48" height="32" class="terminal" rx="10"/><text class="terminal" x="287" y="53">NOT</text><rect x="347" y="35" width="70" height="32" rx="10"/><rect x="345" y="33" width="70" height="32" class="terminal" rx="10"/><text class="terminal" x="355" y="53">EXISTS</text><a xmlns:xlink="http://www.w3.org/1999/xlink" xlink:href="#tableName" xlink:title="tableName"><rect x="457" y="3" width="88" height="32"/><rect x="455" y="1" width="88" height="32" class="nonterminal"/><text class="nonterminal" x="465" y="21">tableName</text></a><rect x="176" y="145" width="26" height="32" rx="10"/><rect x="174" y="143" width="26" height="32" class="terminal" rx="10"/><text class="terminal" x="184" y="163">(</text><a xmlns:xlink="http://www.w3.org/1999/xlink" xlink:href="#columnName" xlink:title="columnName"><rect x="242" y="145" width="102" height="32"/><rect x="240" y="143" width="102" height="32" class="nonterminal"/><text class="nonterminal" x="250" y="163">columnName</text></a><a xmlns:xlink="http://www.w3.org/1999/xlink" xlink:href="#typeDef" xlink:title="typeDef"><rect x="364" y="145" width="70" height="32"/><rect x="362" y="143" width="70" height="32" class="nonterminal"/><text class="nonterminal" x="372" y="163">typeDef</text></a><rect x="242" y="101" width="24" height="32" rx="10"/><rect x="240" y="99" width="24" height="32" class="terminal" rx="10"/><text class="terminal" x="250" y="119">,</text><rect x="474" y="145" width="26" height="32" rx="10"/><rect x="472" y="143" width="26" height="32" class="terminal" rx="10"/><text class="terminal" x="482" y="163">)</text><rect x="176" y="211" width="38" height="32" rx="10"/><rect x="174" y="209" width="38" height="32" class="terminal" rx="10"/><text class="terminal" x="184" y="229">AS</text><rect x="234" y="211" width="26" height="32" rx="10"/><rect x="232" y="209" width="26" height="32" class="terminal" rx="10"/><text class="terminal" x="242" y="229">(</text><a xmlns:xlink="http://www.w3.org/1999/xlink" xlink:href="#selectSql" xlink:title="selectSql"><rect x="280" y="211" width="76" height="32"/><rect x="278" y="209" width="76" height="32" class="nonterminal"/><text class="nonterminal" x="288" y="229">selectSql</text></a><rect x="376" y="211" width="26" height="32" rx="10"/><rect x="374" y="209" width="26" height="32" class="terminal" rx="10"/><text class="terminal" x="384" y="229">)</text><rect x="462" y="211" width="24" height="32" rx="10"/><rect x="460" y="209" width="24" height="32" class="terminal" rx="10"/><text class="terminal" x="470" y="229">,</text><a xmlns:xlink="http://www.w3.org/1999/xlink" xlink:href="#castDef" xlink:title="castDef"><rect x="506" y="211" width="68" height="32"/><rect x="504" y="209" width="68" height="32" class="nonterminal"/><text class="nonterminal" x="514" y="229">castDef</text></a><rect x="674" y="211" width="24" height="32" rx="10"/><rect x="672" y="209" width="24" height="32" class="terminal" rx="10"/><text class="terminal" x="682" y="229">,</text><a xmlns:xlink="http://www.w3.org/1999/xlink" xlink:href="#indexDef" xlink:title="indexDef"><rect x="718" y="211" width="76" height="32"/><rect x="716" y="209" width="76" height="32" class="nonterminal"/><text class="nonterminal" x="726" y="229">indexDef</text></a><rect x="45" y="309" width="92" height="32" rx="10"/><rect x="43" y="307" width="92" height="32" class="terminal" rx="10"/><text class="terminal" x="53" y="327">timestamp</text><rect x="157" y="309" width="26" height="32" rx="10"/><rect x="155" y="307" width="26" height="32" class="terminal" rx="10"/><text class="terminal" x="165" y="327">(</text><a xmlns:xlink="http://www.w3.org/1999/xlink" xlink:href="#columnRef" xlink:title="columnRef"><rect x="203" y="309" width="86" height="32"/><rect x="201" y="307" width="86" height="32" class="nonterminal"/><text class="nonterminal" x="211" y="327">columnRef</text></a><rect x="309" y="309" width="26" height="32" rx="10"/><rect x="307" y="307" width="26" height="32" class="terminal" rx="10"/><text class="terminal" x="317" y="327">)</text><rect x="375" y="341" width="98" height="32" rx="10"/><rect x="373" y="339" width="98" height="32" class="terminal" rx="10"/><text class="terminal" x="383" y="359">PARTITION</text><rect x="493" y="341" width="38" height="32" rx="10"/><rect x="491" y="339" width="38" height="32" class="terminal" rx="10"/><text class="terminal" x="501" y="359">BY</text><rect x="571" y="341" width="58" height="32" rx="10"/><rect x="569" y="339" width="58" height="32" class="terminal" rx="10"/><text class="terminal" x="579" y="359">NONE</text><rect x="669" y="373" width="74" height="32" rx="10"/><rect x="667" y="371" width="74" height="32" class="terminal" rx="10"/><text class="terminal" x="677" y="391">BYPASS</text><rect x="763" y="373" width="50" height="32" rx="10"/><rect x="761" y="371" width="50" height="32" class="terminal" rx="10"/><text class="terminal" x="771" y="391">WAL</text><rect x="591" y="417" width="56" height="32" rx="10"/><rect x="589" y="415" width="56" height="32" class="terminal" rx="10"/><text class="terminal" x="599" y="435">YEAR</text><rect x="591" y="461" width="70" height="32" rx="10"/><rect x="589" y="459" width="70" height="32" class="terminal" rx="10"/><text class="terminal" x="599" y="479">MONTH</text><rect x="591" y="505" width="48" height="32" rx="10"/><rect x="589" y="503" width="48" height="32" class="terminal" rx="10"/><text class="terminal" x="599" y="523">DAY</text><rect x="591" y="549" width="60" height="32" rx="10"/><rect x="589" y="547" width="60" height="32" class="terminal" rx="10"/><text class="terminal" x="599" y="567">HOUR</text><rect x="741" y="481" width="74" height="32" rx="10"/><rect x="739" y="479" width="74" height="32" class="terminal" rx="10"/><text class="terminal" x="749" y="499">BYPASS</text><rect x="855" y="449" width="50" height="32" rx="10"/><rect x="853" y="447" width="50" height="32" class="terminal" rx="10"/><text class="terminal" x="863" y="467">WAL</text><rect x="541" y="635" width="58" height="32" rx="10"/><rect x="539" y="633" width="58" height="32" class="terminal" rx="10"/><text class="terminal" x="549" y="653">WITH</text><a xmlns:xlink="http://www.w3.org/1999/xlink" xlink:href="#tableParameter" xlink:title="tableParameter"><rect x="619" y="635" width="118" height="32"/><rect x="617" y="633" width="118" height="32" class="nonterminal"/><text class="nonterminal" x="627" y="653">tableParameter</text></a><a xmlns:xlink="http://www.w3.org/1999/xlink" xlink:href="#tableTargetVolumeDef" xlink:title="tableTargetVolumeDef"><rect x="797" y="635" width="162" height="32"/><rect x="795" y="633" width="162" height="32" class="nonterminal"/><text class="nonterminal" x="805" y="653">tableTargetVolumeDef</text></a><path class="line" d="M17 17h2m0 0h10m72 0h10m0 0h10m62 0h10m20 0h10m0 0h202m-232 0h20m212 0h20m-252 0q10 0 10 10m232 0q0-10 10-10M203 27v12m232 0V27M203 39q0 10 10 10m212 0q10 0 10-10M213 49h10m34 0h10m0 0h10m48 0h10m0 0h10m70 0h10m20-32h10m88 0h10m2 0h2m2 0h2m2 0h2M132 159h2m2 0h2m2 0h2m22 0h10m26 0h10m20 0h10m102 0h10m0 0h10m70 0h10m-232 0h20m-1 0q-9 0-9-10v-24q0-10 10-10m212 44h20m-20 0q10 0 10-10v-24q0-10-10-10m-212 0h10m24 0h10m0 0h168m20 44h10m26 0h10m0 0h334m-698 0h20m678 0h20m-718 0q10 0 10 10m698 0q0-10 10-10m-708 10v46m698 0v-46m-698 46q0 10 10 10m678 0q10 0 10-10m-688 10h10m38 0h10m0 0h10m26 0h10m0 0h10m76 0h10m0 0h10m26 0h10m40 0h10m24 0h10m0 0h10m68 0h10m-152 0h20m-1 0q-9 0-9-10v-12q0-10 10-10m132 32h20m-20 0q10 0 10-10v-12q0-10-10-10m-132 0h10m0 0h122m-172 32h20m172 0h20m-212 0q10 0 10 10m192 0q0-10 10-10m-202 10v14m192 0v-14m-192 14q0 10 10 10m172 0q10 0 10-10m-182 10h10m0 0h162m60-34h10m24 0h10m0 0h10m76 0h10m-160 0h20m-1 0q-9 0-9-10v-12q0-10 10-10m140 32h20m-20 0q10 0 10-10v-12q0-10-10-10m-140 0h10m0 0h130m-180 32h20m180 0h20m-220 0q10 0 10 10m200 0q0-10 10-10m-210 10v14m200 0v-14m-200 14q0 10 10 10m180 0q10 0 10-10m-190 10h10m0 0h170m42-100h2m2 0h2m2 0h2M1 291h2m2 0h2m2 0h2m22 0h10m0 0h930m-960 0h20m940 0h20m-980 0q10 0 10 10m960 0q0-10 10-10M23 301v12m960 0v-12M23 313q0 10 10 10m940 0q10 0 10-10M33 323h10m92 0h10m0 0h10m26 0h10m0 0h10m86 0h10m0 0h10m26 0h10m20 0h10m0 0h580m-610 0h20m590 0h20m-630 0q10 0 10 10m610 0q0-10 10-10m-620 10v12m610 0v-12m-610 12q0 10 10 10m590 0q10 0 10-10m-600 10h10m98 0h10m0 0h10m38 0h10m20 0h10m58 0h10m20 0h10m0 0h154m-184 0h20m164 0h20m-204 0q10 0 10 10m184 0q0-10 10-10m-194 10v12m184 0v-12m-184 12q0 10 10 10m164 0q10 0 10-10m-174 10h10m74 0h10m0 0h10m50 0h10m20-32h92m-394 0h20m374 0h20m-414 0q10 0 10 10m394 0q0-10 10-10m-404 10v56m394 0v-56m-394 56q0 10 10 10m374 0q10 0 10-10m-364 10h10m56 0h10m0 0h14m-110 0h20m90 0h20m-130 0q10 0 10 10m110 0q0-10 10-10m-120 10v24m110 0v-24m-110 24q0 10 10 10m90 0q10 0 10-10m-100 10h10m70 0h10m-100-10v20m110 0v-20m-110 20v24m110 0v-24m-110 24q0 10 10 10m90 0q10 0 10-10m-100 10h10m48 0h10m0 0h22m-100-10v20m110 0v-20m-110 20v24m110 0v-24m-110 24q0 10 10 10m90 0q10 0 10-10m-100 10h10m60 0h10m0 0h10m40-132h10m0 0h194m-224 0h20m204 0h20m-244 0q10 0 10 10m224 0q0-10 10-10m-234 10v12m224 0v-12m-224 12q0 10 10 10m204 0q10 0 10-10m-194 10h10m0 0h84m-114 0h20m94 0h20m-134 0q10 0 10 10m114 0q0-10 10-10m-124 10v12m114 0v-12m-114 12q0 10 10 10m94 0q10 0 10-10m-104 10h10m74 0h10m20-32h10m50 0h10m82-172h2m2 0h2m2 0h2M497 617h2m2 0h2m2 0h2m22 0h10m0 0h206m-236 0h20m216 0h20m-256 0q10 0 10 10m236 0q0-10 10-10m-246 10v12m236 0v-12m-236 12q0 10 10 10m216 0q10 0 10-10m-226 10h10m58 0h10m0 0h10m118 0h10m40-32h10m0 0h172m-202 0h20m182 0h20m-222 0q10 0 10 10m202 0q0-10 10-10m-212 10v12m202 0v-12m-202 12q0 10 10 10m182 0q10 0 10-10m-192 10h10m162 0h10m23-32h-3"/><polygon points="997 617 1005 613 1005 621"/><polygon points="997 617 989 613 989 621"/></svg>