<svg xmlns="http://www.w3.org/2000/svg" width="800" height="80"><defs><style type="text/css">@namespace &quot;http://www.w3.org/2000/svg&quot;;text.terminal{font-family:-apple-system,BlinkMacSystemFont,&quot;Segoe UI&quot;,Roboto,Ubuntu,Cantarell,Helvetica,sans-serif;font-size:12px;fill:#fff;font-weight:700}polygon,rect{fill:none;stroke:none}rect.terminal{fill:none;stroke:#be2f5b}</style></defs><polygon points="9 17 1 13 1 21"/><polygon points="17 17 9 13 9 21"/><rect x="31" y="3" width="72" height="32" rx="10"/><rect x="29" y="1" width="72" height="32" class="terminal" rx="10"/><text class="terminal" x="39" y="21">CREATE</text><rect x="123" y="3" width="62" height="32" rx="10"/><rect x="121" y="1" width="62" height="32" class="terminal" rx="10"/><text class="terminal" x="131" y="21">TABLE</text><rect x="225" y="35" width="26" height="32" rx="10"/><rect x="223" y="33" width="26" height="32" class="terminal" rx="10"/><text class="terminal" x="233" y="53">(</text><rect x="271" y="35" width="52" height="32" rx="10"/><rect x="269" y="33" width="52" height="32" class="terminal" rx="10"/><text class="terminal" x="279" y="53">LIKE</text><a xmlns:xlink="http://www.w3.org/1999/xlink" xlink:href="#sourceTableName" xlink:title="sourceTableName"><rect x="343" y="35" width="132" height="32"/><rect x="341" y="33" width="132" height="32" class="nonterminal" fill="rgba(255,255,255,.1)" stroke="none"/><text class="nonterminal" x="351" y="53" font-family="-apple-system,BlinkMacSystemFont,&quot;Segoe UI&quot;,Roboto,Ubuntu,Cantarell,Helvetica,sans-serif" font-size="12" fill="#e289a4" font-weight="400">sourceTableName</text></a><rect x="495" y="35" width="26" height="32" rx="10"/><rect x="493" y="33" width="26" height="32" class="terminal" rx="10"/><text class="terminal" x="503" y="53">)</text><path xmlns:svg="http://www.w3.org/2000/svg" d="M17 17h2m0 0h10m72 0h10m0 0h10m62 0h10m20 0h10m0 0h306m-336 0h20m316 0h20m-356 0q10 0 10 10m336 0q0-10 10-10M203 27v12m336 0V27M203 39q0 10 10 10m316 0q10 0 10-10M213 49h10m26 0h10m0 0h10m52 0h10m0 0h10m132 0h10m0 0h10m26 0h10m23-32h-3" fill="none" stroke="#636273"/><polygon points="559 17 567 13 567 21"/><polygon points="559 17 551 13 551 21"/></svg>