<svg xmlns="http://www.w3.org/2000/svg" width="741" height="600"><defs><style type="text/css">@namespace &quot;http://www.w3.org/2000/svg&quot;;text.nonterminal,text.terminal{font-family:-apple-system,BlinkMacSystemFont,&quot;Segoe UI&quot;,Roboto,Ubuntu,Cantarell,Helvetica,sans-serif;font-size:12px}text.terminal{fill:#fff;font-weight:700}text.nonterminal{fill:#e289a4;font-weight:400}polygon,rect{fill:none;stroke:none}rect.terminal{fill:none;stroke:#be2f5b}rect.nonterminal{fill:rgba(255,255,255,.1);stroke:none}</style></defs><polygon points="9 17 1 13 1 21"/><polygon points="17 17 9 13 9 21"/><rect x="31" y="3" width="72" height="32" rx="10"/><rect x="29" y="1" width="72" height="32" class="terminal" rx="10"/><text class="terminal" x="39" y="21">CREATE</text><rect x="123" y="3" width="62" height="32" rx="10"/><rect x="121" y="1" width="62" height="32" class="terminal" rx="10"/><text class="terminal" x="131" y="21">TABLE</text><rect x="225" y="35" width="34" height="32" rx="10"/><rect x="223" y="33" width="34" height="32" class="terminal" rx="10"/><text class="terminal" x="233" y="53">IF</text><rect x="279" y="35" width="48" height="32" rx="10"/><rect x="277" y="33" width="48" height="32" class="terminal" rx="10"/><text class="terminal" x="287" y="53">NOT</text><rect x="347" y="35" width="70" height="32" rx="10"/><rect x="345" y="33" width="70" height="32" class="terminal" rx="10"/><text class="terminal" x="355" y="53">EXISTS</text><a xmlns:xlink="http://www.w3.org/1999/xlink" xlink:href="#tableName" xlink:title="tableName"><rect x="457" y="3" width="88" height="32"/><rect x="455" y="1" width="88" height="32" class="nonterminal"/><text class="nonterminal" x="465" y="21">tableName</text></a><rect x="45" y="145" width="26" height="32" rx="10"/><rect x="43" y="143" width="26" height="32" class="terminal" rx="10"/><text class="terminal" x="53" y="163">(</text><a xmlns:xlink="http://www.w3.org/1999/xlink" xlink:href="#columnName" xlink:title="columnName"><rect x="111" y="145" width="102" height="32"/><rect x="109" y="143" width="102" height="32" class="nonterminal"/><text class="nonterminal" x="119" y="163">columnName</text></a><a xmlns:xlink="http://www.w3.org/1999/xlink" xlink:href="#typeDef" xlink:title="typeDef"><rect x="233" y="145" width="70" height="32"/><rect x="231" y="143" width="70" height="32" class="nonterminal"/><text class="nonterminal" x="241" y="163">typeDef</text></a><rect x="111" y="101" width="24" height="32" rx="10"/><rect x="109" y="99" width="24" height="32" class="terminal" rx="10"/><text class="terminal" x="119" y="119">,</text><rect x="343" y="145" width="26" height="32" rx="10"/><rect x="341" y="143" width="26" height="32" class="terminal" rx="10"/><text class="terminal" x="351" y="163">)</text><rect x="45" y="211" width="34" height="32" rx="10"/><rect x="43" y="209" width="34" height="32" class="terminal" rx="10"/><text class="terminal" x="53" y="229">AS</text><rect x="99" y="211" width="26" height="32" rx="10"/><rect x="97" y="209" width="26" height="32" class="terminal" rx="10"/><text class="terminal" x="107" y="229">(</text><a xmlns:xlink="http://www.w3.org/1999/xlink" xlink:href="#selectSql" xlink:title="selectSql"><rect x="145" y="211" width="76" height="32"/><rect x="143" y="209" width="76" height="32" class="nonterminal"/><text class="nonterminal" x="153" y="229">selectSql</text></a><rect x="241" y="211" width="26" height="32" rx="10"/><rect x="239" y="209" width="26" height="32" class="terminal" rx="10"/><text class="terminal" x="249" y="229">)</text><rect x="327" y="211" width="24" height="32" rx="10"/><rect x="325" y="209" width="24" height="32" class="terminal" rx="10"/><text class="terminal" x="335" y="229">,</text><a xmlns:xlink="http://www.w3.org/1999/xlink" xlink:href="#castDef" xlink:title="castDef"><rect x="371" y="211" width="68" height="32"/><rect x="369" y="209" width="68" height="32" class="nonterminal"/><text class="nonterminal" x="379" y="229">castDef</text></a><rect x="539" y="211" width="24" height="32" rx="10"/><rect x="537" y="209" width="24" height="32" class="terminal" rx="10"/><text class="terminal" x="547" y="229">,</text><a xmlns:xlink="http://www.w3.org/1999/xlink" xlink:href="#indexDef" xlink:title="indexDef"><rect x="583" y="211" width="76" height="32"/><rect x="581" y="209" width="76" height="32" class="nonterminal"/><text class="nonterminal" x="591" y="229">indexDef</text></a><rect x="57" y="313" width="92" height="32" rx="10"/><rect x="55" y="311" width="92" height="32" class="terminal" rx="10"/><text class="terminal" x="65" y="331">timestamp</text><rect x="169" y="313" width="26" height="32" rx="10"/><rect x="167" y="311" width="26" height="32" class="terminal" rx="10"/><text class="terminal" x="177" y="331">(</text><a xmlns:xlink="http://www.w3.org/1999/xlink" xlink:href="#columnRef" xlink:title="columnRef"><rect x="215" y="313" width="86" height="32"/><rect x="213" y="311" width="86" height="32" class="nonterminal"/><text class="nonterminal" x="223" y="331">columnRef</text></a><rect x="321" y="313" width="26" height="32" rx="10"/><rect x="319" y="311" width="26" height="32" class="terminal" rx="10"/><text class="terminal" x="329" y="331">)</text><rect x="387" y="345" width="98" height="32" rx="10"/><rect x="385" y="343" width="98" height="32" class="terminal" rx="10"/><text class="terminal" x="395" y="363">PARTITION</text><rect x="505" y="345" width="38" height="32" rx="10"/><rect x="503" y="343" width="38" height="32" class="terminal" rx="10"/><text class="terminal" x="513" y="363">BY</text><rect x="583" y="345" width="58" height="32" rx="10"/><rect x="581" y="343" width="58" height="32" class="terminal" rx="10"/><text class="terminal" x="591" y="363">NONE</text><rect x="583" y="389" width="56" height="32" rx="10"/><rect x="581" y="387" width="56" height="32" class="terminal" rx="10"/><text class="terminal" x="591" y="407">YEAR</text><rect x="583" y="433" width="70" height="32" rx="10"/><rect x="581" y="431" width="70" height="32" class="terminal" rx="10"/><text class="terminal" x="591" y="451">MONTH</text><rect x="583" y="477" width="48" height="32" rx="10"/><rect x="581" y="475" width="48" height="32" class="terminal" rx="10"/><text class="terminal" x="591" y="495">DAY</text><rect x="583" y="521" width="60" height="32" rx="10"/><rect x="581" y="519" width="60" height="32" class="terminal" rx="10"/><text class="terminal" x="591" y="539">HOUR</text><path xmlns:svg="http://www.w3.org/2000/svg" d="M17 17h2m0 0h10m72 0h10m0 0h10m62 0h10m20 0h10m0 0h202m-232 0h20m212 0h20m-252 0q10 0 10 10m232 0q0-10 10-10M203 27v12m232 0V27M203 39q0 10 10 10m212 0q10 0 10-10M213 49h10m34 0h10m0 0h10m48 0h10m0 0h10m70 0h10m20-32h10m88 0h10m2 0h2m2 0h2m2 0h2M1 159h2m2 0h2m2 0h2m22 0h10m26 0h10m20 0h10m102 0h10m0 0h10m70 0h10m-232 0h20m-1 0q-9 0-9-10v-24q0-10 10-10m212 44h20m-20 0q10 0 10-10v-24q0-10-10-10m-212 0h10m24 0h10m0 0h168m20 44h10m26 0h10m0 0h330m-694 0h20m674 0h20m-714 0q10 0 10 10m694 0q0-10 10-10M23 169v46m694 0v-46M23 215q0 10 10 10m674 0q10 0 10-10M33 225h10m34 0h10m0 0h10m26 0h10m0 0h10m76 0h10m0 0h10m26 0h10m40 0h10m24 0h10m0 0h10m68 0h10m-152 0h20m-1 0q-9 0-9-10v-12q0-10 10-10m132 32h20m-20 0q10 0 10-10v-12q0-10-10-10m-132 0h10m0 0h122m-172 32h20m172 0h20m-212 0q10 0 10 10m192 0q0-10 10-10m-202 10v14m192 0v-14m-192 14q0 10 10 10m172 0q10 0 10-10m-182 10h10m0 0h162m60-34h10m24 0h10m0 0h10m76 0h10m-160 0h20m-1 0q-9 0-9-10v-12q0-10 10-10m140 32h20m-20 0q10 0 10-10v-12q0-10-10-10m-140 0h10m0 0h130m-180 32h20m180 0h20m-220 0q10 0 10 10m200 0q0-10 10-10m-210 10v14m200 0v-14m-200 14q0 10 10 10m180 0q10 0 10-10m-190 10h10m0 0h170m42-100h2m2 0h2m2 0h2M13 295h2m2 0h2m2 0h2m22 0h10m0 0h646m-676 0h20m656 0h20m-696 0q10 0 10 10m676 0q0-10 10-10M35 305v12m676 0v-12M35 317q0 10 10 10m656 0q10 0 10-10M45 327h10m92 0h10m0 0h10m26 0h10m0 0h10m86 0h10m0 0h10m26 0h10m20 0h10m0 0h296m-326 0h20m306 0h20m-346 0q10 0 10 10m326 0q0-10 10-10m-336 10v12m326 0v-12m-326 12q0 10 10 10m306 0q10 0 10-10m-316 10h10m98 0h10m0 0h10m38 0h10m20 0h10m58 0h10m0 0h12m-110 0h20m90 0h20m-130 0q10 0 10 10m110 0q0-10 10-10m-120 10v24m110 0v-24m-110 24q0 10 10 10m90 0q10 0 10-10m-100 10h10m56 0h10m0 0h14m-100-10v20m110 0v-20m-110 20v24m110 0v-24m-110 24q0 10 10 10m90 0q10 0 10-10m-100 10h10m70 0h10m-100-10v20m110 0v-20m-110 20v24m110 0v-24m-110 24q0 10 10 10m90 0q10 0 10-10m-100 10h10m48 0h10m0 0h22m-100-10v20m110 0v-20m-110 20v24m110 0v-24m-110 24q0 10 10 10m90 0q10 0 10-10m-100 10h10m60 0h10m0 0h10m63-240h-3" fill="none" stroke="#636273"/><polygon points="731 295 739 291 739 299"/><polygon points="731 295 723 291 723 299"/></svg>