<svg xmlns="http://www.w3.org/2000/svg" width="1000" height="650">
    <defs>
        <style type="text/css">
            @namespace "http://www.w3.org/2000/svg";
            .line                 {fill: none; stroke: #636273;}
            .bold-line            {stroke: #636273; shape-rendering: crispEdges; stroke-width: 2; }
            .thin-line            {stroke: #636273; shape-rendering: crispEdges}
            .filled               {fill: #636273; stroke: none;}
            text.terminal         {font-family: -apple-system, BlinkMacSystemFont, "Segoe UI", Roboto, Ubuntu, Cantarell, Helvetica, sans-serif;
            font-size: 12px;
            fill: #ffffff;
            font-weight: bold;
            }
            text.nonterminal      {font-family: -apple-system, BlinkMacSystemFont, "Segoe UI", Roboto, Ubuntu, Cantarell, Helvetica, sans-serif;
            font-size: 12px;
            fill: #e289a4;
            font-weight: normal;
            }
            text.regexp           {font-family: -apple-system, BlinkMacSystemFont, "Segoe UI", Roboto, Ubuntu, Cantarell, Helvetica, sans-serif;
            font-size: 12px;
            fill: #00141F;
            font-weight: normal;
            }
            rect, circle, polygon {fill: none; stroke: none;}
            rect.terminal         {fill: none; stroke: #be2f5b;}
            rect.nonterminal      {fill: rgba(255,255,255,0.1); stroke: none;}
            rect.text             {fill: none; stroke: none;}
            polygon.regexp        {fill: #C7ECFF; stroke: #038cbc;}
        </style>
         </defs>
         <polygon points="11 17 3 13 3 21"/>
         <polygon points="19 17 11 13 11 21"/>
         <rect x="33" y="3" width="72" height="32" rx="10"/>
         <rect x="31" y="1" width="72" height="32" class="terminal" rx="10"/>
         <text class="terminal" x="41" y="21">CREATE</text>
         <rect x="125" y="3" width="62" height="32" rx="10"/>
         <rect x="123" y="1" width="62" height="32" class="terminal" rx="10"/>
         <text class="terminal" x="133" y="21">TABLE</text>
         <rect x="227" y="35" width="34" height="32" rx="10"/>
         <rect x="225" y="33" width="34" height="32" class="terminal" rx="10"/>
         <text class="terminal" x="235" y="53">IF</text>
         <rect x="281" y="35" width="48" height="32" rx="10"/>
         <rect x="279" y="33" width="48" height="32" class="terminal" rx="10"/>
         <text class="terminal" x="289" y="53">NOT</text>
         <rect x="349" y="35" width="70" height="32" rx="10"/>
         <rect x="347" y="33" width="70" height="32" class="terminal" rx="10"/>
         <text class="terminal" x="357" y="53">EXISTS</text><a xmlns:xlink="http://www.w3.org/1999/xlink" xlink:href="#tableName" xlink:title="tableName">
            <rect x="459" y="3" width="88" height="32"/>
            <rect x="457" y="1" width="88" height="32" class="nonterminal"/>
            <text class="nonterminal" x="467" y="21">tableName</text></a><rect x="160" y="145" width="26" height="32" rx="10"/>
         <rect x="158" y="143" width="26" height="32" class="terminal" rx="10"/>
         <text class="terminal" x="168" y="163">(</text><a xmlns:xlink="http://www.w3.org/1999/xlink" xlink:href="#columnName" xlink:title="columnName">
            <rect x="226" y="145" width="102" height="32"/>
            <rect x="224" y="143" width="102" height="32" class="nonterminal"/>
            <text class="nonterminal" x="234" y="163">columnName</text></a><a xmlns:xlink="http://www.w3.org/1999/xlink" xlink:href="#typeDef" xlink:title="typeDef">
            <rect x="348" y="145" width="70" height="32"/>
            <rect x="346" y="143" width="70" height="32" class="nonterminal"/>
            <text class="nonterminal" x="356" y="163">typeDef</text></a><rect x="226" y="101" width="24" height="32" rx="10"/>
         <rect x="224" y="99" width="24" height="32" class="terminal" rx="10"/>
         <text class="terminal" x="234" y="119">,</text>
         <rect x="458" y="145" width="26" height="32" rx="10"/>
         <rect x="456" y="143" width="26" height="32" class="terminal" rx="10"/>
         <text class="terminal" x="466" y="163">)</text>
         <rect x="160" y="211" width="38" height="32" rx="10"/>
         <rect x="158" y="209" width="38" height="32" class="terminal" rx="10"/>
         <text class="terminal" x="168" y="229">AS</text>
         <rect x="218" y="211" width="26" height="32" rx="10"/>
         <rect x="216" y="209" width="26" height="32" class="terminal" rx="10"/>
         <text class="terminal" x="226" y="229">(</text><a xmlns:xlink="http://www.w3.org/1999/xlink" xlink:href="#selectSql" xlink:title="selectSql">
            <rect x="264" y="211" width="76" height="32"/>
            <rect x="262" y="209" width="76" height="32" class="nonterminal"/>
            <text class="nonterminal" x="272" y="229">selectSql</text></a><rect x="360" y="211" width="26" height="32" rx="10"/>
         <rect x="358" y="209" width="26" height="32" class="terminal" rx="10"/>
         <text class="terminal" x="368" y="229">)</text>
         <rect x="446" y="211" width="24" height="32" rx="10"/>
         <rect x="444" y="209" width="24" height="32" class="terminal" rx="10"/>
         <text class="terminal" x="454" y="229">,</text><a xmlns:xlink="http://www.w3.org/1999/xlink" xlink:href="#castDef" xlink:title="castDef">
            <rect x="490" y="211" width="68" height="32"/>
            <rect x="488" y="209" width="68" height="32" class="nonterminal"/>
            <text class="nonterminal" x="498" y="229">castDef</text></a><rect x="658" y="211" width="24" height="32" rx="10"/>
         <rect x="656" y="209" width="24" height="32" class="terminal" rx="10"/>
         <text class="terminal" x="666" y="229">,</text><a xmlns:xlink="http://www.w3.org/1999/xlink" xlink:href="#indexDef" xlink:title="indexDef">
            <rect x="702" y="211" width="76" height="32"/>
            <rect x="700" y="209" width="76" height="32" class="nonterminal"/>
            <text class="nonterminal" x="710" y="229">indexDef</text></a><rect x="45" y="313" width="92" height="32" rx="10"/>
         <rect x="43" y="311" width="92" height="32" class="terminal" rx="10"/>
         <text class="terminal" x="53" y="331">timestamp</text>
         <rect x="157" y="313" width="26" height="32" rx="10"/>
         <rect x="155" y="311" width="26" height="32" class="terminal" rx="10"/>
         <text class="terminal" x="165" y="331">(</text><a xmlns:xlink="http://www.w3.org/1999/xlink" xlink:href="#columnRef" xlink:title="columnRef">
            <rect x="203" y="313" width="86" height="32"/>
            <rect x="201" y="311" width="86" height="32" class="nonterminal"/>
            <text class="nonterminal" x="211" y="331">columnRef</text></a><rect x="309" y="313" width="26" height="32" rx="10"/>
         <rect x="307" y="311" width="26" height="32" class="terminal" rx="10"/>
         <text class="terminal" x="317" y="331">)</text>
         <rect x="375" y="345" width="98" height="32" rx="10"/>
         <rect x="373" y="343" width="98" height="32" class="terminal" rx="10"/>
         <text class="terminal" x="383" y="363">PARTITION</text>
         <rect x="493" y="345" width="38" height="32" rx="10"/>
         <rect x="491" y="343" width="38" height="32" class="terminal" rx="10"/>
         <text class="terminal" x="501" y="363">BY</text>
         <rect x="571" y="345" width="58" height="32" rx="10"/>
         <rect x="569" y="343" width="58" height="32" class="terminal" rx="10"/>
         <text class="terminal" x="579" y="363">NONE</text>
         <rect x="571" y="389" width="56" height="32" rx="10"/>
         <rect x="569" y="387" width="56" height="32" class="terminal" rx="10"/>
         <text class="terminal" x="579" y="407">YEAR</text>
         <rect x="571" y="433" width="70" height="32" rx="10"/>
         <rect x="569" y="431" width="70" height="32" class="terminal" rx="10"/>
         <text class="terminal" x="579" y="451">MONTH</text>
         <rect x="571" y="477" width="48" height="32" rx="10"/>
         <rect x="569" y="475" width="48" height="32" class="terminal" rx="10"/>
         <text class="terminal" x="579" y="495">DAY</text>
         <rect x="571" y="521" width="60" height="32" rx="10"/>
         <rect x="569" y="519" width="60" height="32" class="terminal" rx="10"/>
         <text class="terminal" x="579" y="539">HOUR</text>
         <rect x="761" y="345" width="74" height="32" rx="10"/>
         <rect x="759" y="343" width="74" height="32" class="terminal" rx="10"/>
         <text class="terminal" x="769" y="363">BYPASS</text>
         <rect x="875" y="313" width="50" height="32" rx="10"/>
         <rect x="873" y="311" width="50" height="32" class="terminal" rx="10"/>
         <text class="terminal" x="883" y="331">WAL</text>
         <path xmlns:svg="http://www.w3.org/2000/svg" class="line" d="m19 17 h2 m0 0 h10 m72 0 h10 m0 0 h10 m62 0 h10 m20 0 h10 m0 0 h202 m-232 0 h20 m212 0 h20 m-252 0 q10 0 10 10 m232 0 q0 -10 10 -10 m-242 10 v12 m232 0 v-12 m-232 12 q0 10 10 10 m212 0 q10 0 10 -10 m-222 10 h10 m34 0 h10 m0 0 h10 m48 0 h10 m0 0 h10 m70 0 h10 m20 -32 h10 m88 0 h10 m2 0 l2 0 m2 0 l2 0 m2 0 l2 0 m-451 142 l2 0 m2 0 l2 0 m2 0 l2 0 m22 0 h10 m26 0 h10 m20 0 h10 m102 0 h10 m0 0 h10 m70 0 h10 m-232 0 l20 0 m-1 0 q-9 0 -9 -10 l0 -24 q0 -10 10 -10 m212 44 l20 0 m-20 0 q10 0 10 -10 l0 -24 q0 -10 -10 -10 m-212 0 h10 m24 0 h10 m0 0 h168 m20 44 h10 m26 0 h10 m0 0 h334 m-698 0 h20 m678 0 h20 m-718 0 q10 0 10 10 m698 0 q0 -10 10 -10 m-708 10 v46 m698 0 v-46 m-698 46 q0 10 10 10 m678 0 q10 0 10 -10 m-688 10 h10 m38 0 h10 m0 0 h10 m26 0 h10 m0 0 h10 m76 0 h10 m0 0 h10 m26 0 h10 m40 0 h10 m24 0 h10 m0 0 h10 m68 0 h10 m-152 0 l20 0 m-1 0 q-9 0 -9 -10 l0 -12 q0 -10 10 -10 m132 32 l20 0 m-20 0 q10 0 10 -10 l0 -12 q0 -10 -10 -10 m-132 0 h10 m0 0 h122 m-172 32 h20 m172 0 h20 m-212 0 q10 0 10 10 m192 0 q0 -10 10 -10 m-202 10 v14 m192 0 v-14 m-192 14 q0 10 10 10 m172 0 q10 0 10 -10 m-182 10 h10 m0 0 h162 m60 -34 h10 m24 0 h10 m0 0 h10 m76 0 h10 m-160 0 l20 0 m-1 0 q-9 0 -9 -10 l0 -12 q0 -10 10 -10 m140 32 l20 0 m-20 0 q10 0 10 -10 l0 -12 q0 -10 -10 -10 m-140 0 h10 m0 0 h130 m-180 32 h20 m180 0 h20 m-220 0 q10 0 10 10 m200 0 q0 -10 10 -10 m-210 10 v14 m200 0 v-14 m-200 14 q0 10 10 10 m180 0 q10 0 10 -10 m-190 10 h10 m0 0 h170 m42 -100 l2 0 m2 0 l2 0 m2 0 l2 0 m-857 136 l2 0 m2 0 l2 0 m2 0 l2 0 m22 0 h10 m0 0 h646 m-676 0 h20 m656 0 h20 m-696 0 q10 0 10 10 m676 0 q0 -10 10 -10 m-686 10 v12 m676 0 v-12 m-676 12 q0 10 10 10 m656 0 q10 0 10 -10 m-666 10 h10 m92 0 h10 m0 0 h10 m26 0 h10 m0 0 h10 m86 0 h10 m0 0 h10 m26 0 h10 m20 0 h10 m0 0 h296 m-326 0 h20 m306 0 h20 m-346 0 q10 0 10 10 m326 0 q0 -10 10 -10 m-336 10 v12 m326 0 v-12 m-326 12 q0 10 10 10 m306 0 q10 0 10 -10 m-316 10 h10 m98 0 h10 m0 0 h10 m38 0 h10 m20 0 h10 m58 0 h10 m0 0 h12 m-110 0 h20 m90 0 h20 m-130 0 q10 0 10 10 m110 0 q0 -10 10 -10 m-120 10 v24 m110 0 v-24 m-110 24 q0 10 10 10 m90 0 q10 0 10 -10 m-100 10 h10 m56 0 h10 m0 0 h14 m-100 -10 v20 m110 0 v-20 m-110 20 v24 m110 0 v-24 m-110 24 q0 10 10 10 m90 0 q10 0 10 -10 m-100 10 h10 m70 0 h10 m-100 -10 v20 m110 0 v-20 m-110 20 v24 m110 0 v-24 m-110 24 q0 10 10 10 m90 0 q10 0 10 -10 m-100 10 h10 m48 0 h10 m0 0 h22 m-100 -10 v20 m110 0 v-20 m-110 20 v24 m110 0 v-24 m-110 24 q0 10 10 10 m90 0 q10 0 10 -10 m-100 10 h10 m60 0 h10 m0 0 h10 m80 -240 h10 m0 0 h194 m-224 0 h20 m204 0 h20 m-244 0 q10 0 10 10 m224 0 q0 -10 10 -10 m-234 10 v12 m224 0 v-12 m-224 12 q0 10 10 10 m204 0 q10 0 10 -10 m-194 10 h10 m0 0 h84 m-114 0 h20 m94 0 h20 m-134 0 q10 0 10 10 m114 0 q0 -10 10 -10 m-124 10 v12 m114 0 v-12 m-114 12 q0 10 10 10 m94 0 q10 0 10 -10 m-104 10 h10 m74 0 h10 m20 -32 h10 m50 0 h10 m23 -32 h-3"/>
         <polygon points="963 295 971 291 971 299"/>
         <polygon points="963 295 955 291 955 299"/></svg>
