<svg xmlns="http://www.w3.org/2000/svg" width="1089" height="465"><defs><style type="text/css">@namespace &quot;http://www.w3.org/2000/svg&quot;;text.nonterminal,text.terminal{font-family:-apple-system,BlinkMacSystemFont,&quot;Segoe UI&quot;,Roboto,Ubuntu,Cantarell,Helvetica,sans-serif;font-size:12px}text.terminal{fill:#fff;font-weight:700}text.nonterminal{fill:#e289a4;font-weight:400}polygon,rect{fill:none;stroke:none}rect.terminal{fill:none;stroke:#be2f5b}rect.nonterminal{fill:rgba(255,255,255,.1);stroke:none}</style></defs><polygon points="9 33 1 29 1 37"/><polygon points="17 33 9 29 9 37"/><rect x="51" y="19" width="70" height="32" rx="10"/><rect x="49" y="17" width="70" height="32" class="terminal" rx="10"/><text class="terminal" x="59" y="37">SELECT</text><a xmlns:xlink="http://www.w3.org/1999/xlink" xlink:href="#columnn-expression" xlink:title="columnn-expression"><rect x="181" y="19" width="148" height="32"/><rect x="179" y="17" width="148" height="32" class="nonterminal"/><text class="nonterminal" x="189" y="37">columnn-expression</text></a><rect x="369" y="51" width="24" height="32" rx="10"/><rect x="367" y="49" width="24" height="32" class="terminal" rx="10"/><text class="terminal" x="377" y="69">,</text><rect x="473" y="19" width="60" height="32" rx="10"/><rect x="471" y="17" width="60" height="32" class="terminal" rx="10"/><text class="terminal" x="481" y="37">FROM</text><rect x="593" y="19" width="54" height="32" rx="10"/><rect x="591" y="17" width="54" height="32" class="terminal" rx="10"/><text class="terminal" x="601" y="37">table</text><rect x="593" y="63" width="26" height="32" rx="10"/><rect x="591" y="61" width="26" height="32" class="terminal" rx="10"/><text class="terminal" x="601" y="81">(</text><a xmlns:xlink="http://www.w3.org/1999/xlink" xlink:href="#sub-query" xlink:title="sub-query"><rect x="639" y="63" width="84" height="32"/><rect x="637" y="61" width="84" height="32" class="nonterminal"/><text class="nonterminal" x="647" y="81">sub-query</text></a><rect x="743" y="63" width="26" height="32" rx="10"/><rect x="741" y="61" width="26" height="32" class="terminal" rx="10"/><text class="terminal" x="751" y="81">)</text><rect x="85" y="197" width="64" height="32" rx="10"/><rect x="83" y="195" width="64" height="32" class="terminal" rx="10"/><text class="terminal" x="93" y="215">INNER</text><rect x="85" y="241" width="66" height="32" rx="10"/><rect x="83" y="239" width="66" height="32" class="terminal" rx="10"/><text class="terminal" x="93" y="259">OUTER</text><rect x="85" y="285" width="66" height="32" rx="10"/><rect x="83" y="283" width="66" height="32" class="terminal" rx="10"/><text class="terminal" x="93" y="303">CROSS</text><rect x="85" y="329" width="56" height="32" rx="10"/><rect x="83" y="327" width="56" height="32" class="terminal" rx="10"/><text class="terminal" x="93" y="347">ASOF</text><rect x="191" y="165" width="54" height="32" rx="10"/><rect x="189" y="163" width="54" height="32" class="terminal" rx="10"/><text class="terminal" x="199" y="183">JOIN</text><rect x="285" y="165" width="54" height="32" rx="10"/><rect x="283" y="163" width="54" height="32" class="terminal" rx="10"/><text class="terminal" x="293" y="183">table</text><rect x="285" y="209" width="26" height="32" rx="10"/><rect x="283" y="207" width="26" height="32" class="terminal" rx="10"/><text class="terminal" x="293" y="227">(</text><a xmlns:xlink="http://www.w3.org/1999/xlink" xlink:href="#sub-query" xlink:title="sub-query"><rect x="331" y="209" width="84" height="32"/><rect x="329" y="207" width="84" height="32" class="nonterminal"/><text class="nonterminal" x="339" y="227">sub-query</text></a><rect x="435" y="209" width="26" height="32" rx="10"/><rect x="433" y="207" width="26" height="32" class="terminal" rx="10"/><text class="terminal" x="443" y="227">)</text><rect x="521" y="165" width="40" height="32" rx="10"/><rect x="519" y="163" width="40" height="32" class="terminal" rx="10"/><text class="terminal" x="529" y="183">ON</text><rect x="601" y="197" width="26" height="32" rx="10"/><rect x="599" y="195" width="26" height="32" class="terminal" rx="10"/><text class="terminal" x="609" y="215">(</text><a xmlns:xlink="http://www.w3.org/1999/xlink" xlink:href="#column" xlink:title="column"><rect x="647" y="197" width="64" height="32"/><rect x="645" y="195" width="64" height="32" class="nonterminal"/><text class="nonterminal" x="655" y="215">column</text></a><rect x="731" y="197" width="26" height="32" rx="10"/><rect x="729" y="195" width="26" height="32" class="terminal" rx="10"/><text class="terminal" x="739" y="215">)</text><a xmlns:xlink="http://www.w3.org/1999/xlink" xlink:href="#column" xlink:title="column"><rect x="621" y="263" width="64" height="32"/><rect x="619" y="261" width="64" height="32" class="nonterminal"/><text class="nonterminal" x="629" y="281">column</text></a><rect x="705" y="263" width="30" height="32" rx="10"/><rect x="703" y="261" width="30" height="32" class="terminal" rx="10"/><text class="terminal" x="713" y="281">=</text><a xmlns:xlink="http://www.w3.org/1999/xlink" xlink:href="#other-column" xlink:title="other-column"><rect x="755" y="263" width="104" height="32"/><rect x="753" y="261" width="104" height="32" class="nonterminal"/><text class="nonterminal" x="763" y="281">other-column</text></a><rect x="899" y="295" width="48" height="32" rx="10"/><rect x="897" y="293" width="48" height="32" class="terminal" rx="10"/><text class="terminal" x="907" y="313">AND</text><rect x="847" y="431" width="70" height="32" rx="10"/><rect x="845" y="429" width="70" height="32" class="terminal" rx="10"/><text class="terminal" x="855" y="449">WHERE</text><a xmlns:xlink="http://www.w3.org/1999/xlink" xlink:href="#where-clause" xlink:title="where-clause"><rect x="937" y="431" width="104" height="32"/><rect x="935" y="429" width="104" height="32" class="nonterminal"/><text class="nonterminal" x="945" y="449">where-clause</text></a><path xmlns:svg="http://www.w3.org/2000/svg" d="M17 33h2m20 0h10m70 0h10m40 0h10m148 0h10m20 0h10m0 0h34m-64 0h20m44 0h20m-84 0q10 0 10 10m64 0q0-10 10-10m-74 10v12m64 0V43m-64 12q0 10 10 10m44 0q10 0 10-10m-54 10h10m24 0h10M149 33h20m-1 0q-9 0-9-10V11q0-10 10-10m252 32h20m-20 0q10 0 10-10V11q0-10-10-10M169 1h10m0 0h242M129 33h20m292 0h20m-332 0q10 0 10 10m312 0q0-10 10-10M139 43v46m312 0V43M139 89q0 10 10 10m292 0q10 0 10-10M149 99h10m0 0h282m20-66h10m60 0h10M19 33h20m502 0h20M19 33q10 0 10 10m522 0q0-10 10-10M29 43v62m522 0V43M29 105q0 10 10 10m502 0q10 0 10-10M39 115h10m0 0h492m40-82h10m54 0h10m0 0h122m-216 0h20m196 0h20m-236 0q10 0 10 10m216 0q0-10 10-10M571 43v24m216 0V43M571 67q0 10 10 10m196 0q10 0 10-10M581 77h10m26 0h10m0 0h10m84 0h10m0 0h10m26 0h10m22-44h2m2 0h2m2 0h2M1 179h2m2 0h2m2 0h2m62 0h10m0 0h76m-106 0h20m86 0h20m-126 0q10 0 10 10m106 0q0-10 10-10M63 189v12m106 0v-12M63 201q0 10 10 10m86 0q10 0 10-10m-96 10h10m64 0h10m0 0h2m-96-10v20m106 0v-20M63 221v24m106 0v-24M63 245q0 10 10 10m86 0q10 0 10-10m-96 10h10m66 0h10m-96-10v20m106 0v-20M63 265v24m106 0v-24M63 289q0 10 10 10m86 0q10 0 10-10m-96 10h10m66 0h10m-96-10v20m106 0v-20M63 309v24m106 0v-24M63 333q0 10 10 10m86 0q10 0 10-10m-96 10h10m56 0h10m0 0h10m20-164h10m54 0h10m20 0h10m54 0h10m0 0h122m-216 0h20m196 0h20m-236 0q10 0 10 10m216 0q0-10 10-10m-226 10v24m216 0v-24m-216 24q0 10 10 10m196 0q10 0 10-10m-206 10h10m26 0h10m0 0h10m84 0h10m0 0h10m26 0h10m40-44h10m40 0h10m20 0h10m0 0h396m-426 0h20m406 0h20m-446 0q10 0 10 10m426 0q0-10 10-10m-436 10v12m426 0v-12m-426 12q0 10 10 10m406 0q10 0 10-10m-416 10h10m26 0h10m0 0h10m64 0h10m0 0h10m26 0h10m0 0h230m-416-10v20m426 0v-20m-426 20v46m426 0v-46m-426 46q0 10 10 10m406 0q10 0 10-10m-396 10h10m64 0h10m0 0h10m30 0h10m0 0h10m104 0h10m20 0h10m0 0h58m-88 0h20m68 0h20m-108 0q10 0 10 10m88 0q0-10 10-10m-98 10v12m88 0v-12m-88 12q0 10 10 10m68 0q10 0 10-10m-78 10h10m48 0h10m-366-32h20m-1 0q-9 0-9-10v-12q0-10 10-10m366 32h20m-20 0q10 0 10-10v-12q0-10-10-10m-366 0h10m0 0h356m-486-66h20m506 0h20m-546 0q10 0 10 10m526 0q0-10 10-10m-536 10v144m526 0V189M499 333q0 10 10 10m506 0q10 0 10-10m-516 10h10m0 0h496M33 179h20m-1 0q-9 0-9-10v-12q0-10 10-10m982 32h20m-20 0q10 0 10-10v-12q0-10-10-10m-982 0h10m0 0h972M13 179h20m1022 0h20M13 179q10 0 10 10m1042 0q0-10 10-10M23 189v178m1042 0V189M23 367q0 10 10 10m1022 0q10 0 10-10M33 377h10m0 0h1012m22-198h2m2 0h2m2 0h2M803 413h2m2 0h2m2 0h2m22 0h10m0 0h204m-234 0h20m214 0h20m-254 0q10 0 10 10m234 0q0-10 10-10m-244 10v12m234 0v-12m-234 12q0 10 10 10m214 0q10 0 10-10m-224 10h10m70 0h10m0 0h10m104 0h10m23-32h-3" fill="none" stroke="#636273"/><polygon points="1079 413 1087 409 1087 417"/><polygon points="1079 413 1071 409 1071 417"/></svg>