<svg xmlns="http://www.w3.org/2000/svg" width="561" height="125"><defs xmlns="http://www.w3.org/1999/xhtml"><style type="text/css">text.nonterminal,text.terminal{font-family:-apple-system,BlinkMacSystemFont,&quot;Segoe UI&quot;,Roboto,Ubuntu,Cantarell,Helvetica,sans-serif;font-size:12px}text.terminal{fill:#fff;font-weight:700}text.nonterminal{fill:#e289a4;font-weight:400}.line,polygon,rect{fill:none;stroke:none}.line{stroke:#636273}rect.terminal{fill:none;stroke:#be2f5b}rect.nonterminal{fill:rgba(255,255,255,.1);stroke:none}</style></defs><polygon points="9 17 1 13 1 21"/><polygon points="17 17 9 13 9 21"/><rect x="31" y="3" width="64" height="32" rx="10"/><rect x="29" y="1" width="64" height="32" class="terminal" rx="10"/><text class="terminal" x="39" y="21">SHOW</text><rect x="135" y="3" width="72" height="32" rx="10"/><rect x="133" y="1" width="72" height="32" class="terminal" rx="10"/><text class="terminal" x="143" y="21">TABLES</text><rect x="155" y="47" width="88" height="32" rx="10"/><rect x="153" y="45" width="88" height="32" class="terminal" rx="10"/><text class="terminal" x="163" y="65">COLUMNS</text><rect x="155" y="91" width="106" height="32" rx="10"/><rect x="153" y="89" width="106" height="32" class="terminal" rx="10"/><text class="terminal" x="163" y="109">PARTITIONS</text><rect x="301" y="47" width="60" height="32" rx="10"/><rect x="299" y="45" width="60" height="32" class="terminal" rx="10"/><text class="terminal" x="309" y="65">FROM</text><a xmlns:xlink="http://www.w3.org/1999/xlink" xlink:href="#tableName" xlink:title="tableName"><rect x="381" y="47" width="88" height="32"/><rect x="379" y="45" width="88" height="32" class="nonterminal"/><text class="nonterminal" x="389" y="65">tableName</text></a><rect x="509" y="3" width="24" height="32" rx="10"/><rect x="507" y="1" width="24" height="32" class="terminal" rx="10"/><text class="terminal" x="517" y="21">;</text><path class="line" d="M17 17h2m0 0h10m64 0h10m20 0h10m72 0h10m0 0h262m-374 0h20m354 0h20m-394 0q10 0 10 10m374 0q0-10 10-10M113 27v24m374 0V27M113 51q0 10 10 10m354 0q10 0 10-10M143 61h10m88 0h10m0 0h18m-146 0h20m126 0h20m-166 0q10 0 10 10m146 0q0-10 10-10M133 71v24m146 0V71M133 95q0 10 10 10m126 0q10 0 10-10m-136 10h10m106 0h10m20-44h10m60 0h10m0 0h10m88 0h10m20-44h10m24 0h10m3 0h-3"/><polygon points="551 17 559 13 559 21"/><polygon points="551 17 543 13 543 21"/></svg>