<svg width="239.99" height="242.38" version="1.1" viewBox="0 0 799.96 807.94" xml:space="preserve" xmlns="http://www.w3.org/2000/svg" xmlns:xlink="http://www.w3.org/1999/xlink"><defs><linearGradient id="linearGradient1246" x1="29713" x2="29742" y1="69.67" y2="-63.18" gradientTransform="matrix(-1 0 0 1 29692 0)" gradientUnits="userSpaceOnUse"><stop stop-color="#FAA100" offset=".384"/><stop stop-color="#BF73F2" offset=".658"/><stop stop-color="#C370E6" offset=".665"/><stop stop-color="#CC68C7" offset=".685"/><stop stop-color="#D461AB" offset=".708"/><stop stop-color="#DB5B95" offset=".734"/><stop stop-color="#E05784" offset=".764"/><stop stop-color="#E35479" offset=".802"/><stop stop-color="#E55272" offset=".854"/><stop stop-color="#E65270" offset="1"/></linearGradient><linearGradient id="linearGradient1248" x1="29697" x2="29728" y1="71.44" y2="-70.07" gradientTransform="matrix(-1 0 0 1 29692 0)" gradientUnits="userSpaceOnUse"><stop stop-color="#FAA100" offset=".384"/><stop stop-color="#BF73F2" offset=".658"/><stop stop-color="#C370E6" offset=".665"/><stop stop-color="#CC68C7" offset=".685"/><stop stop-color="#D461AB" offset=".708"/><stop stop-color="#DB5B95" offset=".734"/><stop stop-color="#E05784" offset=".764"/><stop stop-color="#E35479" offset=".802"/><stop stop-color="#E55272" offset=".854"/><stop stop-color="#E65270" offset="1"/></linearGradient><linearGradient id="linearGradient1250" x1="29692" x2="29694" y1="62.46" y2="-21.49" gradientTransform="matrix(-1 0 0 1 29692 0)" gradientUnits="userSpaceOnUse"><stop stop-color="#FAA7B5" offset="0"/><stop stop-color="#FAA100" offset=".384"/><stop stop-color="#BF73F2" offset=".732"/></linearGradient><linearGradient id="linearGradient1252" x1="29715" x2="29694" y1="53.83" y2="18.92" gradientTransform="matrix(-1 0 0 1 29692 0)" gradientUnits="userSpaceOnUse"><stop stop-color="#F6E8A0" offset="0"/><stop stop-color="#E65271" offset="1"/></linearGradient><linearGradient id="linearGradient1254" x1="29711" x2="29694" y1="32.85" y2="2.746" gradientTransform="matrix(-1 0 0 1 29692 0)" gradientUnits="userSpaceOnUse"><stop stop-color="#F6E8A0" offset="0"/><stop stop-color="#E65271" offset="1"/></linearGradient><linearGradient id="linearGradient1256" x1="29672" x2="29674" y1="55.1" y2="19.93" gradientTransform="matrix(-1 0 0 1 29692 0)" gradientUnits="userSpaceOnUse"><stop stop-color="#F6E8A0" offset="0"/><stop stop-color="#E65271" offset="1"/></linearGradient><linearGradient id="linearGradient1258" x1="29674" x2="29686" y1="19.97" y2="71.45" gradientTransform="matrix(-1 0 0 1 29692 0)" gradientUnits="userSpaceOnUse"><stop stop-color="#E65271" offset="0"/><stop stop-color="#FAA100" offset=".384"/></linearGradient><linearGradient id="linearGradient1260" x1="29714" x2="29671" y1="45.74" y2="9.102" gradientTransform="matrix(-1 0 0 1 29692 0)" gradientUnits="userSpaceOnUse"><stop stop-color="#F6E8A0" offset="0"/><stop stop-color="#E65271" offset="1"/></linearGradient><linearGradient id="linearGradient1262" x1="29675" x2="29717" y1="20.13" y2="8.761" gradientTransform="matrix(-1 0 0 1 29692 0)" gradientUnits="userSpaceOnUse"><stop stop-color="#FAA7B5" offset="0"/><stop stop-color="#FAA100" offset=".384"/><stop stop-color="#BF73F2" offset=".732"/></linearGradient><linearGradient id="linearGradient1264" x1="29564" x2="29761" y1="68.99" y2="-36.27" gradientTransform="matrix(-1 0 0 1 29692 0)" gradientUnits="userSpaceOnUse"><stop stop-color="#FAA7B5" offset="0"/><stop stop-color="#FAA100" offset=".384"/><stop stop-color="#BF73F2" offset=".732"/></linearGradient><linearGradient id="linearGradient1272" x1="29645" x2="29656" y1="-21.69" y2="-46.51" gradientTransform="matrix(-1 0 0 1 29692 0)" gradientUnits="userSpaceOnUse"><stop stop-color="#FAA7B5" offset=".004"/><stop stop-color="#FAA100" offset=".384"/></linearGradient><linearGradient id="linearGradient1274" x1="29718" x2="29727" y1="49.98" y2="-18.62" gradientTransform="matrix(-1 0 0 1 29692 0)" gradientUnits="userSpaceOnUse"><stop stop-color="#FAA7B5" offset="0"/><stop stop-color="#FAA100" offset=".384"/><stop stop-color="#BF73F2" offset=".732"/></linearGradient><linearGradient id="linearGradient1276" x1="29726" x2="29735" y1="50.97" y2="-17.63" gradientTransform="matrix(-1 0 0 1 29692 0)" gradientUnits="userSpaceOnUse"><stop stop-color="#FAA7B5" offset="0"/><stop stop-color="#FAA100" offset=".384"/><stop stop-color="#BF73F2" offset=".732"/></linearGradient><linearGradient id="linearGradient1278" x1="29739" x2="29735" y1="21.72" y2="-26.02" gradientTransform="matrix(-1 0 0 1 29692 0)" gradientUnits="userSpaceOnUse"><stop stop-color="#FAA7B5" offset="0"/><stop stop-color="#FAA100" offset=".384"/><stop stop-color="#BF73F2" offset=".732"/></linearGradient><linearGradient id="linearGradient1280" x1="29667" x2="29669" y1="61.92" y2="-22.03" gradientTransform="matrix(-1 0 0 1 29692 0)" gradientUnits="userSpaceOnUse"><stop stop-color="#FAA7B5" offset="0"/><stop stop-color="#FAA100" offset=".384"/><stop stop-color="#BF73F2" offset=".732"/></linearGradient><linearGradient id="linearGradient1282" x1="29650" x2="29654" y1="-2.306" y2="-9.675" gradientTransform="matrix(-1 0 0 1 29692 0)" gradientUnits="userSpaceOnUse"><stop stop-color="#FAA7B5" offset="0"/><stop stop-color="#FAA100" offset=".384"/><stop stop-color="#BF73F2" offset=".732"/></linearGradient><radialGradient id="cvfe" cx="56090" cy="25060" r="23.25" gradientTransform="matrix(-.4785 0 0 .4785 26820 -11978)" gradientUnits="userSpaceOnUse"><stop stop-color="#fff" offset=".009"/><stop stop-color="#fff" stop-opacity="0" offset="1"/></radialGradient><radialGradient id="radialGradient1266" cx="60721" cy="13491" r="14.87" gradientTransform="matrix(-.4579 .1387 .2675 .883 24214 -20329)" gradientUnits="userSpaceOnUse"><stop stop-color="#fff" offset=".009"/><stop stop-color="#fff" stop-opacity="0" offset="1"/></radialGradient><radialGradient id="radialGradient1268" cx="56090" cy="25060" r="23.25" gradientTransform="matrix(-.4785 0 0 .4785 26820 -11978)" gradientUnits="userSpaceOnUse" xlink:href="#cvfe"/></defs><path d="M511.804 800.439c-10.727-.135-21.437-.167-32.156-.167l-27.66.024s-79.122-.032-116.939-.032c-5.938 0-11.892.024-17.838.04-5.954.016-11.9.04-17.854.04-3.726 0-7.436-.009-11.154-.032-22.5-.135-44.009-2.839-63.924-8.055C145 771.509 84.905 724.472 45.82 652.487 27.062 617.96 16.4 579.35 14.148 537.767a276.687 276.687 0 012.814-56.352c.341-2.26.753-4.511 1.166-6.77l.911-5.154 1.546 1.522a4.892 4.892 0 011.26 2.284c.77 2.52 1.491 5.066 2.22 7.595 1.507 5.272 3.077 10.726 4.916 15.959 13.485 38.458 33.964 74.5 62.6 110.199 1.133 1.411 1.99 2.973 2.48 4.495 9.713 29.889 26.591 55.718 50.153 76.822 22.92 20.518 50.399 35.882 81.817 45.753a245.237 245.237 0 01-55.52-32.838c-27.335-21.556-47.036-47.933-58.532-78.408-1.15-3.052-2.117-6.747-.563-10.845.516-1.396.88-2.839 1.253-4.29.254-.998.5-1.997.809-2.988 6.191-20.24 15.594-36.112 28.747-48.496 12.248-11.543 27.85-19.986 47.702-25.821 18.536-5.455 37.88-7.912 56.582-10.29l8.016-1.032c10.473-1.363 21.088-2.988 31.347-4.574l6.176-.951c2.299-.35 4.582-.849 6.945-1.364l5.763-1.205-1.514 2.577c-.119.222-.214.404-.38.594a158.734 158.734 0 00-24.22 35.977 5.153 5.153 0 01-2.807 2.474c-1.38.452-2.75.896-4.122 1.356-4.369 1.458-8.872 2.941-13.454 3.853a259.713 259.713 0 01-14.873 2.378c-3.917.555-7.833 1.102-11.726 1.808-13.105 2.33-23.245 6.548-30.911 12.97 1.68-.404 3.417-.658 5.121-.904 2.379-.34 4.82-.706 7.048-1.475 12.083-4.201 25.338-6.152 41.726-6.152l2.211.008a238.95 238.95 0 018.856.31l5.756.237-.428 1.42c-11.758 38.41-11.425 76.1.943 112.26-5.177-24.506-6.12-47.267-2.917-69.267 4.9-33.623 19.709-62.6 44.048-86.098 16.41-15.864 37-29.183 62.932-40.695 22.523-10.013 45.99-16.03 68.094-21.342l4.178-1.014c15.76-3.79 32.06-7.707 47.853-12.344 23.681-6.937 44.262-18.354 61.173-33.964 2.529-2.339 5.406-4.995 7.674-7.928 16.15-20.93 34.978-35.779 57.541-45.404a4.535 4.535 0 001.863-1.752c7.381-12.042 16.237-20.914 27.074-27.137 2.418-1.388 4.829-2.085 7.167-2.085 2.965 0 5.93 1.133 8.824 3.337a28.41 28.41 0 012.973 2.617c3.798 3.813 6.842 8.506 9.601 14.738.34.745.65.983 1.483 1.086 2.75.365 5.589.737 8.403 1.292 46.078 9.117 78.162 44.571 83.72 92.52a105 105 0 01.357 3.853c.245 3.044.491 6.192 1.403 9.014 1.142 3.576 2.862 7.096 4.543 10.473.737 1.506 1.49 3.028 2.188 4.559.594 1.316 1.22 2.624 1.84 3.924 1.466 3.076 2.964 6.231 4.209 9.458a23.229 23.229 0 01.666 15.127c-.634 2.204-1.966 2.529-2.704 2.529a3.385 3.385 0 01-1.775-.571c-1.269-.809-2.45-1.72-3.632-2.656a53.653 53.653 0 00-1.696-1.308 67.019 67.019 0 01-1.879-1.483c-1.483-1.165-2.87-2.283-4.416-3.131a3.504 3.504 0 00-1.697-.476 3.028 3.028 0 00-1.672.515l2.172 1.943c3.877 3.44 7.746 6.89 11.551 10.385a4.273 4.273 0 011.26 3.172c-.451 7.198-2.964 13.168-7.491 17.766-5.391 5.455-11.044 8.11-17.268 8.11-1.331 0-2.687-.126-4.067-.372-.253 2.418-.769 3.322-2.782 4.4-12.733 6.905-25.148 10.267-37.936 10.267l-1.998-.016c-8.713 0-17.196 2.474-26.71 7.777a38.768 38.768 0 01-8.87 3.774c-8.174 2.172-16.427 2.989-23.888 3.338a74.809 74.809 0 0010.14.658c2.291 0 4.654-.095 7.207-.27l1.459-.142c1.078-.104 2.172-.207 3.218-.207 1.404 0 2.561.183 3.536.587 6.668 2.72 13.185 6.017 19.29 9.149 1.196.618 2.06.872 2.861.872.444 0 .872-.08 1.324-.254l1.784-.666c3.338-1.26 6.786-2.56 10.076-4.02 7.825-3.48 14.572-5.113 21.232-5.113 1.783 0 3.567.127 5.335.373 4.567.618 9.894 1.665 14.699 4.622 2.37 1.45 5.533 3.893 5.827 8.435a2.014 2.014 0 00.547.698 42.774 42.774 0 001.8 1.546c.618.515 1.252 1.039 1.847 1.601 3.726 3.417 5.367 7.746 4.907 12.876-.143 1.435-.46 4.804-3.338 4.804-.872 0-1.894-.317-3.314-1.039a9.117 9.117 0 00-1.64-.697 106.57 106.57 0 014.106 2.632c3.18 2.172 4.733 5.486 4.582 9.846-.3 9.522-10.322 18.52-20.62 18.52-1.221 0-2.426-.143-3.576-.388-3.036-.666-6.81-1.943-9.085-5.89a1.356 1.356 0 00-.389-.302l-1.744.08a33.757 33.757 0 00-6.168.618l-.579.134c-3.353.77-6.81 1.546-10.346 1.546-1.41 0-2.735-.127-4.02-.372-1.577-.294-3.139-.682-4.74-1.078l-1.158-.278a51.207 51.207 0 01-8.792 16.601c-8.966 11.409-20.922 19.44-36.524 24.553a115.606 115.606 0 01-36.168 5.59c-6.667 0-13.668-.508-20.795-1.523-28.112-4.011-47.734-19.296-58.342-45.411-1.784-4.377-2.98-9.022-4.154-13.525-.563-2.18-1.142-4.393-1.776-6.557-3.33-11.329-7.524-21.326-12.836-30.602-9.64-16.831-21.564-28.818-36.46-36.667a82.237 82.237 0 00-38.72-9.45 102.01 102.01 0 00-21.692 2.41 236.889 236.889 0 0112.622.84c19.273 1.95 36.825 7.873 52.166 17.593 20.874 13.247 33.686 29.706 39.14 50.303a179.537 179.537 0 0012.955 34.074c3.203 6.446 7.278 13.89 13.144 20.185 8.293 8.871 18.98 14.936 33.623 19.059a328.679 328.679 0 0111.94 3.63c2.188.699 3.71 2.22 4.653 4.655 2.292 5.946 2.862 12.003 1.689 17.988-1.72 8.792-5.898 16.934-12.788 24.886-5.438 6.271-12.193 10.83-18.726 15.246a97.736 97.736 0 00-9.173 6.937c-2.402 2.053-3.646 4.749-3.512 7.595.207 4.67.555 4.852 1.427 4.852.73 0 1.88-.278 3.735-.88.911-.31 1.815-.666 2.71-1.063l5.44-2.346c3.107-1.34 6.207-2.688 9.339-3.988 6.786-2.83 13.501-4.281 19.939-4.281 3.44 0 6.881.412 10.235 1.213 12.05 2.886 19.962 10.045 23.514 21.294.951 3.045.817 5.645-.436 7.754a5.732 5.732 0 01-4.281 2.624c-1.459 0-2.822-1.292-3.869-2.434a4.012 4.012 0 01-.84-2.22c-.048-.237-.087-.491-.143-.705-1.07-4.004-2.553-6.62-4.789-8.372 3.996 5.423 5.788 11.234 5.463 17.68-.333 6.397-5.122 10.86-11.662 10.86l-.817-.023c-2.481-.15-4.059-1.49-4.32-3.695-.175-1.53-.175-3.091-.183-4.598 0-.626 0-1.26-.016-1.887-.016-.824-.008-1.625 0-2.441 0-1.76.008-3.417-.214-5.05-.491-3.52-2.584-5.9-6.223-7.064a3.694 3.694 0 00-.777-.183 6.826 6.826 0 012.727 2.743c1.348 2.498 2.497 4.765 3.124 7.223 1.617 6.509.023 11.582-4.607 14.682-2.402 1.602-5.478 2.196-8.19 2.577a23.943 23.943 0 01-3.265.206c-4.052 0-8.016-.951-11.837-1.855l-1.942-.468a44.468 44.468 0 00-9.918-1.26c-2.632 0-5.368.507-8.015.999l-1.23.222c-20.081 3.615-38.133 5.367-55.17 5.367z" fill="#e65270"/><path d="M675.28 566.008s-29.612 35.327-79.915 15.087c-46.061-18.552-29.27-69.64-29.27-69.64s8.166 31.68 31.997 43.683c34.503 17.386 77.172 10.87 77.172 10.87zM529.403 581.15c6.414 6.525 6.533 13.184 8.547 21.31 3.797 15.286 8.467 28.55 18.202 41.131 9.363 12.09 20.566 20.629 35.034 26.186 12.534 4.805 28.652 3.385 26.25 22.048l-4.202 15.721c-32.03 0-62.037-14.619-74.262-46.41-10.718-27.883 1.911-61.585-30.578-108.772 2.6 3.179 17.687 25.37 21.01 28.762z" fill="#430a1d" opacity=".2"/><path d="M516.72 567.276c.491 1.982.935 3.996 1.387 6.002-1.197-1.467-1.816-3.338-1.388-6.002z" fill="#2b2b2b" opacity=".2"/><path d="M-32.35-35.99c-15.24 1.506-17.04 16.68-17.04 16.68s-.828 7.033 1.104 13.93c1.241-12.55 11.31-21.24 11.31-21.24s2.212-7.15 4.622-9.367z" fill="url(#linearGradient1246)" transform="matrix(7.928 0 0 -7.928 399.94 403.88)"/><path d="M113.343 643.385s-25.338 2.41-59.151-38.633c32.6 59.15 74.848 60.356 74.848 60.356z" fill="#2b2b2b" opacity=".2"/><path d="M-27.91-38.92c-.799 14.03 7.438 7.52 11.69 14.96 1.195 6.51 4.782 10.63 4.782 10.63s-25.51 4.782-25.91-13.82c.888-4.028 4.792-7.921 7.236-10.03-.478 1.078-6.567 17.83 13.71 16.47-6.999.596-17.1-6.716-12.29-17.67.483-.351.776-.539.776-.539z" fill="url(#linearGradient1248)" transform="matrix(7.928 0 0 -7.928 399.94 403.88)"/><path d="M233.293 552.054c-41.796 15.714-112.736 15.634-92.599 122.25-3.234 2.426-19.391-22.626-15.356-20.193-18.583-95.373 64.883-89.824 107.9-102.112z" fill="#fff" opacity=".2"/><path d="M286.252 513.841c40.647-16.078 7.643 29.508 1.871 36.802-13.342 16.87-47.1 11.377-65.088 17.014-10.346 3.234-51.818 9.315-65.557 48.582-6.105 17.402-8.404 45.832 4.606 80.47-3.227 2.434-24.608-20.978-20.565-18.568-34.312-153.248 127.561-98.228 144.765-164.268z" fill="#8b4fba" opacity=".6"/><path d="M690.343 451.25c1.102-3.045 2.996-6.937 5.383-9.236.555.261 1.15.293 1.601.578 3.964-2.568 10.227-2.227 15.206-2.227 2.981 0 7.326-.825 10.203.293 4.186 1.625 3.71 6.025 5.463 9.363 3.282 6.231 13.398 6.31 13.438 15.127.032 4.146 1.07 9.767.008 13.826-.793 3.013-4.162 2.085-7.064 2.085-8.792 0-17.56.254-26.369.254l-12.177-9.078c-3.25 1.039-5.795-5.771-6.24-8.094-.729-3.822-.824-9.11.548-12.891z" fill="#f9e0e7"/><path d="M731.013 463.316c1.49-.61 3.687-2.997 4.606-4.4.666-1.007.476-1.649 1.903-1.61 3.718.104 3.75 5.122 3.56 7.715-.222 3.314-1.562 6.358-2.046 9.616-1.205-.3-1.87-1.815-3.226-2.204-1.078-.317-2.624-.158-3.75-.11-1.65.07-3.933 1.18-5.423.546z" fill="#fff"/><path d="M-18.99 13.06c.07.081.088.106.11.128 2.035 1.901 3.114 4.298 3.694 6.98.381 1.755-.105 3.303-.895 4.816-.014.026-.039.05-.066.084-.158-.494-.302-.979-.47-1.456-.413-1.176-.913-2.314-1.707-3.288-.317-.388-13.61-7.753-12.24-24.06.009-.101.026-.198.04-.31.246.229.461.466.708.661.885.693 1.907 1.133 2.973 1.431a190.04 190.04 0 005.881 1.525c2.237.548 4.487 1.056 6.645 1.882a16.52 16.52 0 013.437 1.82 18.85 18.85 0 014.207 3.956c.699.891 1.025 1.572 1.34 2.619.199-.539.095-2.041-.205-2.999-.31-.991-.837-1.854-1.524-2.648.165.053.345.08.492.164 1.902 1.084 3.587 2.419 4.831 4.249.834 1.226 1.342 2.569 1.413 4.062.001.021.01.042.017.075.396-1.832.339-4.952-1.727-7.17.73.258 1.39.517 2.066.718.559.166.928.493 1.237.984 1.356 2.147 2.48 4.396 3.088 6.877.47 1.916.587 3.84.06 5.765-.598 2.176-1.912 3.85-3.7 5.181-1.242.925-2.612 1.612-4.05 2.173-.087.034-.174.066-.259.103-.014.005-.021.021-.076.081.498-.137.945-.253 1.386-.384 2.06-.612 4.034-1.41 5.782-2.688 1.56-1.14 2.754-2.562 3.351-4.432.533-1.674.487-3.366.104-5.058-.56-2.467-1.709-4.665-3.109-6.746a15.698 15.698 0 01-.126-.193c-.006-.01-.005-.026-.013-.063.058.022.104.037.146.059 2.931 1.499 5.537 3.416 7.613 5.992 2.016 2.5 3.483 5.284 4.18 8.438.877 3.98-.085 7.513-2.663 10.63-1.629 1.972-3.643 3.464-5.873 4.68a27.244 27.244 0 01-9.177 3.061c-1.842.268-3.686.32-5.527-.034-1.012-.193-1.668-.458-2.79-1.107.142.121.277.249.426.359 1.007.764 2.168 1.16 3.387 1.407 2.016.408 4.049.403 6.082.166A27.237 27.237 0 008.5 38.903c.278-.139.553-.283.86-.441 0 .258-.015.483.004.706.026.344.199.541.47.573.258.032.41-.065.46-.319.041-.215.052-.436.083-.653.07-.492.298-.909.636-1.271a.629.629 0 01.115-.097c.019-.014.046-.013.118-.028v.502c-.005.329-.018.659-.011.988.003.081.06.211.116.227.077.021.217-.018.265-.079.129-.17.268-.354.327-.556.129-.428.187-.876.321-1.301.088-.275.228-.547.403-.775.192-.25.386-.195.459.111.068.286.093.583.136.875.015.101.018.205.049.299.025.081.084.148.128.223.066-.061.163-.107.192-.182.067-.17.133-.353.141-.532.021-.396-.016-.795.013-1.19a1.52 1.52 0 01.188-.616c.114-.203.297-.179.36.048.091.324.136.659.202.99l.147.721c.265-.226.329-.477.355-.72.068-.647.101-1.297.158-1.945.044-.486.211-.913.498-1.328.521-.755.982-1.554 1.448-2.346.24-.406.462-.443.686-.025.254.474.443.982.658 1.478.094.217.173.439.272.653.046.104.124.192.195.299a.622.622 0 00.267-.667c-.073-.361-.206-.712-.3-1.069-.101-.39-.209-.779-.27-1.177-.023-.16.049-.351.122-.507.103-.224.267-.252.443-.076.179.178.318.395.492.576.099.104.235.167.354.249.067-.145.203-.297.191-.437a3.163 3.163 0 00-.205-.878c-.222-.565-.521-1.103-.712-1.676-.138-.416-.164-.871-.209-1.312-.012-.109.078-.299.163-.33.089-.032.265.056.344.143.363.399.704.82 1.06 1.228.087.101.203.174.305.261l.103-.05c-.034-.232-.025-.482-.109-.697a6.506 6.506 0 00-.524-1.033c-.323-.516-.692-1.002-1.023-1.512-.612-.943-1.017-1.972-1.271-3.069-.183-.788-.443-1.558-.671-2.334-.027-.096-.061-.189-.065-.296.199.318.393.641.599.957.431.664.928 1.275 1.596 1.714.336.22.697.418 1.073.556 1.933.711 3.887 1.372 5.73 2.299.524.266 1.025.588 1.502.935.603.438.826 1.049.646 1.789l-.383 1.562c-.312-.498-.587-.978-.902-1.428s-.704-.832-1.283-1.089c.052.099.067.142.093.177.812 1.119 1.28 2.391 1.642 3.708.037.136-.005.3-.029.447-.166.96-.086 1.922-.043 2.885.01.191.01.39-.017.58-.011.088-.083.198-.158.231-.051.024-.184-.046-.229-.108-.186-.262-.394-.518-.519-.808a196.62 196.62 0 01-1.465-3.524c-.598-1.469-1.272-2.894-2.299-4.121-.464-.555-.993-1.038-1.642-1.375a2.503 2.503 0 00-.395-.158c1.005 1.039 1.231 2.354 1.276 3.699.059 1.722.025 3.448.042 5.172.018 1.864.172 3.712.728 5.508.021.071-.014.174-.053.246-.157.305-.356.592-.486.908-.273.663-.501 1.343-.768 2.01-.156.391-.209.421-.629.39-.452-.032-.722.227-.962.548-.183.243-.258.238-.384-.048-.137-.309-.245-.629-.393-.933-.051-.104-.181-.172-.275-.256-.072.106-.192.21-.204.323-.039.369-.029.741-.055 1.111a1.974 1.974 0 01-.099.542c-.03.082-.154.169-.243.176-.064.005-.175-.104-.202-.185-.091-.263-.145-.537-.228-.802-.067-.213-.162-.236-.289-.062-.925 1.26-2.159 2.154-3.478 2.948-.389.234-.772.478-1.159.715l-.079-.027.149-1.285c-.035-.019-.07-.035-.104-.053-.122.104-.262.191-.364.312-.257.303-.489.625-.749.927-.514.604-1.162 1.036-1.785 1.178.197-.675.385-1.314.571-1.955-.029-.014-.061-.027-.09-.04-.065.08-.14.154-.193.241-.151.245-.3.49-.438.742-.594 1.075-1.51 1.695-2.712 1.868-.818.118-1.645.196-2.469.252-.605.042-1.184.131-1.738.395-.388.175-.804.295-1.212.431-.069.024-.159-.005-.239-.01.006-.087-.012-.188.023-.26.192-.376.401-.743.594-1.119.071-.135.117-.284.173-.427l-.055-.06c-.123.041-.251.069-.366.125-.532.258-1.072.501-1.586.791-.524.296-1.1.32-1.668.368-1.775.149-3.528.03-5.243-.489-1.043-.315-2.007-.788-2.855-1.522.107.011.217.011.321.031 1.036.212 2.072.413 3.138.378.725-.024 1.432-.139 2.07-.507.101-.058.166-.18.248-.271-.143-.05-.293-.145-.43-.128-.331.039-.655.162-.988.19-1.062.094-2.084-.151-3.095-.429-2.448-.672-4.665-1.815-6.724-3.286-.502-.358-1.023-.688-1.544-1.02a8.097 8.097 0 01-2.489-2.492 1.993 1.993 0 01-.195-.382c-.133-.37-.035-.678.315-.863.249-.132.527-.226.803-.293 3.659-.892 6.384-3.908 6.806-7.639.159-1.399.354-2.801.284-4.22-.161-3.257-1.328-6.095-3.502-8.519-1.293-1.442-2.822-2.589-4.495-3.554-.033-.018-.069-.033-.167-.084z" fill="url(#linearGradient1250)" transform="matrix(7.928 0 0 -7.928 399.94 403.88)"/><path d="M621.131 128.858c-12.32 96.246-55.028 74.452-82.927 128.195-1.53-2.021-5.05 14.406 1.99-16.101 7.048-30.523 27.24-16.744 46.355-51.651 24.204-44.135 19.368-48.091 34.622-60.42z" fill="#8b4fba" opacity=".2"/><path d="M493.49 130.681c-4.582 27.542-43.524 26.297-76.846 14.611-36.215-12.7-111.467-16.775-117.493-1.625-3.02 3.473-9.085-10.814-9.085-10.814s57.137-62.337 152.772 3.457c-3.892-6.057 34.376-23.784 34.376-23.784s11.512-3.488 16.268 18.155z" fill="#fff" opacity=".3"/><path d="M295.29 395.143c2.078 5.161 18.996 1.681 20.581-6.358-24.957-28.28 40.75-80.231-19.851-148.016 39.664 104.65-44.77 108.852-.73 154.358z" fill="#8b4fba" opacity=".2"/><path d="M295.29 395.143c2.078 5.161 1.705 3.679 3.29-4.36-24.957-28.287 41.52-69.513-2.56-149.998 39.664 104.65-44.77 108.852-.73 154.358z" fill="#8b4fba" opacity=".6"/><path d="M-1.723 3.705c15.13 15.92-3.997 13.25-10.23 24.06.011.185.024.366.024.556a9.212 9.212 0 01-.998 4.17c5.834-8.653 20.62-1.023 17.75-18.71-.259-.909-2.317-9.873-6.547-10.07z" fill="url(#linearGradient1252)" transform="matrix(7.928 0 0 -7.928 399.94 403.88)"/><path d="M-1.723 3.705C-7.952.648-13.393.559-13.143 1.466c12.38 8.397 2.385 17.05.056 25.2.159.658 1.154.903 1.154 1.65 0 .08-.009.157-.011.236.18-.809.606-1.09 1.014-1.5 5.752-5.803 24.04-7.741 9.203-23.35z" fill="url(#linearGradient1254)" transform="matrix(7.928 0 0 -7.928 399.94 403.88)"/><path d="M370.813 372.628c75.95-113.45-65.835-135.014-64.804-170.928-11.297 73.968 124.628 105.601-3.084 194.157-2.045 7.19 18.504 1.023 67.888-23.213z" fill="#e65271"/><path d="M23.09 28.8c.761-1.271-.084-2.771-.97-4.176-.818-1.298-2.793-.873-4.133-4.002l.115 2.438c1.485 2.587-1.027 6.148-1.726 8.554-1.19 4.1-2.484 7.883-.907 12.04.107.28.198.585.306.872.786-.581 1.38-1.16 2.057-2.043.447-.586.291 1.512.879 1.072.432-.32-.021-1.803.391-2.147.462-.389.74 1.868 1.075 1.368.781-1.173 1.229-.428 1.562-.781.301-.319 1.005-2.778 1.289-3.111.278-.323.543-.656.805-.991-.158-1.79-.506-3.802-1.082-5.417-.543-1.525-.569-2.161.339-3.679z" fill="url(#linearGradient1256)" transform="matrix(7.928 0 0 -7.928 399.94 403.88)"/><path d="M414.21 27.38a2.696 2.696 0 00.872.182c3.322-.056-8.95-15.492-5.422-15.492 5.954 0 14.365 6.152 20.192 6.604 12.305.944 25.06.666 35.962 5.653 10.449 4.789 15.095 19.646 17.433 20.28 2.355.65-5.684-17.18-3.377-16.395 3.909 1.316 7.032 3.25 9.609 5.39 10.306 14.755 13.652 87.843-1.467 86.02-15.888-1.982 25.06 5.613 25.227 4.994 13.692-51.698-16.815-83.482-15.436-81.658 1.8 2.378 3.259 4.225 4.805 4.82 3.258 1.253-2.022-12.463.951-10.647 9.458 5.78 16.165 9.862 21.675 13.96.167.239.214.81.484.699 4.059-1.69 29.111-7.58 10.044 82.45 28.954-58.587 6.287-81.578 8.507-79.184 10.283 11.107 12.384 38.205 13.708 54.267 1.252 15.071-8.23 49.431-20.518 60.792-8.65 7.991-8.475-1.903-11.725-9.545-5.336-12.55-15.12-22.674-23.998-33.005-6.612-7.69-14.636-13.31-21.906-20.192-7.92-7.5-12.09-17.98-19.17-26.21-6.326-7.357-14.111-13.216-20.129-20.89-6.746-8.594-11.265-18.425-18.718-26.337-2.37-2.53-5.018-4.432-7.603-6.462z" fill="#e65271"/><path d="M8.803 48.52c2.232.007 3.633-1.062 5.48-2.084 1.531-.85 3.412-.859 4.705-2.031 1.717-1.558 2.46-3.104 2.783-5.386.369-2.597.413-5.91-.078-8.499-.252-1.328-1.196-4.049-2.191-5.021l-1.194.76c-2.355 6.081-9.453 8.576-12.14 14.55-.792 1.759-1.09 4.045-1.109 5.967-.021 2.013 2.117 1.737 3.743 1.742z" fill="url(#linearGradient1258)" transform="matrix(7.928 0 0 -7.928 399.94 403.88)"/><path d="M293.626 139.64a73.524 73.524 0 00-45.721-32.021c-4.868-1.087-13.589-4.115-4.955-14.509 9.236-14.42 22.507-19.947 29.65-25.242 28.724-21.327 16.847-23.507 33.607-25.441 6.549-.761 4.82-1.332 8.142 0s-2.553-.936-4.653-2.323C291 27.736 292.349 52.416 300.388 47.08c23.927-18.504 79.042-31.49 94.502-28.842 2.251.38 17.782 9.355 20.16 9.316 3.323-.056-8.95-15.492-5.422-15.492 5.954 0 14.366 6.153 20.193 6.604 12.058.928 48.725 17.743 48.463 62.013-.079 13.525.754 23.015-1.07 31.831-13.366 64.756-148.73-26.123-183.612 27.13z" fill="#f6e8a0"/><path d="M455.674 99.762c-6.271-7.84-47.037-21.953-47.037-21.953s-67.705-23.332-130.178 43.113c31.91-25.338 88.001-14.715 128.513-10.03 5.36.627-11.583-4.78-7.143-6.42 15.063-5.574 29.009 10.044 44.024 7.031 7-1.403 11.21-5.2 11.757-11.741z" fill="#fff"/><path d="M403.745 88.821c-24.862-6.548-49.716 3.037-54.505 3.33 2.252-3.385 5.923-11.194 24.34-13.89 4.233-.626 12.716.056 17.164.048 7.96-.016 12.898 1.902 19.923 5.288 4.479 2.156 15.309 4.447 18.75 3.916 0 0 38.101 2.87 25.48 15.793-12.606 12.914-31.014-16.657-71.4-7.199.008-1.316 9.236-7.904 20.248-7.286z" fill="#f6e8a0"/><path d="M366.056 35.228c-15.714-10.402-43.184-1.475-46.752-1.53-.079-.365.135-.77.777-1.181 23.935-18.504 59.397-16.855 74.849-14.207a4.416 4.416 0 01.737.237c3.345 1.285 14.278 7.445 18.258 8.8 23.292 13.2 60.094 41.076 63.337 85.227-13.232-5.883-22.746-11.615-30.055-17.196-2.458-1.88-58.128-60.063-205.494 9.846 0 0-4.099-2.251-1.76-7.515 33.274-53.467 94.026-68.823 190.748-18.187-13.716-16.348-20.367-31.157-64.693-44.302z" fill="#f8d285"/><path d="M7.606 8.601c6.884 7.039 9.689 12.3 6.357 17.96-5.396 9.178-22.01-.395-29.24 8.865.766-.875 2.394-2.609 3.969-3.46 5.357-3.5 15.44-2.374 18.65-5.08 4.133-3.48 5.189-10.5.262-18.29z" fill="url(#linearGradient1260)" transform="matrix(7.928 0 0 -7.928 399.94 403.88)"/><path d="M-14.82 23.31c-.008-.471 1.072-3.195.903-3.822-1.45-5.352-7.734-7.979-7.734-7.979s-7.037-2.832-8.155-15.78c-1.284-.923-1.106 1.043-1.066 1.917.799 16.98 14.92 15.08 16.05 25.66z" fill="url(#linearGradient1262)" transform="matrix(7.928 0 0 -7.928 399.94 403.88)"/><path d="M9.123-4.738c-.116.053-.227.123-.348.158-.617.172-1.238.33-1.856.506-.195.055-.381.144-.572.218l.004.123c.222.04.441.11.663.113.887.01 1.775-.002 2.663-.004 1.253-.003 2.512.003 3.721.369a8.9 8.9 0 011.706.751c5.713 3.18 9.75 7.834 12.18 13.9a25.113 25.113 0 011.172 3.82c.018.072.026.147.048.272-.095-.057-.156-.086-.213-.123-3.496-2.394-7.314-4.018-11.48-4.807a28.654 28.654 0 00-4.509-.466.517.517 0 01-.333-.124c-2.266-2.311-4.942-4.019-7.83-5.44C1.836 3.395-.597 2.709-3.098 2.223-6.305 1.6-9.52 1.008-12.728.391c-3.939-.757-7.858-1.598-11.67-2.886-2.415-.816-4.756-1.797-6.896-3.202-1.611-1.06-3.045-2.313-4.059-3.979-.356-.588-.609-1.239-.915-1.858a1.179 1.179 0 00-.202-.312c-2.124-2.077-2.96-4.604-2.634-7.536.242-2.169 1.018-4.153 2.127-6.019.131-.219.242-.448.344-.64.053.473.095 1.003.169 1.528.469 3.341 2.19 5.83 5.117 7.492 1.703.969 3.537 1.611 5.438 2.031 2.084.46 4.186.847 6.287 1.227 2.551.461 5.116.846 7.596 1.628.482.152.959.327 1.432.506.61.229 1.18.525 1.711.918 1.758 1.295 3.684 2.287 5.715 3.081.055.021.109.045.163.067.003.006.004.017.012.04-.033.003-.062.007-.092.007-2.272-.001-4.547-.014-6.819-.001-2.032.012-4.058-.05-6.074-.316-2.791-.37-5.492-1.093-8.122-2.094-3.103-1.183-6.04-2.699-8.887-4.399a.728.728 0 00-.257-.108c.053.043.103.09.155.13 3.117 2.364 6.436 4.381 10.1 5.796a30.878 30.878 0 007.901 1.917c2.396.253 4.793.229 7.191.055 2.074-.151 4.147-.302 6.222-.444.18-.015.373.01.547.062 2.051.624 4.15.991 6.269 1.292 1.251.179 2.486.479 3.726.726.085.018.165.062.245.095a5.4 5.4 0 01.012.072z" fill="url(#linearGradient1264)" transform="matrix(7.928 0 0 -7.928 399.94 403.88)"/><path d="M169.552 496.875c64.407-76.94 231.498-36.611 302.691-55.432-45.086 25.909-81.737 21.43-81.737 21.43s-153.883-16.99-220.954 34.002z" fill="#fff" opacity=".2"/><path d="M662.04 204.887c-2.18.373-3.79.476-5.265.952-5.803 1.815-11.852 3.17-17.29 5.787-5.177 2.497-9.974 6.041-14.461 9.688-8.697 7.064-16.998 14.588-25.576 21.754-7.024 5.86-14.484 11.1-23.364 13.819a67.943 67.943 0 01-8.831 1.863c11.574-5.827 18.052-16.213 24.767-26.86-.571.095-.777.071-.928.143-17.648 8.633-34.939 17.854-50.644 29.801-4.194 3.195-7.5 6.826-9.862 11.781-3.774 7.88-8.555 15.293-12.9 22.888l-.927 1.586c3.806-.793 7.135-1.332 10.402-2.165 13.826-3.543 26.685-9.521 39.307-16.03 19.717-10.203 38.474-22 56.693-34.661a6.422 6.422 0 011.84-.967c-.167.23-.302.483-.5.673-21.604 21.54-45.832 39.284-74.151 51.04a135.244 135.244 0 01-38.157 9.88c-.492.063-1.134.221-1.412.562-2.94 3.56-5.81 7.16-9.061 11.179 8.055-1.729 15.642-3.243 23.181-4.995 21.089-4.9 41.765-11.123 61.513-20.098 14.588-6.627 28.486-14.42 40.195-25.504 15.444-14.627 26.813-31.95 33.44-52.23.976-2.98 1.277-6.207 1.99-9.886z" fill="#e65271"/><path d="M297.193 400.74c6.255-2.1 13.383-4.7 20.986-7.618 89.665-27.954 119.237-51.255 119.237-51.255l90.062-66.658s14.714 11.257 33.757-3.465c-12.978 15.579-52.8 27.7-52.8 27.7s-1.84 12.257-14.826 21.779c35.438-12.035 94.978-8.594 136.283-45.785-31.237 88.318-108.773 21.002-183.771 75.95-8.658 5.194-123.043 34.424-66.183 32.418 56.82-1.998 94.264 36.77 141.752 24.07-44.555 16.157-83.957-9.736-145.954-14.088 9.656 1.934 22.888 7.254 28.525 14.524-22.5-16.062-66.532-16.808-76.989-13.129a273.112 273.112 0 00-29.992 5.558z" fill="#8b4fba" opacity=".6"/><path d="M512.2 427.989c-65.302 25.94-296.11-49.201-399.73 67.372 0 0-7.76-3.472 33.504-49.732 162.287-77.576 283.03-4.218 366.274-17.64z" fill="#2b2b2b" opacity=".2"/><path d="M26.89 9.993c2.437 1.371.457-1.98-1.979-3.959-9.594-6.7-13.93.924-23.45-2.745 14.56 8.025 15.98-1.976 25.43 6.704z" fill="url(#radialGradient1266)" opacity=".7" transform="matrix(7.928 0 0 -7.928 399.94 403.88)"/><path d="M607.257 339.735c19.329-10.87 9.53.618-9.783 16.315-76.061 53.118-110.437-7.325-185.912 21.763 74.262-41.321 120.823 30.729 195.663-38.078z" fill="#8b4fba" opacity=".2"/><path d="M-21.22 11.68c-4.438-4.062-.958-12.96-.958-12.96l-3.159-.677s-3.188 8.599 4.117 13.63z" fill="url(#radialGradient1268)" opacity=".7" transform="matrix(7.928 0 0 -7.928 399.94 403.88)"/><path d="M-13.56 18.5c3.345-5.953-5.526-14.14-.762-17.04-.076-.391-2.724-1.719-2.6-1.335-5.879 9.021 3.817 11.17 2.544 16.81-6.799-9.276-6.872-11.11-3.569-16.98-.041-.032-.404-.506-.765-.236-5.165 3.873-6.619 8.224 5.152 18.78z" fill="url(#radialGradient1268)" opacity=".7" transform="matrix(7.928 0 0 -7.928 399.94 403.88)"/><path d="M379.097 353.14c1.681 22.104 17.117-13.81 19.456-38.593 2.013-92.757-92.044-70.313-96.326-145.32-9.149 85.385 92.6 83.482 76.862 183.93z" fill="#8b4fba" opacity=".2"/><path d="M470.27 316.355c1.664 22.103 46.045-34.788 48.392-59.563-14.889-159.115-178.697-62.346-221.509-120.981 35.367 64.216 264.32-25.124 173.069 180.52z" fill="#fff" opacity=".3"/><path d="M46.67-28.04c-.303-.266-.552-.508-.826-.718a4.373 4.373 0 00-.709-.437c-.604-.292-1.212-.33-1.823-.006-.951.504-1.971.542-3.012.428-.303-.033-.501-.176-.64-.459-1.043-2.147-2.781-3.525-4.958-4.396-.249-.1-.366-.216-.41-.487-.111-.683-.157-1.356.005-2.036.263-1.089.941-1.87 1.853-2.471.956-.63 2.021-1.001 3.122-1.277 1.323-.328 2.662-.548 4.029-.544a7.078 7.078 0 012.05.284c1.493.451 2.414 1.448 2.753 2.955.219.979.426 1.968.526 2.963.229 2.281-.382 4.328-1.889 6.084-.027.033-.045.074-.071.117z" fill="url(#linearGradient1272)" transform="matrix(7.928 0 0 -7.928 399.94 403.88)"/><path d="M735.77 627.529c.896 5.43 11.091 6.905 15.824 6.747 8.333-.286 13.724-5.146 19.139-11.456a20.65 20.65 0 002.148-3.076c9.434 7.523 14.706 17.71 13.256 28.096-2.569 18.314-25.124 30.27-50.359 26.726-17.45-2.458-31.617-11.694-37.832-23.213 4.614-5.899 6.421-13.399 12.502-18.497 5.922-4.947 17.624-5.66 25.322-5.327z" fill="#f6e8a0" opacity=".3"/><path d="M-35.04-6.489c.689-.34 1.169-.414 1.596-.26-.491 2.5-.748 5.021-.661 7.558.098 2.807.584 5.542 1.816 8.101.156.325.337.64.549.941-.013-.05-.021-.101-.04-.148-.663-1.665-.969-3.403-1.07-5.186-.157-2.781.17-5.516.771-8.225.014-.066.034-.13.061-.226.393.264.776.516 1.149.782.045.033.046.154.036.231a22.12 22.12 0 000 4.934c.254 2.349.834 4.615 1.661 6.821 1.153 3.08 2.714 5.94 4.622 8.613.044.062.089.124.131.187.009.013.008.031.021.082-.278-.098-.538-.187-.798-.281-1.756-.636-3.476-1.355-5.132-2.222a3.642 3.642 0 01-.728-.496c-2.331-2.065-3.705-4.674-4.326-7.701-.093-.451-.159-.909-.284-1.361.028.502.041 1.006.085 1.508.208 2.389.655 4.734 1.46 6.997.205.575.062 1.094-.025 1.634-.027.168-.146.322-.224.483-.129-.125-.288-.23-.381-.378-.662-1.052-1.088-2.209-1.438-3.394-.535-1.815-.854-3.68-1.117-5.554-.244-1.75-.4-3.51-.392-5.279.009-1.789.146-3.562.741-5.27.283-.812.664-1.573 1.213-2.238.196-.238.437-.441.656-.661z" fill="url(#linearGradient1274)" transform="matrix(7.928 0 0 -7.928 399.94 403.88)"/><path d="M186.36 263.95s-35.248 4.956-50.113 29.192c-14.873 24.228-19.146 65.905-19.146 65.905s-7.611 62.148 17.616 98.307C118.734 324.64 186.36 263.911 186.36 263.911z" fill="#2b2b2b" opacity=".2"/><path d="M-35.04-6.489a.761.761 0 00-.047-.007c-.917.358-1.634.975-2.219 1.75-.853 1.13-1.302 2.436-1.578 3.804-.411 2.038-.446 4.098-.271 6.159.1 1.177.273 2.349.415 3.521.005.042.006.083.01.168-.072-.062-.123-.096-.164-.139-3.401-3.526-5.957-7.585-7.631-12.19a.693.693 0 01.008-.408c.999-3.194 2.445-6.183 4.216-9.013.748-1.194 1.573-2.34 2.364-3.507.062-.091.134-.174.248-.323.028.587.341 1.063.1 1.637-.309.733-.508 1.504-.467 2.316.016.3.088.58.296.859.207-.588.367-1.167.828-1.611.135.242.162.452.077.709-.321.958-.544 1.937-.483 2.956.019.312.09.62.175.933.279-.765.74-1.391 1.273-1.992.031.046.059.076.076.112a17.49 17.49 0 002.707 4.024c.049.057.046.162.067.244z" fill="url(#linearGradient1276)" transform="matrix(7.928 0 0 -7.928 399.94 403.88)"/><path d="M94.87 486.41S55.23 408.835 73.783 342.2c2.307-1.831-3.718 2.878-10.893 11.131-1.094 1.253-14.39 89.19 12.59 128.037-36.263-43.01-19.091-119.871-20.621-117.651-3.243 4.788-6.152 10.076-8.07 15.594-18.544 86.891 45.546 139.137 45.546 139.137z" fill="#2b2b2b" opacity=".2"/><path d="M701.442 765.714c-1.641 2.49-3.536 4.995-5.042 7.746a10.108 10.108 0 00-.746 8.181c1.134 3.497 3.473 4.836 7.096 4.321 2.91-.436 5.827-.888 8.752-.983 3.108-.095 3.33.317 3.68 3.338.086.8.19 1.625.483 2.354 1.173 2.99 2.91 5.566 6.382 6.026 3.37.444 5.74-1.443 7.563-4.036 5.43-7.69.928-18.084-8.507-19.336-2.925-.389-5.977.08-8.974.166-.579.024-1.15.127-1.729.183l-.436-.532c.81-.943 1.435-2.196 2.45-2.782 2.157-1.221 4.456-1.713 7.104-1.411 16.149 1.847 31.553-.064 45.253-9.744 7.603-5.375 13.216-12.447 17.513-20.644.023-.056.079-.111.103-.167.539-1.49 1.64-3.306.174-4.432-.856-.666-2.806-.372-4.099.048-6.033 1.982-11.892 4.495-17.996 6.16-8.927 2.442-18.171 2.521-27.352 2.022-12.407-.666-24.6-2.64-36.318-7.04-13.137-4.932-24.989-11.893-35.272-21.477-1.18-1.102-2.378-2.197-3.702-3.084-2.244-1.49-3.774-.754-3.861 1.958a22.563 22.563 0 00.563 5.78c4.392 19.161 16.022 32.639 33.202 41.542 4.496 2.339 9.332 3.996 13.716 5.843z" fill="#e65270"/><path d="M-48.02-.649c-.087-8.721 2.718-16.29 8.558-22.72-.082.592-.191 1.183-.241 1.775a90.01 90.01 0 00-.185 3.035.952.952 0 01-.178.534c-2.187 3.156-4.193 6.419-5.793 9.918-.812 1.776-1.506 3.598-1.878 5.523-.121.621-.186 1.252-.283 1.93z" fill="url(#linearGradient1278)" transform="matrix(7.928 0 0 -7.928 399.94 403.88)"/><path d="M23.3 28.03c1.046 1.809 2.125 3.55 2.508 5.601.064.343.044.708.023 1.062-.114 1.978.091 3.91.732 5.793.057.167.126.343.122.513a.72.72 0 01-.17.415c-.12.141-.283.091-.437.003-.493-.279-.851-.689-1.138-1.166-.584-.959-.895-2.02-1.112-3.106-.595-2.975-.685-5.984-.568-9.007.001-.016.011-.03.04-.108z" fill="url(#linearGradient1280)" transform="matrix(7.928 0 0 -7.928 399.94 403.88)"/><path d="M589.498 90.328c1.507-3.203 7.706-10.212 10.196-12.233l5.605-3.576c-5.629 14.366-7.65 28.985-7.65 44.286 0 12.89 3.971 24.862 4.598 37.69.507 10.568-4.1 15.88-9.585 24.481-2.474 3.87-5.851 12.25-11.226 12.28-2.49-6.12-2.085-13.778-2.149-20.31-.071-7.826-1.324-15.46-1.015-23.365.587-14.92 8.642-53.751 11.226-59.253z" fill="#8b4fba" opacity=".4"/><path d="M782.545 708.236c-.238.19-.317.222-.34.27-6.097 12.534-16.935 18.004-30.032 19.106-21.635 1.84-42.39-2.212-62.084-11.266-8.3-3.821-15.404-9.37-19.4-17.901-1.728-3.687-2.569-7.793-3.86-11.845-4.298-.023-9.411 4.226-9.752 8.808-.111 1.49.515 3.164 1.189 4.559 2.72 5.621 7.088 9.878 11.852 13.731 12.25 9.887 26.274 16.126 41.48 19.804 19.97 4.837 39.94 4.98 59.697-1.006 4.678-1.42 9.11-3.798 13.454-6.113 3.362-1.8 5.074-4.884 4.575-8.88-.54-4.32-2.775-7.412-6.779-9.267z" fill="#e65270"/><path d="M782.545 708.236c-.238.19-.317.222-.34.27-6.097 12.534-16.935 18.004-30.032 19.106-21.635 1.84-42.39-2.212-62.084-11.266-8.3-3.821-15.404-9.37-19.4-17.901-1.728-3.687-2.569-7.793-3.86-11.845-4.298-.023-9.411 4.226-9.752 8.808-.111 1.49.515 3.164 1.189 4.559 2.72 5.621 7.088 9.878 11.852 13.731 12.25 9.887 26.274 16.126 41.48 19.804 19.97 4.837 39.94 4.98 59.697-1.006 4.678-1.42 9.11-3.798 13.454-6.113 3.362-1.8 5.074-4.884 4.575-8.88-.54-4.32-2.775-7.412-6.779-9.267z" fill="#2b2b2b" opacity=".4"/><path d="M565.318 509.322a47.552 47.552 0 004.804 21.937c6.755 13.882 17.894 22.968 31.847 28.922 12.17 5.2 24.942 6.968 38.102 6.286.167-.008.333-.079.896-.253a117.969 117.969 0 01-26.051-7.017c-14.35-5.731-27.003-13.881-36.826-26.035a70.21 70.21 0 01-11.955-21.691c-.238-.73-.54-1.435-.817-2.149zm107.424-110.825c14.168-8.65 17.228-28.969 8.15-40.584 2.133 14.509-.8 27.978-8.15 40.584zm23.388 79.74c6.93 5.676 15.261 7.246 23.958 7.087 3.473-.079 6.93-.658 10.402-.824 1.879-.087 3.845.032 5.692.436 3.505.793 5.066.261 6.263-3.1 2.712-7.666 3.988-15.61 3.077-23.705-.444-3.876-1.253-7.856-2.791-11.416-6.05-14.136-24.363-19.939-37.928-12.225a35.85 35.85 0 00-4.955 3.433c-1.649 1.34-3.14 2.894-4.852 4.495.761.888 1.396 1.728 2.11 2.466a6.144 6.144 0 011.76 5.906c-1.555 7.024 1.482 12.01 7.34 15.206 4.187 2.283 8.769 3.924 13.328 5.438 2.346.801 4.764 1.372 7.222 1.871a2.291 2.291 0 001.657-.618c3.655-2.362 6.27-5.47 7.888-9.521.872 2.386.698 6.366-.071 9.323-.476 1.831-.167 6.295.761 7.595a1.712 1.712 0 00-.19.246 17.743 17.743 0 01-1.277-.674c-4.693-2.886-9.941-3.79-15.293-4.456-6.62-.84-13.057-2.354-18.694-6.168-6.786-4.59-10.425-10.972-10.814-19.178-.016-.253-.055-.491-.143-1.173-6.136 12.003-4.257 21.509 5.55 29.556z" fill="#0d0d0d"/><path d="M38.49-6.122a1.704 1.704 0 113.407 0 1.704 1.704 0 01-3.407 0z" fill="url(#linearGradient1282)" transform="matrix(7.928 0 0 -7.928 399.94 403.88)"/><path d="M709.465 450.18c.293 0 .587-.081.845-.242l3.19-1.994a1.595 1.595 0 00.75-1.353v-3.987a1.595 1.595 0 00-.75-1.353l-3.19-1.994a1.598 1.598 0 00-1.69 0l-3.19 1.994a1.595 1.595 0 00-.75 1.353v3.987a1.595 1.595 0 00.75 1.353l3.19 1.994a1.598 1.598 0 00.845.242zM765.5 680.012c2.394 1.49 6.128.856 7.516-1.776 5.756-10.948 5.232-23.72-.405-34.613-3.234-6.248-12.922-1.205-9.695 5.018 3.845 7.445 4.63 16.593.8 23.895-1.371 2.616-.88 5.835 1.784 7.476z" fill="#fff"/><path d="M178.907 711.566c-3.409-97.673 56.804-65.906 83.561-107.108 2.189-2.568 3.465-5.454 4.464-7.69-30.071 16.554-114.322 5.486-88.08 114.798z" fill="#430a1d" opacity=".2"/><path d="M133.084 521.214c82.689-71.201 245.926-63.424 257.897-62.417-68.482 48.845-273.912 2.926-281.444 151.584-13.342-42.225 3.838-72.209 23.547-89.19z" fill="#2b2b2b" opacity=".2"/><path d="M265.243 600.653v36.826c.008 15.237-19.154 6.929-26.543-13.993 18.465-7.239 26.543-22.833 26.543-22.833z" fill="#430a1d" opacity=".2"/><path d="M255.016 607.867c13.85-24.442-.38-45.586-2.592-46.49 7.872-.412 22.99-15.174 26.59-20.089 5.63-7.698 5.97-18.876 6.446-28.017 11.17-.508 19.027-7.342 29.19-9.776-8.64 8.095-20.366 17.672-25.615 28.589-4.67 9.688-8.618 20.842-11.757 31.149-2.56 8.443-4.947 16.83-6.533 25.536-1.173 6.493-5.002 15.214-4.305 21.532 0 0-1.427 56.852 9.974 84.91-21.58-7.35-32.91-24.966-36.842-31.784-4.447-7.706-12.827-26.884-2.45-39.101 6.708-2.442 14.05-9.688 17.894-16.474z" fill="#430a1d" opacity=".2"/><path d="M52.852 681.756c43.461 59.88 101.558 98.387 173.861 115.115 24.07 5.573 48.543 7.103 73.231 7 60.396-.261 120.823-.103 181.155-.11 40.623-.016 81.262 0 121.853-.104 9.665-.016 19.305-.658 28.549-3.876 9.07-3.148 16.07-8.697 19.963-17.704 5.589-12.986.816-29.341-11.234-38.15-8.848-6.46-18.996-8.332-29.69-7.856-2.87.135-5.74.587-8.602.88-.659.071-1.364.222-1.99.08-.92-.207-1.792-.659-2.68-.992.507-.745.872-1.649 1.538-2.204 11.044-9.386 18.647-20.961 22.286-35.018 1.324-5.105 1.712-10.298 1.236-15.546a31.775 31.775 0 01-.079-1.205c-.103-2.712.817-3.552 3.496-3.679 7.897-.365 15.793-.674 23.665-1.292 3.766-.302 7.484-1.221 11.726-1.483-.5.65-.864 1.61-1.522 1.91-6.295 2.91-10.41 7.762-12.471 14.232-2.418 7.618-4.115 15.404-3.766 23.482.54 13.05 5.613 24.276 13.874 34.17 7.429 8.88 16.578 15.563 26.924 20.637 1.332.65 1.68 1.22 1.22 2.719a20.002 20.002 0 00.341 12.851c.912 2.6 2.585 4.487 4.971 5.827a19.836 19.836 0 0017.632.975c.167.849.31 1.808.523 2.633 1.713 6.5 5.907 9.085 12.241 12.89h4.424c.182 0 .349-.467.531-.499 11.155-1.887 15.84-12.082 14.548-21.739-.333-2.489-1.054-4.939-1.538-7.182 5.05-1.332 10.259-2.363 15.23-4.1 22.951-7.983 38.102-23.474 44.523-47.076 2.561-9.442.976-17.901-6.35-24.91-.46-.451-.5-1.57-.388-2.322 1.419-8.92 3.623-17.775 4.202-26.75 1.371-21.286-5.32-39.964-20.122-55.527-.872-.912-.927-1.68-.697-2.807.975-4.772 2.093-9.537 2.68-14.365 1.212-9.736-2.506-17.814-8.999-24.839-.57-.626-1.213-1.3-1.483-2.077-1.815-5.414-5.565-9.101-10.52-11.59-9.99-5.035-20.581-6.057-31.498-4.242-7.151 1.197-13.676 4.21-20.137 7.27-2.854 1.348-5.462 2.022-8.103-.285-.443-.389-1.15-.484-1.57-.857-.729-.69-1.957-1.649-1.815-2.227.19-.888 1.237-1.895 2.157-2.26 5.026-1.982 10.219-3.052 15.665-3.052 4.083 0 8.19-.111 12.233-.595 12.9-1.561 24.728-6.215 35.835-12.843a6.937 6.937 0 012.394-.96 34.241 34.241 0 0028.398-27.763c.254-1.443.222-3.1.967-4.25 6.081-9.402 6.58-19.4 3.06-29.666-2.227-6.493-5.32-12.709-7.769-19.13-1.3-3.417-2.64-6.977-2.973-10.553-.888-10.171-2.236-20.24-4.963-30.07-5.827-20.978-16.213-39.157-32.885-53.42-16.831-14.389-36.564-21.96-58.422-24.29-1.926-.207-2.94-.817-3.79-2.72-4.772-10.822-12.62-18.425-23.918-22.373-2.933-1.023-5.859-1.26-8.618-.008-3.932 1.808-7.936 3.623-11.464 6.105-9.228 6.437-16.53 14.801-22.594 24.26-.468.713-1 1.648-1.705 1.886-.951.31-2.354.42-3.084-.087-.563-.38-.69-1.918-.468-2.814.254-1.055 1.063-1.99 1.697-2.918 16.062-23.229 26.281-48.789 30.983-76.632.158-.88.777-1.815 1.435-2.481 3.94-4.02 8.023-7.897 11.931-11.948 6.263-6.461 10.1-14.278 12.146-22.967.531-2.276.785-4.614.943-6.937.048-.706-.642-1.451-.99-2.188-.754.436-1.737.697-2.197 1.324-1.07 1.458-1.823 3.131-2.806 4.637-.65 1-1.499 1.856-2.268 2.807-.237-.563-.182-.88-.063-1.181a135.648 135.648 0 008.538-33.155c.397-3.187.666-6.406.746-9.609.063-2.33-1.483-3.813-3.045-3.18a7.096 7.096 0 00-2.196 1.674c-6.247 6.192-13.612 10.782-21.16 15.126-.166-.237-.293-.333-.3-.452-.207-1.125-.413-2.235-.58-3.361-2.021-13.2-5.502-26.036-9.521-38.76-3.076-9.72-4.812-19.661-3.116-29.896 1.015-6.097 3.18-11.63 8.356-15.516.397-.293.658-.76 1.11-1.284-.602-.31-.975-.61-1.395-.698-7.484-1.649-15.214-.681-19.408 7.905-.476.959-1.11 1.831-1.982 3.266-.943-1.887-1.879-3.116-2.18-4.471a66.936 66.936 0 01-1.221-20.582c.8-8.546 3.821-16.37 7.54-23.998.959-1.982 1.87-4.02 2.489-6.112 1.102-3.798-1.015-6.604-4.987-6.54a17.925 17.925 0 00-5.874 1.038c-9.784 3.679-17.22 10.14-22.167 19.392-.404.753-.77 1.506-1.213 2.402-3.924-3.821-7.5-7.532-9.363-12.621a76.283 76.283 0 00-4.392-9.45c-1.174-2.197-2.046-2.141-3.473-.151-.388.539-.729 1.126-1.15 1.64-1.093 1.325-1.942 1.333-2.806-.158-.769-1.316-1.347-2.767-1.87-4.194a38.903 38.903 0 00-12.464-17.195c-.388-.294-.832-.524-1.744-1.079.333 2.18.61 3.87.833 5.566.238 1.736.436 3.472.658 5.304-.523-.064-.674-.048-.777-.111a38.372 38.372 0 01-1.673-1.118 223.038 223.038 0 00-75.926-33.655c-8.349-1.982-17.101-2.68-24.64-7.412-.167-.111-.381-.167-.564-.254-1.49-.594-2.584-.27-3.742.896-.737.73-2.053 1.054-3.1 1.039-3.353-.08-6.69-.817-10.028-1.095-3.06-.253-6.216-.95-9.165-1.688-5.042-1.277-9.95-6.184-14.913-6.184H407.4c-1.157 0-2.529 3.33-3.464 4.495-1.641 2.053-3.655 4.456-6.232 4.622a281.016 281.016 0 00-50.572 7.682c-25.307 6.28-49.083 16.023-70.377 31.34-15.563 11.202-28.914 24.505-38.38 41.368-1.934 3.425-3.464 7.096-4.994 10.719a12.146 12.146 0 00-.476 8.665c.809 2.402 2.624 3.734 5.066 3.354 13.914-2.189 25.687 2.893 36.548 10.782 10.798 7.864 19.027 17.925 23.72 30.515 6.914 18.599 3.172 35.247-9.862 49.986-1.316 1.49-2.806 2.838-4.408 4.447-.602-2.26-1.102-4.313-1.696-6.358-2.95-10.069-7.16-19.471-14.326-27.32-4.162-4.574-5.811.848-4.765 9.133 2.252 17.608-3.155 32.759-15.42 45.499-.745.777-1.871 1.268-2.925 1.641-12.923 4.582-25.933 8.927-38.784 13.708-22.944 8.538-45.095 18.797-66.088 31.434-.285.167-.587.325-.896.492a5.78 5.78 0 01-2.72-5.344c.112-2.854.58-5.708.913-8.554.031-.341.142-.658.174-.991.682-5.035-1.284-6.676-5.922-4.424a19.614 19.614 0 00-6.129 5.003c-5.343 6.397-8.657 13.977-11.836 21.572-1.68 4.011-3.013 8.165-4.71 12.17a10.877 10.877 0 01-2.798 3.963c-18.179 15.46-35.113 32.093-49.47 51.247a284.472 284.472 0 00-31.316 52.523c-.214.491-.46.967-.698 1.435-.063.11-.19.174-.46.412a182.28 182.28 0 01-1.704-49.09c-1.308 4.883-2.76 9.743-3.9 14.659-4.662 19.851-6.113 39.949-4.726 60.284a8.705 8.705 0 01-.507 3.132C7.21 453.216 3.025 472.64 1.249 492.499c-6.208 69.418 10.655 132.873 51.603 189.32zM36.37 468.176c12.685 27.74 28.588 53.61 45.927 78.63a7.643 7.643 0 011.41 4.234 716.136 716.136 0 001.468 24.061c.396 4.71 1.26 9.395 1.91 14.072-46.3-50.945-68.537-110.913-67.848-180.124.777 5.367 1.285 10.378 2.244 15.293 2.95 15.27 8.451 29.706 14.889 43.794zm170.135-204.7c-.103.403-.095.546-.167.65-.333.49-.69.982-1.038 1.482-15.127 21.191-27.503 43.873-36.644 68.284-6.556 17.489-11.154 35.462-13.168 54.077a175.367 175.367 0 000 39.116c.08.61.071 1.57-.285 1.832-2.958 2.116-6.002 4.114-9.11 6.2-.206-.754-.372-1.261-.483-1.792-4.773-21.477-7.365-43.153-6.113-65.208.809-14.128 3.227-27.915 8.483-41.115.15-.38.214-.785.317-1.173a52.84 52.84 0 00-4.352 7.46c-9.767 20.296-13.628 41.97-14.397 64.225-.69 20.113 1.347 40.1 5.24 59.92-3.385 1.213-7.183.634-12.653-2.062-.167.658-.15 1.49-.531 1.935a139.01 139.01 0 00-21.461 31.902c-.143.293-.357.523-.603.888-4.225-4.78-7.88-9.736-10.092-15.793a36.707 36.707 0 00-1.388 7.397c-.483 8.087 1.285 15.84 3.83 23.435.674 2.038.46 3.703-.61 5.621-3.656-3.512-4.924-8.11-6.565-12.772a11.868 11.868 0 00-2.347 6.81c-.325 6.438 1.253 12.55 3.702 18.362 1.911 4.543-.562 8.324-.792 12.978-.904-1.181-1.483-1.831-1.966-2.56-6.272-9.253-12.812-18.33-18.742-27.804-14.04-22.445-25.505-46.125-33.425-71.455a5.494 5.494 0 01-.063-3.235c13.271-36.516 33.527-68.704 60.498-96.642.325-.341.73-.619 1.3-1.102-.031.666-.039.999-.079 1.332-1.125 9.3-2.497 18.59-3.29 27.914-1.387 16.348-1.11 32.671 2.149 48.829 2.188 10.845 5.755 21.191 12.51 30.158 4.638 6.144 10.322 11.035 17.6 13.874-1.752-1.744-3.655-3.346-5.208-5.24-4.353-5.273-7.373-11.314-9.617-17.744-4.725-13.533-5.803-27.589-5.875-41.78-.071-14.033 1.166-27.97 3.108-41.852 2.085-14.857 4.614-29.627 8.856-44.032 2.774-9.395 6.144-18.568 11.4-26.908.737-1.165 1.998-2.006 3.02-2.997.611 1.277 1.555 2.498 1.777 3.83.697 4.289 1.823 8.403.198 12.954-6.382 17.949-9.926 36.524-11.575 55.472-.349 3.98-.452 7.976-.674 11.956.991-3.584 1.514-7.215 2.252-10.79 4.923-23.998 15.816-44.683 34.296-61.054a28.875 28.875 0 015.772-3.932c13.128-6.866 26.765-12.574 40.686-17.616 2.053-.737 4.107-1.451 6.319-2.22zM611.546 78.91c.032 1.348-.515 2.743-.967 4.067-5.09 14.929-6.715 30.254-5.803 45.927.166 2.807.325 5.7-.183 8.42-3.036 16.252-11.59 30.063-19.883 44.405-.23-.619-.31-.73-.31-.833-.919-23.95-.205-47.822 4.504-71.407 1.728-8.618 4.186-17.022 8.816-24.625 2.275-3.774 5.113-7.024 9.022-9.244 1.213-.69 2.505-1.094 3.464.024a5.669 5.669 0 011.34 3.266zm9.902 127.007a89.27 89.27 0 01-11.908 7.405c-14.619 7.349-30.11 12.581-45.427 18.226a42.454 42.454 0 00-8.507 4.408c-5.296 3.472-9.236 8.332-12.653 13.597-1.633 2.497-3.163 5.058-4.749 7.587.04-.849.302-1.594.516-2.355 1.807-6.16 3.869-12.257 5.32-18.504 2.021-8.713 5.224-16.855 10.076-24.331 2.624-4.035 5.55-7.896 8.11-11.987a50.922 50.922 0 004.154-8.19c.666-1.696.595-3.678.865-5.526-.27-.134-.532-.27-.817-.396-.809.682-1.728 1.276-2.418 2.07-2.814 3.226-5.518 6.564-8.404 9.735-.626.698-2.021 1.387-2.727 1.134-.674-.246-1.387-1.745-1.292-2.617.357-3.496.563-7.103 1.657-10.401 1.506-4.543 3.884-8.8 5.644-13.288a25.073 25.073 0 001.626-6.96c.095-1.11-.983-2.315-1.515-3.465-.943.642-2.03 1.158-2.806 1.974-1.38 1.451-2.482 3.156-3.9 4.575-1.404 1.387-2.704 1.157-3.513-.61-.578-1.238-1.157-2.752-.967-4.012.484-3.148 1.34-6.24 2.14-9.34.746-2.83 1.8-5.613 2.379-8.467a4.907 4.907 0 00-2.117-5.288c-.563.833-1.181 1.538-1.546 2.363-.793 1.697-1.419 3.472-2.156 5.177-1.705 3.916-3.203 7.96-5.217 11.717-1.776 3.306-3.528 3.013-5.438-.198-3.695-6.279-7.35-12.605-11.48-18.599a21.43 21.43 0 01-3.948-10.528c-.46-5.13-.714-10.29-1.253-15.42-.206-1.919-.721-3.909-2.814-5.708-.444 2.164-.817 3.94-1.166 5.716-.523 2.624-.88 5.28-1.601 7.849-.5 1.8-1.95 1.99-2.854.38a12.05 12.05 0 01-1.49-4.876c-.223-3.14.063-6.294-.104-9.442-.063-1.427-.579-2.862-1.118-4.218-.23-.586-.999-.967-1.522-1.443-.349.587-.816 1.126-1.015 1.768-.245.746-.27 1.57-.388 2.37-.341 2.316-.531 4.678-1.078 6.938-.579 2.442-2.117 2.862-3.64.88a20.454 20.454 0 01-3.194-6.144c-1.07-3.37-1.522-6.913-2.545-10.315-.476-1.593-1.57-3.052-2.593-4.408-.38-.491-1.49-.808-2.1-.626-.452.119-.896 1.158-.92 1.8-.056 2.608.047 5.224.087 7.833v3.98c-.57-.127-.793-.12-.935-.215a5.026 5.026 0 01-.912-.777c-2.68-2.854-4.48-6.16-5.042-10.076-.246-1.736-.333-3.472-.658-5.177-.397-2.014-1.602-2.783-3.647-2.529-2.149.254-3.512 1.815-3.726 4.543-.151 1.768-.032 3.551-.032 5.597-2.442-1.253-4.614-2.402-6.818-3.496a215.935 215.935 0 00-71.28-20.986c-16.118-1.879-32.236-1.926-48.219 1.316-9.664 1.958-18.869 5.106-26.852 11.155-1.173.88-2.252 1.887-3.377 2.846 8.895-5.153 14.096-7.246 22.119-8.776 14.603-2.807 29.222-2.386 43.818-.27a215.642 215.642 0 0172.755 24.268c17.68 9.64 33.646 21.469 46.561 37.103.975 1.165 1.895 2.37 2.807 3.56-26.44-12.622-56.305 11.138-86.178.594 40.94 21.105 65.184-6.08 88.239 11.512 5.875 4.471 6.921 15.998-6.509 14.072-12.812-1.832 19.297 4.51 25.053 37.88a107.29 107.29 0 01-2.331 16.657c-5.518 24.997-17.156 47.076-33.14 66.896-16.458 20.423-37.126 35.62-60.355 47.505a7.603 7.603 0 00-1.158.388c.064-.285.056-.42.103-.491a71.9 71.9 0 01.991-1.523c11.1-16.498 20.217-33.924 24.649-53.482 3.044-13.406 3.409-26.828-.825-40.1-4.733-14.817-14.199-26.099-26.567-35.137-13.858-10.132-29.516-16.458-45.84-21.31-3.488-1.039-7.04-1.958-10.988-3.044.444.475.492.602.603.642.674.285 1.364.547 2.053.816 11.4 4.448 22.262 9.894 32.109 17.236 14.175 10.544 24.6 23.808 29.333 41.067 4.178 15.261 3.25 30.523-.475 45.705-4.813 19.67-13.724 37.483-24.482 54.513-2.458 3.892-5.383 6.485-9.807 7.8-5.351 1.578-10.584 3.632-16.371 5.677 16.379-17.584 16.83-42.32 13.691-56.836-.055.254-.127.42-.134.595-.563 11.829-4.59 22.484-11.203 32.204-9.862 14.508-23.22 25.084-38.3 33.686-1.165.666-2.592.88-3.9 1.3 5.454-6.287 9.632-13.137 12.082-20.994 2.378-7.595 3.203-19.502 1.625-23.776-2.49 8.301-5.082 13.708-10.623 20.772a148.634 148.634 0 01-33.361 31.331 130.598 130.598 0 01-27.249 14.43c-17.1 6.556-34.939 10.575-52.682 14.92a1484.439 1484.439 0 00-46.624 12.09c-8.443 2.362-16.554 5.843-23.57 11.345-1.253-2.79-3.607-12.653-3.695-20.486-1.022-92.361 72.447-141.673 94.82-167.519 6.516-7.523 10.258-16.744 13.532-26.067 1.332-3.782 2.474-7.619 3.727-11.543.214.277.42.46.523.666 6.255 12.003 10.108 24.275 7.095 38.181-4.598 21.27-13.152 40.266-29.286 55.337-.174.167-.317.381-.872 1.015.785-.404 1.063-.515 1.324-.682 13.264-7.642 25.386-16.736 35.637-28.176 17.235-19.217 26.487-41.709 27.763-67.538.555-11.25-.99-22.357-2.251-33.456-3.346-29.572-24.942-53.499-53.958-60.562a28.065 28.065 0 01-6.366-2.323c-2.783-1.475-3.552-3.909-2.498-6.842.381-1.055.944-2.077 1.546-3.029a64.455 64.455 0 0119.733-19.756c4.13-2.624 8.261-5.24 12.241-8.087 16.324-11.662 33.892-20.724 53.308-26.051 8.015-2.196 16.118-4.139 24.537-3.401 2.64.222 5.209 1.197 7.833 1.506 1.086.135 2.275-.626 3.425-.975-.65-.73-1.166-1.697-1.966-2.149-5.066-2.917-10.671-3.821-16.411-4.011-8.444-.286-16.665 1.316-24.878 2.989-.825.166-1.697.166-2.545.245 6.73-5.827 14.365-9.577 22.634-12.066 13.597-4.123 27.495-5.058 41.567-3.877 4.503.38 9.07.563 13.224 2.918 4.075 2.299 8.356 4.225 12.573 6.27.912.445 1.927.667 2.902.992l.436-.468c-.444-1.142-.809-2.315-1.371-3.393-1.523-2.981-3.18-5.89-4.71-8.872-.277-.57-.142-1.371-.182-2.06.634-.033 1.348-.27 1.895-.08 3.234 1.078 6.532 2.03 9.609 3.48 4.4 2.085 8.982 2.799 13.778 3.124 6.533.452 13.082 1.07 19.575 1.998 9.53 1.371 16.791 6.287 21.5 14.81 1.102 1.99 2.276 3.94 3.473 5.882.428.69 1.015 1.284 1.53 1.91.23-.103.484-.198.713-.317l-4.526-15.491c4.939 1.118 10.076 4.543 14.151 9.331 2.061 2.394 3.9 4.955 5.938 7.35.817.95 1.919 1.648 2.886 2.473.27-.15.547-.277.824-.428-.396-3.393-.8-6.786-1.18-10.188.197-.07.411-.15.625-.214 3.069 1.88 6.113 3.806 9.189 5.669 10.45 6.295 20.24 13.382 27.574 23.372 1.006 1.38 1.76 1.189 2.29-.492.659-2.1 1.087-4.273 1.808-6.358.214-.634 1.094-1.499 1.602-1.459.705.048 1.688.745 1.926 1.387.492 1.348.69 2.839.785 4.297.198 2.934.127 5.891.436 8.808.095.896 1.047 1.72 1.618 2.561.753-.666 1.783-1.189 2.18-2.03 1.165-2.402 2.03-4.946 3.115-7.396 1-2.268 1.594-2.307 3.045-.373 1.903 2.545 4.043 4.598 7.627 4.337 3.33-.254 3.75-.008 4.986 3.092 2.117 5.288 3.917 10.679 6.089 15.935 1.03 2.505 2.608 4.789 3.853 7.199.31.57.579 1.387.42 1.95-4.408 14.23-5.629 28.89-5.771 43.667-.135 13.676.134 27.352-.333 41.004-.357 10.679-2.149 21.096-10.117 29.326 1.102-.35 2.149-.746 3.132-1.253 5.137-2.664 9.34-6.493 13.018-10.901 8.134-9.736 13.485-21.017 18.226-32.671 3.798-9.34 7.627-18.679 11.615-27.939.99-2.299 2.64-4.328 4.114-6.405.357-.492 1.412-1.055 1.816-.857.595.27 1.165 1.15 1.253 1.832.206 1.506.206 3.084.134 4.598-.34 7.635-.975 15.261.341 22.872.19 1.166.523 2.474.23 3.544-2.862 10.441-6.58 20.526-13.018 29.397-.198.278-.325.619-.737 1.403 4.59-2.045 7.674-5.074 10.172-8.633 2.497-3.576 4.685-7.373 7.15-11.321l3.037 12.383c1.42 5.914-.357 10.758-5.13 14.23zm5.185 61.188c-11.717 11.076-25.607 18.877-40.195 25.505-19.748 8.974-40.425 15.197-61.513 20.097-7.54 1.752-15.127 3.266-23.182 4.995 3.243-4.02 6.113-7.62 9.062-11.179.278-.34.912-.5 1.411-.563 13.216-1.371 25.917-4.788 38.158-9.878 28.31-11.757 52.547-29.508 74.15-51.04.199-.199.341-.452.5-.674a6.327 6.327 0 00-1.84.967c-18.226 12.653-36.976 24.45-56.693 34.661-12.621 6.509-25.48 12.487-39.307 16.03-3.258.833-6.588 1.388-10.401 2.165.531-.904.737-1.237.927-1.586 4.345-7.595 9.126-15.007 12.9-22.888 2.362-4.955 5.668-8.586 9.862-11.78 15.697-11.948 32.996-21.169 50.644-29.802.158-.072.357-.048.927-.143-6.715 10.647-13.192 21.025-24.767 26.86a67.943 67.943 0 008.832-1.863c8.88-2.72 16.348-7.952 23.364-13.818 8.578-7.167 16.879-14.699 25.576-21.755 4.487-3.647 9.283-7.175 14.46-9.688 5.439-2.624 11.48-3.98 17.291-5.787 1.483-.484 3.084-.571 5.264-.952-.713 3.679-1.014 6.906-1.99 9.902-6.627 20.264-17.996 37.595-33.44 52.214zm-106.87 156.657a70.56 70.56 0 01-13.524 5.954c-9.585 2.902-19.567 2.95-29.5 2.926-7.04-.016-14.08-.111-21.113-.032-1.76.024-3.504.579-5.256.896l-.032.975c1.515.587 2.99 1.292 4.535 1.728 4.9 1.396 9.823 2.648 14.714 4.012.952.277 1.832.824 2.76 1.253a89.158 89.158 0 01-.096.578c-.634.254-1.268.61-1.942.753-9.83 1.95-19.622 4.33-29.54 5.74-16.791 2.395-33.44 5.304-49.7 10.251a12.574 12.574 0 01-4.337.516 13002.083 13002.083 0 01-49.328-3.52c-19.011-1.388-38.023-1.57-57.01.436a243.984 243.984 0 00-62.64 15.198c-29.024 11.218-55.329 27.208-80.072 45.95-.42.317-.817.69-1.23 1.03a5.914 5.914 0 002.038-.855c22.571-13.478 45.856-25.505 70.457-34.876 20.85-7.936 42.264-13.667 64.39-16.6 15.992-2.118 32.046-2.601 48.155-2.506 18.013.095 36.05 0 54.061-.008.238 0 .468.032.73.055-.064.159-.072.246-.103.262l-1.292.54c-16.102 6.294-31.372 14.159-45.309 24.425a55.052 55.052 0 01-13.565 7.278 211.78 211.78 0 01-11.353 4.012c-19.653 6.207-39.996 9.252-60.22 12.907-16.665 3.004-33.322 6.08-49.844 9.727-15.063 3.322-29.603 8.42-43.113 16.102-23.205 13.184-36.849 32.91-40.567 59.397-.587 4.162-.92 8.372-1.34 12.114-.809-1.507-1.689-3.33-2.727-5.074-8.792-14.786-14.945-30.523-16.863-47.719-2.585-23.237 4.043-43.279 20.882-59.745.682-.674 1.158-1.586 1.602-2.474 2.426-4.915 4.431-10.076 7.254-14.73 8.039-13.2 19.4-23.142 32.18-31.546 16.973-11.138 35.525-18.916 54.671-25.385 30.19-10.211 61.26-16.879 92.52-22.88 25.433-4.892 50.921-9.585 76.346-14.524 19.836-3.838 39.125-9.276 57.383-18.266 22.904-11.274 44.112-24.815 62.069-43.129.594-.618 1.736-.951 2.64-.983 12.01-.34 23.942-1.459 35.747-3.694 33.036-6.263 63.305-19.13 91.013-38.11.452-.294.936-.523 1.69-.975-.167.99-.239 1.585-.381 2.156a198.549 198.549 0 01-9.292 30.285c-19.25 48.067-51.262 84.988-96.563 110.2zM785.51 675.398c-.8 7.896-2.441 15.73-4.17 23.49-2.687 11.948-9.99 19.853-21.826 23.428a56.352 56.352 0 01-16.252 2.252c-10.838.023-21.453-1.713-31.942-4.313-8.737-2.188-17.172-5.13-24.751-10.124-7.222-4.765-12.606-10.957-14.69-19.59-1.285-5.391-.92-10.735-.04-16.142.349-2.148 1.276-3.084 3.25-3.86 17.26-6.89 31.038-17.823 39.307-34.852 1.102-2.252 2.672-3.385 5.074-3.64 8.253-.91 16.34-.61 23.88 3.394 4.843 2.569 9.671 2.275 14.452-.048a34.12 34.12 0 005.62-3.464c2.173-1.657 4.147-3.584 6.55-5.692.206.348.348.666.562.92 11.948 13.929 16.784 30.157 14.976 48.241zm-127.64 35.256c1.324.872 2.513 1.982 3.702 3.076 10.283 9.585 22.135 16.546 35.272 21.477 11.725 4.4 23.91 6.374 36.318 7.04 9.18.492 18.424.412 27.351-2.022 6.105-1.664 11.964-4.178 17.997-6.16 1.284-.42 3.235-.713 4.099-.047 1.466 1.126.364 2.933-.175 4.432-.023.063-.079.118-.103.166-4.297 8.19-9.91 15.27-17.513 20.645-13.7 9.68-29.103 11.59-45.253 9.743a11.258 11.258 0 00-7.103 1.411c-1.015.579-1.641 1.832-2.45 2.783l.436.531c.579-.063 1.15-.166 1.728-.182 2.997-.095 6.05-.555 8.975-.167a12.225 12.225 0 018.507 19.337c-1.824 2.592-4.194 4.463-7.564 4.035-3.472-.46-5.2-3.036-6.382-6.025a9.276 9.276 0 01-.483-2.355c-.35-3.02-.571-3.433-3.679-3.338-2.925.088-5.843.547-8.752.984-3.616.515-5.962-.825-7.096-4.321-.92-2.823-.642-5.669.745-8.182 1.499-2.743 3.401-5.24 5.042-7.746-4.392-1.839-9.22-3.496-13.707-5.827-17.18-8.903-28.818-22.38-33.203-41.542a22.12 22.12 0 01-.562-5.78c.087-2.72 1.609-3.457 3.853-1.966zm8.958-23.974c1.292 4.05 2.14 8.158 3.861 11.844 3.996 8.53 11.1 14.072 19.4 17.902 19.693 9.053 40.457 13.105 62.084 11.265 13.097-1.11 23.943-6.58 30.031-19.106.024-.048.103-.08.341-.27 4.004 1.855 6.24 4.947 6.779 9.284.491 3.996-1.213 7.088-4.575 8.88-4.344 2.314-8.776 4.693-13.454 6.112-19.756 5.985-39.735 5.843-59.697 1.007-15.206-3.679-29.239-9.918-41.48-19.805-4.772-3.853-9.133-8.102-11.852-13.73-.674-1.396-1.3-3.077-1.19-4.56.35-4.598 5.455-8.847 9.752-8.823zM39.327 586.073c-16.038-27.898-24.387-57.51-24.394-62.06a277.218 277.218 0 013.179-42.447c.491-3.266 1.141-6.508 1.704-9.767a3.805 3.805 0 01.983 1.808c2.37 7.872 4.432 15.856 7.143 23.61 14.255 40.63 35.938 77.067 62.79 110.516a13.557 13.557 0 012.3 4.146 174.575 174.575 0 0024.94 49.058c-12.034-5.137-25.75-6.976-42.081-25.773 20.066 38.696 67.602 54.029 67.602 54.029 26.456 23.673 57.232 39.307 91.33 48.67 2.752.753 5.534 1.356 8.317 2.021-.61-.586-1.292-.832-1.974-1.094-25.37-9.07-48.757-21.73-69.925-38.419-26.345-20.771-46.26-46.355-58.168-77.916-1.276-3.385-1.879-6.556-.57-10.053.887-2.378 1.347-4.907 2.084-7.341 5.598-18.29 14.358-34.733 28.446-48.004 13.478-12.709 29.675-20.399 47.243-25.576 21.041-6.176 42.78-8.451 64.415-11.281 12.55-1.634 25.037-3.616 37.547-5.526 3.362-.508 6.683-1.332 10.259-2.07-.27.445-.349.643-.484.793a159.805 159.805 0 00-24.378 36.223 3.948 3.948 0 01-2.14 1.895c-5.78 1.832-11.52 3.988-17.45 5.177-8.792 1.752-17.783 2.426-26.575 4.162-47.148 9.355-61.68 34.622-61.466 34.392 14.318-15.206 37.23-19.495 43.28-21.604 14.111-4.907 28.73-6.24 43.548-6.088 4.328.055 8.65.317 13.105.491-13.288 43.398-11.544 85.702 6.469 127.165.016-.777-.159-1.53-.349-2.275-7.048-26.765-9.902-53.84-5.875-81.42 4.86-33.457 19.408-61.974 43.707-85.465 18.211-17.6 39.625-30.269 62.6-40.48 21.826-9.704 44.77-15.713 67.903-21.287 17.41-4.193 34.891-8.308 52.08-13.366 23.022-6.747 43.865-17.83 61.624-34.217 2.75-2.537 5.525-5.13 7.793-8.087 14.96-19.368 33.202-34.518 55.647-44.397 1.419-4.749 3.9-9.76 7.761-14.992 5.486-7.333 12.273-13.39 19.582-18.82 2.07-1.53 4.82-2.403 7.397-2.918 2.807-.579 4.495.777 5.454 3.504a18.076 18.076 0 01.58 2.323c1.498.515 2.988 1.324 4.455 2.458a29.827 29.827 0 012.862 2.505c4.13 4.154 7.024 9.101 9.37 14.405.508 1.15 1.19 1.601 2.371 1.752 2.783.365 5.574.745 8.325 1.284 44.65 8.832 77.163 42.756 82.847 91.569.508 4.392.476 8.958 1.792 13.081 1.68 5.24 4.471 10.124 6.786 15.166 2.038 4.432 4.273 8.784 6.033 13.327a22.064 22.064 0 01.627 14.397c-.484 1.681-1.467 2.125-2.775 1.309-1.84-1.158-3.496-2.609-5.248-3.917-2.133-1.593-4.123-3.417-6.43-4.677-1.879-1.039-4.012-.817-5.692 1.102.388.293.713.523.999.792 4.598 4.091 9.212 8.158 13.739 12.328a3.163 3.163 0 01.88 2.26c-.404 6.485-2.553 12.352-7.16 17.021-5.921 6.002-12.89 9.205-21.547 7.175-.222 3.227-.444 3.782-2.3 4.78-12.042 6.526-24.806 10.363-38.609 10.109-10.156-.174-19.313 3.044-28.05 7.928a37.943 37.943 0 01-8.609 3.67c-9.434 2.506-19.122 3.227-28.858 3.481-.8.016-1.585.063-2.378.103a2.624 2.624 0 001.498.856c7.77 1.84 15.642 2.07 23.578 1.499 2.569-.183 5.462-.738 7.698.166 6.549 2.664 12.899 5.859 19.202 9.102 1.768.911 3.322 1.347 5.113.681 4.004-1.506 8.023-2.98 11.924-4.717 8.293-3.686 16.784-5.906 25.94-4.646 5.01.682 9.895 1.784 14.263 4.456 2.83 1.736 5.066 3.964 5.288 7.58.04.507.5 1.07.912 1.442 1.173 1.086 2.473 2.061 3.654 3.14 3.489 3.218 4.963 7.214 4.535 11.931-.372 3.964-1.546 4.622-4.994 2.87-1.665-.84-3.402-1.53-5.146-.198 2.212 1.403 4.377 2.68 6.446 4.099 3.1 2.124 4.202 5.192 4.09 8.871-.324 10.259-12.423 19.344-22.808 17.053-3.425-.753-6.485-2.109-8.356-5.351-.246-.428-.952-.88-1.427-.848-2.712.142-5.479.126-8.095.713-4.796 1.086-9.545 2.244-14.484 1.3-2.276-.428-4.52-1.054-6.874-1.601a50.12 50.12 0 01-8.911 17.259c-9.395 11.94-21.747 19.503-35.993 24.172-18.472 6.065-37.452 6.731-56.455 4.004-27.471-3.924-46.942-18.837-57.447-44.706-2.6-6.398-3.94-13.303-5.898-19.978a142.308 142.308 0 00-12.93-30.856c-8.983-15.682-20.772-28.589-36.921-37.103-18.14-9.561-37.42-11.472-57.391-7.92-3.79.674-7.516 1.649-11.71 2.592 7.302.436 14.017.595 20.668 1.269 18.528 1.863 35.89 7.42 51.667 17.417 18.766 11.9 32.798 27.503 38.665 49.638 3.132 11.82 7.532 23.292 13.026 34.28 3.655 7.358 7.698 14.406 13.343 20.455 9.378 10.044 21.16 15.72 34.145 19.376a321.86 321.86 0 0111.9 3.623c1.95.634 3.172 2.013 3.94 3.987a30.76 30.76 0 011.626 17.347c-1.816 9.331-6.382 17.26-12.526 24.355-5.28 6.104-11.892 10.576-18.504 15.04-3.22 2.156-6.343 4.494-9.276 7.015-2.537 2.165-4.083 5.13-3.924 8.507.277 6.05.634 7.009 6.66 5.003a36.42 36.42 0 002.798-1.086c4.923-2.117 9.822-4.274 14.77-6.343 9.497-3.972 19.352-5.438 29.468-3.004 11.218 2.68 19.13 9.267 22.69 20.525.73 2.307.904 4.749-.333 6.826-.595 1.023-2.125 2.03-3.259 2.061-1.022.032-2.227-1.133-3.068-2.045-.515-.57-.5-1.633-.73-2.466-1.157-4.344-3.051-8.19-7.317-10.29-.808-.405-1.728-.515-2.6-.77 5.684 5.9 8.76 12.575 8.348 20.622-.309 6.112-5.098 10.092-11.258 9.743-1.791-.103-3.052-.943-3.25-2.688-.246-2.108-.15-4.257-.19-6.382-.072-2.544.119-5.121-.238-7.61-.563-4.083-3.076-6.74-7-8-1.895-.602-3.719-.277-5.479.619 2.474.507 4.836 1.252 6.08 3.567 1.198 2.22 2.419 4.535 3.022 6.953 1.292 5.217.665 10.25-4.131 13.454-2.156 1.435-5.074 2.03-7.722 2.394-5.684.793-11.139-.809-16.633-2.085a45.69 45.69 0 00-10.076-1.284c-3.18-.008-6.39.666-9.538 1.236-19.17 3.45-38.435 1.99-57.953 1.753-21.113-.262-42.225-.127-63.337-.143l-113.37-.016c-15.61 0-31.229.15-46.84.055-21.524-.134-42.818-2.568-63.637-8.023-79.28-20.74-138.66-63.67-177.746-135.648-17.243-31.736-27.09-65.7-30.554-101.32-.42-4.193 23.268 39.894 23.038 35.573z" fill="#0d0d0d"/><path d="M659.344 399.084c-6.651-14.192-6.73-20.177.626-33.607 5.55-10.132 20.296-1.11 18.298-12.431-.84-9.831-11.139-20.629-13.05-22.984-2.346-2.774-3.654-5.517-7.119-4.812a22.516 22.516 0 00-8.728 4.075c-9.014 6.691-17.37 14.167-24.141 23.205-12.233 16.324-7.19 26.226 7.135 39.252 6.065 5.502 27.693 8.816 26.98 7.302z" fill="#e65270"/><path d="M646.104 345.245c3.528-3.861 9.022-7.588 14.754-11.401 3.045-2.014-6.017 22.73-8.657 29.334-8.657 21.643 2.688 35.041-.436 33.384-6.866-3.646-16.673-16.387-17.354-24.251-.761-8.53 5.858-20.684 11.693-27.066z" fill="#2b2b2b" opacity=".2"/><path d="M656.649 397.76c-6.66-14.184-6.731-20.17.634-33.6 5.542-10.123 8.11-20.327 6.112-31.656a25.687 25.687 0 00-.88-3.766c-1.18-3.393-3.266-5.058-6.73-4.344-3.172.65-6.58 1.712-9.118 3.607-9.014 6.691-17.37 14.167-24.14 23.205-9.387 12.527-8.357 21.073-1.245 30.555 2.037 2.711 3.29 2.632 5.914 3.124 3.393.642 4.083-4.083 3.005-5.994-2.482-4.392-4.115-8.816-4.424-12.28-.753-8.531 4.02-17.791 9.855-24.173 5.406-5.914 16.34-15.095 23.8-17.323 1.799 6.914-2.038 20.692-4.472 27.384-2.965 8.173-11.94 23.086-9.688 32.798 0 0 3.163 8.99 6.517 11.273 3.353 2.276 4.86 1.19 4.86 1.19z" fill="#0d0d0d"/><path d="M252.4 561.41a4.606 4.606 0 01-2.442-.42 5.613 5.613 0 012.442.42z" fill="#8b4fba" opacity=".2"/><path d="M662.278 680.25c7.777-11.813 16.521-15.808 26.4-25.108 9.394-8.824 16.609-19.471 25.964-28.128 7.325 1.53 15.563.293 23.078.673 5.376 13.264 31.475.643 33.86-7.92l3.465 5.193c7.524 14.818-19.463 15.809-34.827 14.27-10.782-1.07-57.32 11.163-55.79 71.186-5.24 8.047-17.584.198-17.6 10.68-.008 10.734.167 29.666 9.442 36.5-2.655 9.363-11.876-.54-14.42-4.29-5.693-8.387-13.827-23.252-15.674-33.21-3.124-17.005 7.595-26.931 16.102-39.846z" fill="#430a1d" opacity=".2"/></svg>