<svg enable-background="new 0 0 600 138" version="1.1" viewBox="0 0 600 138" xml:space="preserve" xmlns="http://www.w3.org/2000/svg"> <style type="text/css"> .st0{fill-rule:evenodd;clip-rule:evenodd;fill:url(#SVGID_1_);} .st1{fill-rule:evenodd;clip-rule:evenodd;fill:url(#SVGID_00000123433536063472940560000016706108575214126732_);} </style> <linearGradient id="SVGID_1_" x1="240.07" x2="643.22" y1="26.982" y2="26.982" gradientTransform="matrix(1 0 0 -1 -43.22 96.486)" gradientUnits="userSpaceOnUse"> <stop stop-color="#86F4E8" offset="0"/> <stop stop-color="#8780CA" offset="1"/> <stop stop-color="#FEE4CD" offset="1"/> </linearGradient> <path class="st0" d="m196.9 109.7h15v-36h38.9v36h14.9v-82h-14.9v34.6h-38.9v-34.6h-14.9v82zm88.3-7.1c3.5 5.8 9.4 8.7 17.6 8.7 3.7 0.2 7.4-0.6 10.8-2.2 2.4-1.2 4.5-2.9 6.3-5 1.1-1.2 2-2.6 2.6-4.1h0.3l2.5 9.8h12.8v-60h-15.3v12h-0.3c-0.6-1.5-1.4-3-2.5-4.3-1.6-2.2-3.7-4-6.1-5.3-3.4-1.8-7.3-2.7-11.1-2.5-8.1 0-14 2.9-17.6 8.7s-5.3 13.2-5.2 22.2c0 9.1 1.7 16.5 5.2 22zm34.6-9.1c-1.9 3.4-5.5 5.1-10.9 5.1-3.1 0.2-6.2-0.6-8.9-2.3-2-1.7-3.5-4-4.3-6.5-0.8-2.9-1.2-6-1.2-9s0.4-6 1.2-8.9c0.8-2.5 2.3-4.8 4.3-6.5 2.6-1.8 5.7-2.7 8.9-2.5 5.3 0 9 1.7 10.9 5 2.1 4 3.1 8.5 2.9 13 0.2 4.3-0.8 8.7-2.9 12.6zm32.1 16.1v-59.8h13.8l1 16.6c0.7-2.7 1.8-5.3 3.4-7.6 1.8-2.7 4.3-4.9 7.1-6.5 3.7-1.9 7.9-2.8 12.1-2.6h2.2v16.6h-2.2c-8.3 0-14.2 1.4-17.5 4.1-3.3 2.6-5 7.1-5 13.4v25.8h-14.9zm53.6-9.4c1.4 3.2 3.6 5.9 6.5 7.9 3.7 2.3 7.9 3.4 12.2 3.2 3.1 0.1 6.2-0.5 9-1.6 2.2-0.9 4.2-2.2 5.8-3.9 1.4-1.3 2.5-2.7 3.5-4.3 0.6-0.9 1.1-1.9 1.5-2.9h0.3l2.5 11.4h12.7v-60.2h-15.1l-0.1 31.1c-0.1 2.8-0.5 5.5-1.2 8.2-0.6 2.5-2 4.8-3.9 6.5-2.5 1.8-5.6 2.7-8.7 2.5-3.1 0.2-6.2-0.7-8.7-2.5-1.9-1.7-3.2-4-3.7-6.5-0.6-2.8-0.9-5.7-0.9-8.7v-30.6h-14.4v30.6c0 2.9 0.2 6.2 0.4 9.8 0.4 3.5 1.1 6.8 2.3 10zm83.5 9.4h-14.9v-82h14.9v50.4l25.5-28.4h18.2l-24.4 25.3 24.9 34.8h-17.8l-17.6-24-8.8 9v14.9zm64-2.4c10.7 5.2 23.1 5.2 33.8 0 4.4-2.6 7.9-6.4 10-11 2.2-4.9 3.3-10.2 3.2-15.6 0-9.2-2.6-16.7-7.7-22.3s-12.6-8.5-22.3-8.5c-10.1 0-17.7 2.9-22.9 8.7-5.2 6.1-7.8 14-7.4 22-0.1 5.5 1.1 10.9 3.4 15.9 2.1 4.5 5.6 8.3 9.9 10.8zm26.6-11.4c-2.8 2-6.3 3-9.8 2.8-3.6 0.2-7.1-0.7-10.1-2.8-2.2-1.8-3.8-4.3-4.7-7-0.8-2.8-1.2-5.7-1.2-8.7 0-2.9 0.4-5.8 1.2-8.7 0.8-2.8 2.4-5.3 4.7-7.1 2.9-2.1 6.5-3.2 10.1-2.9 3.5-0.2 6.9 0.7 9.8 2.8 2.3 1.8 4 4.3 4.7 7.1 0.8 2.9 1.2 5.9 1.2 8.9 0 2.9-0.4 5.8-1.2 8.7-0.7 2.8-2.3 5.2-4.7 6.9z"/> <linearGradient id="SVGID_00000122708355859870891140000000564932755486959272_" x1="201.41" x2="43.755" y1="556.37" y2="556.37" gradientTransform="translate(-43.22 -487.07)" gradientUnits="userSpaceOnUse"> <stop stop-color="#86F4E8" offset="0"/> <stop stop-color="#8780CA" offset="1"/> <stop stop-color="#FEE4CD" offset="1"/> </linearGradient> <path d="m157.7 71c0.6-1.1 0.6-2.4 0-3.4l-37.7-65.3c-0.6-1-1.7-1.7-2.9-1.7h-75.5c-0.6 0-1.2 0.2-1.8 0.5-0.5 0.3-0.9 0.7-1.2 1.2l-37.6 65.3c-0.6 1.1-0.6 2.4 0 3.4l37.7 65.3c0.3 0.5 0.7 0.9 1.2 1.2s1.1 0.5 1.8 0.5h75.4c1.2 0 2.3-0.6 2.9-1.7l37.7-65.3zm-14.5-15-26-45.1-9.5 17.6 35.5 27.5zm-43.3-20.6-58.3 33.9 58.4 33.8v-67.7zm7.8 74.6 35.6-27.4-26 45.1-9.6-17.7zm-0.9-73.6 42.5 32.8-42.6 32.8 0.1-65.6zm-97 36.3h21.8l4.9 46.3-26.7-46.3zm91.9 40.8-43 17.7h52.6l-9.6-17.7zm-70-47.6 4.9-46.3-26.8 46.3h21.9zm27-58.4 43 17.7 9.6-17.8-52.6 0.1zm-14.2 1.5 51.1 21.2-56.8 32.8 5.7-54zm-5.7 66.6 5.7 54.1 51.1-21.2-56.8-32.9z" clip-rule="evenodd" fill="url(#SVGID_00000122708355859870891140000000564932755486959272_)" fill-rule="evenodd"/> </svg>
