<svg version="1.1" viewBox="0 0 234 29" xmlns="http://www.w3.org/2000/svg">
  <path d="m8.8888e-6 0h15.818v0.92553h-1.2407c-1.0277 0-1.8609 0.82875-1.8609 1.8511v7.0957h1.8609v0.92556h-1.8609v17.277h3.1016v0.9255h-15.818v-0.9255h3.1016v-17.277h-1.861v-0.92556h1.861v-7.0957c0-1.0223-0.83319-1.8511-1.861-1.8511h-1.2406v-0.92553zm6.2032 28.074h3.4118v-27.149h-3.4118v27.149z" clip-rule="evenodd" fill="#E6E6E6" fill-rule="evenodd"/>
  <g fill="#fff">
    <path d="m37.263 21.963c2.8571 0 4.6127-1.3597 4.6127-3.6316 0-1.9104-1.2565-3.0464-4.2512-3.752-1.8417-0.4303-2.4785-0.895-2.4785-1.6351 0-0.7917 0.7057-1.2737 1.8589-1.2737 1.2564 0 2.0137 0.6541 2.0137 1.7384h2.6333c0-2.4268-1.8244-3.9758-4.6815-3.9758-2.771 0-4.4921 1.3597-4.4921 3.5627 0 1.9621 1.3252 3.1325 4.1479 3.7349 1.7039 0.3614 2.4784 0.8605 2.4784 1.7039 0 0.8089-0.7228 1.2736-1.8588 1.2736-1.3253 0-2.1858-0.6712-2.1858-1.8244h-2.685c0 2.4957 1.8588 4.0791 4.888 4.0791z"/>
    <path d="m49.941 21.963c2.2203 0 3.9759-1.1359 4.7676-3.0464h-2.6506c-0.4302 0.6024-1.2048 0.9466-2.0653 0.9466-1.1876 0-2.117-0.6712-2.358-1.9104h7.246c0.1549-3.3046-1.8072-5.5077-4.9052-5.5077-2.926 0-4.9397 1.9449-4.9397 4.7504 0 2.8226 1.9965 4.7675 4.9052 4.7675zm-2.2891-5.6625c0.2926-1.1015 1.1876-1.7728 2.3408-1.7728 1.2048 0 2.0653 0.6713 2.3579 1.7728h-4.6987z"/>
    <path d="m62.874 21.963c2.5473 0 4.4577-1.4974 4.9397-3.8725h-2.5473c-0.3615 0.981-1.2565 1.6178-2.358 1.6178-1.4113 0-2.3924-1.0326-2.3924-2.5128s0.9811-2.5129 2.3924-2.5129c1.0327 0 1.8761 0.5508 2.3063 1.463h2.5129c-0.4131-2.2375-2.3407-3.7005-4.8536-3.7005-2.8915 0-4.9397 1.9794-4.9397 4.7504 0 2.7882 2.031 4.7675 4.9397 4.7675z"/>
    <path d="m75.927 21.963c2.9948 0 5.0602-1.9449 5.0602-4.7675 0-2.8055-2.0654-4.7504-5.0602-4.7504-3.012 0-5.0773 1.9449-5.0773 4.7504 0 2.8226 2.0653 4.7675 5.0773 4.7675zm-2.4956-4.7675c0-1.4802 1.0327-2.5129 2.4956-2.5129 1.463 0 2.4785 1.0327 2.4785 2.5129s-1.0155 2.5128-2.4785 2.5128c-1.4629 0-2.4956-1.0326-2.4956-2.5128z"/>
    <path d="m84.688 21.722h2.6161v-4.7332c0-1.4285 0.7917-2.3063 1.9965-2.3063 1.1187 0 1.79 0.7917 1.79 2.117v4.9225h2.6161v-5.1979c0-2.4956-1.4285-4.0791-3.7865-4.0791-1.2048 0-2.2891 0.4131-3.012 1.2565l-0.2754-1.0155h-1.9448v9.036z"/>
    <path d="m101.83 21.963c1.308 0 2.427-0.4647 3.236-1.2736l0.31 1.0327h1.945v-12.736h-2.616v4.4061c-0.775-0.6024-1.756-0.9467-2.875-0.9467-2.6846 0-4.5951 1.9794-4.5951 4.7504 0 2.8054 1.9105 4.7675 4.5951 4.7675zm-2.0134-4.7675c0-1.463 1.0154-2.5129 2.4954-2.5129 1.463 0 2.479 1.0499 2.479 2.5129 0 1.4802-1.016 2.5128-2.479 2.5128-1.48 0-2.4954-1.0326-2.4954-2.5128z"/>
    <path d="m117.57 21.722h2.736v-4.148h4.372v-2.4096h-4.372v-3.0119h4.819v-2.4785h-7.555v12.048z"/>
    <path d="m132.96 21.963c2.994 0 5.06-1.9449 5.06-4.7675 0-2.8055-2.066-4.7504-5.06-4.7504-3.012 0-5.078 1.9449-5.078 4.7504 0 2.8226 2.066 4.7675 5.078 4.7675zm-2.496-4.7675c0-1.4802 1.033-2.5129 2.496-2.5129s2.478 1.0327 2.478 2.5129-1.015 2.5128-2.478 2.5128-2.496-1.0326-2.496-2.5128z"/>
    <path d="m145.31 21.963c1.188 0 2.255-0.413 2.978-1.2564l0.275 1.0155h1.945v-9.036h-2.616v4.7159c0 1.4286-0.775 2.3063-1.962 2.3063-1.102 0-1.773-0.7745-1.773-2.0997v-4.9225h-2.616v5.1806c0 2.5129 1.428 4.0963 3.769 4.0963z"/>
    <path d="m154.85 21.722h2.616v-4.7332c0-1.4285 0.792-2.3063 1.996-2.3063 1.119 0 1.79 0.7917 1.79 2.117v4.9225h2.616v-5.1979c0-2.4956-1.428-4.0791-3.786-4.0791-1.205 0-2.289 0.4131-3.012 1.2565l-0.275-1.0155h-1.945v9.036z"/>
    <path d="m171.99 21.963c1.309 0 2.427-0.4647 3.236-1.2736l0.31 1.0327h1.945v-12.736h-2.616v4.4061c-0.775-0.6024-1.756-0.9467-2.875-0.9467-2.684 0-4.595 1.9794-4.595 4.7504 0 2.8054 1.911 4.7675 4.595 4.7675zm-2.013-4.7675c0-1.463 1.015-2.5129 2.495-2.5129 1.463 0 2.479 1.0499 2.479 2.5129 0 1.4802-1.016 2.5128-2.479 2.5128-1.48 0-2.495-1.0326-2.495-2.5128z"/>
    <path d="m184.84 21.894c1.343 0 2.444-0.4303 3.219-1.222l0.292 1.0499h1.945v-5.4388c0-2.3924-1.618-3.8382-4.32-3.8382-2.306 0-3.821 1.1016-4.148 3.0637h2.513c0.155-0.6368 0.809-1.0671 1.652-1.0671 1.033 0 1.739 0.5852 1.739 1.4801v0.4131h-3.271c-1.876 0-3.08 1.0843-3.08 2.7538 0 1.7384 1.325 2.8055 3.459 2.8055zm-0.878-2.9087c0-0.6196 0.517-1.0155 1.308-1.0155h2.479c-0.052 1.222-0.998 2.0481-2.306 2.0481-0.895 0-1.481-0.413-1.481-1.0326z"/>
    <path d="m198.56 21.722h1.652v-2.2719h-1.084c-1.033 0-1.515-0.4992-1.515-1.5491v-3.0808h2.479v-2.1342h-2.479v-2.3407h-2.031l-0.154 1.1703c-0.138 0.9295-0.396 1.1704-1.377 1.1704h-0.809v2.1342h1.755v3.4767c0 2.2031 1.274 3.4251 3.563 3.4251z"/>
    <path d="m203.96 21.722h2.616v-9.036h-2.616v9.036zm-0.379-11.962c0 0.96382 0.689 1.6351 1.687 1.6351s1.687-0.6713 1.687-1.6351c0-0.96384-0.689-1.6351-1.687-1.6351s-1.687 0.67124-1.687 1.6351z"/>
    <path d="m215.35 21.963c2.995 0 5.06-1.9449 5.06-4.7675 0-2.8055-2.065-4.7504-5.06-4.7504-3.012 0-5.078 1.9449-5.078 4.7504 0 2.8226 2.066 4.7675 5.078 4.7675zm-2.496-4.7675c0-1.4802 1.033-2.5129 2.496-2.5129s2.478 1.0327 2.478 2.5129-1.015 2.5128-2.478 2.5128-2.496-1.0326-2.496-2.5128z"/>
    <path d="m224.11 21.722h2.616v-4.7332c0-1.4285 0.792-2.3063 1.997-2.3063 1.119 0 1.79 0.7917 1.79 2.117v4.9225h2.616v-5.1979c0-2.4956-1.429-4.0791-3.786-4.0791-1.205 0-2.29 0.4131-3.012 1.2565l-0.276-1.0155h-1.945v9.036z"/>
  </g>
</svg>
