<svg width="201" height="61" viewBox="0 0 201 61" fill="none" xmlns="http://www.w3.org/2000/svg">
<path fill-rule="evenodd" clip-rule="evenodd" d="M25.5537 1.939C25.4228 1.94495 25.292 1.9243 25.1692 1.87828C25.0465 1.83227 24.9343 1.76186 24.8396 1.67129C24.7448 1.58072 24.6693 1.47189 24.6178 1.35135C24.5663 1.23082 24.5397 1.10109 24.5397 0.97C24.5397 0.83891 24.5663 0.709181 24.6178 0.588647C24.6693 0.468114 24.7448 0.359277 24.8396 0.268711C24.9343 0.178145 25.0465 0.107729 25.1692 0.0617164C25.292 0.0157038 25.4228 -0.00495089 25.5537 0.00100005C25.8031 0.0123325 26.0385 0.119374 26.211 0.299856C26.3835 0.480338 26.4797 0.720364 26.4797 0.97C26.4797 1.21964 26.3835 1.45966 26.211 1.64014C26.0385 1.82063 25.8031 1.92767 25.5537 1.939ZM24.5857 59.087C24.5798 59.218 24.6004 59.3488 24.6464 59.4715C24.6925 59.5943 24.7629 59.7064 24.8534 59.8012C24.944 59.896 25.0528 59.9714 25.1734 60.0229C25.2939 60.0745 25.4236 60.101 25.5547 60.101C25.6858 60.101 25.8155 60.0745 25.9361 60.0229C26.0566 59.9714 26.1655 59.896 26.256 59.8012C26.3466 59.7064 26.417 59.5943 26.463 59.4715C26.509 59.3488 26.5297 59.218 26.5237 59.087C26.5124 58.8376 26.4054 58.6022 26.2249 58.4297C26.0444 58.2573 25.8044 58.161 25.5547 58.161C25.3051 58.161 25.0651 58.2573 24.8846 58.4297C24.7041 58.6022 24.5971 58.8376 24.5857 59.087ZM26.5237 4.195C26.5237 3.93774 26.4215 3.69102 26.2396 3.50911C26.0577 3.3272 25.811 3.225 25.5537 3.225C25.2965 3.225 25.0497 3.3272 24.8678 3.50911C24.6859 3.69102 24.5837 3.93774 24.5837 4.195C24.5837 4.45226 24.6859 4.69898 24.8678 4.88089C25.0497 5.0628 25.2965 5.165 25.5537 5.165C25.811 5.165 26.0577 5.0628 26.2396 4.88089C26.4215 4.69898 26.5237 4.45226 26.5237 4.195ZM11.1527 8.558C11.0779 8.45504 10.9835 8.36784 10.8749 8.30136C10.7664 8.23489 10.6458 8.19045 10.5201 8.17058C10.3943 8.15071 10.2659 8.15579 10.1421 8.18555C10.0184 8.2153 9.90169 8.26915 9.79873 8.344C9.69577 8.41885 9.60857 8.51325 9.5421 8.62181C9.47562 8.73036 9.43118 8.85095 9.41131 8.97668C9.39144 9.10241 9.39652 9.23082 9.42628 9.35459C9.45604 9.47835 9.50988 9.59504 9.58473 9.698C9.7359 9.90593 9.96349 10.0453 10.2174 10.0854C10.4713 10.1256 10.7308 10.0632 10.9387 9.912C11.1467 9.76083 11.286 9.53324 11.3262 9.27932C11.3663 9.0254 11.3039 8.76593 11.1527 8.558Z" fill="white"/>
<path fill-rule="evenodd" clip-rule="evenodd" d="M0.0127307 21.075H1.95273V23.014H0.0127307V21.074V21.075Z" fill="white"/>
<path fill-rule="evenodd" clip-rule="evenodd" d="M1.28273 21.122C1.16152 21.0827 1.03375 21.0676 0.906716 21.0776C0.779681 21.0877 0.655869 21.1227 0.54235 21.1806C0.313086 21.2975 0.139663 21.5007 0.0602307 21.7455C-0.0192017 21.9903 0.00186368 22.2566 0.118793 22.4859C0.235722 22.7151 0.438936 22.8886 0.683731 22.968C0.928526 23.0474 1.19485 23.0264 1.42411 22.9094C1.65337 22.7925 1.8268 22.5893 1.90623 22.3445C1.98566 22.0997 1.9646 21.8334 1.84767 21.6041C1.73074 21.3749 1.52753 21.2014 1.28273 21.122Z" fill="white"/>
<path fill-rule="evenodd" clip-rule="evenodd" d="M0.0127307 37.043H1.95273V38.983H0.0127307V37.043Z" fill="white"/>
<path fill-rule="evenodd" clip-rule="evenodd" d="M0.683731 37.091C0.560904 37.1289 0.446843 37.1909 0.348179 37.2733C0.249515 37.3557 0.168216 37.4569 0.109008 37.571C0.0497998 37.6851 0.0138635 37.8099 0.00328796 37.938C-0.00728754 38.0661 0.00770877 38.1951 0.0474052 38.3173C0.0871016 38.4396 0.150706 38.5528 0.234522 38.6502C0.318337 38.7477 0.420692 38.8275 0.535635 38.8851C0.650579 38.9427 0.775818 38.9768 0.904074 38.9856C1.03233 38.9943 1.16104 38.9774 1.28273 38.936C1.52739 38.8564 1.73043 38.6829 1.84717 38.4537C1.96391 38.2244 1.9848 37.9582 1.90523 37.7135C1.82567 37.4688 1.65217 37.2658 1.4229 37.1491C1.19364 37.0323 0.927393 37.0114 0.682731 37.091H0.683731Z" fill="white"/>
<path fill-rule="evenodd" clip-rule="evenodd" d="M9.58373 50.361C9.502 50.4635 9.44188 50.5814 9.407 50.7078C9.37212 50.8341 9.36321 50.9662 9.3808 51.0961C9.39839 51.226 9.44211 51.3509 9.50934 51.4634C9.57657 51.5759 9.6659 51.6737 9.77194 51.7507C9.87798 51.8277 9.99853 51.8825 10.1263 51.9116C10.2541 51.9408 10.3865 51.9437 10.5154 51.9203C10.6444 51.8968 10.7672 51.8475 10.8766 51.7753C10.986 51.7031 11.0796 51.6094 11.1517 51.5C11.2915 51.2916 11.3451 51.0372 11.3012 50.7901C11.2574 50.5431 11.1195 50.3226 10.9166 50.1751C10.7136 50.0275 10.4614 49.9644 10.2129 49.9989C9.96435 50.0333 9.73884 50.1638 9.58373 50.361ZM24.5857 55.864C24.5797 55.9949 24.6003 56.1258 24.6462 56.2485C24.6922 56.3713 24.7626 56.4835 24.8531 56.5783C24.9436 56.6731 25.0524 56.7486 25.1729 56.8002C25.2934 56.8518 25.4231 56.8785 25.5542 56.8785C25.6853 56.8786 25.815 56.8521 25.9356 56.8006C26.0562 56.7491 26.165 56.6738 26.2556 56.579C26.3463 56.4843 26.4167 56.3722 26.4628 56.2495C26.5089 56.1267 26.5296 55.996 26.5237 55.865C26.5125 55.6156 26.4056 55.3801 26.2252 55.2076C26.0448 55.035 25.8048 54.9387 25.5552 54.9385C25.3056 54.9384 25.0655 55.0345 24.8849 55.2069C24.7044 55.3793 24.5972 55.6146 24.5857 55.864ZM39.9557 51.501C40.0278 51.6107 40.1214 51.7046 40.2309 51.7771C40.3403 51.8496 40.4633 51.8991 40.5925 51.9226C40.7216 51.9461 40.8542 51.9432 40.9822 51.914C41.1101 51.8848 41.2309 51.8299 41.337 51.7527C41.4432 51.6755 41.5325 51.5775 41.5997 51.4647C41.6669 51.352 41.7105 51.2267 41.7278 51.0966C41.7452 50.9665 41.736 50.8342 41.7007 50.7078C41.6655 50.5813 41.6049 50.4634 41.5227 50.361C41.3676 50.1638 41.1421 50.0343 40.8936 49.9999C40.645 49.9654 40.3928 50.0285 40.1899 50.1761C39.9869 50.3236 39.8491 50.5441 39.8052 50.7911C39.7614 51.0382 39.815 51.2926 39.9547 51.501H39.9557ZM49.8257 38.935C49.9477 38.9785 50.0772 38.9971 50.2065 38.9897C50.3358 38.9824 50.4623 38.9491 50.5785 38.892C50.6948 38.8349 50.7984 38.7551 50.8832 38.6572C50.9681 38.5594 51.0325 38.4456 51.0726 38.3224C51.1127 38.1993 51.1277 38.0694 51.1168 37.9403C51.1058 37.8113 51.0691 37.6857 51.0088 37.5711C50.9485 37.4565 50.8658 37.3551 50.7657 37.273C50.6655 37.1909 50.5499 37.1297 50.4257 37.093C50.1837 37.0215 49.9234 37.0473 49.7 37.1648C49.4767 37.2823 49.308 37.4823 49.2299 37.7222C49.1517 37.9621 49.1703 38.2231 49.2815 38.4496C49.3928 38.6761 49.588 38.8502 49.8257 38.935ZM50.4257 22.968C50.5468 22.9286 50.6589 22.8657 50.7557 22.783C50.8525 22.7003 50.9321 22.5993 50.9898 22.4858C51.0476 22.3723 51.0824 22.2486 51.0924 22.1217C51.1023 21.9947 51.0871 21.8671 51.0477 21.746C51.0083 21.6249 50.9455 21.5128 50.8627 21.416C50.78 21.3192 50.679 21.2397 50.5655 21.1819C50.4521 21.1242 50.3283 21.0893 50.2014 21.0794C50.0745 21.0694 49.9468 21.0846 49.8257 21.124C49.5882 21.2091 49.3932 21.3834 49.282 21.6099C49.1709 21.8364 49.1524 22.0974 49.2305 22.3373C49.3086 22.5772 49.477 22.7773 49.7002 22.895C49.9233 23.0128 50.1836 23.039 50.4257 22.968ZM41.5247 9.698C41.6054 9.59545 41.6645 9.47768 41.6986 9.35174C41.7327 9.2258 41.741 9.09429 41.7231 8.96506C41.7052 8.83582 41.6613 8.71154 41.5943 8.59964C41.5272 8.48773 41.4382 8.39051 41.3327 8.31379C41.2272 8.23707 41.1073 8.18242 40.9801 8.15312C40.853 8.12382 40.7212 8.12047 40.5928 8.14327C40.4643 8.16607 40.3418 8.21456 40.2325 8.28582C40.1232 8.35708 40.0294 8.44965 39.9567 8.558C39.817 8.76638 39.7634 9.02081 39.8072 9.26786C39.8511 9.51491 39.9889 9.73536 40.1919 9.88291C40.3948 10.0305 40.647 10.0936 40.8956 10.0591C41.1441 10.0247 41.3696 9.89522 41.5247 9.698ZM26.5237 7.418C26.5238 7.29062 26.4988 7.16447 26.4501 7.04676C26.4014 6.92905 26.33 6.82208 26.24 6.73196C26.15 6.64184 26.0431 6.57034 25.9254 6.52153C25.8077 6.47272 25.6816 6.44757 25.5542 6.4475C25.4268 6.44743 25.3007 6.47246 25.183 6.52115C25.0653 6.56983 24.9583 6.64123 24.8682 6.73125C24.7781 6.82128 24.7066 6.92817 24.6578 7.04584C24.609 7.1635 24.5838 7.28962 24.5837 7.417C24.5837 7.67426 24.6859 7.92098 24.8678 8.10289C25.0497 8.2848 25.2965 8.387 25.5537 8.387C25.811 8.387 26.0577 8.2848 26.2396 8.10289C26.4215 7.92098 26.5237 7.67526 26.5237 7.418ZM18.7317 8.449C18.6881 8.32923 18.6212 8.21924 18.5351 8.1253C18.4489 8.03136 18.3451 7.95532 18.2295 7.90151C18.1139 7.84769 17.9889 7.81717 17.8615 7.81168C17.7342 7.80619 17.607 7.82584 17.4872 7.8695C17.3675 7.91316 17.2575 7.97999 17.1635 8.06616C17.0696 8.15234 16.9935 8.25617 16.9397 8.37173C16.8859 8.48729 16.8554 8.61232 16.8499 8.73968C16.8444 8.86704 16.8641 8.99423 16.9077 9.114C16.9959 9.35588 17.1766 9.55282 17.41 9.66149C17.6434 9.77017 17.9104 9.78169 18.1522 9.6935C18.3941 9.60532 18.591 9.42466 18.6997 9.19127C18.8084 8.95788 18.8199 8.69088 18.7317 8.449ZM11.7617 12.083C11.6806 11.9837 11.5805 11.9014 11.4673 11.8411C11.3541 11.7807 11.23 11.7435 11.1023 11.7314C10.9746 11.7194 10.8458 11.7328 10.7233 11.771C10.6008 11.8091 10.4872 11.8712 10.3889 11.9536C10.2906 12.036 10.2096 12.1371 10.1507 12.2511C10.0918 12.365 10.056 12.4895 10.0456 12.6174C10.0352 12.7452 10.0502 12.8739 10.0899 12.9959C10.1296 13.1178 10.1931 13.2307 10.2767 13.328C10.4429 13.5212 10.6786 13.6412 10.9326 13.662C11.1867 13.6827 11.4386 13.6025 11.634 13.4387C11.8293 13.275 11.9522 13.0408 11.9761 12.7871C12 12.5333 11.923 12.2804 11.7617 12.083ZM6.45573 17.883C6.34553 17.8192 6.22382 17.7778 6.09759 17.7611C5.97135 17.7444 5.84306 17.7528 5.72007 17.7858C5.59708 17.8188 5.4818 17.8757 5.38085 17.9533C5.27989 18.0309 5.19523 18.1276 5.13173 18.238C5.06817 18.3483 5.02696 18.4701 5.01045 18.5963C4.99395 18.7225 5.00246 18.8508 5.03552 18.9737C5.06858 19.0967 5.12553 19.2119 5.20312 19.3128C5.28071 19.4138 5.37742 19.4984 5.48773 19.562C5.59804 19.6256 5.71979 19.6668 5.84603 19.6833C5.97226 19.6998 6.10052 19.6913 6.22346 19.6582C6.34641 19.6252 6.46164 19.5682 6.56257 19.4906C6.66351 19.413 6.74817 19.3163 6.81173 19.206C6.9399 18.9833 6.9744 18.7189 6.90764 18.4708C6.84089 18.2227 6.67834 18.0113 6.45573 17.883ZM3.45373 25.148C3.32679 25.1222 3.19598 25.1221 3.069 25.1477C2.94202 25.1733 2.82146 25.224 2.71441 25.297C2.60737 25.3699 2.51602 25.4635 2.44575 25.5724C2.37548 25.6812 2.32771 25.803 2.30527 25.9305C2.28283 26.0581 2.28617 26.1889 2.31508 26.3151C2.344 26.4414 2.39791 26.5606 2.47364 26.6657C2.54936 26.7708 2.64537 26.8596 2.75599 26.927C2.86662 26.9944 2.98961 27.0389 3.11773 27.058C3.36781 27.0952 3.62256 27.0334 3.82769 26.8855C4.03282 26.7377 4.17213 26.5157 4.21593 26.2666C4.25974 26.0176 4.20458 25.7613 4.06221 25.5524C3.91984 25.3434 3.70151 25.1983 3.45373 25.148ZM3.11673 33C2.98736 33.0177 2.86288 33.0613 2.75076 33.1282C2.63864 33.1951 2.54118 33.284 2.46423 33.3895C2.38728 33.4949 2.33242 33.6149 2.30294 33.7421C2.27346 33.8693 2.26996 34.0011 2.29266 34.1297C2.31536 34.2583 2.36379 34.381 2.43504 34.4904C2.50629 34.5998 2.5989 34.6937 2.70732 34.7665C2.81574 34.8393 2.93773 34.8894 3.06599 34.9139C3.19425 34.9384 3.32613 34.9367 3.45373 34.909C3.70227 34.8593 3.92149 34.7143 4.06448 34.5051C4.20747 34.2958 4.26288 34.0389 4.21884 33.7893C4.1748 33.5397 4.03481 33.3172 3.82884 33.1695C3.62287 33.0218 3.36726 32.9616 3.11673 33ZM5.48673 40.496C5.37226 40.5575 5.27129 40.6413 5.18984 40.7425C5.10838 40.8437 5.04809 40.9603 5.01255 41.0853C4.977 41.2102 4.96693 41.3411 4.98292 41.47C4.99891 41.5989 5.04064 41.7234 5.10563 41.8359C5.17063 41.9484 5.25756 42.0467 5.36128 42.1249C5.46499 42.2032 5.58337 42.2598 5.70939 42.2914C5.83541 42.3231 5.9665 42.3291 6.09488 42.3091C6.22326 42.2891 6.34631 42.2435 6.45673 42.175C6.67707 42.0451 6.83721 41.8335 6.9023 41.5862C6.96738 41.3388 6.93215 41.0758 6.80426 40.8543C6.67638 40.6328 6.46619 40.4708 6.21944 40.4035C5.9727 40.3362 5.70936 40.3691 5.48673 40.495V40.496ZM10.2767 46.728C10.1115 46.9252 10.0314 47.1799 10.054 47.4362C10.0766 47.6925 10.2 47.9293 10.3972 48.0945C10.5944 48.2597 10.8492 48.3399 11.1054 48.3173C11.3617 48.2947 11.5985 48.1712 11.7637 47.974C11.8455 47.8764 11.9073 47.7636 11.9455 47.6421C11.9838 47.5205 11.9977 47.3927 11.9865 47.2658C11.9753 47.1389 11.9392 47.0155 11.8803 46.9025C11.8214 46.7896 11.7409 46.6893 11.6432 46.6075C11.5456 46.5257 11.4328 46.4639 11.3113 46.4257C11.1898 46.3875 11.0619 46.3735 10.935 46.3847C10.8081 46.3959 10.6847 46.432 10.5717 46.4909C10.4588 46.5498 10.3585 46.6304 10.2767 46.728ZM16.9087 50.946C16.8208 51.1879 16.8326 51.4548 16.9414 51.688C17.0503 51.9212 17.2474 52.1016 17.4892 52.1895C17.7311 52.2774 17.998 52.2657 18.2312 52.1568C18.4644 52.0479 18.6448 51.8509 18.7327 51.609C18.7763 51.4892 18.7958 51.3621 18.7902 51.2348C18.7846 51.1075 18.7539 50.9825 18.7 50.867C18.6461 50.7516 18.57 50.6478 18.476 50.5618C18.382 50.4757 18.272 50.409 18.1522 50.3655C18.0325 50.322 17.9053 50.3025 17.778 50.3081C17.6507 50.3137 17.5257 50.3443 17.4103 50.3982C17.2948 50.4521 17.1911 50.5282 17.105 50.6222C17.019 50.7162 16.9523 50.8262 16.9087 50.946ZM24.5857 52.641C24.5797 52.772 24.6003 52.9028 24.6462 53.0255C24.6922 53.1483 24.7626 53.2605 24.8531 53.3553C24.9436 53.4501 25.0524 53.5256 25.1729 53.5772C25.2934 53.6288 25.4231 53.6555 25.5542 53.6555C25.6853 53.6556 25.815 53.6291 25.9356 53.5776C26.0562 53.5261 26.165 53.4508 26.2556 53.356C26.3463 53.2613 26.4167 53.1492 26.4628 53.0265C26.5089 52.9037 26.5296 52.773 26.5237 52.642C26.5124 52.3926 26.4054 52.1572 26.2249 51.9847C26.0444 51.8123 25.8044 51.716 25.5547 51.716C25.3051 51.716 25.0651 51.8123 24.8846 51.9847C24.7041 52.1572 24.5971 52.3926 24.5857 52.642V52.641ZM32.3767 51.609C32.4165 51.7333 32.481 51.8484 32.5663 51.9472C32.6516 52.046 32.756 52.1266 32.8732 52.1841C32.9904 52.2417 33.118 52.2749 33.2483 52.282C33.3787 52.289 33.5091 52.2697 33.6318 52.2251C33.7545 52.1805 33.867 52.1116 33.9624 52.0225C34.0579 51.9334 34.1343 51.826 34.1873 51.7067C34.2402 51.5873 34.2685 51.4585 34.2705 51.328C34.2724 51.1975 34.248 51.0679 34.1987 50.947C34.104 50.7148 33.9231 50.5284 33.6939 50.4267C33.4647 50.325 33.205 50.3161 32.9693 50.4017C32.7337 50.4873 32.5403 50.6609 32.4298 50.886C32.3194 51.1111 32.3003 51.3702 32.3767 51.609ZM39.3467 47.974C39.4262 48.0784 39.5261 48.1656 39.6402 48.2304C39.7544 48.2951 39.8805 48.3359 40.0109 48.3505C40.1413 48.3651 40.2733 48.353 40.399 48.3151C40.5246 48.2772 40.6412 48.2141 40.7418 48.1298C40.8423 48.0455 40.9247 47.9417 40.984 47.8246C41.0433 47.7075 41.0782 47.5796 41.0866 47.4487C41.095 47.3177 41.0767 47.1864 41.0329 47.0627C40.9891 46.939 40.9207 46.8255 40.8317 46.729C40.6634 46.5429 40.4296 46.4293 40.1793 46.4119C39.929 46.3946 39.6817 46.4749 39.4893 46.6361C39.297 46.7972 39.1746 47.0266 39.1478 47.2761C39.121 47.5256 39.193 47.7757 39.3467 47.974ZM44.6527 42.174C44.7631 42.2458 44.8869 42.2944 45.0167 42.3168C45.1464 42.3393 45.2794 42.335 45.4074 42.3044C45.5355 42.2738 45.656 42.2174 45.7615 42.1387C45.8671 42.06 45.9555 41.9606 46.0215 41.8467C46.0874 41.7327 46.1294 41.6065 46.145 41.4757C46.1606 41.345 46.1494 41.2124 46.1121 41.0862C46.0748 40.9599 46.0121 40.8425 45.928 40.7412C45.8439 40.64 45.74 40.5569 45.6227 40.497C45.4011 40.3813 45.1433 40.3557 44.9033 40.4255C44.6632 40.4953 44.4593 40.6551 44.3342 40.8715C44.2091 41.088 44.1724 41.3444 44.2317 41.5872C44.2911 41.8301 44.4419 42.0396 44.6527 42.174ZM47.6537 34.909C47.7805 34.9343 47.911 34.9341 48.0376 34.9083C48.1642 34.8825 48.2844 34.8316 48.3911 34.7587C48.4978 34.6858 48.5889 34.5923 48.6589 34.4837C48.729 34.3751 48.7767 34.2536 48.7991 34.1264C48.8216 33.9991 48.8184 33.8686 48.7897 33.7426C48.761 33.6166 48.7075 33.4976 48.6322 33.3926C48.5568 33.2875 48.4613 33.1986 48.3512 33.131C48.241 33.0635 48.1185 33.0186 47.9907 32.999C47.7402 32.9606 47.4846 33.0218 47.2786 33.1695C47.0726 33.3172 46.9327 33.5397 46.8886 33.7893C46.8446 34.0389 46.9 34.2958 47.043 34.5051C47.186 34.7143 47.4052 34.8593 47.6537 34.909ZM47.9907 27.058C48.1185 27.0384 48.241 26.9935 48.3512 26.926C48.4613 26.8584 48.5568 26.7695 48.6322 26.6644C48.7075 26.5594 48.761 26.4404 48.7897 26.3144C48.8184 26.1884 48.8216 26.0579 48.7991 25.9306C48.7767 25.8034 48.729 25.6819 48.6589 25.5733C48.5889 25.4647 48.4978 25.3712 48.3911 25.2983C48.2844 25.2254 48.1642 25.1745 48.0376 25.1487C47.911 25.1229 47.7805 25.1227 47.6537 25.148C47.4052 25.1977 47.186 25.3427 47.043 25.5519C46.9 25.7612 46.8446 26.0181 46.8886 26.2677C46.9327 26.5173 47.0726 26.7398 47.2786 26.8875C47.4846 27.0352 47.7402 27.0964 47.9907 27.058ZM45.6207 19.561C45.7359 19.5002 45.8376 19.4167 45.9198 19.3157C46.002 19.2146 46.063 19.0981 46.0991 18.9729C46.1352 18.8478 46.1457 18.7166 46.13 18.5873C46.1143 18.458 46.0727 18.3332 46.0076 18.2204C45.9426 18.1075 45.8555 18.009 45.7515 17.9305C45.6475 17.8521 45.5288 17.7955 45.4024 17.764C45.276 17.7325 45.1446 17.7268 45.0159 17.7472C44.8873 17.7677 44.7641 17.8139 44.6537 17.883C44.4412 18.0161 44.2885 18.2265 44.2278 18.4699C44.1672 18.7133 44.2033 18.9707 44.3285 19.188C44.4538 19.4054 44.6584 19.5657 44.8994 19.6352C45.1404 19.7048 45.3989 19.6782 45.6207 19.561ZM40.8317 13.33C40.9135 13.2324 40.9753 13.1196 41.0135 12.9981C41.0518 12.8765 41.0657 12.7487 41.0545 12.6218C41.0433 12.4949 41.0072 12.3715 40.9483 12.2585C40.8894 12.1456 40.8089 12.0453 40.7112 11.9635C40.6136 11.8817 40.5008 11.8199 40.3793 11.7817C40.2578 11.7435 40.1299 11.7295 40.003 11.7407C39.8761 11.7519 39.7527 11.788 39.6397 11.8469C39.5268 11.9058 39.4265 11.9864 39.3447 12.084C39.1795 12.2812 39.0994 12.5359 39.122 12.7922C39.1446 13.0485 39.268 13.2853 39.4652 13.4505C39.6624 13.6157 39.9172 13.6959 40.1734 13.6733C40.4297 13.6507 40.6665 13.5272 40.8317 13.33ZM34.1987 9.113C34.2466 8.99245 34.2698 8.86353 34.2669 8.73387C34.2641 8.60421 34.2352 8.47643 34.1821 8.3581C34.129 8.23977 34.0528 8.13329 33.9578 8.04496C33.8628 7.95662 33.7511 7.88823 33.6293 7.84382C33.5074 7.79941 33.3779 7.77989 33.2484 7.78641C33.1188 7.79293 32.9919 7.82536 32.8751 7.88179C32.7584 7.93821 32.6541 8.01748 32.5685 8.11491C32.4829 8.21233 32.4177 8.32594 32.3767 8.449C32.297 8.68859 32.3139 8.94982 32.4237 9.17718C32.5336 9.40453 32.7278 9.58009 32.965 9.66655C33.2022 9.75301 33.4638 9.74355 33.6942 9.64018C33.9246 9.53682 34.1056 9.34769 34.1987 9.113ZM26.5237 10.64C26.5237 10.3827 26.4215 10.136 26.2396 9.95411C26.0577 9.7722 25.811 9.67 25.5537 9.67C25.2965 9.67 25.0497 9.7722 24.8678 9.95411C24.6859 10.136 24.5837 10.3827 24.5837 10.64C24.5837 10.8973 24.6859 11.144 24.8678 11.3259C25.0497 11.5078 25.2965 11.61 25.5537 11.61C25.811 11.61 26.0577 11.5078 26.2396 11.3259C26.4215 11.144 26.5237 10.8973 26.5237 10.64ZM22.7217 10.824C22.6968 10.699 22.6475 10.5802 22.5766 10.4743C22.5057 10.3684 22.4147 10.2775 22.3087 10.2068C22.2027 10.1361 22.0838 10.087 21.9588 10.0622C21.8338 10.0375 21.7052 10.0375 21.5802 10.0625C21.4553 10.0875 21.3365 10.1368 21.2306 10.2076C21.1247 10.2785 21.0338 10.3695 20.9631 10.4755C20.8924 10.5815 20.8432 10.7004 20.8184 10.8254C20.7937 10.9504 20.7938 11.079 20.8187 11.204C20.8691 11.4564 21.0177 11.6784 21.2318 11.8212C21.4458 11.964 21.7079 12.0159 21.9602 11.9655C22.2126 11.9151 22.4346 11.7665 22.5774 11.5525C22.7202 11.3384 22.7721 11.0764 22.7217 10.824ZM19.0297 11.745C18.9854 11.6213 18.9164 11.508 18.827 11.4118C18.7375 11.3156 18.6294 11.2386 18.5093 11.1854C18.3892 11.1322 18.2595 11.104 18.1282 11.1024C17.9968 11.1008 17.8665 11.126 17.7452 11.1763C17.6238 11.2266 17.514 11.301 17.4223 11.395C17.3305 11.4891 17.2589 11.6008 17.2116 11.7233C17.1643 11.8459 17.1425 11.9768 17.1473 12.1081C17.1521 12.2393 17.1836 12.3682 17.2397 12.487C17.3462 12.7122 17.5352 12.8878 17.7676 12.9774C18 13.067 18.258 13.0638 18.4881 12.9684C18.7182 12.873 18.9027 12.6928 19.0036 12.465C19.1044 12.2373 19.1138 11.9795 19.0297 11.745ZM12.5307 15.634C12.4408 15.544 12.334 15.4726 12.2164 15.4238C12.0989 15.3751 11.9728 15.35 11.8456 15.3499C11.7183 15.3499 11.5923 15.3749 11.4747 15.4235C11.3571 15.4722 11.2503 15.5435 11.1602 15.6335C11.0702 15.7235 10.9988 15.8303 10.95 15.9478C10.9013 16.0654 10.8762 16.1914 10.8761 16.3186C10.8761 16.4459 10.9011 16.5719 10.9498 16.6895C10.9984 16.8071 11.0698 16.914 11.1597 17.004C11.3428 17.1787 11.587 17.2749 11.84 17.2719C12.0931 17.269 12.335 17.1672 12.5139 16.9882C12.6929 16.8092 12.7947 16.5674 12.7977 16.3143C12.8006 16.0613 12.7045 15.8171 12.5297 15.634H12.5307ZM9.97173 18.451C9.86591 18.3768 9.74633 18.3246 9.62003 18.2973C9.49373 18.27 9.36325 18.2682 9.23625 18.292C9.10925 18.3158 8.98829 18.3648 8.88047 18.436C8.77265 18.5072 8.68015 18.5993 8.60839 18.7068C8.53664 18.8142 8.48708 18.9349 8.46262 19.0618C8.43817 19.1887 8.43931 19.3192 8.46599 19.4456C8.49266 19.5721 8.54433 19.6919 8.61795 19.7981C8.69158 19.9043 8.78568 19.9947 8.89473 20.064C9.10865 20.2 9.36731 20.2468 9.61533 20.1945C9.86335 20.1422 10.081 19.9948 10.2218 19.784C10.3626 19.5732 10.4152 19.3157 10.3685 19.0665C10.3217 18.8174 10.1793 18.5965 9.97173 18.451ZM8.01173 21.713C7.89317 21.6586 7.76485 21.6286 7.63444 21.6249C7.50403 21.6212 7.37421 21.6438 7.25276 21.6915C7.1313 21.7391 7.0207 21.8107 6.92758 21.9021C6.83446 21.9935 6.76072 22.1027 6.71079 22.2232C6.66086 22.3438 6.63575 22.4731 6.63697 22.6036C6.63819 22.734 6.66572 22.8629 6.7179 22.9825C6.77008 23.102 6.84585 23.2099 6.94067 23.2995C7.03548 23.3891 7.1474 23.4586 7.26973 23.504C7.50447 23.5894 7.7631 23.581 7.99176 23.4804C8.22043 23.3799 8.4015 23.195 8.49726 22.9643C8.59302 22.7336 8.59609 22.4749 8.50583 22.242C8.41557 22.009 8.23894 21.8199 8.01273 21.714L8.01173 21.713ZM6.72873 25.295C6.60108 25.2624 6.46813 25.2562 6.33799 25.2767C6.20786 25.2972 6.08326 25.344 5.97181 25.4143C5.86035 25.4845 5.76437 25.5767 5.68972 25.6853C5.61507 25.7938 5.56332 25.9164 5.53761 26.0456C5.51191 26.1748 5.51279 26.3079 5.54021 26.4368C5.56763 26.5656 5.62101 26.6876 5.69709 26.7951C5.77318 26.9027 5.87037 26.9936 5.98275 27.0623C6.09513 27.1311 6.22033 27.1762 6.35073 27.195C6.5965 27.2304 6.84647 27.1702 7.04918 27.0268C7.25188 26.8834 7.39187 26.6677 7.44032 26.4242C7.48877 26.1806 7.44199 25.9278 7.30961 25.7177C7.17722 25.5077 6.96933 25.3564 6.72873 25.295ZM6.16573 29.06C6.03478 29.054 5.90397 29.0747 5.78123 29.1207C5.65848 29.1667 5.54633 29.2371 5.45155 29.3277C5.35678 29.4183 5.28134 29.5271 5.22981 29.6476C5.17827 29.7682 5.1517 29.8979 5.1517 30.029C5.1517 30.1601 5.17827 30.2898 5.22981 30.4104C5.28134 30.5309 5.35678 30.6397 5.45155 30.7303C5.54633 30.8209 5.65848 30.8913 5.78123 30.9373C5.90397 30.9833 6.03478 31.004 6.16573 30.998C6.41511 30.9867 6.65052 30.8796 6.82299 30.6991C6.99545 30.5187 7.0917 30.2786 7.0917 30.029C7.0917 29.7794 6.99545 29.5393 6.82299 29.3589C6.65052 29.1784 6.41511 29.0713 6.16573 29.06ZM6.34973 32.862C6.22221 32.8841 6.1004 32.9315 5.99148 33.0014C5.88256 33.0713 5.78874 33.1623 5.71553 33.2691C5.64232 33.3758 5.59121 33.4961 5.56521 33.6229C5.53921 33.7497 5.53884 33.8804 5.56414 34.0073C5.58943 34.1342 5.63987 34.2548 5.71248 34.3619C5.78509 34.4691 5.87841 34.5606 5.98694 34.6311C6.09546 34.7016 6.21701 34.7497 6.3444 34.7725C6.4718 34.7954 6.60247 34.7925 6.72873 34.764C6.97654 34.7092 7.19298 34.5594 7.33162 34.3468C7.47027 34.1342 7.52007 33.8758 7.47034 33.6269C7.42062 33.378 7.27533 33.1585 7.06565 33.0155C6.85596 32.8725 6.59858 32.8174 6.34873 32.862H6.34973ZM7.27173 36.554C7.14807 36.5983 7.03471 36.6673 6.93851 36.7568C6.84232 36.8462 6.76529 36.9543 6.71211 37.0744C6.65893 37.1945 6.6307 37.3242 6.62914 37.4555C6.62757 37.5869 6.6527 37.7172 6.703 37.8385C6.75331 37.9599 6.82773 38.0698 6.92177 38.1615C7.01581 38.2532 7.12749 38.3249 7.25006 38.3721C7.37262 38.4194 7.50351 38.4413 7.63478 38.4364C7.76605 38.4316 7.89498 38.4002 8.01373 38.344C8.2389 38.2375 8.41449 38.0485 8.5041 37.8161C8.59372 37.5837 8.59051 37.3257 8.49513 37.0957C8.39975 36.8656 8.21952 36.681 7.99177 36.5801C7.76401 36.4793 7.5062 36.4699 7.27173 36.554ZM8.89573 39.995C8.78975 40.0658 8.69876 40.1567 8.62793 40.2627C8.55711 40.3686 8.50785 40.4875 8.48297 40.6125C8.45808 40.7375 8.45805 40.8661 8.48289 40.9911C8.50773 41.1161 8.55695 41.235 8.62773 41.341C8.69851 41.447 8.78948 41.538 8.89543 41.6088C9.00138 41.6796 9.12024 41.7289 9.24523 41.7538C9.37021 41.7787 9.49888 41.7787 9.62388 41.7538C9.74887 41.729 9.86775 41.6798 9.97373 41.609C10.1878 41.466 10.3362 41.2439 10.3865 40.9915C10.4368 40.7391 10.3847 40.477 10.2417 40.263C10.0988 40.049 9.87666 39.9005 9.62424 39.8502C9.37181 39.8 9.10976 39.852 8.89573 39.995ZM11.1597 43.053C11.0662 43.1421 10.9915 43.249 10.9399 43.3674C10.8883 43.4858 10.8609 43.6133 10.8593 43.7425C10.8577 43.8716 10.8819 43.9998 10.9306 44.1194C10.9792 44.239 11.0513 44.3478 11.1426 44.4392C11.2338 44.5305 11.3424 44.6028 11.462 44.6516C11.5816 44.7004 11.7097 44.7248 11.8388 44.7234C11.968 44.722 12.0955 44.6948 12.214 44.6434C12.3325 44.5919 12.4395 44.5174 12.5287 44.424C12.7035 44.2409 12.7996 43.9967 12.7967 43.7437C12.7937 43.4906 12.6919 43.2488 12.5129 43.0698C12.334 42.8908 12.0921 42.789 11.839 42.786C11.586 42.7831 11.3418 42.8793 11.1587 43.054L11.1597 43.053ZM13.9777 45.613C13.9021 45.7186 13.8485 45.8383 13.8201 45.965C13.7916 46.0917 13.789 46.2228 13.8122 46.3505C13.8354 46.4783 13.8841 46.6001 13.9553 46.7087C14.0265 46.8172 14.1189 46.9104 14.2268 46.9826C14.3347 47.0548 14.4561 47.1045 14.5836 47.1289C14.7111 47.1533 14.8423 47.1518 14.9692 47.1245C15.0962 47.0972 15.2163 47.0447 15.3226 46.9701C15.4288 46.8954 15.519 46.8002 15.5877 46.69C15.7243 46.4765 15.7717 46.2179 15.7199 45.9698C15.6681 45.7217 15.5211 45.5038 15.3105 45.3628C15.0999 45.2217 14.8424 45.1688 14.5933 45.2154C14.3441 45.262 14.1231 45.4054 13.9777 45.613ZM17.2387 47.57C17.19 47.6878 17.165 47.814 17.165 47.9415C17.1651 48.069 17.1903 48.1952 17.2391 48.3129C17.288 48.4307 17.3595 48.5377 17.4497 48.6277C17.5399 48.7178 17.6469 48.7893 17.7647 48.838C17.8825 48.8867 18.0088 48.9118 18.1362 48.9117C18.2637 48.9116 18.3899 48.8865 18.5077 48.8376C18.6254 48.7888 18.7324 48.7172 18.8225 48.627C18.9126 48.5368 18.984 48.4298 19.0327 48.312C19.1311 48.0741 19.131 47.8069 19.0323 47.5691C18.9337 47.3313 18.7446 47.1424 18.5067 47.044C18.2688 46.9456 18.0016 46.9457 17.7638 47.0444C17.526 47.143 17.3371 47.3321 17.2387 47.57ZM20.8197 48.855C20.7949 48.98 20.7949 49.1086 20.8198 49.2335C20.8447 49.3584 20.894 49.4773 20.9648 49.5832C21.0356 49.6891 21.1266 49.78 21.2325 49.8507C21.3384 49.9215 21.4573 49.9707 21.5822 49.9955C21.7072 50.0203 21.8358 50.0203 21.9607 49.9954C22.0857 49.9705 22.2045 49.9213 22.3104 49.8505C22.4163 49.7797 22.5072 49.6887 22.578 49.5827C22.6487 49.4768 22.6979 49.358 22.7227 49.233C22.7729 48.9806 22.7207 48.7187 22.5777 48.5048C22.4347 48.2909 22.2126 48.1426 21.9602 48.0925C21.7079 48.0424 21.4459 48.0945 21.2321 48.2375C21.0182 48.3805 20.8699 48.6026 20.8197 48.855ZM24.5857 49.418C24.5798 49.549 24.6004 49.6798 24.6464 49.8025C24.6925 49.9253 24.7629 50.0374 24.8534 50.1322C24.944 50.227 25.0528 50.3024 25.1734 50.3539C25.2939 50.4055 25.4236 50.432 25.5547 50.432C25.6858 50.432 25.8155 50.4055 25.9361 50.3539C26.0566 50.3024 26.1655 50.227 26.256 50.1322C26.3466 50.0374 26.417 49.9253 26.463 49.8025C26.509 49.6798 26.5297 49.549 26.5237 49.418C26.5124 49.1686 26.4054 48.9332 26.2249 48.7607C26.0444 48.5883 25.8044 48.492 25.5547 48.492C25.3051 48.492 25.0651 48.5883 24.8846 48.7607C24.7041 48.9332 24.5971 49.1686 24.5857 49.418ZM28.3857 49.234C28.4084 49.3611 28.4562 49.4823 28.5263 49.5907C28.5965 49.699 28.6875 49.7923 28.7941 49.865C28.9008 49.9377 29.0208 49.9884 29.1473 50.0141C29.2738 50.0398 29.4041 50.0401 29.5307 50.0148C29.6572 49.9895 29.7775 49.9392 29.8844 49.8669C29.9913 49.7945 30.0826 49.7016 30.1531 49.5935C30.2236 49.4854 30.2718 49.3643 30.295 49.2373C30.3181 49.1103 30.3156 48.98 30.2877 48.854C30.2329 48.6062 30.0831 48.3898 29.8705 48.2511C29.6579 48.1125 29.3995 48.0627 29.1506 48.1124C28.9017 48.1621 28.6822 48.3074 28.5392 48.5171C28.3963 48.7268 28.3411 48.9841 28.3857 49.234ZM32.0787 48.312C32.1268 48.4308 32.1978 48.5388 32.2878 48.63C32.3779 48.7211 32.485 48.7935 32.6032 48.843C32.7213 48.8925 32.8481 48.9181 32.9762 48.9183C33.1043 48.9186 33.2312 48.8934 33.3495 48.8444C33.4678 48.7953 33.5753 48.7233 33.6656 48.6325C33.756 48.5417 33.8274 48.4339 33.8759 48.3153C33.9243 48.1967 33.9488 48.0697 33.948 47.9416C33.9471 47.8135 33.9208 47.6869 33.8707 47.569C33.7707 47.3336 33.5817 47.1472 33.345 47.0504C33.1082 46.9537 32.8428 46.9543 32.6065 47.0523C32.3702 47.1503 32.1821 47.3376 32.0833 47.5735C31.9845 47.8095 31.9828 48.0749 32.0787 48.312ZM35.5187 46.688C35.5896 46.794 35.6806 46.885 35.7866 46.9558C35.8926 47.0266 36.0115 47.0758 36.1366 47.1006C36.2616 47.1255 36.3903 47.1254 36.5153 47.1005C36.6404 47.0756 36.7593 47.0263 36.8652 46.9555C36.9712 46.8847 37.0622 46.7936 37.133 46.6876C37.2038 46.5816 37.253 46.4627 37.2778 46.3377C37.3027 46.2126 37.3027 46.0839 37.2778 45.9589C37.2529 45.8339 37.2036 45.715 37.1327 45.609C36.9895 45.395 36.7671 45.2466 36.5145 45.1965C36.2619 45.1465 35.9998 45.1988 35.7857 45.342C35.5717 45.4852 35.4233 45.7076 35.3733 45.9602C35.3232 46.2128 35.3755 46.474 35.5187 46.688ZM38.5777 44.425C38.6679 44.515 38.775 44.5863 38.8928 44.6348C39.0106 44.6834 39.1367 44.7083 39.2641 44.7081C39.3915 44.708 39.5177 44.6827 39.6353 44.6338C39.7529 44.5848 39.8598 44.5132 39.9497 44.423C40.0397 44.3328 40.111 44.2257 40.1596 44.108C40.2082 43.9902 40.2331 43.864 40.2329 43.7366C40.2327 43.6092 40.2074 43.4831 40.1585 43.3654C40.1096 43.2478 40.0379 43.141 39.9477 43.051C39.7655 42.8693 39.5186 42.7675 39.2613 42.7678C39.004 42.7682 38.7574 42.8708 38.5757 43.053C38.3941 43.2352 38.2922 43.4821 38.2926 43.7394C38.293 43.9967 38.3955 44.2433 38.5777 44.425ZM41.1367 41.606C41.2424 41.6824 41.3624 41.7367 41.4895 41.7657C41.6167 41.7946 41.7483 41.7977 41.8767 41.7746C42.005 41.7515 42.1274 41.7028 42.2365 41.6313C42.3456 41.5599 42.4391 41.4672 42.5115 41.3588C42.584 41.2503 42.6338 41.1284 42.6581 41.0003C42.6823 40.8722 42.6805 40.7405 42.6527 40.6131C42.6249 40.4857 42.5717 40.3652 42.4963 40.2588C42.4208 40.1525 42.3248 40.0624 42.2137 39.994C42 39.8623 41.7435 39.8187 41.4982 39.8722C41.2529 39.9257 41.0379 40.0723 40.8984 40.281C40.759 40.4898 40.7059 40.7445 40.7503 40.9916C40.7948 41.2387 40.9333 41.4589 41.1367 41.606ZM43.0957 38.344C43.2143 38.3984 43.3426 38.4284 43.473 38.4321C43.6034 38.4358 43.7332 38.4132 43.8547 38.3655C43.9762 38.3179 44.0868 38.2463 44.1799 38.1549C44.273 38.0635 44.3467 37.9543 44.3967 37.8338C44.4466 37.7132 44.4717 37.5839 44.4705 37.4534C44.4693 37.323 44.4417 37.1941 44.3896 37.0745C44.3374 36.955 44.2616 36.8471 44.1668 36.7575C44.072 36.6679 43.9601 36.5984 43.8377 36.553C43.6025 36.4658 43.3425 36.4731 43.1125 36.5735C42.8826 36.6738 42.7004 36.8594 42.6044 37.0912C42.5084 37.3231 42.5059 37.5831 42.5975 37.8167C42.6891 38.0503 42.8677 38.2393 43.0957 38.344ZM44.3807 34.763C44.6301 34.8062 44.8864 34.7503 45.0951 34.6072C45.3038 34.464 45.4483 34.245 45.4977 33.9968C45.5472 33.7486 45.4977 33.491 45.3598 33.2788C45.2219 33.0666 45.0066 32.9166 44.7597 32.861C44.5104 32.8178 44.254 32.8737 44.0453 33.0168C43.8367 33.16 43.6922 33.379 43.6427 33.6272C43.5933 33.8754 43.6428 34.133 43.7806 34.3452C43.9185 34.5574 44.1339 34.7074 44.3807 34.763ZM44.9417 30.998C45.199 30.9981 45.4458 30.8961 45.6278 30.7142C45.8098 30.5324 45.9121 30.2858 45.9122 30.0285C45.9124 29.7712 45.8103 29.5245 45.6285 29.3425C45.4467 29.1605 45.2 29.0581 44.9427 29.058C44.6855 29.058 44.4387 29.1602 44.2568 29.3421C44.0749 29.524 43.9727 29.7707 43.9727 30.028C43.9727 30.2853 44.0749 30.532 44.2568 30.7139C44.4387 30.8958 44.6845 30.998 44.9417 30.998ZM44.7597 27.196C45.0121 27.1456 45.2341 26.997 45.3769 26.783C45.5197 26.5689 45.5716 26.3069 45.5212 26.0545C45.4708 25.8021 45.3223 25.5801 45.1082 25.4373C44.8941 25.2945 44.6321 25.2426 44.3797 25.293C44.2548 25.318 44.136 25.3673 44.0301 25.4381C43.9242 25.509 43.8333 25.6 43.7626 25.706C43.6919 25.812 43.6427 25.9309 43.6179 26.0559C43.5932 26.1809 43.5933 26.3095 43.6182 26.4345C43.6432 26.5595 43.6925 26.6783 43.7634 26.7842C43.8342 26.8901 43.9253 26.981 44.0313 27.0517C44.1373 27.1224 44.2562 27.1715 44.3811 27.1963C44.5061 27.221 44.6348 27.221 44.7597 27.196ZM43.8377 23.505C43.9601 23.4596 44.072 23.3901 44.1668 23.3005C44.2616 23.2109 44.3374 23.103 44.3896 22.9835C44.4417 22.8639 44.4693 22.735 44.4705 22.6046C44.4717 22.4741 44.4466 22.3448 44.3967 22.2242C44.3467 22.1037 44.273 21.9945 44.1799 21.9031C44.0868 21.8117 43.9762 21.7401 43.8547 21.6925C43.7332 21.6448 43.6034 21.6222 43.473 21.6259C43.3426 21.6296 43.2143 21.6596 43.0957 21.714C42.8706 21.8205 42.695 22.0095 42.6054 22.2419C42.5157 22.4743 42.5189 22.7323 42.6143 22.9623C42.7097 23.1924 42.8899 23.377 43.1177 23.4779C43.3454 23.5787 43.6033 23.5881 43.8377 23.504V23.505ZM39.9497 17.005C40.045 16.9163 40.1215 16.8094 40.1745 16.6905C40.2276 16.5717 40.2562 16.4433 40.2585 16.3132C40.2609 16.1831 40.237 16.0538 40.1883 15.9331C40.1396 15.8124 40.0671 15.7027 39.9751 15.6106C39.8831 15.5186 39.7735 15.446 39.6528 15.3972C39.5322 15.3484 39.4029 15.3244 39.2728 15.3267C39.1426 15.329 39.0143 15.3575 38.8954 15.4104C38.7765 15.4634 38.6695 15.5398 38.5807 15.635C38.4096 15.8186 38.3165 16.0615 38.3208 16.3125C38.3252 16.5635 38.4268 16.8029 38.6043 16.9805C38.7817 17.158 39.0211 17.2598 39.272 17.2644C39.523 17.269 39.766 17.176 39.9497 17.005ZM37.1317 14.446C37.2073 14.3404 37.2609 14.2207 37.2894 14.094C37.3178 13.9673 37.3205 13.8362 37.2973 13.7085C37.274 13.5807 37.2254 13.4589 37.1541 13.3503C37.0829 13.2418 36.9906 13.1486 36.8827 13.0764C36.7747 13.0042 36.6534 12.9545 36.5259 12.9301C36.3983 12.9057 36.2672 12.9072 36.1402 12.9345C36.0133 12.9618 35.8931 13.0143 35.7869 13.0889C35.6806 13.1636 35.5905 13.2588 35.5217 13.369C35.3885 13.5825 35.3437 13.8395 35.3965 14.0855C35.4494 14.3315 35.596 14.5473 35.8051 14.6872C36.0143 14.8272 36.2697 14.8802 36.5173 14.8352C36.7649 14.7902 36.9852 14.6506 37.1317 14.446ZM33.8697 12.488C33.9246 12.3695 33.955 12.2411 33.9591 12.1105C33.9631 11.9799 33.9408 11.8499 33.8934 11.7282C33.8459 11.6064 33.7744 11.4956 33.6831 11.4022C33.5917 11.3088 33.4825 11.2348 33.3618 11.1846C33.2412 11.1345 33.1117 11.1092 32.9811 11.1104C32.8505 11.1115 32.7214 11.139 32.6017 11.1913C32.4819 11.2435 32.374 11.3194 32.2843 11.4144C32.1946 11.5094 32.125 11.6215 32.0797 11.744C31.9928 11.979 32.0003 12.2386 32.1005 12.4682C32.2007 12.6979 32.3859 12.8799 32.6173 12.9761C32.8486 13.0722 33.1083 13.0751 33.3417 12.9841C33.5752 12.8932 33.7644 12.7154 33.8697 12.488ZM30.2877 11.202C30.3187 11.0748 30.3237 10.9427 30.3023 10.8136C30.2809 10.6845 30.2336 10.561 30.1632 10.4507C30.0928 10.3403 30.0008 10.2454 29.8928 10.1715C29.7848 10.0976 29.6629 10.0464 29.5345 10.0208C29.4061 9.99532 29.2739 9.99604 29.1459 10.023C29.0178 10.0499 28.8965 10.1024 28.7892 10.1775C28.682 10.2525 28.591 10.3485 28.5219 10.4596C28.4527 10.5707 28.4067 10.6947 28.3867 10.824C28.3513 11.0698 28.4116 11.3197 28.555 11.5224C28.6984 11.7251 28.914 11.8651 29.1576 11.9136C29.4011 11.962 29.6539 11.9153 29.864 11.7829C30.0741 11.6505 30.2254 11.4426 30.2867 11.202H30.2877ZM26.5237 13.864C26.5237 13.6067 26.4215 13.36 26.2396 13.1781C26.0577 12.9962 25.811 12.894 25.5537 12.894C25.2965 12.894 25.0497 12.9962 24.8678 13.1781C24.6859 13.36 24.5837 13.6067 24.5837 13.864C24.5837 14.1213 24.6859 14.368 24.8678 14.5499C25.0497 14.7318 25.2965 14.834 25.5537 14.834C25.811 14.834 26.0577 14.7318 26.2396 14.5499C26.4215 14.368 26.5237 14.1213 26.5237 13.864ZM20.9357 14.508C20.8921 14.3883 20.8254 14.2784 20.7393 14.1845C20.6532 14.0906 20.5495 14.0145 20.434 13.9607C20.3185 13.9069 20.1936 13.8764 20.0663 13.8708C19.939 13.8653 19.8119 13.8849 19.6922 13.9285C19.5725 13.9721 19.4626 14.0388 19.3687 14.1249C19.2748 14.211 19.1988 14.3148 19.1449 14.4302C19.0911 14.5457 19.0606 14.6706 19.0551 14.7979C19.0495 14.9252 19.0691 15.0523 19.1127 15.172C19.2008 15.4137 19.3813 15.6106 19.6145 15.7193C19.8477 15.828 20.1145 15.8396 20.3562 15.7515C20.598 15.6634 20.7948 15.483 20.9035 15.2498C21.0122 15.0166 21.0238 14.7497 20.9357 14.508ZM15.9057 17.022C15.8245 16.9223 15.7242 16.8397 15.6108 16.7791C15.4973 16.7185 15.3729 16.6811 15.2449 16.669C15.1168 16.6569 14.9877 16.6704 14.8649 16.7087C14.7421 16.747 14.6281 16.8094 14.5297 16.8921C14.4312 16.9749 14.3502 17.0764 14.2913 17.1907C14.2324 17.3051 14.1969 17.43 14.1868 17.5583C14.1766 17.6865 14.1921 17.8154 14.2323 17.9376C14.2724 18.0598 14.3365 18.1728 14.4207 18.27C14.5875 18.4625 14.8234 18.5816 15.0773 18.6017C15.3312 18.6218 15.5828 18.5412 15.7778 18.3773C15.9728 18.2134 16.0955 17.9794 16.1194 17.7259C16.1434 17.4723 16.0666 17.2195 15.9057 17.022ZM12.0387 21.107C11.9285 21.0393 11.8058 20.9943 11.6778 20.9748C11.5499 20.9553 11.4194 20.9616 11.2939 20.9933C11.1685 21.025 11.0507 21.0816 10.9474 21.1596C10.8442 21.2376 10.7576 21.3355 10.6928 21.4475C10.628 21.5595 10.5863 21.6834 10.5702 21.8118C10.554 21.9402 10.5638 22.0705 10.5988 22.1951C10.6338 22.3196 10.6935 22.4359 10.7742 22.5371C10.8549 22.6382 10.955 22.7222 11.0687 22.784C11.2906 22.9046 11.5508 22.9339 11.794 22.8655C12.0371 22.7971 12.2439 22.6365 12.3704 22.4179C12.4968 22.1992 12.5329 21.9399 12.471 21.695C12.409 21.4502 12.2539 21.2392 12.0387 21.107ZM9.80273 26.267C9.67601 26.2417 9.5455 26.2419 9.41887 26.2677C9.29224 26.2935 9.17205 26.3444 9.06535 26.4173C8.95865 26.4902 8.86759 26.5837 8.79753 26.6923C8.72746 26.8009 8.6798 26.9224 8.65735 27.0496C8.63489 27.1769 8.6381 27.3074 8.66677 27.4334C8.69544 27.5594 8.749 27.6784 8.82431 27.7834C8.89961 27.8885 8.99515 27.9774 9.1053 28.045C9.21545 28.1125 9.33799 28.1574 9.46573 28.177C9.71626 28.2154 9.97187 28.1542 10.1778 28.0065C10.3838 27.8588 10.5238 27.6363 10.5678 27.3867C10.6119 27.1371 10.5565 26.8802 10.4135 26.6709C10.2705 26.4617 10.0513 26.3167 9.80273 26.267ZM9.46573 31.88C9.33799 31.8996 9.21545 31.9445 9.1053 32.012C8.99515 32.0796 8.89961 32.1685 8.82431 32.2736C8.749 32.3786 8.69544 32.4976 8.66677 32.6236C8.6381 32.7496 8.63489 32.8801 8.65735 33.0074C8.6798 33.1346 8.72746 33.2561 8.79753 33.3647C8.86759 33.4733 8.95865 33.5668 9.06535 33.6397C9.17205 33.7126 9.29224 33.7635 9.41887 33.7893C9.5455 33.8151 9.67601 33.8153 9.80273 33.79C10.0513 33.7403 10.2705 33.5953 10.4135 33.3861C10.5565 33.1768 10.6119 32.9199 10.5678 32.6703C10.5238 32.4207 10.3838 32.1982 10.1778 32.0505C9.97187 31.9028 9.71626 31.8416 9.46573 31.88ZM11.0707 37.271C10.9576 37.333 10.858 37.4169 10.7777 37.5179C10.6975 37.6189 10.6382 37.7349 10.6033 37.8591C10.5685 37.9833 10.5588 38.1132 10.5748 38.2412C10.5908 38.3692 10.6322 38.4927 10.6966 38.6044C10.761 38.7162 10.847 38.814 10.9497 38.8921C11.0524 38.9702 11.1696 39.027 11.2945 39.0592C11.4194 39.0914 11.5495 39.0983 11.6771 39.0795C11.8048 39.0608 11.9274 39.0168 12.0377 38.95C12.2546 38.8189 12.4114 38.608 12.4746 38.3626C12.5379 38.1172 12.5025 37.8568 12.376 37.6372C12.2495 37.4176 12.042 37.2563 11.7981 37.1879C11.5541 37.1194 11.293 37.1492 11.0707 37.271ZM14.4207 41.788C14.2554 41.9848 14.175 42.2392 14.1972 42.4953C14.2194 42.7514 14.3424 42.9881 14.5392 43.1535C14.736 43.3189 14.9904 43.3993 15.2465 43.3771C15.5026 43.3548 15.7394 43.2318 15.9047 43.035C16.0701 42.8382 16.1505 42.5838 16.1283 42.3277C16.1061 42.0716 15.983 41.8349 15.7862 41.6695C15.5894 41.5041 15.335 41.4237 15.0789 41.4459C14.8229 41.4682 14.5861 41.5912 14.4207 41.788ZM19.1137 44.888C19.0644 45.0088 19.0399 45.1382 19.0418 45.2687C19.0437 45.3991 19.0718 45.5279 19.1246 45.6472C19.1774 45.7665 19.2537 45.8739 19.3489 45.9631C19.4442 46.0522 19.5564 46.1212 19.679 46.1659C19.8015 46.2107 19.9318 46.2303 20.0621 46.2235C20.1924 46.2167 20.32 46.1837 20.4372 46.1265C20.5544 46.0693 20.6589 45.989 20.7444 45.8905C20.8299 45.7919 20.8946 45.6771 20.9347 45.553C21.0087 45.3152 20.9883 45.058 20.8779 44.8348C20.7674 44.6116 20.5753 44.4394 20.3414 44.3539C20.1074 44.2684 19.8496 44.2762 19.6212 44.3756C19.3929 44.4751 19.2105 44.6585 19.1137 44.888ZM24.5857 46.193C24.5797 46.324 24.6003 46.4548 24.6462 46.5775C24.6922 46.7003 24.7626 46.8125 24.8531 46.9073C24.9436 47.0021 25.0524 47.0776 25.1729 47.1292C25.2934 47.1808 25.4231 47.2075 25.5542 47.2075C25.6853 47.2076 25.815 47.1811 25.9356 47.1296C26.0562 47.0781 26.165 47.0028 26.2556 46.908C26.3463 46.8133 26.4167 46.7012 26.4628 46.5785C26.5089 46.4557 26.5296 46.325 26.5237 46.194C26.5125 45.9446 26.4056 45.7092 26.2252 45.5366C26.0448 45.364 25.8048 45.2677 25.5552 45.2675C25.3056 45.2674 25.0655 45.3635 24.8849 45.5359C24.7044 45.7083 24.5972 45.9436 24.5857 46.193ZM30.1717 45.55C30.2122 45.6734 30.2771 45.7874 30.3626 45.8852C30.448 45.983 30.5522 46.0626 30.6691 46.1194C30.7859 46.1761 30.9129 46.2088 31.0426 46.2155C31.1723 46.2221 31.302 46.2027 31.4241 46.1582C31.5461 46.1138 31.6579 46.0452 31.7529 45.9567C31.848 45.8682 31.9242 45.7614 31.9772 45.6429C32.0301 45.5243 32.0587 45.3963 32.0612 45.2664C32.0637 45.1366 32.0401 45.0075 31.9917 44.887C31.8981 44.6535 31.7172 44.4655 31.4875 44.363C31.2578 44.2604 30.9971 44.2512 30.7607 44.3373C30.5243 44.4234 30.3307 44.5981 30.2207 44.8244C30.1108 45.0507 30.0932 45.3109 30.1717 45.55ZM35.2017 43.035C35.3672 43.2322 35.6043 43.3556 35.8607 43.378C36.1172 43.4004 36.372 43.32 36.5692 43.1545C36.7664 42.989 36.8898 42.752 36.9122 42.4955C36.9346 42.239 36.8542 41.9842 36.6887 41.787C36.5232 41.5899 36.2862 41.4667 36.0299 41.4444C35.7735 41.4221 35.5188 41.5025 35.3217 41.668C35.1247 41.8335 35.0014 42.0705 34.9791 42.3269C34.9568 42.5832 35.0362 42.8379 35.2017 43.035ZM39.0677 38.95C39.1781 39.015 39.3003 39.0576 39.4272 39.0752C39.5541 39.0927 39.6832 39.085 39.8071 39.0524C39.931 39.0198 40.0472 38.963 40.149 38.8852C40.2508 38.8075 40.3362 38.7103 40.4003 38.5993C40.4643 38.4884 40.5058 38.3659 40.5222 38.2388C40.5387 38.1118 40.5298 37.9827 40.4961 37.8591C40.4623 37.7355 40.4045 37.6198 40.3258 37.5187C40.2472 37.4176 40.1492 37.3331 40.0377 37.27C39.8151 37.1441 39.5518 37.1112 39.305 37.1785C39.0583 37.2458 38.8481 37.4078 38.7202 37.6293C38.5923 37.8508 38.5571 38.1138 38.6222 38.3612C38.6872 38.6085 38.8474 38.8201 39.0677 38.95ZM41.3057 33.791C41.4329 33.8172 41.5639 33.8176 41.6912 33.7922C41.8185 33.7668 41.9394 33.7161 42.0467 33.6431C42.1541 33.5702 42.2457 33.4764 42.3161 33.3674C42.3866 33.2584 42.4344 33.1364 42.4568 33.0085C42.4793 32.8807 42.4758 32.7496 42.4466 32.6232C42.4175 32.4967 42.3633 32.3773 42.2872 32.2722C42.2111 32.1671 42.1147 32.0783 42.0036 32.0111C41.8926 31.9439 41.7692 31.8996 41.6407 31.881C41.391 31.8448 41.1371 31.9072 40.9327 32.0552C40.7283 32.2031 40.5896 32.4249 40.546 32.6734C40.5024 32.9219 40.5574 33.1776 40.6992 33.3863C40.841 33.5949 41.0586 33.7401 41.3057 33.791ZM41.6417 28.177C41.769 28.1569 41.891 28.1116 42.0006 28.0438C42.1102 27.9759 42.2052 27.887 42.28 27.782C42.3548 27.6771 42.408 27.5583 42.4363 27.4326C42.4647 27.3069 42.4678 27.1768 42.4453 27.0499C42.4229 26.923 42.3754 26.8018 42.3056 26.6935C42.2357 26.5852 42.1451 26.4918 42.0388 26.4189C41.9325 26.3461 41.8127 26.2951 41.6865 26.269C41.5603 26.2429 41.4302 26.2422 41.3037 26.267C41.0552 26.3167 40.836 26.4617 40.693 26.6709C40.55 26.8802 40.4946 27.1371 40.5386 27.3867C40.5827 27.6363 40.7226 27.8588 40.9286 28.0065C41.1346 28.1542 41.3912 28.2154 41.6417 28.177ZM40.0377 22.787C40.2605 22.6586 40.4232 22.447 40.4899 22.1987C40.5567 21.9504 40.5221 21.6858 40.3937 21.463C40.2654 21.2402 40.0538 21.0776 39.8055 21.0108C39.5572 20.944 39.2925 20.9786 39.0697 21.107C38.9594 21.1706 38.8627 21.2552 38.7851 21.3562C38.7075 21.4571 38.6506 21.5723 38.6175 21.6953C38.5508 21.9436 38.5854 22.2082 38.7137 22.431C38.8421 22.6538 39.0537 22.8164 39.302 22.8832C39.5503 22.95 39.8149 22.9154 40.0377 22.787ZM36.6877 18.269C36.7696 18.1714 36.8315 18.0586 36.8697 17.937C36.908 17.8155 36.922 17.6876 36.9108 17.5606C36.8997 17.4337 36.8637 17.3102 36.8048 17.1972C36.7459 17.0842 36.6654 16.9839 36.5677 16.902C36.4701 16.8201 36.3573 16.7583 36.2357 16.72C36.1142 16.6817 35.9863 16.6677 35.8594 16.6789C35.7324 16.69 35.6089 16.7261 35.4959 16.7849C35.3829 16.8438 35.2826 16.9244 35.2007 17.022C35.0354 17.2192 34.9551 17.474 34.9776 17.7304C35.0001 17.9867 35.1235 18.2236 35.3207 18.389C35.5179 18.5544 35.7727 18.6346 36.0291 18.6121C36.2854 18.5896 36.5224 18.4662 36.6877 18.269ZM31.9937 15.171C32.0424 15.0503 32.0662 14.921 32.0638 14.7909C32.0615 14.6607 32.0329 14.5324 31.9799 14.4135C31.9269 14.2946 31.8505 14.1876 31.7553 14.0989C31.6601 14.0102 31.548 13.9415 31.4257 13.897C31.3034 13.8525 31.1734 13.8331 31.0434 13.8398C30.9134 13.8466 30.7861 13.8795 30.6691 13.9365C30.5521 13.9935 30.4478 14.0735 30.3623 14.1717C30.2769 14.2699 30.2121 14.3842 30.1717 14.508C30.0938 14.7472 30.1118 15.0073 30.222 15.2334C30.3322 15.4595 30.5259 15.634 30.7623 15.72C30.9987 15.8061 31.2593 15.7969 31.489 15.6945C31.7188 15.592 31.8997 15.4043 31.9937 15.171ZM26.5237 17.087C26.5237 16.8297 26.4215 16.583 26.2396 16.4011C26.0577 16.2192 25.811 16.117 25.5537 16.117C25.2965 16.117 25.0497 16.2192 24.8678 16.4011C24.6859 16.583 24.5837 16.8297 24.5837 17.087C24.5837 17.3443 24.6859 17.591 24.8678 17.7729C25.0497 17.9548 25.2965 18.057 25.5537 18.057C25.811 18.057 26.0577 17.9548 26.2396 17.7729C26.4215 17.591 26.5237 17.3443 26.5237 17.087ZM17.0897 20.192C16.9075 20.0102 16.6606 19.9082 16.4032 19.9085C16.1458 19.9088 15.899 20.0113 15.7172 20.1935C15.5354 20.3757 15.4334 20.6227 15.4337 20.8801C15.434 21.1375 15.5365 21.3842 15.7187 21.566C15.9009 21.7477 16.1478 21.8495 16.4051 21.8492C16.6624 21.8488 16.9091 21.7462 17.0907 21.564C17.2724 21.3818 17.3743 21.1349 17.3739 20.8776C17.3735 20.6203 17.2709 20.3737 17.0887 20.192H17.0897ZM12.6117 29.059C12.3545 29.059 12.1077 29.1612 11.9258 29.3431C11.7439 29.525 11.6417 29.7717 11.6417 30.029C11.6417 30.2863 11.7439 30.533 11.9258 30.7149C12.1077 30.8968 12.3545 30.999 12.6117 30.999C12.869 30.999 13.1157 30.8968 13.2976 30.7149C13.4795 30.533 13.5817 30.2863 13.5817 30.029C13.5817 29.7717 13.4795 29.525 13.2976 29.3431C13.1157 29.1612 12.869 29.059 12.6117 29.059ZM15.7177 38.495C15.6224 38.5837 15.546 38.6906 15.4929 38.8095C15.4399 38.9283 15.4113 39.0567 15.4089 39.1868C15.4066 39.3169 15.4304 39.4462 15.4791 39.5669C15.5278 39.6876 15.6003 39.7973 15.6923 39.8894C15.7843 39.9814 15.8939 40.054 16.0146 40.1028C16.1353 40.1516 16.2646 40.1756 16.3947 40.1733C16.5249 40.171 16.6532 40.1425 16.7721 40.0896C16.891 40.0366 16.998 39.9602 17.0867 39.865C17.2615 39.6819 17.3576 39.4377 17.3547 39.1847C17.3517 38.9316 17.2499 38.6898 17.0709 38.5108C16.892 38.3318 16.6501 38.23 16.397 38.2271C16.144 38.2241 15.9008 38.3203 15.7177 38.495ZM24.5857 42.969C24.5797 43.1 24.6003 43.2308 24.6462 43.3535C24.6922 43.4763 24.7626 43.5885 24.8531 43.6833C24.9436 43.7781 25.0524 43.8536 25.1729 43.9052C25.2934 43.9568 25.4231 43.9835 25.5542 43.9835C25.6853 43.9836 25.815 43.9571 25.9356 43.9056C26.0562 43.8541 26.165 43.7788 26.2556 43.684C26.3463 43.5893 26.4167 43.4772 26.4628 43.3545C26.5089 43.2317 26.5296 43.101 26.5237 42.97C26.5124 42.7206 26.4054 42.4852 26.2249 42.3127C26.0444 42.1403 25.8044 42.044 25.5547 42.044C25.3051 42.044 25.0651 42.1403 24.8846 42.3127C24.7041 42.4852 24.5971 42.7196 24.5857 42.969ZM34.0187 39.864C34.1073 39.9594 34.2142 40.0359 34.333 40.089C34.4519 40.1422 34.5802 40.1708 34.7103 40.1733C34.8404 40.1758 34.9697 40.152 35.0905 40.1034C35.2112 40.0548 35.3209 39.9823 35.4131 39.8904C35.5052 39.7985 35.5779 39.6889 35.6268 39.5683C35.6756 39.4476 35.6997 39.3184 35.6975 39.1882C35.6953 39.0581 35.667 38.9297 35.6141 38.8108C35.5612 38.6919 35.4849 38.5848 35.3897 38.496C35.2057 38.3275 34.9638 38.2365 34.7144 38.2419C34.465 38.2473 34.2272 38.3487 34.0507 38.525C33.8741 38.7013 33.7724 38.9389 33.7666 39.1883C33.7609 39.4377 33.8505 39.6797 34.0187 39.864ZM38.4957 30.998C38.6257 31.0022 38.7551 30.9802 38.8764 30.9333C38.9977 30.8865 39.1083 30.8158 39.2017 30.7253C39.2951 30.6349 39.3693 30.5266 39.42 30.4069C39.4707 30.2872 39.4969 30.1585 39.4969 30.0285C39.4969 29.8985 39.4707 29.7698 39.42 29.6501C39.3693 29.5304 39.2951 29.4221 39.2017 29.3317C39.1083 29.2412 38.9977 29.1705 38.8764 29.1237C38.7551 29.0768 38.6257 29.0548 38.4957 29.059C38.244 29.0671 38.0053 29.1728 37.8301 29.3537C37.6548 29.5346 37.5569 29.7766 37.5569 30.0285C37.5569 30.2804 37.6548 30.5224 37.8301 30.7033C38.0053 30.8842 38.244 30.9899 38.4957 30.998ZM35.3907 21.564C35.4842 21.4749 35.559 21.368 35.6106 21.2496C35.6621 21.1312 35.6895 21.0037 35.6911 20.8745C35.6927 20.7454 35.6685 20.6172 35.6199 20.4976C35.5712 20.378 35.4992 20.2692 35.4079 20.1778C35.3166 20.0865 35.208 20.0142 35.0885 19.9654C34.9689 19.9166 34.8408 19.8922 34.7116 19.8936C34.5825 19.895 34.4549 19.9222 34.3364 19.9736C34.218 20.0251 34.111 20.0996 34.0217 20.193C33.847 20.3761 33.7508 20.6203 33.7538 20.8733C33.7567 21.1264 33.8586 21.3682 34.0375 21.5472C34.2165 21.7262 34.4583 21.828 34.7114 21.8309C34.9645 21.8339 35.2086 21.7377 35.3917 21.563L35.3907 21.564ZM26.5237 20.31C26.5237 20.0527 26.4215 19.806 26.2396 19.6241C26.0577 19.4422 25.811 19.34 25.5537 19.34C25.2965 19.34 25.0497 19.4422 24.8678 19.6241C24.6859 19.806 24.5837 20.0527 24.5837 20.31C24.5837 20.5673 24.6859 20.814 24.8678 20.9959C25.0497 21.1778 25.2965 21.28 25.5537 21.28C25.811 21.28 26.0577 21.1778 26.2396 20.9959C26.4215 20.814 26.5237 20.5673 26.5237 20.31ZM24.5857 39.748C24.5798 39.879 24.6004 40.0098 24.6464 40.1325C24.6925 40.2553 24.7629 40.3674 24.8534 40.4622C24.944 40.557 25.0528 40.6324 25.1734 40.6839C25.2939 40.7355 25.4236 40.762 25.5547 40.762C25.6858 40.762 25.8155 40.7355 25.9361 40.6839C26.0566 40.6324 26.1655 40.557 26.256 40.4622C26.3466 40.3674 26.417 40.2553 26.463 40.1325C26.509 40.0098 26.5297 39.879 26.5237 39.748C26.5124 39.4986 26.4054 39.2632 26.2249 39.0907C26.0444 38.9183 25.8044 38.822 25.5547 38.822C25.3051 38.822 25.0651 38.9183 24.8846 39.0907C24.7041 39.2632 24.5971 39.4986 24.5857 39.748ZM67.4347 25.509C66.2587 25.509 65.2037 25.24 64.2687 24.702C63.3366 24.1681 62.5711 23.3856 62.0577 22.442C61.5197 21.474 61.2507 20.344 61.2507 19.053C61.2507 17.761 61.5197 16.632 62.0577 15.663C62.5714 14.7199 63.3364 13.9376 64.2677 13.403C65.2037 12.865 66.2577 12.596 67.4347 12.596C68.8907 12.596 70.1207 12.977 71.1227 13.738C72.1227 14.5 72.7567 15.518 73.0217 16.793H70.8857C70.8135 16.4301 70.6684 16.0855 70.4593 15.7803C70.2501 15.475 69.9811 15.2153 69.6687 15.017C69.0237 14.595 68.2707 14.384 67.4087 14.384C66.7137 14.384 66.0587 14.558 65.4477 14.905C64.8347 15.253 64.3377 15.775 63.9577 16.47C63.5777 17.165 63.3867 18.026 63.3867 19.053C63.3867 20.079 63.5767 20.94 63.9567 21.635C64.3367 22.33 64.8347 22.856 65.4467 23.212C66.0411 23.5633 66.7193 23.7478 67.4097 23.746C68.2697 23.746 69.0237 23.535 69.6687 23.113C70.3147 22.691 70.7207 22.091 70.8857 21.312H73.0217C72.7737 22.554 72.1437 23.564 71.1347 24.342C70.1237 25.12 68.8907 25.509 67.4347 25.509ZM81.1667 23.721C81.8767 23.721 82.5397 23.547 83.1527 23.2C83.7657 22.852 84.2617 22.33 84.6427 21.635C85.0227 20.939 85.2127 20.079 85.2127 19.053C85.2127 18.026 85.0277 17.165 84.6547 16.47C84.2827 15.774 83.7897 15.253 83.1777 14.905C82.581 14.5616 81.9042 14.3819 81.2157 14.384C80.5194 14.3796 79.8342 14.5593 79.2297 14.905C78.6167 15.253 78.1197 15.774 77.7387 16.47C77.3577 17.165 77.1687 18.026 77.1687 19.053C77.1687 20.079 77.3577 20.939 77.7387 21.635C78.1187 22.33 78.6117 22.852 79.2167 23.2C79.8088 23.544 80.482 23.7238 81.1667 23.721ZM81.1667 25.509C80.0067 25.509 78.9647 25.244 78.0367 24.714C77.1097 24.1838 76.3489 23.4057 75.8397 22.467C75.3017 21.498 75.0327 20.36 75.0327 19.053C75.0327 17.744 75.3057 16.606 75.8527 15.638C76.3707 14.6972 77.14 13.9189 78.0747 13.39C79.0097 12.861 80.0577 12.596 81.2147 12.596C82.3747 12.596 83.4177 12.861 84.3447 13.39C85.2723 13.9202 86.0335 14.6987 86.5427 15.638C87.0797 16.606 87.3497 17.744 87.3497 19.053C87.3497 20.36 87.0757 21.498 86.5297 22.467C86.0112 23.4071 85.242 24.1849 84.3077 24.714C83.3717 25.244 82.3247 25.509 81.1667 25.509ZM96.2397 23.696C97.0677 23.696 97.7957 23.502 98.4257 23.112C99.0609 22.7158 99.5758 22.1535 99.9147 21.486C100.279 20.79 100.461 19.98 100.461 19.052C100.461 18.125 100.279 17.314 99.9147 16.618C99.5752 15.9506 99.0601 15.3884 98.4247 14.992C97.7957 14.603 97.0667 14.408 96.2387 14.408C95.4127 14.408 94.6837 14.603 94.0547 14.992C93.4193 15.3883 92.9041 15.9505 92.5647 16.618C92.1997 17.314 92.0177 18.125 92.0177 19.052C92.0177 19.98 92.2007 20.79 92.5647 21.486C92.9038 22.1537 93.4191 22.716 94.0547 23.112C94.6837 23.502 95.4137 23.696 96.2397 23.696ZM89.8837 30.674V12.894H91.7697L91.9677 14.93C92.3657 14.334 92.9327 13.796 93.6707 13.316C94.4067 12.836 95.3447 12.596 96.4877 12.596C97.7127 12.596 98.7807 12.878 99.6907 13.44C100.597 13.9996 101.332 14.7986 101.814 15.749C102.319 16.726 102.572 17.835 102.572 19.077C102.572 20.319 102.319 21.424 101.814 22.392C101.33 23.3382 100.59 24.1295 99.6787 24.676C98.7607 25.231 97.6887 25.508 96.4637 25.508C95.4537 25.508 94.5537 25.301 93.7677 24.888C93.0088 24.4998 92.3823 23.8949 91.9677 23.15V30.674H89.8837ZM110.643 14.359C109.65 14.359 108.768 14.661 107.998 15.265C107.228 15.87 106.786 16.751 106.669 17.91H114.417C114.368 16.801 113.987 15.932 113.275 15.302C112.563 14.673 111.686 14.359 110.643 14.359ZM110.643 25.508C109.467 25.508 108.424 25.239 107.514 24.701C106.604 24.1651 105.86 23.3872 105.366 22.454C104.844 21.494 104.583 20.36 104.583 19.052C104.583 17.761 104.84 16.631 105.354 15.662C105.841 14.7207 106.586 13.937 107.501 13.402C108.42 12.865 109.484 12.596 110.693 12.596C111.884 12.596 112.915 12.865 113.785 13.402C114.631 13.9166 115.321 14.6505 115.784 15.526C116.247 16.403 116.479 17.347 116.479 18.357C116.479 18.539 116.474 18.721 116.466 18.903C116.457 19.086 116.454 19.292 116.454 19.524H106.645C106.695 20.467 106.914 21.25 107.303 21.871C107.692 22.491 108.18 22.959 108.768 23.274C109.344 23.585 109.988 23.7469 110.643 23.745C111.503 23.745 112.224 23.547 112.803 23.15C113.381 22.7541 113.823 22.1904 114.07 21.535H116.131C115.811 22.6588 115.147 23.6537 114.231 24.379C113.295 25.132 112.099 25.508 110.643 25.508ZM118.862 25.211V12.894H120.75L120.874 15.104C121.257 14.34 121.852 13.7024 122.588 13.267C123.332 12.819 124.176 12.596 125.12 12.596C126.577 12.596 127.74 13.039 128.609 13.924C129.478 14.811 129.913 16.172 129.913 18.009V25.211H127.827V18.233C127.827 15.667 126.767 14.384 124.648 14.384C123.589 14.384 122.707 14.769 122.004 15.539C121.3 16.309 120.948 17.405 120.948 18.829V25.211H118.862ZM132.694 25.211V7.332H134.78V15.005C135.182 14.2542 135.795 13.637 136.543 13.229C137.302 12.8075 138.157 12.5894 139.026 12.596C140.45 12.596 141.592 13.039 142.453 13.924C143.313 14.811 143.744 16.172 143.744 18.009V25.211H141.683V18.233C141.683 15.667 140.648 14.384 138.579 14.384C137.503 14.384 136.6 14.769 135.873 15.539C135.143 16.309 134.78 17.405 134.78 18.829V25.211H132.694ZM150.945 23.747C151.739 23.747 152.423 23.54 152.993 23.126C153.563 22.7137 154.014 22.1565 154.297 21.512C154.593 20.8567 154.746 20.1453 154.744 19.426V19.401H151.591C150.365 19.401 149.5 19.613 148.995 20.035C148.49 20.457 148.238 20.982 148.238 21.612C148.238 22.257 148.473 22.775 148.946 23.164C149.418 23.553 150.084 23.747 150.945 23.747ZM150.622 25.51C149.595 25.51 148.743 25.336 148.064 24.989C147.385 24.641 146.881 24.178 146.549 23.598C146.218 23.0243 146.047 22.373 146.052 21.711C146.052 20.453 146.533 19.484 147.493 18.806C148.453 18.127 149.76 17.788 151.417 17.788H154.744V17.639C154.744 16.562 154.463 15.747 153.9 15.192C153.337 14.638 152.584 14.361 151.64 14.361C150.829 14.361 150.129 14.563 149.542 14.969C148.954 15.375 148.586 15.967 148.436 16.745H146.3C146.383 15.851 146.686 15.097 147.208 14.485C147.735 13.8673 148.404 13.3858 149.157 13.081C149.944 12.757 150.788 12.5928 151.64 12.598C153.362 12.598 154.657 13.057 155.526 13.976C156.395 14.894 156.83 16.116 156.83 17.639V25.212H154.967L154.843 23.002C154.486 23.7093 153.962 24.3189 153.316 24.778C152.645 25.266 151.748 25.51 150.622 25.51ZM165.596 23.646C166.441 23.646 167.189 23.447 167.843 23.05C168.499 22.6504 169.039 22.0851 169.408 21.411C169.796 20.716 169.992 19.913 169.992 19.002C169.992 18.092 169.796 17.289 169.408 16.593C169.043 15.9227 168.501 15.3647 167.843 14.979C167.189 14.599 166.441 14.408 165.596 14.408C164.768 14.408 164.023 14.599 163.361 14.979C162.697 15.3618 162.151 15.9203 161.784 16.593C161.395 17.289 161.2 18.092 161.2 19.002C161.2 19.913 161.395 20.716 161.784 21.411C162.155 22.0875 162.699 22.6532 163.361 23.05C164.023 23.447 164.768 23.646 165.596 23.646ZM165.794 30.972C164.718 30.972 163.734 30.785 162.839 30.413C161.98 30.0657 161.218 29.5161 160.617 28.811C160.03 28.116 159.644 27.271 159.462 26.278H161.524C161.779 27.1274 162.318 27.8637 163.051 28.364C163.804 28.894 164.71 29.159 165.77 29.159C166.978 29.159 167.996 28.77 168.825 27.992C169.652 27.213 170.066 26.055 170.066 24.515V22.727C169.668 23.422 169.073 24.052 168.278 24.614C167.483 25.177 166.482 25.458 165.273 25.458C164.115 25.458 163.067 25.177 162.132 24.614C161.198 24.0532 160.427 23.257 159.897 22.305C159.342 21.329 159.065 20.228 159.065 19.002C159.065 17.777 159.342 16.681 159.897 15.712C160.43 14.7648 161.206 13.9762 162.144 13.427C163.088 12.873 164.139 12.596 165.298 12.596C166.391 12.596 167.351 12.84 168.179 13.328C169.006 13.816 169.635 14.408 170.066 15.104L170.264 12.894H172.152V24.49C172.152 25.831 171.878 26.986 171.332 27.955C170.808 28.9008 170.024 29.6762 169.073 30.189C168.113 30.711 167.02 30.972 165.794 30.972ZM180.743 14.359C179.75 14.359 178.868 14.661 178.098 15.265C177.329 15.87 176.886 16.751 176.77 17.91H184.517C184.469 16.801 184.087 15.932 183.376 15.302C182.664 14.673 181.786 14.359 180.743 14.359ZM180.743 25.508C179.567 25.508 178.524 25.239 177.614 24.701C176.704 24.1647 175.961 23.3869 175.467 22.454C174.945 21.494 174.684 20.36 174.684 19.052C174.684 17.761 174.94 16.631 175.454 15.662C175.942 14.7206 176.686 13.937 177.602 13.402C178.52 12.865 179.585 12.596 180.793 12.596C181.985 12.596 183.015 12.865 183.885 13.402C184.731 13.9166 185.421 14.6505 185.884 15.526C186.347 16.403 186.579 17.347 186.579 18.357C186.579 18.539 186.575 18.721 186.566 18.903C186.558 19.086 186.555 19.292 186.555 19.524H176.745C176.795 20.467 177.014 21.25 177.403 21.871C177.792 22.491 178.28 22.959 178.868 23.274C179.444 23.585 180.088 23.7469 180.743 23.745C181.603 23.745 182.324 23.547 182.904 23.15C183.481 22.7541 183.923 22.1903 184.17 21.535H186.231C185.912 22.6587 185.247 23.6537 184.332 24.379C183.396 25.132 182.2 25.508 180.743 25.508ZM188.963 25.211V12.894H190.85L190.974 15.104C191.357 14.34 191.952 13.7024 192.688 13.267C193.433 12.819 194.276 12.596 195.221 12.596C196.677 12.596 197.84 13.039 198.709 13.924C199.578 14.811 200.013 16.172 200.013 18.009V25.211H197.927V18.233C197.927 15.667 196.867 14.384 194.749 14.384C193.689 14.384 192.808 14.769 192.104 15.539C191.401 16.309 191.049 17.405 191.049 18.829V25.211H188.963ZM66.1927 45.699C66.9867 45.699 67.6697 45.492 68.2407 45.079C68.8113 44.6662 69.2614 44.1087 69.5447 43.464C69.8412 42.8086 69.994 42.0973 69.9927 41.378V41.353H66.8387C65.6127 41.353 64.7487 41.564 64.2427 41.987C63.7377 42.409 63.4857 42.934 63.4857 43.563C63.4857 44.209 63.7217 44.727 64.1937 45.116C64.6657 45.506 65.3327 45.699 66.1927 45.699ZM65.8697 47.462C64.8417 47.462 63.9897 47.288 63.3127 46.942C62.6327 46.593 62.1287 46.13 61.7957 45.55C61.4667 44.9759 61.2959 44.3247 61.3007 43.663C61.3007 42.405 61.7807 41.436 62.7407 40.757C63.7007 40.079 65.0087 39.739 66.6637 39.739H69.9927V39.59C69.9927 38.514 69.7107 37.7 69.1467 37.144C68.5857 36.59 67.8327 36.312 66.8867 36.312C66.0767 36.312 65.3767 36.515 64.7907 36.922C64.2017 37.326 63.8337 37.918 63.6837 38.696H61.5477C61.6317 37.802 61.9337 37.049 62.4547 36.436C62.9829 35.8188 63.6517 35.3376 64.4047 35.033C65.1922 34.7088 66.0362 34.5443 66.8877 34.549C68.6097 34.549 69.9047 35.009 70.7737 35.929C71.6437 36.846 72.0787 38.067 72.0787 39.59V47.164H70.2147L70.0917 44.954C69.7338 45.661 69.2094 46.2705 68.5637 46.73C67.8937 47.218 66.9947 47.462 65.8697 47.462ZM79.3537 47.162C78.2267 47.162 77.3417 46.89 76.6957 46.342C76.0507 45.797 75.7277 44.812 75.7277 43.388V36.608H73.5917V34.846H75.7277L75.9997 31.891H77.8137V34.846H81.4397V36.609H77.8137V43.388C77.8137 44.166 77.9707 44.692 78.2857 44.965C78.6007 45.238 79.1557 45.375 79.9507 45.375H81.2407V47.163H79.3527L79.3537 47.162ZM88.9887 45.674C89.6997 45.674 90.3617 45.5 90.9747 45.154C91.5877 44.805 92.0847 44.284 92.4657 43.588C92.8457 42.893 93.0357 42.032 93.0357 41.006C93.0357 39.979 92.8497 39.118 92.4767 38.423C92.1047 37.728 91.6117 37.206 90.9997 36.859C90.4031 36.5153 89.7263 36.3353 89.0377 36.337C88.3413 36.3329 87.6561 36.513 87.0517 36.859C86.4387 37.206 85.9417 37.729 85.5617 38.423C85.1797 39.118 84.9917 39.979 84.9917 41.006C84.9917 42.032 85.1797 42.893 85.5617 43.588C85.9417 44.283 86.4337 44.805 87.0387 45.153C87.6308 45.497 88.304 45.6768 88.9887 45.674ZM88.9887 47.462C87.8297 47.462 86.7867 47.197 85.8597 46.667C84.9317 46.138 84.1997 45.388 83.6617 44.42C83.1237 43.452 82.8547 42.314 82.8547 41.006C82.8547 39.698 83.1277 38.56 83.6747 37.591C84.193 36.6507 84.9623 35.8728 85.8967 35.344C86.8317 34.814 87.8797 34.549 89.0377 34.549C90.1977 34.549 91.2397 34.814 92.1677 35.344C93.0947 35.8743 93.8555 36.6524 94.3647 37.591C94.9017 38.561 95.1717 39.698 95.1717 41.006C95.1717 42.314 94.8987 43.452 94.3517 44.42C93.8334 45.3603 93.0642 46.1382 92.1297 46.667C91.1937 47.197 90.1457 47.462 88.9887 47.462ZM97.7057 47.164V34.847H99.5927L99.7417 36.635C100.123 35.9883 100.672 35.4563 101.331 35.095C101.993 34.731 102.738 34.549 103.566 34.549C104.543 34.549 105.383 34.747 106.087 35.145C106.79 35.542 107.332 36.146 107.714 36.958C108.135 36.2208 108.749 35.6116 109.489 35.195C110.232 34.7667 111.077 34.5438 111.935 34.549C113.408 34.549 114.583 34.992 115.461 35.877C116.339 36.763 116.777 38.125 116.777 39.962V47.164H114.716V40.186C114.716 38.911 114.459 37.951 113.946 37.306C113.433 36.66 112.696 36.337 111.736 36.337C110.743 36.337 109.919 36.722 109.266 37.492C108.611 38.262 108.284 39.358 108.284 40.782V47.164H106.198V40.186C106.198 38.911 105.941 37.951 105.429 37.306C104.915 36.66 104.179 36.337 103.219 36.337C102.241 36.337 101.427 36.722 100.772 37.492C100.118 38.262 99.7917 39.358 99.7917 40.782V47.164H97.7057ZM119.781 47.162H121.867V34.846H119.781V47.163V47.162ZM120.824 32.114C120.41 32.114 120.066 31.978 119.793 31.704C119.52 31.431 119.384 31.087 119.384 30.674C119.384 30.276 119.52 29.945 119.793 29.68C120.066 29.415 120.41 29.284 120.824 29.284C121.221 29.284 121.56 29.415 121.842 29.68C122.123 29.945 122.264 30.276 122.264 30.674C122.264 31.087 122.123 31.432 121.842 31.704C121.708 31.8369 121.549 31.9417 121.374 32.0121C121.199 32.0825 121.012 32.1172 120.824 32.114ZM130.781 47.462C129.606 47.462 128.551 47.192 127.615 46.655C126.683 46.1211 125.918 45.3386 125.405 44.395C124.867 43.427 124.598 42.297 124.598 41.005C124.598 39.715 124.867 38.585 125.405 37.616C125.918 36.6726 126.683 35.8902 127.615 35.356C128.551 34.818 129.606 34.549 130.781 34.549C132.238 34.549 133.468 34.93 134.469 35.691C135.47 36.453 136.103 37.471 136.369 38.746H134.233C134.16 38.3831 134.015 38.0386 133.806 37.7333C133.597 37.4281 133.328 37.1684 133.016 36.97C132.371 36.548 131.617 36.337 130.757 36.337C130.061 36.337 129.407 36.511 128.795 36.858C128.182 37.206 127.685 37.728 127.304 38.423C126.924 39.118 126.734 39.979 126.734 41.005C126.734 42.032 126.924 42.893 127.304 43.588C127.685 44.283 128.182 44.809 128.795 45.165C129.389 45.5161 130.067 45.7006 130.757 45.699C131.617 45.699 132.371 45.489 133.016 45.066C133.662 44.644 134.067 44.044 134.233 43.266H136.369C136.12 44.507 135.491 45.517 134.481 46.296C133.471 47.073 132.238 47.462 130.781 47.462ZM143.62 47.462C142.146 47.462 140.921 47.089 139.944 46.344C138.968 45.6 138.396 44.59 138.231 43.315H140.367C140.499 43.961 140.843 44.519 141.397 44.991C141.952 45.463 142.701 45.699 143.644 45.699C144.522 45.699 145.168 45.513 145.582 45.14C145.995 44.768 146.202 44.325 146.202 43.812C146.202 43.066 145.933 42.57 145.395 42.322C144.857 42.073 144.099 41.85 143.123 41.652C142.446 41.5152 141.782 41.3239 141.137 41.08C140.511 40.8554 139.943 40.4951 139.473 40.025C139.025 39.569 138.803 38.969 138.803 38.225C138.803 37.149 139.203 36.267 140.007 35.58C140.809 34.893 141.897 34.55 143.272 34.55C144.58 34.55 145.651 34.876 146.488 35.53C147.323 36.184 147.807 37.115 147.94 38.324H145.88C145.797 37.694 145.527 37.202 145.072 36.846C144.617 36.49 144.009 36.312 143.247 36.312C142.502 36.312 141.927 36.47 141.521 36.784C141.327 36.9267 141.171 37.114 141.065 37.33C140.959 37.5461 140.907 37.7845 140.913 38.025C140.913 38.522 141.174 38.911 141.695 39.192C142.217 39.474 142.925 39.714 143.818 39.913C144.58 40.079 145.305 40.281 145.991 40.521C146.678 40.761 147.241 41.117 147.68 41.589C148.118 42.061 148.338 42.744 148.338 43.639C148.354 44.747 147.936 45.662 147.084 46.382C146.231 47.102 145.076 47.462 143.62 47.462Z" fill="white"/>
</svg>
