<svg width="140" height="34" viewBox="0 0 140 34" fill="none" xmlns="http://www.w3.org/2000/svg">
<path fill-rule="evenodd" clip-rule="evenodd" d="M87.2028 23.2826C87.9748 23.2996 88.7478 23.2946 89.5198 23.2846C89.6938 23.2826 89.7288 23.3326 89.7278 23.4976C89.7228 26.7366 89.7238 29.9756 89.7278 33.2146C89.7278 33.3596 89.7068 33.4226 89.5358 33.4196C88.8681 33.4093 88.2004 33.4093 87.5328 33.4196C87.3778 33.4216 87.3408 33.3716 87.3508 33.2296C87.3628 33.0606 87.3538 32.8916 87.3538 32.6716C86.8652 33.0152 86.3319 33.2905 85.7688 33.4896C84.7308 33.8496 83.7008 33.7996 82.7158 33.3286C81.8498 32.9146 81.3088 32.2016 81.0308 31.2856C80.8778 30.794 80.7979 30.2825 80.7938 29.7676C80.7898 27.6856 80.7938 25.6046 80.7888 23.5236C80.7878 23.3426 80.8228 23.2806 81.0188 23.2836C81.8088 23.2966 82.5968 23.2936 83.3858 23.2846C83.5538 23.2826 83.5968 23.3246 83.5968 23.4946C83.5918 25.4146 83.5838 27.3366 83.6068 29.2566C83.6118 29.7096 83.6158 30.1796 83.8068 30.6116C83.9868 31.0196 84.3278 31.2316 84.7508 31.2846C85.5168 31.3806 86.2068 31.1356 86.8548 30.7486C86.9628 30.6846 86.9228 30.5786 86.9228 30.4886C86.9248 28.1816 86.9278 25.8746 86.9178 23.5686C86.9178 23.3366 86.9678 23.2776 87.2028 23.2826ZM115.293 23.3716C116.133 23.7156 116.749 24.3116 117.185 25.0936C117.606 25.8486 117.803 26.6706 117.879 27.5296C117.926 28.0636 117.938 28.5936 117.885 29.1286C117.867 29.3036 117.776 29.2686 117.679 29.2686H114.542C113.496 29.2686 112.451 29.2736 111.405 29.2636C111.22 29.2616 111.192 29.3266 111.212 29.4836C111.349 30.5706 112.247 31.3446 113.233 31.4896C114.209 31.6316 115.122 31.4556 115.998 31.0196C116.416 30.8126 116.414 30.8216 116.637 31.2306C116.859 31.6406 117.084 32.0486 117.33 32.4436C117.415 32.5816 117.38 32.6256 117.268 32.6996C116.645 33.1066 115.946 33.3196 115.237 33.5146C114.496 33.7186 113.736 33.7596 112.983 33.6956C111.135 33.5396 109.575 32.5096 108.886 30.6426C108.568 29.7835 108.441 28.8657 108.513 27.9526C108.619 26.5376 109.093 25.2606 110.131 24.2546C110.863 23.5446 111.755 23.1556 112.776 23.0396C113.648 22.9406 114.483 23.0396 115.293 23.3716ZM119.228 23.2846C120.009 23.2966 120.789 23.2946 121.569 23.2846C121.752 23.2816 121.793 23.3306 121.792 23.5096C121.785 25.3246 121.776 27.1406 121.796 28.9566C121.801 29.4286 121.817 29.9086 121.926 30.3766C122.054 30.9186 122.467 31.2366 122.983 31.2886C123.686 31.3586 124.333 31.1666 124.941 30.8156C125.075 30.7386 125.119 30.6496 125.118 30.4946C125.113 28.1966 125.114 25.8986 125.114 23.6006V23.5746C125.115 23.2886 125.123 23.2886 125.433 23.2886C126.197 23.2886 126.962 23.2936 127.726 23.2846C127.887 23.2836 127.923 23.3316 127.923 23.4856C127.919 26.7316 127.918 29.9776 127.924 33.2236C127.924 33.3876 127.873 33.4206 127.721 33.4186C127.061 33.41 126.401 33.41 125.742 33.4186C125.582 33.4216 125.533 33.3756 125.546 33.2186C125.559 33.0596 125.549 32.8986 125.549 32.6986C125.332 32.8226 125.136 32.9346 124.941 33.0486C124.106 33.5386 123.211 33.7966 122.239 33.7016C120.639 33.5436 119.449 32.5186 119.125 30.8786C119.019 30.3072 118.971 29.7267 118.981 29.1456C118.986 27.2733 118.985 25.401 118.977 23.5286C118.976 23.3236 119.032 23.2806 119.228 23.2846ZM77.9098 23.8456C78.7098 24.4466 79.1718 25.2686 79.4398 26.2126C79.6738 27.0376 79.7498 27.8806 79.7288 28.7346C79.7248 28.8846 79.6988 29.0346 79.6808 29.1846C79.6638 29.3366 79.5448 29.2646 79.4748 29.2646C78.4288 29.2696 77.3828 29.2686 76.3368 29.2686H73.2718C73.0008 29.2686 72.9738 29.2966 73.0238 29.5726C73.1618 30.3246 73.5798 30.8726 74.2488 31.2326C74.8718 31.5676 75.5388 31.5596 76.2228 31.5046C76.8558 31.4536 77.4078 31.1886 77.9688 30.9416C78.1558 30.8586 78.2388 30.8546 78.3428 31.0616C78.5668 31.5046 78.8288 31.9286 79.0828 32.3556C79.1898 32.5336 79.2038 32.6336 78.9828 32.7606C78.2978 33.1566 77.5628 33.4006 76.7958 33.5606C75.6408 33.8026 74.4958 33.7926 73.3728 33.3756C72.3808 33.0076 71.6228 32.3636 71.0768 31.4626C70.6648 30.7836 70.4508 30.0426 70.3578 29.2596C70.2108 28.0096 70.3528 26.8026 70.9108 25.6696C71.6188 24.2266 72.7628 23.3096 74.3638 23.0606C75.6308 22.8636 76.8478 23.0476 77.9098 23.8456ZM55.4208 19.4886C56.8968 19.6046 58.2198 20.1216 59.3178 21.1436C59.5758 21.3836 59.5808 21.3936 59.3178 21.6176C58.7528 22.0976 58.1768 22.5636 57.6148 23.0456C57.5068 23.1376 57.4618 23.1256 57.3798 23.0256C56.8438 22.3816 56.1498 22.0456 55.3198 21.9336C54.5898 21.8346 53.8928 21.9266 53.2398 22.2496C52.1798 22.7736 51.5998 23.6746 51.2898 24.7866C51.0568 25.6246 51.0578 26.4796 51.1128 27.3276C51.1768 28.3066 51.4308 29.2416 52.0658 30.0336C52.4948 30.5676 53.0498 30.8986 53.7028 31.0656C54.5128 31.2716 55.3238 31.2616 56.1228 31.0036C56.7002 30.8147 57.2109 30.4633 57.5938 29.9916L59.6578 31.7376C59.2348 32.1546 58.7998 32.5296 58.2948 32.8116C57.416 33.304 56.4395 33.5966 55.4348 33.6686C54.0318 33.7756 52.7048 33.5556 51.4588 32.8936C50.1728 32.2106 49.2948 31.1576 48.7378 29.8326C48.3628 28.9426 48.1958 28.0086 48.1408 27.0416C48.0588 25.5646 48.2948 24.1516 48.9838 22.8486C49.9008 21.1126 51.3488 20.0426 53.2768 19.6176C53.9811 19.4687 54.7037 19.4252 55.4208 19.4886ZM108.751 23.2326C108.895 23.2996 108.887 23.3646 108.845 23.4806C108.632 24.0646 108.423 24.6506 108.215 25.2366C108.172 25.3566 108.094 25.3736 107.975 25.3656C107.265 25.3146 106.58 25.3976 105.944 25.7506C105.521 25.9856 105.151 26.2786 104.864 26.6706C104.794 26.7676 104.787 26.8726 104.787 26.9866C104.789 29.0356 104.785 31.0846 104.793 33.1336C104.793 33.3476 104.75 33.4256 104.516 33.4216C103.76 33.4083 103.003 33.4073 102.247 33.4186C102.085 33.4206 102.031 33.3886 102.032 33.2136C102.038 29.9916 102.038 26.7696 102.031 23.5476C102.031 23.3616 102.083 23.3246 102.258 23.3276C102.926 23.3376 103.594 23.3376 104.261 23.3276C104.422 23.3256 104.465 23.3736 104.459 23.5286C104.447 23.8336 104.455 24.1386 104.455 24.5136C104.886 24.0536 105.334 23.7166 105.851 23.4796C106.379 23.2376 106.92 23.0596 107.512 23.0356C107.945 23.0176 108.353 23.0476 108.751 23.2326ZM68.2818 7.53564C69.1788 8.37064 69.7758 9.40364 69.9618 10.6056C70.1988 12.1456 69.9808 13.6486 69.1488 14.9956C68.5458 15.9736 67.6198 16.5576 66.5228 16.8776C65.6308 17.1366 64.7488 17.1746 63.8798 16.7836C63.6738 16.6906 63.4928 16.5536 63.2778 16.4266V23.7266C63.6754 23.488 64.1028 23.3027 64.5488 23.1756C65.7488 22.8456 66.8808 22.9576 67.9328 23.6626C68.5388 24.0696 68.8108 24.6696 68.9658 25.3516C69.1558 26.1936 69.2138 27.0466 69.2118 27.9076C69.2068 29.6676 69.2068 31.4276 69.2148 33.1866C69.2158 33.3806 69.1598 33.4226 68.9748 33.4196C68.2671 33.4086 67.5594 33.4086 66.8518 33.4196C66.6518 33.4226 66.5918 33.3646 66.5938 33.1626C66.6008 31.3396 66.5978 29.5156 66.5978 27.6916C66.5978 27.1596 66.5878 26.6266 66.4018 26.1196C66.2488 25.7016 65.9188 25.4886 65.4938 25.4116C64.7338 25.2736 64.0638 25.5296 63.4168 25.8916C63.2788 25.9696 63.2648 26.0716 63.2648 26.2066C63.2668 28.5126 63.2628 30.8186 63.2718 33.1246C63.2718 33.3566 63.2118 33.4246 62.9768 33.4206C62.2608 33.4084 61.5447 33.4078 60.8288 33.4186C60.6588 33.4206 60.6048 33.3666 60.6078 33.1986C60.6168 32.6586 60.6108 32.1216 60.6108 31.5826V6.93264C60.6108 6.65264 60.6248 6.65264 60.9188 6.65264C61.5458 6.65264 62.1738 6.66264 62.8008 6.64864C62.9948 6.64364 63.0578 6.70264 63.0318 6.88664C63.0208 6.97064 63.0298 7.05664 63.0298 7.17464C63.4668 6.93064 63.8838 6.71764 64.3438 6.59464C65.8308 6.19664 67.1528 6.48464 68.2818 7.53564ZM132.097 23.2856C132.264 23.2846 132.333 23.3746 132.411 23.4916C133.009 24.3856 133.609 25.2783 134.212 26.1696C134.238 26.2086 134.277 26.2396 134.323 26.2886C134.697 25.7416 135.07 25.2016 135.438 24.6596C135.718 24.2486 135.993 23.8336 136.268 23.4196C136.331 23.3246 136.407 23.2856 136.526 23.2866C137.386 23.2916 138.247 23.2886 139.108 23.2896C139.154 23.2896 139.216 23.2846 139.242 23.3096C139.288 23.3576 139.222 23.3916 139.198 23.4276L137.435 26.0156C136.958 26.7156 136.485 27.4156 136.004 28.1116C135.912 28.2456 135.916 28.3336 136.018 28.4716C136.866 29.6176 137.702 30.7726 138.541 31.9246L139.506 33.2506C139.537 33.2936 139.563 33.3406 139.61 33.4156H138.142C137.66 33.4156 137.177 33.4076 136.695 33.4196C136.631 33.4245 136.568 33.4116 136.511 33.3825C136.455 33.3534 136.408 33.3091 136.375 33.2546L134.219 30.1326C133.905 30.5796 133.597 31.0136 133.295 31.4516C132.88 32.0506 132.472 32.6536 132.055 33.2516C132 33.3306 131.942 33.4186 131.811 33.4176C130.871 33.4126 129.931 33.4156 128.954 33.4156C129.088 33.1246 129.285 32.9086 129.453 32.6766C130.338 31.4506 131.229 30.2286 132.12 29.0066C132.264 28.8066 132.404 28.6036 132.565 28.4186C132.646 28.3256 132.639 28.2586 132.579 28.1736C131.929 27.2656 131.279 26.3576 130.631 25.4486C130.143 24.7656 129.657 24.0826 129.171 23.3986C129.154 23.3746 129.151 23.3416 129.133 23.2886C130.135 23.2886 131.116 23.2926 132.097 23.2856ZM93.7858 23.4656C94.5048 25.6806 95.2308 27.8936 95.9558 30.1076C95.9758 30.1676 95.9958 30.2276 96.0298 30.3236C96.1878 29.8816 96.3368 29.4666 96.4828 29.0516C97.1408 27.1816 97.8008 25.3116 98.4498 23.4396C98.4958 23.3056 98.5568 23.2876 98.6708 23.2876C99.5078 23.2906 100.344 23.2896 101.213 23.2896C100.945 23.9946 100.686 24.6776 100.424 25.3596C99.8198 26.9316 99.2118 28.5016 98.6088 30.0736C98.2028 31.1286 97.8008 32.1856 97.3978 33.2426C97.3498 33.3666 97.2778 33.4216 97.1288 33.4196C96.3728 33.4096 95.6168 33.4126 94.8608 33.4176C94.7098 33.4176 94.6448 33.3646 94.5898 33.2176C93.6538 30.7376 92.7068 28.2616 91.7658 25.7836C91.4538 24.9616 91.1488 24.1376 90.8318 23.2886H91.9938C92.5088 23.2886 93.0238 23.2936 93.5388 23.2856C93.6798 23.2836 93.7398 23.3246 93.7858 23.4656ZM74.1038 25.3236C73.4518 25.7036 73.2138 26.3536 73.0158 27.0296C72.9518 27.2486 73.0508 27.2476 73.2138 27.2456C73.8158 27.2396 74.4188 27.2426 75.0208 27.2426C75.6318 27.2426 76.2428 27.2416 76.8528 27.2446C77.0178 27.2446 77.1178 27.2786 77.0888 27.0076C76.9998 26.1636 76.3888 25.1906 75.3888 25.0976C74.9308 25.0546 74.4988 25.0936 74.1038 25.3236ZM111.942 25.5946C111.513 26.0436 111.276 26.6046 111.189 27.2426H115.013C115.305 27.2426 115.305 27.2296 115.265 26.9156C115.155 26.0436 114.603 25.2166 113.566 25.0876C112.958 25.0116 112.376 25.1416 111.942 25.5946ZM57.6478 7.12764C58.4898 7.70964 58.9648 8.54364 59.2578 9.49764C59.5318 10.3836 59.5768 11.2936 59.5508 12.2126C59.5368 12.6926 59.6068 12.6306 59.1238 12.6326H56.1788C55.1488 12.6326 54.1198 12.6356 53.0908 12.6296C52.8908 12.6286 52.8178 12.6446 52.8658 12.8896C52.9518 13.3296 53.1008 13.7196 53.4078 14.0546C53.8078 14.4896 54.2948 14.7576 54.8748 14.8486C55.8488 15.0036 56.7668 14.8156 57.6428 14.3756L57.6828 14.3556C58.0358 14.1806 58.0548 14.2006 58.2698 14.5646C58.5058 14.9646 58.7238 15.3756 58.9578 15.7776C59.0378 15.9136 59.0258 15.9876 58.8838 16.0766C58.1918 16.5086 57.4278 16.7396 56.6438 16.9246C56.0238 17.0716 55.3938 17.1036 54.7638 17.0636C53.7178 16.9966 52.7568 16.6816 51.9318 16.0026C50.9268 15.1746 50.4248 14.0866 50.2258 12.8266C50.0058 11.4386 50.1858 10.1136 50.8378 8.86564C51.5058 7.58764 52.5388 6.75064 53.9628 6.46864C55.2658 6.21064 56.5208 6.34764 57.6478 7.12764ZM81.7378 6.66564C82.6348 6.99964 83.3078 7.60764 83.7648 8.44264C84.1878 9.21364 84.3978 10.0476 84.4688 10.9246C84.5179 11.432 84.5195 11.9429 84.4738 12.4506C84.4568 12.6196 84.3968 12.6356 84.2578 12.6346C83.2118 12.6306 82.1668 12.6326 81.1208 12.6326C80.0828 12.6326 79.0458 12.6396 78.0078 12.6266C77.8078 12.6246 77.7778 12.6956 77.8008 12.8596C77.9538 13.9646 78.8328 14.6966 79.8358 14.8516C80.8458 15.0076 81.7818 14.7766 82.6828 14.3356C83.0008 14.1806 82.9998 14.1856 83.1758 14.5016C83.4208 14.9416 83.6628 15.3856 83.9248 15.8176C84.0018 15.9446 83.9708 15.9836 83.8668 16.0526C83.3418 16.4006 82.7548 16.5986 82.1588 16.7806C81.3807 17.0162 80.5673 17.113 79.7558 17.0666C77.9218 16.9736 76.2728 16.0026 75.5218 14.1366C75.1577 13.2187 75.0148 12.228 75.1048 11.2446C75.2178 9.85164 75.6958 8.59464 76.7288 7.60364C77.4408 6.92164 78.2938 6.53164 79.2768 6.40664C80.1218 6.29964 80.9428 6.36864 81.7378 6.66564ZM42.8528 3.30464C42.8458 5.40164 42.8488 7.49864 42.8488 9.59664L42.8948 9.62364C43.1348 9.27564 43.3748 8.92764 43.6128 8.57764C44.8248 6.80064 46.0348 5.02264 47.2498 3.24764C47.2998 3.17464 47.3518 3.08464 47.4708 3.08464C48.4988 3.08664 49.5258 3.08464 50.6008 3.08464C50.3498 3.43564 50.1248 3.75464 49.8948 4.06964C49.1398 5.10664 48.3828 6.14264 47.6268 7.17964C47.0388 7.98564 46.4538 8.79364 45.8588 9.59564C45.7658 9.72264 45.7588 9.80164 45.8588 9.93464C46.8768 11.3106 47.8868 12.6936 48.8988 14.0746C49.5118 14.9126 50.1258 15.7496 50.7368 16.5886C50.7708 16.6356 50.8188 16.6876 50.7968 16.7786H49.6248C48.9248 16.7786 48.2248 16.7776 47.5248 16.7816C47.4048 16.7816 47.3328 16.7566 47.2568 16.6426C46.2258 15.1146 45.1848 13.5926 44.1468 12.0696C43.7508 11.4876 43.3578 10.9046 42.9618 10.3236C42.9418 10.2936 42.9088 10.2726 42.8488 10.2166V10.5086C42.8488 12.5186 42.8458 14.5266 42.8538 16.5356C42.8538 16.7366 42.8058 16.7876 42.6038 16.7856C41.7838 16.7726 40.9638 16.7756 40.1428 16.7836C39.9868 16.7836 39.9428 16.7456 39.9428 16.5866C39.9478 12.1506 39.9478 7.71464 39.9428 3.27864C39.9428 3.12064 39.9858 3.07964 40.1428 3.08164C40.9708 3.08964 41.7998 3.09164 42.6278 3.08064C42.8078 3.07864 42.8538 3.12364 42.8528 3.30464ZM73.8918 1.79864C73.8868 4.25764 73.8878 6.71664 73.8878 9.17564C73.8878 11.6186 73.8848 14.0616 73.8938 16.5036C73.8938 16.7306 73.8308 16.7886 73.6098 16.7846C72.8532 16.7727 72.0964 16.7727 71.3398 16.7846C71.1678 16.7866 71.1318 16.7366 71.1328 16.5706C71.1368 11.7736 71.1368 6.97564 71.1328 2.17864C71.1328 2.03764 71.1548 1.98864 71.3198 1.96564C72.1098 1.85564 72.8978 1.72064 73.6848 1.59064C73.8638 1.56064 73.8918 1.63664 73.8918 1.79864ZM91.3718 6.36664C91.7148 6.36664 92.0398 6.47264 92.3518 6.61164C92.4158 6.64064 92.4368 6.68464 92.4068 6.76664C92.1768 7.38664 91.9578 8.00964 91.7308 8.63064C91.6618 8.82064 91.4928 8.72764 91.3788 8.72064C90.2458 8.64164 89.3098 9.01764 88.5468 9.86364C88.3588 10.0716 88.3208 10.2796 88.3208 10.5346C88.3268 12.5366 88.3208 14.5376 88.3288 16.5386C88.3298 16.7416 88.2788 16.7886 88.0788 16.7846C87.3228 16.7726 86.5667 16.7726 85.8108 16.7846C85.6138 16.7866 85.5678 16.7246 85.5678 16.5366C85.5738 13.3216 85.5738 10.1066 85.5678 6.89264C85.5678 6.69764 85.6248 6.64564 85.8148 6.64964C86.4828 6.65964 87.1508 6.65864 87.8188 6.64964C87.9908 6.64764 88.0438 6.70564 88.0378 6.87264C88.0268 7.17464 88.0348 7.47664 88.0348 7.83764C88.4818 7.34264 88.9828 7.01864 89.5348 6.76564C90.1109 6.50089 90.7377 6.36474 91.3718 6.36664ZM63.4018 8.99364C63.2948 9.04664 63.2648 9.08864 63.2648 9.19564C63.2668 10.8326 63.2678 12.4706 63.2638 14.1076C63.2638 14.2306 63.3088 14.2916 63.4138 14.3436C63.7608 14.5176 64.1228 14.6386 64.5038 14.7176C65.3508 14.8926 66.3208 14.4736 66.7648 13.7456C67.1448 13.1246 67.3148 12.4576 67.2688 11.7136C67.2942 11.3547 67.2632 10.994 67.1768 10.6446C66.9688 9.79164 66.4948 9.14964 65.6548 8.83864C64.8888 8.55464 64.1348 8.62864 63.4018 8.99364ZM53.7318 8.82764C53.2118 9.23964 52.9938 9.83364 52.8418 10.4546C52.8078 10.5896 52.8788 10.6106 52.9978 10.6096C53.6248 10.6046 54.2518 10.6076 54.8788 10.6076C55.4988 10.6076 56.1178 10.5976 56.7358 10.6136C56.9398 10.6186 56.9658 10.5346 56.9378 10.3776C56.8758 10.0346 56.7908 9.70164 56.6178 9.39064C56.0018 8.28064 54.5468 8.18164 53.7318 8.82764ZM79.7038 8.44064C79.2248 8.48064 78.7818 8.63264 78.4658 9.01564C78.086 9.46778 77.8468 10.0212 77.7778 10.6076H81.6238C81.8838 10.6076 81.8868 10.5936 81.8538 10.3076C81.7288 9.23364 80.9698 8.33064 79.7038 8.44064Z" fill="white"/>
<path fill-rule="evenodd" clip-rule="evenodd" d="M33.5708 16.7146C33.5578 16.7976 33.4968 16.8306 33.4528 16.8746C33.0558 17.2736 32.6578 17.6706 32.2588 18.0686C30.1828 20.1416 28.1038 22.2146 26.0328 24.2936C25.8818 24.4466 25.8108 24.4396 25.6628 24.2916C23.204 21.8267 20.7407 19.3664 18.2728 16.9106C18.1368 16.7756 18.1138 16.7056 18.2638 16.5566C20.7378 14.0966 23.2068 11.6296 25.6718 9.15964C25.8148 9.01564 25.8848 9.02064 26.0258 9.16164C28.4898 11.6326 30.9608 14.0976 33.4298 16.5636C33.4798 16.6136 33.5268 16.6686 33.5708 16.7146Z" fill="white"/>
<path fill-rule="evenodd" clip-rule="evenodd" d="M16.7628 33.5186C15.4978 32.2586 14.2478 31.0086 12.9928 29.7656C12.9018 29.6756 12.9098 29.5836 12.9098 29.4826V22.6606C12.9098 16.4496 12.9098 10.2386 12.9058 4.02664C12.9013 3.94866 12.9142 3.87067 12.9434 3.79823C12.9726 3.7258 13.0175 3.66071 13.0748 3.60764C14.2524 2.44327 15.4241 1.27292 16.5898 0.0966417C16.7258 -0.0403583 16.7888 -0.0253582 16.9148 0.101642C18.9586 2.1515 21.0069 4.19684 23.0598 6.23764C23.2028 6.37964 23.1998 6.44764 23.0578 6.58764C19.7428 9.89064 16.4348 13.1996 13.1178 16.5016C12.9538 16.6656 12.9538 16.7516 13.1188 16.9136C13.8788 17.6536 14.6158 18.4196 15.3778 19.1576C17.9808 21.6806 20.5098 24.2776 23.0918 26.8206C23.2448 26.9706 23.2388 27.0406 23.0908 27.1886C21.0258 29.2406 18.9678 31.2986 16.9088 33.3556C16.8588 33.4066 16.8118 33.4626 16.7628 33.5186ZM8.70477 7.99064V25.4366L8.65077 25.4816C8.61177 25.4246 8.58077 25.3586 8.53277 25.3106C5.72491 22.5032 2.91491 19.6978 0.102767 16.8946C-0.014233 16.7776 -0.0482331 16.7176 0.0907669 16.5796C2.92177 13.7616 5.74677 10.9376 8.57377 8.11464C8.60677 8.08064 8.64277 8.04964 8.70477 7.99064Z" fill="white"/>
</svg>
