<svg width="110" height="22" viewBox="0 0 110 22" fill="none" xmlns="http://www.w3.org/2000/svg">
<path fill-rule="evenodd" clip-rule="evenodd" d="M0.185999 0.0929985C0.185999 0.154999 0.156 0.185999 0.0930004 0.185999C0.00100041 0.185999 0 0.215999 0 10.217C0 20.217 4.09782e-07 20.249 0.0930004 20.249C0.171 20.249 0.185999 20.279 0.185999 20.434C0.185999 20.589 0.201999 20.62 0.278999 20.62C0.340999 20.62 0.372 20.65 0.372 20.713C0.372 20.805 0.403 20.806 5.736 20.806C11.069 20.806 11.1 20.806 11.1 20.713C11.1 20.645 11.131 20.62 11.217 20.62H11.334L11.309 18.275L2.973 18.251L2.95 0.394999L2.845 0.379999C2.778 0.369999 2.741 0.332999 2.741 0.275999C2.741 0.215999 2.709 0.185999 2.648 0.185999C2.586 0.185999 2.555 0.154999 2.555 0.0929985C2.555 0.0029985 2.524 0 1.371 0C0.217 0 0.185999 0.00199851 0.185999 0.0929985ZM12.92 1.277C12.865 1.341 12.798 1.393 12.772 1.393C12.74 1.393 12.729 1.979 12.737 3.147L12.749 4.9L12.923 4.914C13.059 4.925 13.097 4.948 13.097 5.019C13.097 5.159 15.229 5.159 15.266 5.019C15.2753 4.99215 15.2916 4.96827 15.3133 4.94982C15.3349 4.93136 15.361 4.919 15.389 4.914L15.489 4.9V1.602L15.387 1.588C15.3574 1.58459 15.3299 1.57127 15.3088 1.55021C15.2877 1.52915 15.2744 1.50158 15.271 1.472C15.257 1.372 15.239 1.37 14.484 1.357C13.759 1.346 13.709 1.339 13.687 1.253C13.647 1.1 13.057 1.118 12.92 1.277ZM78.812 1.671C78.812 1.758 78.773 1.763 78.034 1.775L77.256 1.788L77.212 1.985C77.18 2.129 77.145 2.183 77.084 2.183C76.946 2.183 76.955 4.688 77.094 4.723C77.144 4.737 77.186 4.787 77.186 4.835C77.186 4.898 77.22 4.923 77.302 4.923C77.387 4.923 77.418 4.948 77.418 5.016C77.418 5.106 77.449 5.109 78.491 5.109C79.524 5.109 79.564 5.105 79.588 5.016C79.601 4.964 79.651 4.923 79.699 4.923C79.783 4.923 79.787 4.859 79.787 3.343C79.787 1.828 79.783 1.765 79.699 1.765C79.651 1.765 79.601 1.724 79.588 1.672C79.551 1.531 78.812 1.53 78.812 1.671ZM46.952 1.974C46.952 2.152 46.939 2.183 46.86 2.183C46.783 2.183 46.767 2.213 46.767 2.365C46.767 2.519 46.751 2.55 46.663 2.563C46.576 2.575 46.556 2.611 46.543 2.775C46.533 2.935 46.513 2.972 46.439 2.972C46.365 2.972 46.349 3.005 46.349 3.152C46.349 3.294 46.329 3.338 46.256 3.358C46.182 3.377 46.163 3.421 46.163 3.572C46.163 3.731 46.148 3.762 46.071 3.762C45.993 3.762 45.977 3.792 45.977 3.952C45.977 4.1 45.957 4.147 45.889 4.165C45.789 4.191 45.747 4.308 45.746 4.563C45.746 4.706 45.729 4.737 45.652 4.737C45.573 4.737 45.559 4.768 45.559 4.946C45.559 5.124 45.546 5.155 45.467 5.155C45.39 5.155 45.374 5.185 45.374 5.33C45.374 5.467 45.351 5.514 45.269 5.55C45.193 5.584 45.161 5.642 45.15 5.77C45.142 5.877 45.112 5.945 45.074 5.945C44.989 5.945 44.956 6.051 44.956 6.32C44.956 6.517 44.943 6.548 44.863 6.548C44.786 6.548 44.77 6.579 44.77 6.728C44.77 6.87 44.75 6.914 44.677 6.933C44.603 6.953 44.584 6.997 44.584 7.148C44.584 7.288 44.566 7.338 44.514 7.338C44.424 7.338 44.352 7.524 44.352 7.759C44.352 7.911 44.336 7.942 44.259 7.942C44.182 7.942 44.166 7.972 44.166 8.124C44.166 8.266 44.146 8.314 44.073 8.336C43.995 8.361 43.981 8.406 43.981 8.638C43.981 8.885 43.971 8.912 43.876 8.925C43.789 8.938 43.769 8.973 43.757 9.138C43.746 9.298 43.726 9.335 43.653 9.335C43.573 9.335 43.563 9.369 43.563 9.613C43.563 9.861 43.553 9.892 43.47 9.892C43.39 9.892 43.377 9.923 43.377 10.101C43.377 10.279 43.363 10.31 43.284 10.31C43.201 10.31 43.191 10.34 43.191 10.612C43.191 10.903 43.187 10.914 43.075 10.914C42.971 10.914 42.959 10.932 42.959 11.096C42.959 11.238 42.939 11.286 42.866 11.309C42.786 11.334 42.773 11.379 42.773 11.614C42.773 11.858 42.763 11.889 42.68 11.889C42.601 11.889 42.587 11.92 42.587 12.099C42.587 12.272 42.573 12.307 42.499 12.307C42.389 12.307 42.355 12.394 42.355 12.682C42.355 12.88 42.342 12.911 42.262 12.911C42.185 12.911 42.169 12.941 42.169 13.093C42.169 13.235 42.149 13.283 42.076 13.305C41.997 13.331 41.983 13.376 41.983 13.611C41.983 13.855 41.973 13.886 41.891 13.886C41.807 13.886 41.798 13.917 41.798 14.188C41.798 14.478 41.793 14.49 41.682 14.49C41.577 14.49 41.566 14.509 41.566 14.673C41.566 14.814 41.545 14.862 41.473 14.885C41.393 14.91 41.38 14.955 41.38 15.19C41.38 15.434 41.37 15.465 41.287 15.465C41.204 15.465 41.194 15.495 41.194 15.764C41.194 16.038 41.185 16.064 41.09 16.077C41.003 16.09 40.983 16.125 40.97 16.285C40.96 16.429 40.934 16.483 40.866 16.501C40.791 16.521 40.776 16.566 40.776 16.779C40.776 16.994 40.762 17.037 40.683 17.058C40.603 17.078 40.59 17.121 40.59 17.365C40.59 17.617 40.58 17.648 40.498 17.648C40.418 17.648 40.404 17.678 40.404 17.857C40.404 18.013 40.387 18.066 40.334 18.066C40.244 18.066 40.172 18.252 40.172 18.486C40.172 18.639 40.157 18.67 40.08 18.67C39.996 18.67 39.987 18.7 39.987 18.971C39.987 19.242 39.977 19.273 39.894 19.273C39.811 19.273 39.801 19.304 39.801 19.549C39.801 19.799 39.791 19.826 39.696 19.839C39.609 19.851 39.589 19.887 39.577 20.051C39.567 20.184 39.542 20.249 39.497 20.249C39.417 20.249 39.371 20.412 39.391 20.625C39.41 20.824 39.941 20.911 39.941 20.715C39.941 20.629 39.969 20.62 40.239 20.62C40.497 20.62 40.542 20.608 40.567 20.527C40.592 20.448 40.637 20.434 40.872 20.434C41.114 20.434 41.148 20.424 41.148 20.344C41.148 20.265 41.186 20.251 41.438 20.239C41.698 20.227 41.73 20.215 41.743 20.121C41.757 20.022 41.779 20.017 42.149 20.017C42.509 20.017 42.541 20.009 42.541 19.923C42.541 19.855 42.571 19.831 42.657 19.831C42.761 19.831 42.773 19.811 42.773 19.651C42.773 19.509 42.793 19.465 42.866 19.445C42.946 19.425 42.959 19.382 42.959 19.138C42.959 18.886 42.969 18.855 43.052 18.855C43.131 18.855 43.145 18.825 43.145 18.646C43.145 18.49 43.163 18.437 43.215 18.437C43.305 18.437 43.377 18.252 43.377 18.022C43.377 17.883 43.397 17.839 43.47 17.82C43.55 17.8 43.563 17.757 43.563 17.513C43.563 17.261 43.573 17.23 43.655 17.23C43.738 17.23 43.748 17.199 43.748 16.951C43.748 16.704 43.758 16.673 43.841 16.673C43.921 16.673 43.934 16.642 43.934 16.463C43.934 16.307 43.952 16.255 44.004 16.255C44.094 16.255 44.166 16.069 44.166 15.834C44.166 15.682 44.182 15.651 44.259 15.651C44.343 15.651 44.352 15.62 44.352 15.349C44.352 15.078 44.362 15.047 44.445 15.047C44.522 15.047 44.538 15.017 44.538 14.862C44.538 14.726 44.557 14.676 44.608 14.676C44.698 14.676 44.77 14.49 44.77 14.26C44.77 14.122 44.79 14.077 44.863 14.058C44.943 14.038 44.956 13.995 44.956 13.751C44.956 13.499 44.966 13.468 45.049 13.468C45.128 13.468 45.142 13.438 45.142 13.259C45.142 13.081 45.155 13.05 45.234 13.05C45.317 13.05 45.327 13.02 45.327 12.772C45.327 12.529 45.339 12.492 45.415 12.492C45.526 12.492 45.559 12.406 45.559 12.118C45.559 11.92 45.572 11.889 45.652 11.889C45.732 11.889 45.745 11.859 45.745 11.685C45.745 11.521 45.763 11.477 45.838 11.458C45.916 11.438 45.931 11.394 45.931 11.185C45.931 10.971 45.946 10.929 46.036 10.89C46.123 10.851 46.142 10.802 46.154 10.582C46.165 10.367 46.184 10.316 46.258 10.296C46.33 10.277 46.349 10.232 46.349 10.082C46.349 9.923 46.364 9.892 46.442 9.892C46.525 9.892 46.535 9.862 46.535 9.59C46.535 9.32 46.545 9.288 46.628 9.288C46.705 9.288 46.721 9.258 46.721 9.103C46.721 8.951 46.737 8.917 46.809 8.917C46.919 8.917 46.953 8.83 46.953 8.541C46.953 8.344 46.966 8.313 47.046 8.313C47.125 8.313 47.139 8.283 47.139 8.104C47.139 7.926 47.152 7.895 47.231 7.895C47.309 7.895 47.324 7.865 47.324 7.709C47.324 7.574 47.344 7.523 47.395 7.523C47.485 7.523 47.556 7.338 47.556 7.103C47.556 6.951 47.572 6.92 47.649 6.92C47.729 6.92 47.742 6.889 47.742 6.711C47.742 6.533 47.756 6.502 47.835 6.502C47.918 6.502 47.928 6.472 47.928 6.223C47.928 5.976 47.938 5.945 48.021 5.945C48.1 5.945 48.115 5.911 48.121 5.724L48.13 5.504L48.148 5.701C48.162 5.859 48.183 5.898 48.256 5.898C48.33 5.898 48.346 5.931 48.346 6.088C48.346 6.238 48.366 6.284 48.436 6.302C48.505 6.32 48.53 6.374 48.541 6.518C48.553 6.678 48.573 6.714 48.659 6.726C48.754 6.739 48.764 6.766 48.764 7.016C48.764 7.26 48.774 7.291 48.857 7.291C48.937 7.291 48.95 7.322 48.95 7.501C48.95 7.679 48.963 7.709 49.043 7.709C49.124 7.709 49.136 7.74 49.136 7.962C49.136 8.159 49.156 8.229 49.225 8.278C49.276 8.313 49.32 8.408 49.329 8.501C49.341 8.626 49.367 8.665 49.449 8.676C49.539 8.689 49.554 8.719 49.554 8.897C49.554 9.072 49.568 9.103 49.646 9.103C49.729 9.103 49.739 9.133 49.739 9.386C49.739 9.63 49.752 9.672 49.832 9.693C49.905 9.712 49.925 9.756 49.925 9.898C49.925 10.059 49.937 10.078 50.041 10.078C50.153 10.078 50.157 10.088 50.157 10.38C50.157 10.65 50.167 10.682 50.25 10.682C50.33 10.682 50.343 10.712 50.343 10.891C50.343 11.069 50.357 11.1 50.436 11.1C50.518 11.1 50.529 11.13 50.529 11.375C50.529 11.61 50.542 11.655 50.622 11.68C50.685 11.7 50.714 11.75 50.714 11.84C50.714 12.087 50.769 12.252 50.859 12.275C50.927 12.293 50.947 12.341 50.947 12.488C50.947 12.648 50.962 12.678 51.04 12.678C51.122 12.678 51.132 12.71 51.132 12.962C51.132 13.205 51.145 13.248 51.226 13.269C51.298 13.288 51.318 13.332 51.318 13.473C51.318 13.635 51.33 13.653 51.434 13.653C51.546 13.653 51.55 13.665 51.55 13.956C51.55 14.226 51.56 14.258 51.643 14.258C51.727 14.258 51.736 14.288 51.736 14.559C51.736 14.831 51.746 14.862 51.829 14.862C51.911 14.862 51.922 14.892 51.922 15.114C51.922 15.311 51.942 15.381 52.012 15.43C52.068 15.47 52.107 15.56 52.116 15.676C52.128 15.826 52.15 15.863 52.236 15.875C52.33 15.888 52.34 15.915 52.34 16.165C52.34 16.409 52.35 16.44 52.433 16.44C52.516 16.44 52.526 16.471 52.526 16.742C52.526 17.011 52.536 17.044 52.616 17.044C52.696 17.044 52.709 17.082 52.721 17.334C52.733 17.595 52.746 17.626 52.839 17.64C52.935 17.653 52.944 17.679 52.944 17.953C52.944 18.221 52.954 18.252 53.037 18.252C53.118 18.252 53.13 18.282 53.13 18.512C53.13 18.732 53.143 18.775 53.222 18.795C53.298 18.815 53.315 18.859 53.315 19.023C53.315 19.196 53.329 19.227 53.408 19.227C53.488 19.227 53.501 19.257 53.501 19.455C53.501 19.787 53.528 19.831 53.738 19.831C53.888 19.831 53.918 19.847 53.918 19.923C53.918 20.007 53.95 20.016 54.221 20.016C54.461 20.016 54.523 20.031 54.523 20.087C54.523 20.187 54.716 20.249 55.036 20.249C55.281 20.249 55.312 20.259 55.312 20.341C55.312 20.425 55.343 20.434 55.614 20.434C55.885 20.434 55.916 20.444 55.916 20.527C55.916 20.611 55.946 20.62 56.218 20.62C56.491 20.62 56.52 20.63 56.52 20.715C56.52 20.802 56.544 20.809 56.787 20.797L57.054 20.783L57.068 20.535C57.08 20.318 57.07 20.285 56.987 20.263C56.91 20.243 56.891 20.2 56.891 20.053C56.891 19.909 56.871 19.863 56.801 19.844C56.726 19.825 56.707 19.774 56.696 19.559C56.684 19.327 56.67 19.295 56.578 19.282C56.488 19.269 56.473 19.239 56.473 19.061C56.473 18.886 56.459 18.855 56.38 18.855C56.297 18.855 56.287 18.825 56.287 18.554C56.287 18.282 56.277 18.252 56.195 18.252C56.113 18.252 56.102 18.221 56.102 17.992C56.102 17.773 56.087 17.728 56.012 17.708C55.943 17.691 55.917 17.638 55.907 17.492C55.895 17.333 55.875 17.297 55.788 17.285C55.692 17.271 55.684 17.245 55.684 16.971C55.684 16.704 55.674 16.673 55.591 16.673C55.509 16.673 55.498 16.642 55.498 16.417C55.498 16.213 55.48 16.151 55.405 16.104C55.339 16.064 55.312 15.996 55.312 15.872C55.312 15.717 55.299 15.697 55.196 15.697C55.084 15.697 55.08 15.687 55.08 15.395C55.08 15.125 55.07 15.094 54.987 15.094C54.905 15.094 54.894 15.063 54.894 14.81C54.894 14.567 54.881 14.524 54.801 14.503C54.728 14.484 54.709 14.44 54.709 14.294C54.709 14.15 54.689 14.104 54.618 14.086C54.544 14.066 54.525 14.014 54.513 13.8C54.502 13.58 54.483 13.53 54.395 13.492C54.305 13.452 54.291 13.411 54.291 13.197C54.291 12.987 54.276 12.945 54.197 12.924C54.123 12.904 54.105 12.861 54.105 12.696C54.105 12.524 54.091 12.493 54.012 12.493C53.932 12.493 53.919 12.462 53.919 12.264C53.919 11.976 53.885 11.889 53.775 11.889C53.703 11.889 53.687 11.855 53.687 11.703C53.687 11.549 53.671 11.518 53.594 11.518C53.511 11.518 53.501 11.487 53.501 11.216C53.501 10.945 53.491 10.914 53.408 10.914C53.33 10.914 53.315 10.883 53.315 10.724C53.315 10.574 53.295 10.529 53.225 10.51C53.15 10.49 53.131 10.438 53.12 10.224C53.109 10.004 53.09 9.954 53.002 9.916C52.92 9.88 52.897 9.832 52.897 9.696C52.897 9.551 52.881 9.521 52.804 9.521C52.723 9.521 52.711 9.49 52.711 9.268C52.711 9.071 52.691 9.001 52.622 8.952C52.566 8.912 52.527 8.822 52.518 8.706C52.505 8.556 52.483 8.519 52.398 8.507C52.303 8.494 52.293 8.467 52.293 8.217C52.293 7.972 52.283 7.941 52.201 7.941C52.123 7.941 52.108 7.911 52.108 7.751C52.108 7.601 52.088 7.556 52.015 7.537C51.942 7.518 51.922 7.474 51.922 7.332C51.922 7.183 51.906 7.152 51.829 7.152C51.752 7.152 51.736 7.122 51.736 6.969C51.736 6.734 51.665 6.549 51.575 6.549C51.522 6.549 51.505 6.496 51.505 6.339C51.505 6.161 51.49 6.13 51.411 6.13C51.334 6.13 51.318 6.1 51.318 5.945C51.318 5.79 51.303 5.759 51.225 5.759C51.148 5.759 51.132 5.728 51.132 5.576C51.132 5.341 51.062 5.155 50.972 5.155C50.918 5.155 50.9 5.102 50.9 4.946C50.9 4.768 50.887 4.737 50.807 4.737C50.73 4.737 50.714 4.707 50.714 4.551C50.714 4.397 50.699 4.366 50.622 4.366C50.542 4.366 50.529 4.335 50.529 4.156C50.529 3.979 50.515 3.948 50.436 3.948C50.36 3.948 50.343 3.916 50.342 3.774C50.342 3.519 50.299 3.402 50.199 3.376C50.13 3.358 50.111 3.31 50.111 3.162C50.111 3.003 50.095 2.972 50.018 2.972C49.94 2.972 49.925 2.942 49.925 2.782C49.925 2.632 49.906 2.587 49.832 2.568C49.759 2.548 49.739 2.504 49.739 2.363C49.739 2.202 49.727 2.183 49.623 2.183C49.517 2.183 49.507 2.166 49.507 1.974V1.765H46.953L46.952 1.974ZM69.244 2.646C69.244 2.733 69.206 2.738 68.56 2.751C67.889 2.763 67.874 2.766 67.86 2.868C67.85 2.935 67.813 2.972 67.755 2.972C67.611 2.972 67.615 16.993 67.759 17.031C67.845 17.053 67.851 17.094 67.851 17.606C67.851 18.108 67.86 18.163 67.944 18.216C68.01 18.257 68.037 18.324 68.037 18.448C68.037 18.604 68.05 18.623 68.153 18.623C68.265 18.623 68.269 18.635 68.269 18.906C68.269 19.15 68.282 19.192 68.362 19.213C68.3881 19.2197 68.4113 19.2348 68.4281 19.2559C68.4449 19.277 68.4543 19.303 68.455 19.33C68.455 19.382 68.495 19.432 68.548 19.445C68.6 19.459 68.641 19.509 68.641 19.557C68.641 19.612 68.674 19.645 68.73 19.645C68.797 19.645 68.826 19.69 68.85 19.831C68.88 20.011 68.887 20.017 69.063 20.017C69.226 20.017 69.244 20.028 69.244 20.132C69.244 20.215 69.27 20.249 69.332 20.249C69.381 20.249 69.43 20.29 69.444 20.341C69.464 20.415 69.507 20.434 69.658 20.434C69.818 20.434 69.848 20.45 69.848 20.527C69.848 20.604 69.879 20.62 70.028 20.62C70.17 20.62 70.214 20.64 70.234 20.713C70.254 20.793 70.297 20.806 70.545 20.806C70.792 20.806 70.835 20.819 70.856 20.898C70.892 21.033 71.023 21.043 72.588 21.028L74.005 21.015L74.02 20.91C74.034 20.812 74.056 20.806 74.407 20.806C74.741 20.806 74.782 20.796 74.804 20.713C74.825 20.633 74.867 20.62 75.106 20.62C75.344 20.62 75.387 20.607 75.408 20.527C75.428 20.449 75.471 20.434 75.687 20.434C75.899 20.434 75.945 20.42 75.964 20.344C75.9736 20.3172 75.9901 20.2934 76.0119 20.2752C76.0337 20.2569 76.0599 20.2447 76.088 20.24C76.1178 20.236 76.1454 20.2219 76.1661 20.2001C76.1869 20.1783 76.1995 20.15 76.202 20.12C76.211 20.063 76.245 20.017 76.279 20.017C76.431 20.017 76.456 19.327 76.306 19.287C76.23 19.267 76.213 19.216 76.201 18.978C76.189 18.722 76.177 18.691 76.083 18.678C75.987 18.664 75.979 18.638 75.979 18.364C75.979 18.097 75.969 18.066 75.886 18.066C75.824 18.066 75.793 18.035 75.793 17.973C75.793 17.886 75.762 17.88 75.305 17.88C74.848 17.88 74.818 17.886 74.818 17.973C74.818 18.052 74.787 18.066 74.608 18.066C74.431 18.066 74.399 18.08 74.399 18.159C74.399 18.241 74.369 18.252 74.121 18.252C73.873 18.252 73.842 18.262 73.842 18.345C73.842 18.435 73.812 18.437 72.826 18.437C71.849 18.437 71.809 18.434 71.786 18.345C71.765 18.265 71.722 18.252 71.501 18.252C71.273 18.252 71.241 18.241 71.241 18.159C71.241 18.091 71.211 18.066 71.125 18.066C71.04 18.066 71.01 18.041 71.01 17.973C71.01 17.911 70.979 17.88 70.916 17.88C70.837 17.88 70.824 17.85 70.824 17.671C70.824 17.493 70.81 17.462 70.731 17.462C70.648 17.462 70.638 17.432 70.638 17.186C70.638 16.866 70.577 16.673 70.476 16.673C70.413 16.673 70.406 16.227 70.406 12.678V8.685H75.607V8.011C75.607 7.373 75.602 7.338 75.517 7.338C75.434 7.338 75.424 7.3 75.412 6.955C75.399 6.598 75.391 6.571 75.294 6.557C75.218 6.546 75.189 6.511 75.189 6.429V6.316H72.919C70.688 6.316 70.649 6.314 70.624 6.223C70.6172 6.19614 70.6016 6.17234 70.5797 6.15546C70.5577 6.13859 70.5307 6.12961 70.503 6.13C70.406 6.13 70.406 6.125 70.406 4.435C70.406 2.771 70.404 2.74 70.313 2.74C70.251 2.74 70.22 2.71 70.22 2.647C70.22 2.56 70.189 2.554 69.732 2.554C69.278 2.554 69.244 2.56 69.244 2.646ZM106.862 4.458C106.862 4.538 106.831 4.551 106.653 4.551C106.475 4.551 106.444 4.565 106.444 4.644C106.444 4.715 106.413 4.737 106.314 4.737C106.143 4.737 106.073 4.815 106.073 5.002C106.073 5.124 106.054 5.155 105.98 5.155C105.918 5.155 105.887 5.185 105.887 5.248C105.887 5.3 105.856 5.341 105.816 5.341C105.691 5.341 105.655 5.563 105.655 6.331C105.656 7.17 105.671 7.273 105.798 7.306C105.851 7.322 105.888 7.371 105.887 7.426C105.887 7.492 105.917 7.524 105.977 7.524C106.048 7.524 106.07 7.561 106.082 7.698C106.095 7.862 106.106 7.873 106.267 7.886C106.403 7.897 106.441 7.922 106.453 8.002C106.456 8.03222 106.47 8.06037 106.492 8.08169C106.513 8.10301 106.542 8.11619 106.572 8.119C106.629 8.127 106.676 8.161 106.676 8.195C106.676 8.357 108.571 8.382 108.613 8.22C108.63 8.155 108.677 8.127 108.768 8.127C108.959 8.127 109.045 8.082 109.045 7.983C109.045 7.926 109.078 7.895 109.138 7.895C109.2 7.895 109.231 7.865 109.231 7.802C109.231 7.74 109.262 7.709 109.324 7.709C109.401 7.709 109.416 7.679 109.416 7.527C109.416 7.373 109.433 7.342 109.521 7.33C109.615 7.316 109.627 7.285 109.639 7.03C109.65 6.792 109.668 6.74 109.744 6.72C109.882 6.684 109.882 5.945 109.744 5.945C109.665 5.945 109.651 5.907 109.639 5.655C109.627 5.394 109.615 5.363 109.521 5.349C109.432 5.337 109.416 5.306 109.416 5.148C109.416 5 109.397 4.955 109.324 4.936C109.272 4.923 109.231 4.873 109.231 4.824C109.231 4.769 109.198 4.737 109.141 4.737C109.092 4.737 109.038 4.695 109.022 4.644C108.999 4.572 108.951 4.551 108.81 4.551C108.658 4.551 108.627 4.536 108.627 4.458C108.627 4.369 108.596 4.366 107.745 4.366C106.893 4.366 106.862 4.369 106.862 4.458ZM108.256 5.144C108.256 5.162 108.094 5.173 107.896 5.166C107.259 5.144 107.197 5.124 107.733 5.116C108.02 5.112 108.256 5.124 108.256 5.144ZM106.857 6.328C106.854 6.768 106.842 7.094 106.831 7.052C106.82 7.01 106.77 6.965 106.72 6.952C106.651 6.934 106.63 6.888 106.63 6.757C106.63 6.625 106.609 6.581 106.537 6.562C106.462 6.542 106.444 6.498 106.444 6.339C106.444 6.18 106.462 6.136 106.537 6.117C106.611 6.097 106.63 6.054 106.63 5.903C106.63 5.743 106.645 5.713 106.723 5.713C106.785 5.713 106.816 5.681 106.816 5.62C106.816 5.568 106.826 5.527 106.839 5.527C106.852 5.527 106.86 5.888 106.857 6.328ZM108.769 5.898C108.852 5.898 108.859 5.933 108.859 6.316C108.859 6.661 108.847 6.734 108.788 6.734C108.749 6.734 108.698 6.781 108.675 6.839C108.647 6.907 108.635 6.693 108.638 6.223C108.641 5.827 108.651 5.593 108.661 5.701C108.675 5.859 108.696 5.898 108.769 5.898ZM33.439 6.038C33.439 6.123 33.407 6.13 33.039 6.13C32.682 6.13 32.638 6.14 32.617 6.221C32.597 6.295 32.545 6.314 32.331 6.326C32.099 6.338 32.066 6.352 32.053 6.444C32.041 6.534 32.011 6.548 31.833 6.548C31.658 6.548 31.627 6.562 31.627 6.641C31.627 6.718 31.597 6.734 31.444 6.734C31.303 6.734 31.255 6.754 31.232 6.827C31.216 6.878 31.162 6.92 31.113 6.92C31.048 6.92 31.023 6.952 31.023 7.036C31.023 7.14 31.005 7.152 30.838 7.152C30.683 7.152 30.652 7.168 30.652 7.245C30.652 7.308 30.621 7.338 30.554 7.338C30.527 7.33777 30.5007 7.34634 30.4791 7.3624C30.4574 7.37846 30.4416 7.40114 30.434 7.427C30.4255 7.45305 30.4109 7.4767 30.3914 7.496C30.3719 7.5153 30.3481 7.52969 30.322 7.538C30.274 7.551 30.234 7.592 30.234 7.63C30.234 7.668 30.192 7.71 30.141 7.723C30.1142 7.72991 30.0905 7.74557 30.0737 7.7675C30.0568 7.78942 30.0478 7.81635 30.048 7.844C30.048 7.909 30.018 7.942 29.959 7.942C29.892 7.942 29.863 7.986 29.839 8.127C29.815 8.268 29.786 8.313 29.719 8.313C29.663 8.313 29.63 8.345 29.63 8.401C29.63 8.449 29.589 8.499 29.537 8.512C29.511 8.51869 29.488 8.5336 29.4712 8.55452C29.4544 8.57543 29.4449 8.60121 29.444 8.628C29.444 8.681 29.404 8.731 29.352 8.745C29.282 8.763 29.259 8.808 29.259 8.925C29.259 9.042 29.233 9.092 29.154 9.126C29.078 9.16 29.046 9.219 29.036 9.342C29.026 9.464 28.996 9.518 28.931 9.535C28.86 9.553 28.841 9.599 28.841 9.749C28.841 9.908 28.825 9.939 28.748 9.939C28.665 9.939 28.655 9.969 28.655 10.222C28.655 10.461 28.641 10.508 28.566 10.528C28.456 10.556 28.424 10.671 28.423 11.036C28.423 11.282 28.41 11.324 28.33 11.346C28.239 11.369 28.237 11.409 28.237 13.51C28.237 15.62 28.238 15.65 28.33 15.65C28.415 15.65 28.423 15.682 28.423 16.034C28.424 16.498 28.451 16.611 28.566 16.641C28.641 16.661 28.655 16.707 28.655 16.947C28.655 17.199 28.665 17.23 28.748 17.23C28.826 17.23 28.841 17.26 28.841 17.42C28.841 17.57 28.86 17.615 28.931 17.634C28.996 17.651 29.025 17.705 29.036 17.827C29.046 17.95 29.078 18.009 29.154 18.042C29.233 18.076 29.259 18.127 29.259 18.244C29.259 18.36 29.282 18.406 29.352 18.424C29.402 18.437 29.444 18.487 29.444 18.536C29.444 18.592 29.477 18.623 29.537 18.623C29.601 18.623 29.63 18.654 29.63 18.721C29.63 18.778 29.668 18.828 29.723 18.841C29.774 18.855 29.816 18.905 29.816 18.954C29.816 19.016 29.849 19.041 29.932 19.041C30.017 19.041 30.048 19.066 30.048 19.134C30.048 19.196 30.079 19.227 30.141 19.227C30.209 19.227 30.234 19.257 30.234 19.343C30.234 19.428 30.259 19.459 30.327 19.459C30.389 19.459 30.42 19.49 30.42 19.552C30.42 19.62 30.45 19.645 30.536 19.645C30.621 19.645 30.652 19.67 30.652 19.738C30.652 19.798 30.682 19.831 30.739 19.831C30.788 19.831 30.838 19.872 30.851 19.923C30.87 19.994 30.914 20.016 31.039 20.016C31.173 20.016 31.205 20.036 31.217 20.121C31.23 20.208 31.266 20.228 31.43 20.24C31.59 20.251 31.627 20.271 31.627 20.344C31.627 20.42 31.66 20.434 31.836 20.434C32.014 20.434 32.045 20.448 32.045 20.527C32.045 20.61 32.075 20.62 32.318 20.62C32.552 20.62 32.595 20.633 32.616 20.713C32.638 20.797 32.679 20.806 33.039 20.806C33.403 20.806 33.439 20.814 33.439 20.896C33.439 21.03 33.639 21.044 35.296 21.029L36.759 21.015L36.774 20.91C36.788 20.808 36.802 20.806 37.37 20.806C37.913 20.806 37.953 20.8 37.976 20.713C37.99 20.661 38.04 20.62 38.088 20.62C38.143 20.62 38.175 20.587 38.175 20.533C38.175 20.484 38.217 20.434 38.268 20.421C38.348 20.4 38.361 20.358 38.361 20.114C38.361 19.867 38.372 19.831 38.449 19.831C38.559 19.831 38.593 19.743 38.593 19.455C38.593 19.258 38.606 19.227 38.686 19.227C38.765 19.227 38.779 19.196 38.779 19.023C38.779 18.859 38.797 18.815 38.872 18.795C38.996 18.763 39.017 17.711 38.895 17.665C38.745 17.607 38.408 17.695 38.408 17.79C38.408 17.866 38.374 17.88 38.198 17.88C38.021 17.88 37.99 17.894 37.99 17.973C37.99 18.055 37.959 18.066 37.73 18.066C37.509 18.066 37.466 18.08 37.446 18.159C37.425 18.239 37.383 18.252 37.121 18.252C36.859 18.252 36.817 18.264 36.796 18.345C36.772 18.435 36.732 18.437 35.476 18.437C34.212 18.437 34.181 18.435 34.181 18.345C34.181 18.259 34.151 18.252 33.786 18.252C33.423 18.252 33.392 18.244 33.392 18.159C33.392 18.081 33.361 18.066 33.206 18.066C33.051 18.066 33.02 18.05 33.02 17.973C33.02 17.893 32.99 17.88 32.811 17.88C32.619 17.88 32.602 17.87 32.602 17.764C32.602 17.679 32.578 17.648 32.51 17.648C32.448 17.648 32.417 17.617 32.417 17.555C32.417 17.493 32.386 17.462 32.324 17.462C32.262 17.462 32.231 17.432 32.231 17.369C32.231 17.301 32.2 17.276 32.115 17.276C32.013 17.276 31.999 17.256 31.999 17.114C31.999 17.002 31.969 16.934 31.906 16.894C31.855 16.862 31.813 16.799 31.813 16.754C31.813 16.704 31.778 16.673 31.723 16.673C31.65 16.673 31.63 16.635 31.618 16.475C31.606 16.311 31.586 16.275 31.499 16.263C31.404 16.249 31.395 16.223 31.395 15.973C31.395 15.728 31.385 15.697 31.302 15.697C31.216 15.697 31.209 15.667 31.209 15.298C31.209 14.938 31.2 14.897 31.116 14.875C31.044 14.855 31.023 14.812 31.023 14.67V14.49L40.149 14.467L40.164 14.362C40.174 14.295 40.211 14.258 40.268 14.258C40.326 14.258 40.358 14.226 40.358 14.168C40.358 14.11 40.396 14.073 40.463 14.063C40.658 14.036 40.643 11.518 40.448 11.518C40.364 11.518 40.358 11.48 40.358 10.933C40.358 10.387 40.352 10.346 40.265 10.323C40.184 10.303 40.172 10.26 40.172 9.983C40.172 9.629 40.145 9.521 40.054 9.521C40.014 9.521 39.987 9.45 39.977 9.323C39.966 9.159 39.946 9.123 39.859 9.111C39.771 9.099 39.754 9.068 39.754 8.914C39.754 8.762 39.739 8.731 39.662 8.731C39.582 8.731 39.569 8.701 39.569 8.522C39.569 8.344 39.555 8.313 39.476 8.313C39.414 8.313 39.383 8.283 39.383 8.22C39.383 8.16 39.352 8.127 39.296 8.127C39.231 8.127 39.202 8.082 39.18 7.947C39.16 7.82 39.124 7.759 39.058 7.743C39.0311 7.73605 39.0072 7.72023 38.9904 7.69811C38.9735 7.67598 38.9646 7.64882 38.965 7.621C38.965 7.554 38.935 7.523 38.872 7.523C38.81 7.523 38.779 7.493 38.779 7.431C38.779 7.363 38.749 7.338 38.663 7.338C38.578 7.338 38.547 7.313 38.547 7.245C38.547 7.168 38.516 7.152 38.361 7.152C38.194 7.152 38.175 7.14 38.175 7.036C38.175 6.951 38.151 6.92 38.082 6.92C38.021 6.92 37.99 6.889 37.99 6.827C37.99 6.747 37.959 6.734 37.78 6.734C37.603 6.734 37.572 6.72 37.572 6.641C37.572 6.564 37.541 6.548 37.389 6.548C37.235 6.548 37.204 6.532 37.192 6.444C37.179 6.357 37.143 6.337 36.984 6.325C36.839 6.315 36.786 6.289 36.768 6.221C36.748 6.141 36.702 6.131 36.372 6.131C36.04 6.131 35.996 6.121 35.969 6.038C35.941 5.948 35.899 5.945 34.689 5.945C33.469 5.945 33.439 5.947 33.439 6.038ZM61.303 6.038C61.303 6.124 61.273 6.13 60.839 6.13C60.425 6.13 60.369 6.14 60.317 6.223C60.276 6.289 60.209 6.316 60.084 6.316C59.929 6.316 59.91 6.329 59.91 6.432C59.91 6.543 59.898 6.548 59.627 6.548C59.383 6.548 59.34 6.561 59.32 6.641C59.3133 6.66712 59.2982 6.69032 59.2771 6.70711C59.256 6.72389 59.23 6.73333 59.203 6.734C59.1764 6.73509 59.1508 6.74473 59.1301 6.76148C59.1094 6.77823 59.0946 6.8012 59.088 6.827C59.072 6.886 59.024 6.92 58.956 6.92C58.788 6.92 58.702 6.969 58.702 7.064C58.702 7.121 58.67 7.152 58.61 7.152C58.547 7.152 58.517 7.183 58.517 7.245C58.517 7.313 58.486 7.338 58.401 7.338C58.315 7.338 58.284 7.363 58.284 7.431C58.284 7.498 58.254 7.524 58.172 7.524C57.963 7.524 57.913 7.57 57.913 7.761C57.913 7.923 57.901 7.941 57.797 7.941C57.712 7.941 57.681 7.966 57.681 8.035C57.681 8.096 57.65 8.127 57.588 8.127C57.526 8.127 57.495 8.158 57.495 8.22C57.495 8.282 57.465 8.313 57.402 8.313C57.334 8.313 57.309 8.344 57.309 8.429C57.309 8.514 57.284 8.545 57.216 8.545C57.139 8.545 57.123 8.576 57.123 8.728C57.123 8.882 57.107 8.913 57.019 8.925C56.932 8.938 56.912 8.973 56.9 9.138C56.889 9.298 56.869 9.335 56.796 9.335C56.721 9.335 56.706 9.368 56.706 9.521C56.706 9.676 56.69 9.707 56.613 9.707C56.533 9.707 56.52 9.737 56.52 9.915C56.52 10.089 56.505 10.125 56.432 10.125C56.322 10.125 56.287 10.211 56.287 10.495C56.287 10.678 56.271 10.722 56.195 10.742C56.109 10.764 56.102 10.805 56.102 11.235C56.102 11.672 56.096 11.703 56.009 11.703C55.918 11.703 55.916 11.734 55.916 13.558C55.916 15.372 55.918 15.413 56.009 15.442C56.092 15.468 56.102 15.512 56.102 15.862C56.102 16.224 56.109 16.255 56.195 16.255C56.277 16.255 56.287 16.285 56.287 16.53C56.287 16.85 56.348 17.044 56.449 17.044C56.501 17.044 56.519 17.094 56.519 17.234C56.519 17.385 56.539 17.429 56.613 17.449C56.685 17.468 56.705 17.512 56.705 17.653C56.705 17.803 56.721 17.833 56.798 17.833C56.87 17.833 56.891 17.864 56.891 17.969C56.891 18.165 56.935 18.251 57.036 18.251C57.092 18.251 57.123 18.284 57.123 18.345C57.123 18.406 57.154 18.437 57.216 18.437C57.292 18.437 57.309 18.468 57.309 18.604C57.309 18.732 57.331 18.777 57.402 18.795C57.4281 18.8017 57.4513 18.8168 57.4681 18.8379C57.4849 18.859 57.4943 18.885 57.495 18.912C57.495 18.964 57.535 19.014 57.588 19.027C57.639 19.041 57.681 19.091 57.681 19.139C57.681 19.202 57.714 19.227 57.797 19.227C57.89 19.227 57.913 19.25 57.913 19.343C57.913 19.426 57.938 19.459 58 19.459C58.049 19.459 58.099 19.501 58.112 19.552C58.126 19.602 58.168 19.645 58.207 19.645C58.247 19.645 58.291 19.686 58.307 19.738C58.331 19.81 58.378 19.831 58.52 19.831C58.671 19.831 58.702 19.847 58.702 19.923C58.702 19.986 58.733 20.016 58.795 20.016C58.855 20.016 58.888 20.047 58.888 20.104C58.888 20.204 58.975 20.249 59.171 20.249C59.275 20.249 59.306 20.269 59.306 20.341C59.306 20.419 59.337 20.434 59.489 20.434C59.631 20.434 59.678 20.455 59.701 20.527C59.726 20.607 59.771 20.62 60.001 20.62C60.231 20.62 60.274 20.634 60.295 20.713C60.318 20.8 60.358 20.806 60.901 20.806C61.469 20.806 61.483 20.808 61.497 20.91L61.512 21.015L62.866 21.027C64.228 21.04 64.461 21.017 64.461 20.877C64.461 20.817 64.543 20.806 64.949 20.806C65.406 20.806 65.436 20.8 65.436 20.713C65.436 20.63 65.467 20.62 65.738 20.62C66.009 20.62 66.04 20.61 66.04 20.527C66.04 20.446 66.071 20.434 66.293 20.434C66.484 20.434 66.561 20.414 66.607 20.35C66.6438 20.3008 66.6922 20.2616 66.748 20.236C66.882 20.186 66.871 19.041 66.737 19.041C66.651 19.041 66.644 19.011 66.644 18.646C66.644 18.282 66.637 18.251 66.551 18.251C66.474 18.251 66.458 18.221 66.458 18.066V17.88H65.97C65.514 17.88 65.483 17.886 65.483 17.973C65.483 18.056 65.452 18.066 65.181 18.066C64.911 18.066 64.879 18.076 64.879 18.159C64.879 18.242 64.849 18.252 64.577 18.252C64.307 18.252 64.275 18.262 64.275 18.345C64.275 18.49 62.071 18.49 62.033 18.345C62.011 18.261 61.969 18.252 61.633 18.252C61.288 18.252 61.257 18.244 61.257 18.159C61.257 18.082 61.226 18.066 61.077 18.066C60.935 18.066 60.891 18.046 60.872 17.973C60.852 17.899 60.809 17.88 60.657 17.88C60.485 17.88 60.467 17.869 60.467 17.764C60.467 17.681 60.442 17.648 60.38 17.648C60.331 17.648 60.281 17.606 60.268 17.555C60.2612 17.528 60.2454 17.504 60.2233 17.4872C60.2011 17.4703 60.1739 17.4614 60.146 17.462C60.088 17.462 60.049 17.432 60.049 17.388C60.049 17.348 60.007 17.303 59.956 17.29C59.9302 17.2831 59.9074 17.2681 59.8908 17.2472C59.8742 17.2263 59.8648 17.2007 59.864 17.174C59.8633 17.147 59.8539 17.121 59.8371 17.0999C59.8203 17.0788 59.7971 17.0637 59.771 17.057C59.719 17.044 59.678 16.994 59.678 16.946C59.678 16.89 59.645 16.858 59.588 16.858C59.517 16.858 59.494 16.821 59.483 16.684C59.472 16.544 59.448 16.507 59.364 16.495C59.274 16.482 59.26 16.453 59.26 16.275C59.26 16.1 59.246 16.069 59.167 16.069C59.084 16.069 59.074 16.038 59.074 15.786C59.074 15.542 59.061 15.5 58.981 15.479C58.896 15.456 58.888 15.415 58.888 14.972C58.888 14.521 58.882 14.49 58.795 14.49C58.705 14.49 58.702 14.459 58.702 13.584C58.702 12.841 58.714 12.679 58.767 12.679C58.869 12.679 58.888 12.569 58.888 12.001C58.888 11.502 58.894 11.471 58.981 11.471C59.064 11.471 59.074 11.441 59.074 11.192C59.074 10.945 59.084 10.914 59.167 10.914C59.246 10.914 59.26 10.883 59.26 10.708C59.26 10.53 59.274 10.5 59.364 10.488C59.451 10.475 59.471 10.439 59.483 10.275C59.495 10.115 59.515 10.078 59.587 10.078C59.647 10.078 59.677 10.046 59.677 9.985C59.677 9.923 59.709 9.892 59.771 9.892C59.833 9.892 59.864 9.862 59.864 9.799C59.864 9.739 59.894 9.706 59.954 9.706C59.98 9.70439 60.0049 9.69519 60.0257 9.67955C60.0465 9.6639 60.0622 9.64251 60.071 9.618C60.0815 9.59173 60.0977 9.56814 60.1185 9.54893C60.1392 9.52973 60.164 9.51541 60.191 9.507C60.2172 9.49953 60.2402 9.48362 60.2565 9.46175C60.2728 9.43988 60.2814 9.41326 60.281 9.386C60.281 9.319 60.311 9.288 60.374 9.288C60.436 9.288 60.467 9.258 60.467 9.195C60.467 9.12 60.498 9.103 60.634 9.103C60.761 9.103 60.807 9.081 60.824 9.013C60.842 8.944 60.896 8.918 61.041 8.908C61.2 8.896 61.236 8.876 61.248 8.789C61.262 8.693 61.288 8.685 61.562 8.685C61.829 8.685 61.86 8.675 61.86 8.592C61.86 8.502 61.891 8.499 62.853 8.499C63.808 8.499 63.848 8.502 63.871 8.592C63.893 8.675 63.934 8.685 64.272 8.685C64.632 8.685 64.652 8.69 64.693 8.801C64.733 8.905 64.763 8.917 64.989 8.917C65.201 8.917 65.244 8.931 65.264 9.01C65.286 9.093 65.328 9.103 65.664 9.103C66.009 9.103 66.04 9.095 66.04 9.01C66.04 8.948 66.071 8.917 66.133 8.917C66.216 8.917 66.226 8.886 66.226 8.618C66.226 8.344 66.235 8.318 66.33 8.305C66.424 8.291 66.436 8.26 66.449 8C66.461 7.748 66.474 7.71 66.553 7.71C66.637 7.71 66.643 7.675 66.643 7.222C66.643 6.775 66.637 6.734 66.556 6.734C66.508 6.734 66.458 6.693 66.445 6.641C66.425 6.568 66.381 6.548 66.23 6.548C66.075 6.548 66.04 6.532 66.04 6.461C66.04 6.35 65.953 6.316 65.665 6.316C65.501 6.316 65.437 6.298 65.437 6.252C65.437 6.151 65.327 6.13 64.786 6.13C64.323 6.13 64.279 6.123 64.252 6.037C64.224 5.947 64.182 5.945 62.762 5.945C61.334 5.945 61.303 5.947 61.303 6.038ZM85.977 6.038C85.955 6.121 85.914 6.13 85.563 6.13C85.205 6.13 85.174 6.138 85.174 6.223C85.174 6.303 85.143 6.316 84.946 6.316C84.657 6.316 84.57 6.35 84.57 6.461C84.57 6.531 84.536 6.548 84.388 6.548C84.246 6.548 84.198 6.569 84.176 6.641C84.157 6.699 84.105 6.734 84.037 6.734C83.879 6.734 83.781 6.781 83.781 6.855C83.781 6.891 83.739 6.92 83.688 6.92C83.62 6.92 83.595 6.95 83.595 7.036C83.595 7.141 83.577 7.152 83.405 7.152C83.254 7.152 83.21 7.171 83.191 7.245C83.177 7.296 83.127 7.338 83.079 7.338C83.022 7.338 82.991 7.371 82.991 7.431C82.991 7.494 82.96 7.524 82.894 7.524C82.8671 7.52354 82.8409 7.5319 82.8192 7.54779C82.7975 7.56369 82.7816 7.58624 82.774 7.612C82.7656 7.63824 82.751 7.66209 82.7316 7.68157C82.7121 7.70105 82.6882 7.7156 82.662 7.724C82.6361 7.73161 82.6135 7.74744 82.5974 7.76909C82.5813 7.79074 82.5728 7.81704 82.573 7.844C82.573 7.911 82.543 7.942 82.48 7.942C82.42 7.942 82.387 7.972 82.387 8.029C82.387 8.077 82.346 8.127 82.295 8.141C82.224 8.159 82.202 8.204 82.202 8.329C82.202 8.463 82.183 8.495 82.097 8.507C82.0661 8.5097 82.0371 8.52321 82.0152 8.54516C81.9932 8.5671 81.9797 8.59608 81.977 8.627C81.969 8.694 81.931 8.731 81.873 8.731C81.8 8.731 81.783 8.764 81.783 8.917C81.783 9.072 81.768 9.103 81.691 9.103C81.611 9.103 81.598 9.133 81.598 9.312C81.598 9.504 81.588 9.521 81.482 9.521C81.378 9.521 81.366 9.54 81.366 9.701C81.366 9.842 81.346 9.887 81.273 9.906C81.199 9.925 81.18 9.969 81.18 10.116C81.18 10.263 81.16 10.31 81.087 10.333C81.005 10.36 80.994 10.403 80.994 10.731C80.994 11.069 80.987 11.1 80.902 11.1C80.814 11.1 80.808 11.13 80.808 11.7C80.808 12.288 80.806 12.301 80.704 12.315L80.599 12.33L80.586 13.491C80.572 14.771 80.581 14.861 80.716 14.861C80.803 14.861 80.808 14.894 80.808 15.446C80.808 15.992 80.815 16.033 80.902 16.056C80.982 16.076 80.994 16.119 80.994 16.357C80.994 16.596 81.007 16.638 81.087 16.659C81.166 16.679 81.18 16.722 81.18 16.938C81.18 17.153 81.194 17.196 81.273 17.216C81.338 17.233 81.366 17.28 81.366 17.371C81.366 17.561 81.411 17.648 81.51 17.648C81.582 17.648 81.598 17.682 81.598 17.834C81.598 17.988 81.613 18.019 81.691 18.019C81.759 18.019 81.784 18.05 81.784 18.136C81.784 18.219 81.809 18.252 81.874 18.252C81.944 18.252 81.967 18.289 81.979 18.426C81.989 18.566 82.013 18.603 82.097 18.615C82.173 18.625 82.202 18.661 82.202 18.743C82.202 18.824 82.227 18.855 82.295 18.855C82.357 18.855 82.388 18.886 82.388 18.948C82.388 19.01 82.418 19.041 82.48 19.041C82.543 19.041 82.573 19.072 82.573 19.134C82.573 19.194 82.604 19.227 82.663 19.227C82.72 19.227 82.758 19.264 82.767 19.331C82.7699 19.3618 82.7835 19.3907 82.8054 19.4126C82.8273 19.4345 82.8561 19.4481 82.887 19.451C82.954 19.461 82.991 19.498 82.991 19.555C82.991 19.614 83.023 19.645 83.084 19.645C83.146 19.645 83.177 19.675 83.177 19.738C83.177 19.806 83.208 19.831 83.293 19.831C83.378 19.831 83.409 19.855 83.409 19.923C83.409 20.001 83.44 20.016 83.592 20.016C83.746 20.016 83.777 20.033 83.789 20.121C83.801 20.204 83.838 20.228 83.973 20.239C84.095 20.249 84.149 20.279 84.166 20.344C84.185 20.414 84.231 20.434 84.38 20.434C84.539 20.434 84.57 20.45 84.57 20.527C84.57 20.607 84.601 20.62 84.779 20.62C84.957 20.62 84.988 20.634 84.988 20.713C84.988 20.799 85.019 20.806 85.383 20.806C85.773 20.806 85.778 20.807 85.778 20.922V21.038H87.283C88.873 21.038 88.936 21.033 88.936 20.894C88.936 20.814 88.974 20.806 89.312 20.806C89.649 20.806 89.69 20.796 89.712 20.713C89.731 20.64 89.775 20.62 89.921 20.62C90.067 20.62 90.111 20.6 90.13 20.527C90.149 20.454 90.193 20.434 90.334 20.434C90.48 20.434 90.515 20.417 90.515 20.347C90.515 20.281 90.561 20.253 90.705 20.23C90.84 20.208 90.903 20.173 90.92 20.108C90.933 20.058 90.983 20.016 91.031 20.016C91.088 20.016 91.118 19.984 91.118 19.923C91.118 19.848 91.149 19.831 91.285 19.831C91.413 19.831 91.458 19.809 91.477 19.738C91.49 19.686 91.529 19.645 91.563 19.645C91.596 19.645 91.651 19.607 91.685 19.561C91.722 19.5115 91.7708 19.4719 91.827 19.446C91.871 19.429 91.908 19.373 91.908 19.321C91.908 19.257 91.938 19.227 92.002 19.227C92.054 19.227 92.11 19.19 92.127 19.146C92.1529 19.0898 92.1924 19.041 92.242 19.004C92.295 18.965 92.326 18.884 92.326 18.784C92.326 18.654 92.344 18.624 92.419 18.624C92.481 18.624 92.512 18.592 92.512 18.53C92.512 18.468 92.543 18.437 92.605 18.437C92.665 18.437 92.698 18.407 92.698 18.35C92.698 18.302 92.739 18.252 92.789 18.238C92.854 18.222 92.89 18.16 92.91 18.028C92.931 17.9 92.968 17.835 93.028 17.818C93.093 17.802 93.116 17.753 93.116 17.632C93.116 17.509 93.139 17.461 93.208 17.439C93.28 17.416 93.301 17.369 93.301 17.227C93.301 17.094 93.321 17.044 93.372 17.044C93.462 17.044 93.533 16.858 93.533 16.624C93.533 16.498 93.554 16.44 93.598 16.44C93.691 16.44 93.719 16.335 93.719 15.977C93.719 15.701 93.731 15.659 93.812 15.637C93.903 15.613 93.905 15.574 93.905 13.565C93.905 11.549 93.904 11.518 93.812 11.518C93.727 11.518 93.719 11.487 93.719 11.123C93.719 10.763 93.711 10.728 93.629 10.728C93.55 10.728 93.536 10.69 93.524 10.438C93.512 10.178 93.499 10.146 93.406 10.133C93.311 10.119 93.301 10.093 93.301 9.838C93.301 9.598 93.288 9.555 93.208 9.534C93.157 9.521 93.116 9.471 93.116 9.422C93.116 9.367 93.083 9.335 93.025 9.335C92.953 9.335 92.932 9.297 92.921 9.138C92.909 8.973 92.889 8.938 92.802 8.925C92.714 8.913 92.698 8.882 92.698 8.728C92.698 8.576 92.682 8.545 92.605 8.545C92.536 8.545 92.512 8.515 92.512 8.429C92.512 8.344 92.487 8.313 92.419 8.313C92.357 8.313 92.326 8.283 92.326 8.22C92.326 8.158 92.295 8.127 92.233 8.127C92.171 8.127 92.14 8.097 92.14 8.035C92.14 7.966 92.109 7.942 92.024 7.942C91.931 7.942 91.908 7.918 91.908 7.826C91.908 7.74 91.883 7.709 91.815 7.709C91.753 7.709 91.722 7.679 91.722 7.617C91.722 7.554 91.691 7.524 91.629 7.524C91.567 7.524 91.536 7.493 91.536 7.431C91.536 7.363 91.505 7.338 91.42 7.338C91.335 7.338 91.304 7.313 91.304 7.245C91.304 7.183 91.273 7.152 91.212 7.152C91.151 7.152 91.118 7.122 91.118 7.064C91.118 6.969 91.033 6.92 90.865 6.92C90.797 6.92 90.749 6.886 90.734 6.827C90.714 6.753 90.67 6.734 90.519 6.734C90.36 6.734 90.329 6.719 90.329 6.641C90.329 6.562 90.298 6.548 90.12 6.548C89.928 6.548 89.911 6.538 89.911 6.432C89.911 6.329 89.892 6.316 89.736 6.316C89.612 6.316 89.545 6.289 89.504 6.223C89.452 6.14 89.396 6.13 88.982 6.13C88.549 6.13 88.518 6.124 88.518 6.037C88.518 5.947 88.487 5.945 87.259 5.945C86.04 5.945 86.001 5.948 85.977 6.038ZM98.921 6.038C98.921 6.127 98.89 6.13 98.127 6.13C97.377 6.13 97.332 6.135 97.309 6.222C97.288 6.304 97.238 6.315 96.814 6.326C96.366 6.339 96.343 6.344 96.328 6.444C96.314 6.543 96.293 6.548 95.922 6.548C95.561 6.548 95.531 6.556 95.531 6.641C95.531 6.725 95.5 6.734 95.229 6.734C94.964 6.734 94.927 6.745 94.927 6.822C94.927 6.87 94.885 6.92 94.834 6.933C94.692 6.97 94.686 20.62 94.828 20.62C94.877 20.62 94.927 20.661 94.94 20.713C94.978 20.858 97.295 20.858 97.295 20.713C97.295 20.651 97.326 20.62 97.388 20.62C97.481 20.62 97.481 20.59 97.481 14.768V8.917H97.597C97.69 8.917 97.713 8.894 97.713 8.801V8.685H98.503C99.261 8.685 99.292 8.681 99.292 8.592C99.292 8.503 99.323 8.499 99.989 8.499C100.655 8.499 100.686 8.503 100.686 8.592C100.686 8.679 100.716 8.685 101.196 8.685H101.707V8.801C101.707 8.905 101.726 8.917 101.89 8.917C102.032 8.917 102.079 8.937 102.102 9.01C102.125 9.082 102.172 9.103 102.314 9.103C102.466 9.103 102.497 9.118 102.497 9.195C102.497 9.258 102.528 9.289 102.59 9.289C102.658 9.289 102.682 9.319 102.682 9.404C102.682 9.49 102.707 9.521 102.775 9.521C102.843 9.521 102.868 9.551 102.868 9.633C102.868 9.806 102.916 9.892 103.013 9.892C103.084 9.892 103.1 9.927 103.1 10.082C103.1 10.233 103.12 10.277 103.193 10.297C103.273 10.317 103.286 10.36 103.286 10.598C103.286 10.837 103.299 10.88 103.379 10.9C103.468 10.924 103.472 10.964 103.472 11.984C103.472 13.004 103.475 13.044 103.565 13.074C103.657 13.103 103.658 13.144 103.658 16.862V20.619H103.774C103.859 20.619 103.89 20.644 103.89 20.712C103.89 20.802 103.921 20.805 104.981 20.805C106.042 20.805 106.073 20.802 106.073 20.712C106.073 20.65 106.104 20.619 106.165 20.619C106.258 20.619 106.259 20.589 106.259 15.576C106.259 10.572 106.258 10.533 106.165 10.508C106.082 10.486 106.073 10.445 106.073 10.075C106.073 9.605 106.05 9.52 105.928 9.52C105.852 9.52 105.841 9.483 105.841 9.236C105.841 8.993 105.828 8.95 105.747 8.929C105.675 8.91 105.655 8.866 105.655 8.728C105.655 8.591 105.633 8.544 105.562 8.521C105.504 8.503 105.469 8.451 105.469 8.382C105.469 8.212 105.42 8.126 105.325 8.126C105.268 8.126 105.237 8.094 105.237 8.034C105.237 7.971 105.206 7.941 105.144 7.941C105.067 7.941 105.051 7.91 105.051 7.758C105.051 7.618 105.03 7.568 104.961 7.547C104.934 7.53661 104.909 7.52055 104.888 7.49986C104.867 7.47918 104.851 7.45435 104.841 7.427C104.832 7.40204 104.817 7.38018 104.796 7.36417C104.775 7.34816 104.749 7.33871 104.723 7.337C104.664 7.337 104.633 7.305 104.633 7.244C104.633 7.167 104.602 7.151 104.447 7.151C104.29 7.151 104.261 7.136 104.261 7.054C104.261 7.02657 104.253 6.99976 104.236 6.97784C104.22 6.95591 104.196 6.94013 104.17 6.933C104.143 6.92449 104.118 6.91 104.098 6.89061C104.077 6.87121 104.061 6.84742 104.051 6.821C104.03 6.754 103.979 6.733 103.84 6.733C103.689 6.733 103.658 6.717 103.658 6.64C103.658 6.564 103.627 6.547 103.483 6.547C103.346 6.547 103.298 6.525 103.262 6.443C103.224 6.355 103.175 6.336 102.954 6.325C102.74 6.313 102.688 6.295 102.668 6.22C102.646 6.136 102.601 6.13 102.06 6.13C101.506 6.13 101.475 6.125 101.475 6.037C101.475 5.946 101.444 5.944 100.198 5.944C98.952 5.944 98.921 5.947 98.921 6.038ZM12.911 6.431C12.911 6.516 12.887 6.547 12.818 6.547C12.675 6.547 12.671 20.567 12.814 20.605C12.8401 20.6133 12.8639 20.6277 12.8834 20.647C12.9029 20.6663 12.9175 20.6899 12.926 20.716C12.962 20.856 15.28 20.854 15.28 20.716C15.28 20.657 15.317 20.62 15.384 20.611L15.489 20.596L15.501 13.518C15.509 8.326 15.498 6.424 15.46 6.378C15.418 6.328 15.154 6.315 14.16 6.315H12.911V6.431ZM16.333 6.346C16.247 6.431 16.3 7.299 16.393 7.323C16.471 7.343 16.485 7.394 16.497 7.702C16.509 8.019 16.521 8.062 16.615 8.102C16.706 8.142 16.719 8.182 16.719 8.416C16.719 8.653 16.73 8.684 16.812 8.684C16.898 8.684 16.905 8.714 16.905 9.075C16.905 9.426 16.915 9.47 16.998 9.497C17.078 9.522 17.091 9.567 17.091 9.801C17.091 10.044 17.101 10.077 17.181 10.077C17.261 10.077 17.274 10.115 17.286 10.367C17.299 10.627 17.311 10.659 17.404 10.672C17.5 10.686 17.509 10.712 17.509 10.986C17.509 11.253 17.519 11.284 17.602 11.284C17.685 11.284 17.695 11.315 17.695 11.586C17.695 11.855 17.705 11.888 17.785 11.888C17.864 11.888 17.878 11.926 17.89 12.178C17.902 12.439 17.914 12.47 18.008 12.484C18.103 12.497 18.113 12.524 18.113 12.778C18.113 13.018 18.126 13.061 18.206 13.082C18.286 13.103 18.298 13.145 18.298 13.38C18.298 13.622 18.309 13.653 18.391 13.653C18.471 13.653 18.484 13.683 18.484 13.881C18.484 14.151 18.517 14.257 18.603 14.257C18.643 14.257 18.67 14.327 18.679 14.454C18.691 14.618 18.711 14.654 18.798 14.666C18.892 14.68 18.902 14.706 18.902 14.953C18.902 15.185 18.916 15.23 18.995 15.255C19.067 15.278 19.088 15.325 19.088 15.467C19.088 15.619 19.104 15.65 19.181 15.65C19.261 15.65 19.274 15.68 19.274 15.878C19.274 16.166 19.307 16.254 19.418 16.254C19.491 16.254 19.506 16.289 19.506 16.463C19.506 16.641 19.52 16.672 19.599 16.672C19.681 16.672 19.692 16.702 19.692 16.95C19.692 17.198 19.702 17.229 19.785 17.229C19.864 17.229 19.878 17.259 19.878 17.438C19.878 17.614 19.892 17.647 19.968 17.647C20.041 17.647 20.061 17.685 20.072 17.844C20.084 18.008 20.104 18.044 20.191 18.057C20.286 18.07 20.295 18.097 20.295 18.347C20.295 18.591 20.305 18.622 20.388 18.622C20.466 18.622 20.481 18.653 20.481 18.812C20.481 18.962 20.501 19.007 20.571 19.026C20.637 19.043 20.666 19.097 20.676 19.219C20.686 19.342 20.719 19.401 20.795 19.434C20.876 19.47 20.899 19.518 20.899 19.654C20.899 19.799 20.916 19.83 20.992 19.83C21.072 19.83 21.085 19.86 21.085 20.039C21.085 20.217 21.099 20.248 21.178 20.248C21.255 20.248 21.271 20.278 21.271 20.433V20.619H21.48C21.658 20.619 21.689 20.633 21.689 20.712C21.689 20.802 21.719 20.805 22.645 20.805C23.562 20.805 23.603 20.801 23.625 20.712C23.642 20.652 23.689 20.619 23.761 20.619C23.838 20.619 23.871 20.593 23.871 20.532C23.871 20.483 23.913 20.433 23.964 20.42C24.038 20.4 24.057 20.357 24.057 20.21C24.057 20.065 24.077 20.021 24.15 20.002C24.229 19.982 24.243 19.938 24.243 19.718C24.243 19.489 24.254 19.458 24.336 19.458C24.415 19.458 24.429 19.428 24.429 19.252C24.429 19.074 24.443 19.045 24.533 19.032C24.62 19.019 24.64 18.984 24.652 18.819C24.664 18.659 24.684 18.622 24.756 18.622C24.831 18.622 24.846 18.589 24.846 18.439C24.846 18.298 24.867 18.25 24.94 18.227C25.019 18.202 25.033 18.157 25.033 17.926C25.033 17.679 25.042 17.652 25.137 17.639C25.224 17.626 25.244 17.59 25.256 17.426C25.267 17.266 25.287 17.229 25.36 17.229C25.434 17.229 25.45 17.196 25.45 17.049C25.45 16.907 25.47 16.863 25.543 16.844C25.623 16.823 25.636 16.781 25.636 16.537C25.636 16.285 25.646 16.254 25.729 16.254C25.806 16.254 25.822 16.223 25.822 16.079C25.822 15.942 25.845 15.894 25.926 15.859C26.014 15.819 26.033 15.77 26.045 15.55C26.056 15.336 26.075 15.284 26.149 15.264C26.221 15.245 26.239 15.2 26.239 15.05C26.239 14.891 26.255 14.86 26.333 14.86C26.416 14.86 26.426 14.83 26.426 14.562C26.426 14.287 26.434 14.262 26.53 14.248C26.617 14.236 26.637 14.2 26.649 14.041C26.659 13.896 26.685 13.842 26.753 13.824C26.829 13.804 26.843 13.759 26.843 13.547C26.843 13.331 26.858 13.288 26.937 13.268C27.017 13.248 27.029 13.204 27.029 12.961C27.029 12.708 27.039 12.677 27.122 12.677C27.206 12.677 27.215 12.647 27.215 12.376C27.215 12.111 27.225 12.074 27.303 12.074C27.413 12.074 27.447 11.987 27.447 11.699C27.447 11.501 27.46 11.47 27.54 11.47C27.623 11.47 27.633 11.44 27.633 11.197C27.633 10.963 27.646 10.92 27.726 10.9C27.806 10.879 27.819 10.836 27.819 10.603C27.819 10.366 27.832 10.326 27.923 10.285C28.01 10.247 28.03 10.197 28.043 9.986C28.053 9.8 28.08 9.716 28.147 9.67C28.222 9.617 28.237 9.551 28.237 9.262C28.237 8.947 28.245 8.916 28.33 8.916C28.413 8.916 28.423 8.885 28.423 8.619C28.423 8.362 28.435 8.319 28.516 8.299C28.599 8.277 28.608 8.235 28.608 7.899C28.608 7.555 28.616 7.522 28.7 7.522C28.825 7.522 28.847 7.406 28.831 6.826L28.817 6.338H26.264L26.249 6.443C26.239 6.51 26.203 6.547 26.145 6.547C26.065 6.547 26.055 6.582 26.055 6.849C26.055 7.12 26.045 7.151 25.962 7.151C25.877 7.151 25.869 7.182 25.869 7.546C25.869 7.901 25.861 7.941 25.782 7.941C25.681 7.941 25.637 8.101 25.637 8.475C25.637 8.68 25.622 8.723 25.544 8.744C25.461 8.765 25.451 8.807 25.451 9.144C25.451 9.489 25.444 9.52 25.358 9.52C25.275 9.52 25.266 9.55 25.266 9.821C25.266 10.092 25.256 10.123 25.173 10.123C25.089 10.123 25.08 10.154 25.08 10.425C25.08 10.689 25.069 10.727 24.993 10.727C24.891 10.727 24.848 10.887 24.848 11.267C24.848 11.486 24.836 11.517 24.755 11.517C24.672 11.517 24.662 11.547 24.662 11.795C24.662 12.043 24.652 12.074 24.569 12.074C24.486 12.074 24.476 12.104 24.476 12.372C24.476 12.647 24.468 12.672 24.372 12.686C24.285 12.698 24.265 12.734 24.252 12.898C24.244 13.025 24.216 13.096 24.177 13.096C24.091 13.096 24.058 13.201 24.058 13.471C24.058 13.668 24.045 13.699 23.965 13.699C23.882 13.699 23.872 13.73 23.872 14.001C23.872 14.272 23.862 14.303 23.78 14.303C23.702 14.303 23.687 14.334 23.687 14.489C23.687 14.624 23.667 14.675 23.616 14.675C23.526 14.675 23.454 14.86 23.454 15.09C23.454 15.229 23.434 15.273 23.362 15.292C23.282 15.312 23.269 15.355 23.269 15.599C23.269 15.851 23.259 15.882 23.176 15.882C23.099 15.882 23.083 15.912 23.083 16.057C23.083 16.193 23.06 16.241 22.978 16.277C22.902 16.311 22.87 16.369 22.86 16.497C22.85 16.61 22.822 16.672 22.779 16.672C22.743 16.672 22.701 16.722 22.685 16.782C22.637 16.975 22.479 16.886 22.479 16.666C22.479 16.505 22.467 16.486 22.363 16.486C22.251 16.486 22.247 16.475 22.247 16.184C22.247 15.913 22.237 15.882 22.154 15.882C22.074 15.882 22.061 15.852 22.061 15.673C22.061 15.497 22.047 15.464 21.971 15.464C21.893 15.464 21.878 15.426 21.866 15.197C21.854 14.972 21.836 14.923 21.748 14.884C21.666 14.848 21.643 14.8 21.643 14.664C21.643 14.52 21.627 14.489 21.55 14.489C21.467 14.489 21.457 14.458 21.457 14.187C21.457 13.917 21.447 13.885 21.365 13.885C21.282 13.885 21.272 13.855 21.272 13.602C21.272 13.358 21.259 13.316 21.179 13.295C21.108 13.276 21.086 13.231 21.085 13.102C21.085 12.852 21.042 12.736 20.942 12.71C20.868 12.69 20.854 12.643 20.854 12.422C20.854 12.197 20.84 12.155 20.761 12.134C20.684 12.114 20.668 12.07 20.668 11.886C20.668 11.62 20.634 11.516 20.547 11.516C20.502 11.516 20.482 11.459 20.482 11.334C20.482 11.099 20.411 10.913 20.321 10.913C20.265 10.913 20.25 10.85 20.25 10.611C20.25 10.34 20.24 10.309 20.157 10.309C20.074 10.309 20.064 10.279 20.064 10.007C20.064 9.737 20.054 9.705 19.971 9.705C19.886 9.705 19.878 9.675 19.878 9.33C19.878 8.993 19.868 8.951 19.785 8.93C19.706 8.909 19.693 8.866 19.693 8.635C19.693 8.32 19.631 8.126 19.531 8.126C19.474 8.126 19.461 8.056 19.461 7.751C19.461 7.414 19.451 7.372 19.368 7.351C19.286 7.329 19.275 7.287 19.275 7.011C19.275 6.656 19.247 6.547 19.157 6.547C19.123 6.547 19.089 6.5 19.081 6.443L19.066 6.338L17.716 6.326C16.973 6.319 16.35 6.328 16.333 6.346ZM77.219 6.346C77.202 6.363 77.187 6.416 77.187 6.462C77.187 6.509 77.158 6.547 77.122 6.547C77.003 6.547 77.002 6.667 77.002 13.545C77.002 20.357 77.002 20.395 77.094 20.42C77.146 20.433 77.187 20.483 77.187 20.531C77.187 20.594 77.221 20.619 77.303 20.619C77.388 20.619 77.419 20.644 77.419 20.712C77.419 20.802 77.45 20.805 78.511 20.805C79.571 20.805 79.602 20.802 79.602 20.712C79.602 20.65 79.633 20.619 79.695 20.619C79.788 20.619 79.788 20.596 79.777 13.479L79.764 6.339L78.507 6.326C77.817 6.319 77.237 6.328 77.219 6.346ZM107.838 7.147C107.838 7.273 107.851 7.409 107.866 7.449C107.888 7.505 107.864 7.522 107.762 7.523H107.629L107.645 7.221C107.666 6.82 107.838 6.754 107.838 7.147ZM35.403 8.591C35.423 8.663 35.467 8.684 35.607 8.684C35.747 8.684 35.795 8.706 35.832 8.788C35.865 8.865 35.924 8.896 36.052 8.908C36.188 8.918 36.226 8.941 36.226 9.012C36.226 9.069 36.258 9.102 36.313 9.102C36.362 9.102 36.412 9.143 36.425 9.194C36.438 9.246 36.483 9.288 36.523 9.288C36.564 9.288 36.597 9.319 36.597 9.358C36.597 9.398 36.65 9.448 36.713 9.473C36.777 9.497 36.83 9.551 36.83 9.593C36.83 9.633 36.871 9.678 36.922 9.692C36.974 9.706 37.015 9.755 37.015 9.803C37.015 9.86 37.048 9.891 37.108 9.891C37.186 9.891 37.201 9.922 37.201 10.081C37.201 10.231 37.221 10.276 37.291 10.295C37.366 10.315 37.385 10.366 37.396 10.581C37.408 10.801 37.426 10.851 37.515 10.889C37.613 10.932 37.619 10.962 37.619 11.412V11.888H31.21V11.586C31.21 11.316 31.22 11.284 31.303 11.284C31.386 11.284 31.396 11.254 31.396 10.986C31.396 10.711 31.405 10.686 31.5 10.672C31.584 10.66 31.608 10.623 31.62 10.488C31.63 10.366 31.659 10.312 31.724 10.295C31.75 10.2876 31.773 10.2718 31.7892 10.2502C31.8055 10.2285 31.8142 10.2021 31.814 10.175C31.814 10.108 31.844 10.077 31.907 10.077C31.984 10.077 32 10.046 32 9.891C32 9.724 32.011 9.705 32.116 9.705C32.201 9.705 32.232 9.681 32.232 9.612C32.232 9.55 32.262 9.52 32.325 9.52C32.393 9.52 32.418 9.489 32.418 9.403C32.418 9.299 32.436 9.287 32.603 9.287C32.758 9.287 32.789 9.272 32.789 9.194C32.789 9.131 32.82 9.102 32.886 9.102C32.9133 9.10238 32.9399 9.09378 32.9618 9.07751C32.9836 9.06124 32.9995 9.03821 33.007 9.012C33.024 8.946 33.079 8.917 33.2 8.907C33.335 8.895 33.373 8.872 33.385 8.788C33.397 8.698 33.427 8.684 33.605 8.684C33.78 8.684 33.811 8.67 33.811 8.591C33.811 8.501 33.841 8.498 34.595 8.498C35.34 8.498 35.38 8.503 35.403 8.591ZM87.975 8.591C87.996 8.671 88.038 8.684 88.282 8.684C88.529 8.684 88.565 8.694 88.565 8.772C88.565 8.871 88.652 8.916 88.842 8.916C88.933 8.916 88.98 8.944 88.997 9.009C89.015 9.079 89.06 9.102 89.188 9.102C89.324 9.102 89.355 9.119 89.355 9.194C89.355 9.257 89.386 9.288 89.448 9.288C89.511 9.288 89.541 9.318 89.541 9.385C89.541 9.441 89.578 9.492 89.629 9.505C89.6552 9.51347 89.679 9.52805 89.6985 9.54752C89.718 9.56699 89.7325 9.5908 89.741 9.617C89.757 9.67 89.806 9.707 89.861 9.705C89.928 9.705 89.959 9.735 89.959 9.798C89.959 9.86 89.99 9.891 90.051 9.891C90.113 9.891 90.144 9.922 90.144 9.984C90.144 10.045 90.175 10.077 90.234 10.077C90.307 10.077 90.328 10.115 90.339 10.274C90.351 10.438 90.371 10.474 90.458 10.486C90.548 10.499 90.562 10.529 90.562 10.707C90.562 10.882 90.576 10.913 90.655 10.913C90.738 10.913 90.748 10.943 90.748 11.192C90.748 11.439 90.758 11.47 90.841 11.47C90.927 11.47 90.934 11.501 90.934 11.87C90.934 12.23 90.943 12.27 91.027 12.293C91.116 12.316 91.119 12.356 91.119 13.49C91.119 14.625 91.116 14.665 91.027 14.688C90.941 14.711 90.934 14.751 90.934 15.204C90.934 15.666 90.928 15.696 90.841 15.696C90.764 15.696 90.748 15.727 90.748 15.876C90.748 16.018 90.728 16.062 90.655 16.081C90.581 16.101 90.562 16.145 90.562 16.296C90.562 16.452 90.547 16.486 90.474 16.486C90.406 16.486 90.377 16.531 90.353 16.672C90.329 16.812 90.3 16.857 90.233 16.857C90.169 16.857 90.144 16.89 90.144 16.973C90.144 17.059 90.119 17.09 90.051 17.09C89.974 17.09 89.959 17.12 89.959 17.275C89.959 17.442 89.947 17.461 89.842 17.461C89.76 17.461 89.726 17.486 89.726 17.549C89.726 17.613 89.681 17.645 89.559 17.668C89.448 17.688 89.383 17.73 89.367 17.789C89.3603 17.8138 89.346 17.8358 89.326 17.852C89.3061 17.8681 89.2816 17.8776 89.256 17.879C89.2 17.879 89.169 17.912 89.169 17.972C89.169 18.05 89.138 18.065 88.979 18.065C88.828 18.065 88.784 18.084 88.765 18.158C88.745 18.231 88.701 18.251 88.556 18.251C88.41 18.251 88.366 18.271 88.347 18.344C88.323 18.433 88.283 18.436 87.329 18.436C86.367 18.436 86.336 18.434 86.336 18.344C86.336 18.26 86.305 18.251 86.034 18.251C85.763 18.251 85.732 18.241 85.732 18.158C85.732 18.098 85.701 18.065 85.645 18.065C85.596 18.065 85.546 18.023 85.533 17.972C85.515 17.902 85.47 17.879 85.345 17.879C85.211 17.879 85.179 17.86 85.167 17.775C85.1643 17.7441 85.1508 17.7151 85.1288 17.6932C85.1069 17.6712 85.0779 17.6577 85.047 17.655C84.98 17.645 84.943 17.608 84.943 17.551C84.943 17.492 84.911 17.461 84.85 17.461C84.788 17.461 84.757 17.431 84.757 17.368C84.757 17.308 84.726 17.275 84.667 17.275C84.61 17.275 84.572 17.238 84.563 17.171C84.5603 17.1402 84.547 17.1114 84.5252 17.0895C84.5035 17.0675 84.4747 17.0539 84.444 17.051C84.356 17.039 84.339 17.008 84.339 16.854C84.339 16.703 84.323 16.672 84.246 16.672C84.169 16.672 84.153 16.641 84.153 16.489C84.153 16.347 84.133 16.299 84.06 16.277C83.988 16.254 83.968 16.207 83.968 16.065C83.968 15.913 83.952 15.882 83.875 15.882C83.793 15.882 83.782 15.852 83.782 15.632C83.782 15.253 83.739 15.092 83.637 15.092C83.553 15.092 83.55 15.026 83.55 13.49C83.55 11.95 83.553 11.888 83.637 11.888C83.748 11.888 83.782 11.801 83.782 11.513C83.782 11.349 83.8 11.284 83.846 11.284C83.934 11.284 83.968 11.181 83.968 10.909C83.968 10.712 83.98 10.681 84.06 10.681C84.138 10.681 84.153 10.65 84.153 10.495C84.153 10.34 84.169 10.309 84.246 10.309C84.314 10.309 84.339 10.279 84.339 10.193C84.339 10.109 84.364 10.077 84.428 10.077C84.495 10.077 84.524 10.032 84.548 9.891C84.572 9.75 84.601 9.705 84.668 9.705C84.726 9.705 84.757 9.673 84.757 9.612C84.757 9.55 84.788 9.52 84.85 9.52C84.918 9.52 84.943 9.489 84.943 9.403C84.943 9.299 84.962 9.287 85.125 9.287C85.267 9.287 85.315 9.267 85.337 9.194C85.354 9.144 85.407 9.102 85.457 9.102C85.515 9.102 85.546 9.07 85.546 9.012C85.546 8.939 85.584 8.919 85.744 8.907C85.908 8.895 85.944 8.875 85.956 8.788C85.97 8.692 85.995 8.684 86.27 8.684C86.537 8.684 86.568 8.674 86.568 8.591C86.568 8.502 86.599 8.498 87.26 8.498C87.912 8.498 87.952 8.503 87.975 8.591Z" fill="#FCFCFC"/>
<path fill-rule="evenodd" clip-rule="evenodd" d="M47.959 11.734C47.942 11.752 47.928 11.833 47.928 11.914C47.928 12.025 47.904 12.071 47.835 12.088C47.762 12.108 47.742 12.152 47.742 12.298C47.742 12.443 47.722 12.488 47.649 12.506C47.569 12.527 47.556 12.57 47.556 12.814C47.556 13.066 47.546 13.096 47.464 13.096C47.387 13.096 47.371 13.127 47.371 13.271C47.371 13.408 47.348 13.456 47.266 13.491C47.193 13.524 47.157 13.585 47.146 13.699C47.138 13.791 47.093 13.886 47.042 13.922C46.972 13.97 46.952 14.04 46.952 14.237C46.952 14.459 46.942 14.49 46.86 14.49C46.777 14.49 46.767 14.52 46.767 14.792C46.767 15.082 46.763 15.094 46.651 15.094C46.547 15.094 46.535 15.112 46.535 15.274C46.535 15.415 46.515 15.459 46.442 15.479C46.362 15.499 46.349 15.542 46.349 15.786C46.349 16.038 46.339 16.069 46.256 16.069C46.176 16.069 46.163 16.099 46.163 16.278C46.163 16.456 46.15 16.487 46.071 16.487C45.988 16.487 45.977 16.517 45.977 16.754C45.977 16.987 45.964 17.028 45.873 17.068C45.785 17.106 45.766 17.156 45.755 17.376C45.743 17.591 45.725 17.642 45.65 17.662C45.573 17.682 45.56 17.727 45.56 17.969C45.56 18.221 45.55 18.251 45.467 18.251C45.383 18.251 45.374 18.282 45.374 18.554V18.855H45.788C46.263 18.855 46.349 18.833 46.349 18.711C46.349 18.634 46.385 18.623 46.632 18.623C46.876 18.623 46.918 18.61 46.939 18.53C46.96 18.45 47.003 18.437 47.241 18.437C47.48 18.437 47.522 18.424 47.543 18.345C47.563 18.265 47.606 18.252 47.837 18.252C48.08 18.252 48.109 18.242 48.127 18.147L48.147 18.042L48.154 18.147C48.16 18.244 48.182 18.252 48.462 18.252C48.733 18.252 48.764 18.262 48.764 18.345C48.764 18.428 48.794 18.437 49.066 18.437C49.336 18.437 49.368 18.447 49.368 18.53C49.368 18.616 49.398 18.623 49.759 18.623C50.129 18.623 50.152 18.629 50.166 18.728C50.179 18.824 50.207 18.833 50.54 18.846L50.9 18.859V18.462C50.9 18.097 50.893 18.066 50.807 18.066C50.724 18.066 50.714 18.035 50.714 17.764C50.714 17.493 50.705 17.462 50.622 17.462C50.539 17.462 50.529 17.432 50.529 17.179C50.529 16.937 50.515 16.893 50.438 16.873C50.364 16.853 50.345 16.801 50.333 16.587C50.323 16.367 50.303 16.317 50.215 16.278C50.133 16.242 50.111 16.194 50.111 16.058C50.111 15.914 50.094 15.883 50.018 15.883C49.934 15.883 49.925 15.852 49.925 15.581C49.925 15.311 49.915 15.279 49.832 15.279C49.755 15.279 49.739 15.249 49.739 15.097C49.739 14.861 49.668 14.676 49.578 14.676C49.526 14.676 49.507 14.626 49.507 14.49C49.507 14.335 49.491 14.304 49.414 14.304C49.332 14.304 49.321 14.274 49.321 14.021C49.321 13.777 49.308 13.735 49.228 13.714C49.155 13.694 49.136 13.65 49.136 13.504C49.136 13.359 49.116 13.315 49.042 13.296C48.97 13.276 48.95 13.232 48.95 13.091C48.95 12.93 48.937 12.911 48.833 12.911C48.722 12.911 48.718 12.9 48.718 12.609C48.718 12.338 48.708 12.307 48.625 12.307C48.545 12.307 48.532 12.277 48.532 12.098C48.532 11.924 48.517 11.889 48.444 11.889C48.396 11.889 48.346 11.848 48.333 11.796C48.308 11.704 48.035 11.658 47.959 11.734Z" fill="white"/>
</svg>
