<svg width="651" height="109" viewBox="0 0 651 109" fill="none" xmlns="http://www.w3.org/2000/svg">
<path d="M51.2025 36.6546L51.2559 75.8998L51.2105 100.022H82.3025L82.4398 26.0626L100.24 26.0906C103.632 18.5973 108.81 12.4613 115.773 7.74398C120.626 4.44407 125.916 1.83761 131.489 0H0L14.8253 25.9373L51.2039 26.0039L51.2025 36.6546ZM331.493 49.3945C325.282 44.9639 316.495 40.6612 304.269 40.6612L262.455 40.6066C257.793 40.7879 254.135 38.3186 254.141 35.8012C254.145 33.2746 255.635 29.1199 262.481 29.1199L327.402 29.2319L328.431 27.4133C328.436 27.4131 328.44 27.4131 328.445 27.4133L329.307 25.8666L329.295 25.8626L342.034 3.79465L264.857 3.77998C257.477 3.76931 251.142 4.48398 245.846 5.92664C241.457 7.13197 237.741 8.73864 234.687 10.744C234.127 11.1146 233.921 11.236 233.407 11.6306L233.422 11.6346C233.303 11.7213 233.179 11.7986 233.065 11.8866C242.482 19.6893 247.795 30.7439 248.919 44.8372C249.073 46.7679 249.151 48.7519 249.149 50.7919C249.139 54.4305 249.095 56.0612 248.599 59.3305C247.746 62.5652 252.683 64.3532 259.507 64.0852L301.321 64.1385C304.885 64.1732 311.649 64.5038 311.649 69.0932C311.649 73.1998 308.505 75.0158 305.362 75.7545C304.028 76.0603 302.664 76.2146 301.295 76.2145L262.631 76.1638L256.117 76.1465L205.227 76.0585L223.869 101.225L296.442 101.249C306.295 101.272 312.633 100.556 317.929 99.1077C322.995 97.7211 327.182 95.7558 330.518 93.2118C330.667 93.0971 330.827 92.9824 330.977 92.8638C331.737 92.2624 332.439 91.6238 333.111 90.9531C335.424 88.6433 337.232 85.8782 338.421 82.8331C339.98 78.8518 340.77 74.3891 340.775 69.4318C340.795 60.5012 337.698 53.8252 331.493 49.3945Z" fill="white"/>
<path d="M242.925 41.5559C241.146 28.8253 235.422 19.1693 225.761 12.5946C223.214 10.8613 220.379 9.32663 217.297 7.96797C205.971 2.96798 191.016 0.442659 172.402 0.407993C171.626 0.405326 170.877 0.418649 170.113 0.426649C169.417 0.433316 168.71 0.434658 168.02 0.447991H168.024C167.976 0.450658 167.929 0.447989 167.881 0.450656L167.888 0.454664L167.878 0.450656C146.342 0.895988 130.018 4.87998 118.929 12.3946C111.86 17.1879 106.912 23.6426 104.046 31.7479C102.101 37.2439 101.101 43.4972 101.09 50.5252C101.08 55.7345 101.61 60.5118 102.648 64.8892C104.44 72.4345 107.781 78.7411 112.694 83.8025C114.526 85.6858 116.543 87.3797 118.714 88.8584C129.874 96.5118 146.462 100.561 168.477 101.004V101.042L172.233 101.045L185.626 101.07L191.639 108.06L221.339 108.052L192.054 66.7052H161.648L169.016 75.6518L168.522 75.6678C162.562 75.5705 157.39 75.2585 153.042 74.7211C147.798 74.0811 143.552 72.8371 140.3 70.9878C137.053 69.1345 134.705 66.5878 133.252 63.3278C131.804 60.0705 131.081 55.8252 131.092 50.5772C131.1 46.1905 131.625 42.5039 132.656 39.5079C132.85 38.9292 133.064 38.3666 133.298 37.8386C134.765 34.5879 137.122 32.0679 140.378 30.2786C143.636 28.4906 147.882 27.2853 153.128 26.6626C158.373 26.0399 164.781 25.7359 172.354 25.7493C179.928 25.7613 186.338 26.0906 191.577 26.7346C196.821 27.3733 201.065 28.5959 204.314 30.3972C207.565 32.1999 209.915 34.7292 211.369 37.9826C212.815 41.2412 213.542 45.4865 213.529 50.7292C213.518 54.7865 213.073 58.2345 212.195 61.0985C211.939 61.9385 211.649 62.7305 211.315 63.4692C209.857 66.7212 207.498 69.2651 204.239 71.1025C204.147 71.1558 204.049 71.2038 203.953 71.2558L239.957 71.3158C240.086 71.0038 240.19 70.6732 240.31 70.3518C240.19 70.6718 240.577 69.7065 240.847 68.8798C242.617 63.5412 243.518 57.5185 243.53 50.7892C243.546 47.7014 243.344 44.6164 242.925 41.5572" fill="white"/>
<path d="M160.989 54.7905L158.617 53.1465L155.102 52.8185L154.576 53.6172L153.866 53.3959L153.517 52.1692L152.464 52.0985L152.901 50.9345L152.022 50.8572L151.138 51.5079L150.528 50.6879L151.057 49.2972L153.43 48.9665L153.866 50.1132L154.484 50.0372V48.9665L156.154 46.8412L158.268 45.7719L160.989 44.6292L159.057 40.6092L158.177 41.0999L157.476 39.3039L155.802 39.3799L155.365 42.5799L154.748 42.6599L152.194 40.1212L152.724 38.8066L155.365 38.3172L155.88 31.2172L153.784 31.4266L152.81 33.0946L151.412 33.4146L149.572 31.8092L147.072 31.9039L145.34 33.9746L143.757 35.3639L139.446 33.1546L137.073 34.4652L137.95 35.6972H136.978L136.72 36.5972L138.037 36.7586L136.72 37.7399L137.153 39.1372L138.302 39.3799L136.454 40.7746L139.357 39.4652L140.936 38.6466L143.49 40.1212L145.517 43.3172V46.1905L146.744 48.3145L148.764 51.2652L151.23 52.0852L152.288 52.5745L153.517 54.0492L154.376 53.9279L153.43 55.3638L154.218 58.3132L155.893 59.7038L153.866 67.3238L154.574 68.9638L156.596 69.4531L155.365 68.2265L157.036 65.2758L160.641 62.4065L160.905 61.0998L162.668 60.8478L164.425 57.4918L161.346 56.0998L160.989 54.7905ZM199.415 57.1358L199.238 58.6198L198.054 58.1665L198.27 57.3625L196.971 57.2452L195.285 58.9118L193.498 59.5985L193.933 62.1745L193.77 62.6905L194.421 63.0905L197.074 62.3945L198.097 63.0278L198.583 62.7385L198.913 63.7812L200.267 64.1825L201.237 63.5558L201.781 60.4625L200.319 58.9118L199.415 57.1358ZM192.866 54.8385L194.27 55.1292L194.926 53.0079L194.544 52.6599L192.648 53.9225L192.866 54.8385ZM173.126 33.1999L174.333 32.4266L173.324 30.4493L172.808 30.4666L172.328 32.6932L173.126 33.1999ZM199.997 65.5958L200.731 64.8172L199.404 64.5118L199.997 65.5958ZM201.037 56.3865L200.549 55.2932L198.333 54.1532L197.193 54.2652L198.654 55.8719L199.49 55.9305L199.846 55.5839L201.037 56.3865ZM199.846 41.2386H199.469L199.413 43.3052L198.441 45.4865L197.194 46.4599L197.141 47.3185L199.413 45.8852L199.525 44.3919L200.281 43.6452L199.683 43.1279L200.007 41.9292L199.846 41.2386ZM205.803 62.4558L205.993 64.2825L204.081 66.1758L205.315 66.3118L206.419 64.5438L207.281 63.3038L206.727 63.2412L205.803 62.4558ZM169.296 39.9719V41.6426L170.389 41.1359L170.7 40.6226L169.516 38.2092L168.816 38.7199L168.861 39.3652L168.202 40.2079L168.156 41.0879H168.946L169.296 39.9719ZM179.417 57.6092L179.369 59.4705L180.076 59.7892L180.776 57.5598L180.6 56.6345L179.417 57.6092Z" fill="white"/>
<path d="M180.296 45.4399L180.509 44.5505L180.029 43.2532L181.386 42.4652V43.1586L180.86 43.3946L181.302 44.0879L181.514 45.5279L180.296 45.4399ZM178.713 44.6466L177.752 44.3665L176.437 44.6012L176.13 43.9999L176.83 42.6932L179.113 43.9559L178.713 44.6466ZM205.206 37.7932L207.153 36.6492L206.61 35.0399L202.834 34.4759L200.252 34.8132L198.974 32.9999L196.877 33.5839L192.256 32.8906L189.368 30.9439L189.326 33.2213L184.578 33.2159L178.757 34.4092L174.601 33.5933L172.932 34.5706L172.276 36.2866L171.485 36.9399L171.441 38.3759L171.88 38.6546L172.798 38.0986L173.238 39.5826L174.025 39.2599L174.554 37.7706L174.026 37.1706L174.506 36.0559L175.077 35.3092L175.418 35.3679L175.101 36.2399L174.728 36.5172L174.866 36.8732L174.84 36.9306L174.885 36.9399L175.21 37.7706L176.13 37.4946L176.448 37.8919L175.428 38.2386L175.649 39.1186L174.992 38.8866L174.506 40.1879L172.798 40.1399L172.492 39.2106L172.098 39.7706L172.23 40.3746L171.614 40.4226L170.872 41.4879L169.512 41.9546L169.868 42.7452L170.432 43.7212L168.638 43.5826L168.726 45.4412L170.126 45.6706L171.046 44.1399L172.362 43.4359L172.932 44.1399L173.716 45.2519L174.289 44.5505L173.196 43.7692L173.15 43.0252L173.673 43.3012L174.553 44.0466L174.506 44.7839L175.166 45.6706L175.476 44.5505L175.828 44.7412L176.304 45.6252L177.789 45.8866L177.546 46.7505L176.989 47.1025L174.84 46.5145L174.296 47.3185L172.89 46.3425L172.676 45.3692L169.212 45.9999L167.428 48.2999L167.097 51.3985L168.944 53.2892L172.244 53.0585L173.213 56.2719L172.837 58.1105L174.405 62.1238L176.194 61.7825L177.981 58.2225L178.953 57.4198L178.685 54.9532L180.417 53.2892L180.957 51.2799L179.224 52.1399L177.454 47.8465L177.82 47.7785L179.553 51.3985L182.908 49.2719L181.77 48.3519L180.901 48.8159L180.361 47.4332L180.741 47.2092L181.497 47.8892L184.097 48.4092L185.174 49.7865L186.158 52.3679L186.913 51.5719V50.5932L189.025 49.0425L189.782 50.7652L190.405 50.5919L190.536 52.3159L191.186 53.5799L189.782 52.8292L190.809 54.3759L191.946 55.5225L194.653 56.0425L193.186 55.4159L192.106 55.0105L191.722 53.1705L190.861 52.1399L190.897 51.1052L191.89 52.1959L192.866 51.3372L191.946 49.9065L192.373 49.1532L194.38 49.0425L195.298 47.2612L194.653 45.3119L195.462 44.3919L196.058 45.2505L196.274 46.3425L196.977 45.9452L196.705 44.7372L197.308 43.8199L198.281 43.6452L199.413 40.3199L198.439 39.5772L199.79 38.1906L201.577 38.3106L203.039 37.0479L204.177 36.8786L202.335 39.2359L202.391 41.2959L203.798 39.4599L203.747 38.1372L205.206 37.7932ZM162.806 30.4346L160.69 29.9133L158.077 32.4453L161.44 40.3719L163.024 40.7346L163.154 38.1506L164.225 37.5586L164.29 36.5759L165.4 34.6826L164.626 33.2532L162.806 30.4346ZM578.391 10.628C576.313 10.628 574.665 9.05464 574.665 7.19198C574.665 5.25732 576.313 3.676 578.391 3.676C580.397 3.676 582.044 5.25732 582.044 7.19198C582.044 9.05464 580.397 10.628 578.391 10.628ZM364.599 17.436H370.619V54.3239H364.599V17.436ZM367.608 10.316C365.624 10.316 364.052 8.81065 364.052 7.03199C364.052 5.18266 365.624 3.676 367.608 3.676C369.524 3.676 371.103 5.18266 371.103 7.03199C371.103 8.81065 369.524 10.316 367.608 10.316ZM399.818 54.3239V27.8359C399.818 24.4133 398.38 20.6533 392.082 20.6533C388.66 20.6533 387.02 21.1293 385.104 21.9519V54.3252H379.083V19.352C382.367 17.7786 386.679 16.7493 392.566 16.7493C402.832 16.7493 405.84 22.4293 405.84 27.7013V54.3239H399.818ZM425.03 54.6652C418.327 54.6652 415.86 49.8705 415.86 45.3599V21.1999H411.62V17.436H415.86V9.98264L421.887 7.09866V17.436H428.316V21.1999H421.887V45.2199C421.887 48.1599 423.182 50.5572 426.536 50.5572C427.152 50.5572 427.699 50.4159 428.316 50.2865V54.1172C427.631 54.3239 426.536 54.6652 425.03 54.6652ZM447.687 20.6519C442.35 20.6519 438.382 24.9599 438.522 34.9532L456.175 32.2866C456.175 23.9359 452.958 20.6519 447.688 20.6519M438.727 38.1719C439.412 46.5199 443.31 50.6252 449.948 50.6252C454.126 50.6252 457.135 49.5985 459.05 48.5025L460.62 52.4719C458.363 53.8399 454.467 55.0052 449.468 55.0052C439.82 55.0052 433.044 48.9119 433.044 35.7746C433.044 23.2466 439.204 16.748 447.895 16.748C456.726 16.748 462.063 22.4959 461.922 34.8159L438.727 38.1719ZM488.077 21.4066C486.709 20.6533 484.933 20.3759 482.809 20.3759C475.348 20.3759 472.13 26.6053 472.13 36.3226C472.13 45.8319 475.214 51.1705 482.263 51.1705C484.588 51.1705 486.641 50.5572 488.076 49.6639L488.077 21.4066ZM479.727 67.7158C474.873 67.7158 470.764 66.6932 468.299 65.1852L470.151 61.1492C472.204 62.3145 475.42 63.3358 478.703 63.3358C485.48 63.3358 488.076 59.2292 488.076 53.6852V53.1599C486.439 54.1172 483.903 54.7292 480.685 54.7292C471.859 54.7292 466.179 47.7492 466.179 36.5266C466.179 24.8266 471.859 16.7493 482.944 16.7493C488.077 16.7493 491.776 17.984 493.895 19.3533V53.0065C493.895 62.3132 488.559 67.7158 479.727 67.7158ZM516.457 21.4066C513.443 20.5133 510.021 20.7853 508.036 22.0866V54.3252H502.016V19.4186C505.643 17.5706 509.128 16.612 517.889 16.8186L516.457 21.4066ZM541.02 33.3826C531.715 34.5439 526.172 36.5252 526.172 43.9866C526.172 49.3265 529.455 51.5145 534.929 51.5145C537.255 51.5145 539.512 51.1039 541.02 50.2879V33.3826ZM534.449 55.0039C524.869 55.0039 520.424 50.8305 520.424 44.1239C520.424 34.3386 529.592 31.4666 541.02 30.2986V28.0453C541.02 22.3653 537.599 20.7173 532.876 20.7173C529.317 20.7173 526.031 22.0213 523.977 23.0439L522.544 19.4893C524.664 18.3226 528.773 16.748 533.835 16.748C540.675 16.748 546.701 19.696 546.701 28.7239V52.4092C543.893 53.9799 539.584 55.0052 534.451 55.0052M564.636 54.6652C557.933 54.6652 555.468 49.8705 555.468 45.3599V21.1999H551.223V17.436H555.468V9.98264L561.488 7.09866V17.436H567.917V21.1999H561.488V45.2199C561.488 48.1599 562.785 50.5572 566.141 50.5572C566.756 50.5572 567.304 50.4159 567.917 50.2865V54.1172C567.237 54.3239 566.141 54.6652 564.637 54.6652M575.18 17.436H581.207V54.3239H575.18V17.436ZM602.669 20.5813C595.62 20.5813 594.255 28.4546 594.255 35.9119C594.255 43.3692 595.757 50.8305 602.668 50.8305C609.717 50.8305 611.018 43.3039 611.018 35.9106C611.018 28.5186 609.717 20.5813 602.669 20.5813ZM602.669 55.0039C592.608 55.0039 588.228 46.7239 588.228 35.9106C588.228 24.8946 592.675 16.7493 602.601 16.7493C612.728 16.7493 617.039 24.8946 617.039 35.9119C617.039 46.7239 612.66 55.0039 602.669 55.0039ZM644.461 54.3239V27.8359C644.461 24.4133 643.02 20.6519 636.724 20.6519C633.305 20.6519 631.66 21.1293 629.742 21.9519V54.3252H623.722V19.352C627.006 17.7786 631.318 16.748 637.209 16.748C647.473 16.748 650.482 22.4293 650.482 27.7013V54.3239H644.461ZM377.367 90.3824L373.618 81.0318L369.839 90.3811L377.367 90.3824ZM378.083 92.1998H369.123L366.807 97.9064H364.599L372.542 78.6051H374.691L382.607 97.9064H380.374L378.083 92.1998ZM395.468 97.0118C393.933 96.1743 392.663 94.9241 391.802 93.4024C390.93 91.8638 390.491 90.1531 390.491 88.2571C390.491 86.3464 390.923 84.6278 391.788 83.1025C392.639 81.5889 393.895 80.3423 395.415 79.5025C396.964 78.6291 398.755 78.1931 400.778 78.1931C401.916 78.1931 403.138 78.3825 404.444 78.7598C405.7 79.115 406.897 79.6493 408 80.3465L406.126 84.0398C405.381 83.5107 404.564 83.0921 403.699 82.7971C402.892 82.5136 402.044 82.365 401.188 82.3571C399.976 82.3571 398.916 82.6131 398.006 83.1278C397.121 83.6183 396.394 84.3504 395.91 85.2385C395.422 86.1318 395.18 87.1371 395.18 88.2571C395.18 89.3971 395.426 90.4131 395.923 91.3064C396.423 92.2015 397.17 92.9338 398.075 93.4158C399.012 93.9264 400.131 94.1838 401.438 94.1838C402.135 94.1838 402.914 94.0478 403.768 93.7718C404.618 93.5002 405.429 93.1212 406.182 92.6438L408 96.1718C406.93 96.8644 405.771 97.4072 404.554 97.7851C403.337 98.1482 402.074 98.3288 400.804 98.3211C398.819 98.3211 397.039 97.8864 395.468 97.0118ZM419.276 93.3598C419.828 92.7358 420.104 91.9531 420.104 91.0158C420.104 90.0958 419.828 89.3224 419.276 88.6998C418.726 88.0758 418.036 87.7598 417.21 87.7598C416.402 87.7598 415.722 88.0758 415.168 88.6998C414.619 89.3238 414.343 90.0958 414.343 91.0158C414.343 91.9531 414.619 92.7358 415.168 93.3598C415.722 93.9838 416.402 94.2971 417.21 94.2971C418.036 94.2971 418.726 93.9838 419.276 93.3598ZM413.448 97.3704C412.337 96.7584 411.416 95.8524 410.786 94.7518C410.142 93.6398 409.82 92.3918 409.82 91.0158C409.82 89.6544 410.138 88.4184 410.771 87.3064C411.394 86.2047 412.311 85.2976 413.419 84.6865C414.55 84.0531 415.814 83.7358 417.21 83.7358C418.606 83.7358 419.871 84.0531 421.002 84.6865C422.111 85.3009 423.031 86.2069 423.663 87.3064C424.306 88.4184 424.627 89.6531 424.627 91.0158C424.627 92.3931 424.306 93.6398 423.663 94.7518C423.032 95.8515 422.111 96.7572 421.002 97.3704C419.871 98.0037 418.606 98.3224 417.21 98.3224C415.831 98.3224 414.576 98.0024 413.448 97.3704ZM436.042 93.2224C436.594 92.6158 436.87 91.8624 436.87 90.9611C436.87 90.0584 436.594 89.3051 436.043 88.7011C435.79 88.4091 435.477 88.1761 435.124 88.0183C434.772 87.8605 434.389 87.7818 434.003 87.7878C433.176 87.7878 432.49 88.0878 431.95 88.6838C431.406 89.2824 431.136 90.0411 431.136 90.9611C431.136 91.8784 431.406 92.6384 431.95 93.2358C432.49 93.8304 433.176 94.1291 434.003 94.1291C434.811 94.1291 435.491 93.8291 436.043 93.2224M441.283 84.1478V97.1637C441.283 98.5064 440.983 99.7011 440.384 100.748C439.788 101.796 438.936 102.617 437.834 103.217C436.732 103.813 435.444 104.113 433.975 104.113C432.742 104.113 431.635 103.988 430.652 103.74C429.668 103.492 428.579 103.08 427.386 102.513L428.596 99.2597C429.572 99.7931 430.418 100.166 431.135 100.377C431.896 100.595 432.685 100.702 433.478 100.694C434.584 100.694 435.422 100.39 435.999 99.7837C436.579 99.1771 436.87 98.3571 436.87 97.3304V96.6131C436.369 97.0921 435.785 97.4753 435.147 97.7438C434.488 98.0202 433.779 98.1608 433.064 98.1571C431.814 98.1571 430.702 97.8624 429.728 97.2757C428.752 96.6878 427.99 95.8598 427.438 94.7931C426.887 93.7264 426.612 92.4944 426.612 91.0998C426.612 89.7358 426.887 88.4958 427.439 87.3758C427.99 86.2558 428.759 85.3678 429.742 84.7144C430.726 84.0624 431.884 83.7214 433.064 83.7358C433.854 83.7358 434.612 83.9065 435.342 84.2465C436.041 84.5682 436.665 85.0329 437.174 85.6105L437.754 84.1491L441.283 84.1478ZM455.703 84.4265C456.557 84.8752 457.265 85.559 457.743 86.3971C458.242 87.2504 458.488 88.2371 458.488 89.3611V97.9077H454.075V90.3531C454.075 89.4158 453.852 88.6798 453.4 88.1464C452.951 87.6171 452.34 87.3464 451.567 87.3464C450.759 87.3464 450.114 87.6238 449.638 88.1758C449.158 88.7264 448.922 89.4718 448.922 90.4091V97.9077H444.508V84.1478H448.011L448.535 85.7211C449.618 84.3971 451.046 83.7345 452.808 83.7345C453.875 83.7345 454.839 83.9651 455.702 84.4265M461.658 84.1491H466.069V97.9077H461.658V84.1491ZM462.046 81.7918C461.813 81.5877 461.628 81.335 461.504 81.0517C461.38 80.7683 461.319 80.4611 461.327 80.1518C461.327 79.4718 461.567 78.9091 462.046 78.4691C462.522 78.0265 463.128 77.8065 463.864 77.8065C464.598 77.8065 465.211 78.0265 465.699 78.4691C465.936 78.6795 466.124 78.9391 466.25 79.2298C466.376 79.5204 466.437 79.8351 466.428 80.1518C466.428 80.8131 466.184 81.3598 465.699 81.7918C465.211 82.2225 464.598 82.4398 463.864 82.4398C463.128 82.4398 462.522 82.2225 462.046 81.7918ZM480.602 94.5998V97.9091H468.855V95.4824L474.892 87.4838H469.159V84.1478H480.548V86.5744L474.482 94.6011L480.602 94.5998ZM490.444 94.4758C490.943 93.9691 491.189 93.3478 491.189 92.6144V92.2851C490.573 92.0926 489.931 91.9986 489.285 92.0064C488.44 92.0064 487.779 92.1398 487.301 92.4064C486.824 92.6731 486.581 93.0638 486.581 93.5811C486.581 94.0211 486.777 94.4078 487.163 94.7371C487.554 95.0711 488.055 95.2483 488.569 95.2344C489.323 95.2344 489.948 94.9811 490.444 94.4758ZM492.169 84.4531C493.088 84.9077 493.862 85.6095 494.404 86.4798C494.943 87.3531 495.216 88.3598 495.216 89.4984V97.9077H491.712L491.301 96.7224C490.197 97.7891 488.9 98.3224 487.412 98.3224C486.457 98.3224 485.596 98.1291 484.833 97.7424C484.102 97.3864 483.486 96.832 483.055 96.1424C482.632 95.4624 482.421 94.6931 482.421 93.8264C482.421 92.4104 482.972 91.3331 484.075 90.5878C485.177 89.8424 486.732 89.4718 488.735 89.4718C489.562 89.4659 490.387 89.5672 491.188 89.7731V89.1664C491.188 88.5584 490.908 88.0504 490.348 87.6371C489.788 87.2238 489.131 87.0171 488.377 87.0171C487.686 87.008 486.998 87.1051 486.336 87.3051C485.731 87.4984 485.029 87.8251 484.243 88.2838L483.136 85.3051C484.187 84.7198 485.141 84.3105 486.005 84.0825C486.869 83.8491 487.844 83.7358 488.925 83.7358C490.141 83.7358 491.223 83.9758 492.169 84.4531ZM509.525 84.4265C510.379 84.8755 511.087 85.5593 511.565 86.3971C512.063 87.2504 512.311 88.2371 512.311 89.3611V97.9077H507.896V90.3531C507.896 89.4158 507.673 88.6798 507.223 88.1464C506.773 87.6171 506.16 87.3464 505.389 87.3464C504.579 87.3464 503.936 87.6238 503.46 88.1758C502.98 88.7264 502.744 89.4718 502.744 90.4091V97.9077H498.331V84.1478H501.833L502.357 85.7211C503.44 84.3971 504.864 83.7345 506.631 83.7345C507.697 83.7345 508.661 83.9651 509.524 84.4265M517.632 97.0384C516.748 96.1851 516.308 95.0491 516.308 93.6358V87.4838H514.101V84.1478H516.309V80.0958H520.723V84.1491H523.864V87.4838H520.723V93.1664C520.723 93.6811 520.859 94.0864 521.135 94.3811C521.409 94.6718 521.797 94.8211 522.293 94.8211C522.699 94.8211 523.165 94.7384 523.699 94.5704L524.139 97.7171C523.714 97.9378 523.26 98.095 522.789 98.1837C522.252 98.2802 521.707 98.3257 521.161 98.3197C519.691 98.3197 518.517 97.8958 517.632 97.0398M537.761 96.9011C536.265 96.0605 535.033 94.8193 534.204 93.3171C533.356 91.8024 532.936 90.1038 532.936 88.2304C532.936 86.3371 533.353 84.6371 534.189 83.1291C535.008 81.6394 536.231 80.411 537.717 79.5851C539.235 78.7305 540.959 78.3038 542.888 78.3038C543.991 78.3038 545.123 78.4798 546.281 78.8265C547.413 79.1664 548.49 79.6685 549.479 80.3171L548.568 82.0825C547.766 81.505 546.878 81.0577 545.936 80.7571C545.006 80.451 544.034 80.2927 543.055 80.2878C541.492 80.2878 540.113 80.6305 538.92 81.3078C537.746 81.9672 536.784 82.9477 536.147 84.1345C535.493 85.3398 535.171 86.7038 535.171 88.2304C535.171 89.7371 535.499 91.1024 536.161 92.3264C536.808 93.5321 537.782 94.5301 538.972 95.2051C540.185 95.9051 541.593 96.2544 543.193 96.2544C544.112 96.2544 545.049 96.1024 546.005 95.7998C546.95 95.5017 547.842 95.0596 548.652 94.4891L549.536 96.1984C547.593 97.5219 545.295 98.224 542.944 98.2117C541.015 98.2117 539.287 97.7757 537.761 96.9011ZM560.731 95.6051C561.428 95.1558 561.975 94.5331 562.368 93.7438C562.764 92.9544 562.963 92.0731 562.963 91.0971C562.963 90.1238 562.764 89.2451 562.368 88.4638C561.999 87.7114 561.433 87.0729 560.731 86.6158C560.032 86.1666 559.217 85.9325 558.387 85.9425C557.556 85.9322 556.74 86.1664 556.041 86.6158C555.339 87.0735 554.772 87.7118 554.401 88.4638C554.005 89.2451 553.807 90.1238 553.807 91.0971C553.807 92.0731 554.005 92.9544 554.401 93.7438C554.769 94.5017 555.336 95.1452 556.041 95.6051C556.739 96.0565 557.555 96.2917 558.387 96.2811C559.249 96.2811 560.033 96.0571 560.731 95.6051ZM554.952 97.2878C553.934 96.6736 553.104 95.7912 552.553 94.7371C551.975 93.6518 551.685 92.4398 551.685 91.0971C551.685 89.7544 551.975 88.5464 552.553 87.4704C553.108 86.4232 553.937 85.5466 554.952 84.9344C555.972 84.3184 557.117 84.0105 558.387 84.0105C559.655 84.0105 560.797 84.3184 561.817 84.9344C562.836 85.5487 563.666 86.4305 564.219 87.4838C564.796 88.5691 565.084 89.7744 565.084 91.0971C565.084 92.4398 564.796 93.6518 564.219 94.7371C563.667 95.7916 562.837 96.6741 561.817 97.2878C560.797 97.9024 559.655 98.2117 558.387 98.2117C557.117 98.2117 555.972 97.9024 554.952 97.2878ZM586.524 84.6731C587.29 85.1188 587.912 85.7738 588.319 86.5611C588.748 87.3798 588.965 88.3398 588.965 89.4411V97.9077H586.868V89.8571C586.868 88.5704 586.553 87.5678 585.917 86.8518C585.283 86.1345 584.424 85.7758 583.339 85.7758C582.272 85.7758 581.405 86.1811 580.735 86.9891C580.063 87.7958 579.728 88.8638 579.728 90.1878V97.9077H577.631V89.8571C577.631 88.5704 577.316 87.5678 576.68 86.8518C576.045 86.1345 575.187 85.7758 574.101 85.7758C573.035 85.7758 572.168 86.1811 571.497 86.9891C570.825 87.7958 570.491 88.8638 570.491 90.1878V97.9077H568.395V84.3158H570.075L570.297 86.1611C570.775 85.4651 571.385 84.9304 572.131 84.5638C572.875 84.1944 573.725 84.0105 574.68 84.0105C575.692 84.0105 576.589 84.2478 577.369 84.7158C578.151 85.1858 578.771 85.8824 579.148 86.7131C579.584 85.8741 580.255 85.1802 581.079 84.7158C581.905 84.2478 582.86 84.0091 583.945 84.0091C584.9 84.0091 585.761 84.2318 586.524 84.6731ZM601.952 95.6051C602.632 95.1558 603.169 94.5331 603.565 93.7438C603.959 92.9544 604.156 92.0731 604.156 91.0971C604.156 90.1238 603.959 89.2398 603.565 88.4504C603.203 87.6972 602.646 87.0546 601.952 86.5891C601.283 86.1428 600.495 85.9074 599.69 85.9131C598.877 85.9044 598.079 86.1399 597.401 86.5891C596.709 87.0527 596.156 87.6962 595.803 88.4504C595.416 89.2398 595.223 90.1238 595.223 91.0971C595.223 92.0731 595.415 92.9544 595.803 93.7438C596.189 94.5331 596.723 95.1571 597.403 95.6051C598.08 96.0552 598.877 96.2908 599.69 96.2811C600.517 96.2811 601.269 96.0571 601.952 95.6051ZM603.246 84.9344C604.184 85.5518 604.926 86.3971 605.466 87.4704C606.008 88.5464 606.281 89.7544 606.281 91.0971C606.281 92.4398 606.012 93.6518 605.481 94.7371C604.948 95.8224 604.209 96.6718 603.261 97.2878C602.323 97.9005 601.224 98.2219 600.104 98.2117C597.88 98.2117 596.252 97.4491 595.224 95.9224V103.7H593.128V84.3158H594.81L595.113 86.4651C596.127 84.8304 597.78 84.0118 600.077 84.0118C601.255 84.0118 602.309 84.3198 603.246 84.9358M615.764 95.9091C616.354 95.5518 616.813 95.0798 617.144 94.4891C617.476 93.9024 617.641 93.2758 617.641 92.6131V91.8984C616.735 91.6398 615.798 91.5092 614.856 91.5104C613.513 91.5104 612.468 91.7318 611.725 92.1731C610.981 92.6131 610.609 93.2024 610.609 93.9384C610.609 94.6718 610.906 95.2758 611.506 95.7438C612.101 96.2131 612.85 96.4464 613.753 96.4464C614.506 96.4464 615.176 96.2664 615.764 95.9091ZM618.094 85.3344C619.094 86.2171 619.598 87.3944 619.598 88.8638V97.9091H617.916L617.694 96.2531C617.222 96.8769 616.608 97.3788 615.902 97.7171C615.205 98.0451 614.341 98.2104 613.309 98.2104C611.913 98.2104 610.761 97.8238 609.85 97.0544C608.94 96.2811 608.487 95.2811 608.487 94.0478C608.487 92.7438 609.028 91.7144 610.115 90.9611C611.197 90.2064 612.685 89.8278 614.58 89.8278C615.684 89.8278 616.704 89.9478 617.641 90.1864V89.1131C617.641 88.1571 617.296 87.3838 616.605 86.7971C615.916 86.2091 615.038 85.9131 613.972 85.9131C613.238 85.9038 612.507 86.016 611.809 86.2451C611.103 86.4923 610.438 86.8452 609.837 87.2918L609.285 85.5264C610.037 84.9931 610.807 84.6065 611.589 84.3705C612.368 84.1305 613.246 84.0105 614.222 84.0105C615.804 84.0105 617.094 84.4531 618.094 85.3344ZM633.054 84.7144C633.86 85.1818 634.519 85.8642 634.958 86.6851C635.417 87.5331 635.645 88.5038 635.645 89.6091V97.9064H633.55V90.0238C633.55 88.7171 633.209 87.6838 632.53 86.9184C631.849 86.1598 630.93 85.7771 629.773 85.7771C628.613 85.7771 627.674 86.2131 626.946 87.0864C626.217 87.9584 625.857 89.0571 625.857 90.3811V97.9064H623.764V84.3145H625.444L625.662 86.2718C626.16 85.5558 626.796 85.0011 627.58 84.6051C628.361 84.2064 629.258 84.0118 630.269 84.0118C631.318 84.0118 632.246 84.2464 633.054 84.7144ZM643.118 97.7984L637.548 84.3145H639.753L644.082 95.4811L648.3 84.3145H650.481L642.814 103.701H640.774L643.118 97.7984Z" fill="white"/>
</svg>
