<svg width="140" height="46" viewBox="0 0 140 46" fill="none" xmlns="http://www.w3.org/2000/svg">
<path fill-rule="evenodd" clip-rule="evenodd" d="M107.904 9.192C107.904 14.765 107.912 15.304 107.998 15.304C108.091 15.304 108.464 15.104 109.528 14.478C110.449 13.938 110.527 13.893 110.718 13.802C110.82 13.753 110.94 13.679 110.983 13.638C111.027 13.597 111.156 13.515 111.27 13.458C111.383 13.401 111.609 13.274 111.772 13.178C111.934 13.08 112.293 12.876 112.569 12.724C112.845 12.572 113.08 12.426 113.091 12.399C113.102 12.373 113.148 12.352 113.194 12.352C113.399 12.352 113.199 12.18 112.569 11.818C112.077 11.535 111.584 11.25 111.093 10.965L109.764 10.195C108.619 9.536 108.167 9.269 108.12 9.224C108.081 9.187 109.111 8.561 110.679 7.671C113.077 6.311 113.352 6.118 113.086 5.984C112.941 5.90682 112.798 5.82545 112.658 5.74C112.493 5.64086 112.326 5.54648 112.156 5.457C112.042 5.39976 111.934 5.33036 111.835 5.25C111.772 5.193 111.687 5.146 111.647 5.146C111.607 5.146 111.539 5.112 111.496 5.07C111.408 4.99948 111.312 4.9391 111.211 4.89C110.962 4.75643 110.716 4.61773 110.473 4.474C109.223 3.741 108.47 3.315 108.425 3.315C108.412 3.31474 108.399 3.30935 108.39 3.30001C108.381 3.29066 108.376 3.27809 108.376 3.265C108.376 3.207 108.111 3.079 107.989 3.079C107.915 3.079 107.904 3.886 107.904 9.192ZM118.57 3.122C118.47 3.222 118.534 12.187 118.634 12.149C118.689 12.128 118.975 11.969 119.269 11.796C120.055 11.332 120.844 10.873 121.635 10.419C121.862 10.289 122.441 9.956 122.92 9.676L123.791 9.168V15.255C123.791 21.027 123.785 21.339 123.687 21.302C123.588 21.265 122.832 20.832 120.336 19.38C118.59 18.365 118.609 18.376 118.509 18.376C118.399 18.376 118.364 27.432 118.474 27.5C118.505 27.519 118.631 27.484 118.754 27.423C119.109 27.245 119.562 26.98 119.637 26.907C119.674 26.87 119.794 26.804 119.902 26.76C119.982 26.7316 120.059 26.6926 120.129 26.644C120.158 26.608 121.114 26.064 121.458 25.888C121.534 25.8526 121.605 25.8061 121.667 25.75C121.684 25.725 121.795 25.663 121.914 25.614C122.032 25.564 122.145 25.498 122.165 25.466C122.185 25.434 122.313 25.354 122.449 25.288C122.615 25.207 122.777 25.118 122.934 25.02C123.089 24.9239 123.247 24.8326 123.407 24.746C123.537 24.677 123.656 24.603 123.673 24.582C123.689 24.562 123.815 24.495 123.953 24.434C124.091 24.373 124.204 24.304 124.204 24.282C124.204 24.259 124.324 24.192 124.47 24.131C124.616 24.071 124.736 24.004 124.736 23.983C124.736 23.963 124.842 23.898 124.972 23.839C125.102 23.78 125.208 23.715 125.208 23.694C125.208 23.674 125.328 23.607 125.474 23.547C125.62 23.487 125.74 23.419 125.74 23.396C125.74 23.373 125.859 23.306 126.005 23.246C126.151 23.185 126.271 23.118 126.271 23.096C126.271 23.074 126.353 23.022 126.453 22.98C126.554 22.939 126.667 22.875 126.705 22.838C126.742 22.801 126.893 22.712 127.039 22.64C127.185 22.568 127.544 22.364 127.836 22.187C128.129 22.01 128.487 21.81 128.632 21.743C128.777 21.675 128.909 21.599 128.927 21.573C128.944 21.548 129.171 21.411 129.431 21.27C129.691 21.128 129.917 20.996 129.933 20.975C130.003 20.926 130.079 20.887 130.16 20.859C130.268 20.815 130.388 20.749 130.427 20.714C130.506 20.643 130.698 20.529 131.144 20.29C131.306 20.203 131.452 20.116 131.469 20.095C131.5 20.057 131.829 19.872 132.177 19.696C132.291 19.639 132.397 19.575 132.413 19.553C132.43 19.531 132.576 19.442 132.738 19.354C132.901 19.267 133.14 19.131 133.27 19.052C133.4 18.974 133.599 18.862 133.713 18.805C133.827 18.747 133.933 18.686 133.949 18.668C133.982 18.633 134.466 18.351 135.248 17.912C135.395 17.83 135.528 17.748 135.544 17.73C135.56 17.711 135.666 17.65 135.78 17.593C135.95 17.505 136.117 17.412 136.282 17.313C136.457 17.209 136.635 17.109 136.814 17.011C136.944 16.941 137.063 16.865 137.079 16.843C137.149 16.7925 137.225 16.7525 137.306 16.724C137.414 16.681 137.536 16.611 137.578 16.57C137.619 16.529 137.747 16.447 137.862 16.387C137.977 16.327 138.302 16.147 138.584 15.984C138.866 15.821 139.221 15.621 139.373 15.538C139.754 15.33 139.738 15.213 139.294 14.972C138.566 14.577 138.467 14.52 138.438 14.482C138.369 14.4311 138.292 14.3907 138.211 14.362C138.116 14.3255 138.026 14.2757 137.945 14.214C137.907 14.177 137.664 14.03 137.404 13.888C137.232 13.7986 137.064 13.7009 136.902 13.595C136.818 13.5368 136.729 13.4863 136.636 13.444C136.544 13.4012 136.456 13.3517 136.371 13.296C136.286 13.2406 136.197 13.1911 136.105 13.148C136.012 13.1058 135.923 13.0556 135.839 12.998C135.806 12.961 135.452 12.76 134.776 12.394C134.533 12.262 134.303 12.123 134.265 12.084C134.184 12.0214 134.094 11.9709 133.998 11.934C133.886 11.8872 133.781 11.8246 133.687 11.748C133.624 11.69 133.54 11.643 133.499 11.643C133.459 11.643 133.388 11.605 133.342 11.559C133.256 11.4891 133.16 11.4325 133.057 11.391C132.865 11.2987 132.68 11.1938 132.502 11.077C132.319 10.9579 132.132 10.8458 131.941 10.741C131.792 10.6626 131.644 10.5809 131.498 10.496C131.155 10.295 130.81 10.096 130.464 9.9C130.296 9.80385 130.129 9.70618 129.963 9.607C129.833 9.53 129.633 9.417 129.52 9.355C129.155 9.161 128.723 8.903 128.693 8.863C128.6 8.79709 128.501 8.7408 128.397 8.695C128.233 8.61453 128.072 8.52814 127.914 8.436C127.404 8.13585 126.89 7.84249 126.372 7.556C126.281 7.50934 126.194 7.45515 126.112 7.394C126.019 7.32966 125.92 7.27441 125.817 7.229C125.727 7.19172 125.642 7.14406 125.563 7.087C125.45 7.00743 125.331 6.93624 125.208 6.874C125.029 6.77673 124.852 6.67605 124.677 6.572C124.541 6.49106 124.403 6.41435 124.263 6.342C124.179 6.30408 124.1 6.25713 124.027 6.202C123.943 6.13978 123.854 6.08522 123.761 6.039C123.563 5.93088 123.366 5.8202 123.171 5.707C123.005 5.61074 122.838 5.51805 122.668 5.429C122.605 5.39959 122.545 5.36266 122.491 5.319C122.319 5.20617 122.142 5.10204 121.96 5.007C121.692 4.85991 121.426 4.70957 121.162 4.556C120.829 4.36256 120.495 4.17222 120.159 3.985C119.769 3.767 119.436 3.571 119.42 3.549C119.328 3.48098 119.229 3.42267 119.125 3.375C119.021 3.32726 118.922 3.2686 118.83 3.2C118.783 3.135 118.609 3.083 118.57 3.122ZM94.615 39.519C94.615 45.149 94.625 45.897 94.704 45.897C94.752 45.897 94.792 45.873 94.792 45.844C94.792 45.815 94.892 45.747 95.014 45.693C95.135 45.639 95.501 45.438 95.826 45.247C96.527 44.835 97.175 44.461 98.693 43.594C99.025 43.404 99.355 43.214 99.684 43.02C99.803 42.947 100.007 42.832 100.137 42.762C100.267 42.693 100.495 42.566 100.644 42.48C100.793 42.394 101.032 42.26 101.176 42.183C101.319 42.105 101.45 42.021 101.466 41.996C101.483 41.971 101.609 41.906 101.747 41.85C101.884 41.795 101.997 41.728 101.997 41.702C101.997 41.676 102.09 41.623 102.204 41.586C102.317 41.548 102.43 41.485 102.455 41.445C102.479 41.405 102.588 41.336 102.697 41.292C102.805 41.248 102.925 41.184 102.964 41.148C103.049 41.07 103.406 40.868 103.769 40.693C103.915 40.623 104.048 40.545 104.064 40.523C104.081 40.499 104.187 40.433 104.301 40.375C104.415 40.317 104.521 40.253 104.537 40.232C104.553 40.212 104.68 40.145 104.817 40.084C104.956 40.023 105.069 39.953 105.069 39.927C105.069 39.902 105.158 39.852 105.268 39.817C105.765 39.652 105.75 39.485 105.216 39.211C105.121 39.1667 105.032 39.1113 104.95 39.046C104.934 39.022 104.801 38.942 104.655 38.869C104.551 38.8211 104.452 38.7628 104.36 38.695C104.287 38.6383 104.208 38.5903 104.124 38.552C103.775 38.377 103.446 38.192 103.415 38.153C103.305 38.0754 103.189 38.0062 103.069 37.946C102.871 37.8388 102.674 37.7288 102.479 37.616C102.33 37.5291 102.179 37.4445 102.027 37.362C101.857 37.268 101.69 37.17 101.525 37.067C101.353 36.9608 101.177 36.8627 100.996 36.773C100.91 36.7385 100.831 36.6913 100.759 36.633C100.742 36.607 100.515 36.471 100.255 36.329C100.083 36.24 99.9156 36.1429 99.753 36.038C99.6688 35.9801 99.5798 35.9296 99.487 35.887C99.3942 35.8445 99.3055 35.7936 99.222 35.735C99.1575 35.6861 99.0881 35.6439 99.015 35.609C98.598 35.395 97.71 34.881 97.641 34.815C97.5562 34.751 97.4617 34.701 97.361 34.667C97.247 34.627 97.154 34.575 97.154 34.554C97.154 34.534 97.048 34.468 96.918 34.41C96.788 34.351 96.682 34.283 96.682 34.258C96.682 34.233 96.562 34.167 96.416 34.111C96.27 34.055 96.151 33.987 96.151 33.959C96.151 33.931 96.124 33.908 96.091 33.908C96.057 33.908 95.918 33.835 95.781 33.747C95.6322 33.6518 95.4797 33.5624 95.324 33.479C95.1853 33.4069 95.0473 33.3336 94.91 33.259C94.8309 33.2118 94.7471 33.1729 94.66 33.143C94.635 33.141 94.615 36.01 94.615 39.519Z" fill="white"/>
<path fill-rule="evenodd" clip-rule="evenodd" d="M118.209 3.2C118.095 3.2766 117.977 3.34671 117.855 3.41C117.758 3.459 117.545 3.576 117.383 3.67L116.821 3.995L116.26 4.316C116.096 4.41041 115.93 4.49913 115.76 4.582C115.674 4.61776 115.594 4.66705 115.524 4.728C115.507 4.755 115.394 4.828 115.274 4.888C114.891 5.082 113.486 5.874 113.455 5.914C113.414 5.94972 113.366 5.97691 113.314 5.994C113.252 6.016 113.212 6.044 113.225 6.055C113.29 6.112 114.369 6.745 116.054 7.713L118.431 9.084C118.455 9.099 118.475 7.754 118.475 6.094C118.475 4.436 118.455 3.079 118.431 3.079C118.352 3.10835 118.277 3.14911 118.209 3.2ZM117.84 9.603C117.517 9.795 117.193 9.983 116.867 10.169C116.631 10.303 116.079 10.62 115.64 10.875C115.202 11.13 114.63 11.46 114.371 11.609C113.444 12.139 113.366 12.187 113.311 12.239C113.248 12.299 113.385 12.426 113.662 12.565C113.759 12.614 113.985 12.743 114.164 12.853C114.342 12.963 114.595 13.108 114.725 13.176C114.855 13.243 115.094 13.379 115.257 13.476C115.803 13.801 115.769 13.796 116.119 13.619C116.294 13.53 116.571 13.373 116.733 13.27C117.069 13.0667 117.408 12.8704 117.752 12.681L118.475 12.279V10.779C118.475 9.955 118.455 9.28 118.429 9.28C118.404 9.28 118.139 9.426 117.84 9.603Z" fill="white"/>
<path fill-rule="evenodd" clip-rule="evenodd" d="M112.008 6.895C111.326 7.298 110.702 7.664 110.62 7.707C109.815 8.137 108.083 9.187 108.12 9.224C108.167 9.269 108.619 9.535 109.764 10.195L111.093 10.964C113.415 12.311 113.271 12.244 113.496 12.086C113.565 12.038 113.856 11.862 114.144 11.695C114.69 11.375 115.238 11.058 115.788 10.743C117.044 10.023 118.078 9.423 118.286 9.297L118.481 9.177L118.257 9.043C117.96 8.864 116.797 8.188 115.877 7.658C114.162 6.672 113.537 6.308 113.427 6.231C113.277 6.127 113.424 6.058 112.008 6.895ZM122.905 9.678C122.365 9.996 121.823 10.312 121.281 10.626L119.952 11.394C119.643 11.574 119.199 11.829 118.964 11.962L118.538 12.204L118.505 18.341L118.83 18.514C119.008 18.61 119.686 18.998 120.336 19.377C122.513 20.649 123.583 21.263 123.687 21.302C123.785 21.339 123.791 21.027 123.791 15.252C123.791 11.902 123.784 9.164 123.776 9.167C123.768 9.17 123.376 9.4 122.905 9.677" fill="white"/>
<path fill-rule="evenodd" clip-rule="evenodd" d="M118.475 6.097V9.115L118.209 8.959C118.063 8.873 117.944 8.816 117.944 8.832C117.944 8.849 118.066 8.934 118.216 9.022L118.489 9.182L118.334 9.262C118.25 9.307 118.18 9.357 118.18 9.373C118.18 9.39 118.231 9.375 118.294 9.342C118.34 9.31466 118.389 9.2938 118.441 9.28C118.459 9.28 118.481 9.951 118.49 10.772C118.499 11.592 118.519 10.197 118.535 7.672C118.551 5.146 118.544 3.079 118.52 3.079C118.495 3.079 118.475 4.437 118.475 6.097ZM113.485 6.252C113.517 6.283 113.65 6.368 113.78 6.442C113.91 6.514 113.963 6.53 113.898 6.476C113.766 6.366 113.392 6.164 113.485 6.252ZM114.046 6.59C114.046 6.606 114.125 6.66 114.223 6.711C114.32 6.761 114.4 6.79 114.4 6.774C114.4 6.757 114.32 6.703 114.223 6.652C114.125 6.602 114.046 6.574 114.046 6.59ZM114.459 6.826C114.459 6.843 114.539 6.897 114.636 6.948C114.734 6.998 114.814 7.026 114.814 7.01C114.814 6.993 114.734 6.94 114.636 6.888C114.539 6.838 114.459 6.81 114.459 6.826ZM115.079 7.185C115.144 7.238 115.251 7.307 115.315 7.339L115.434 7.397L115.315 7.301C115.241 7.24216 115.162 7.19058 115.079 7.147L114.961 7.089L115.079 7.185ZM115.581 7.475C115.581 7.492 115.661 7.547 115.758 7.597C115.856 7.647 115.936 7.675 115.936 7.66C115.936 7.643 115.856 7.589 115.758 7.538C115.661 7.488 115.581 7.46 115.581 7.476M115.995 7.712C115.995 7.729 116.074 7.783 116.172 7.833C116.269 7.883 116.349 7.912 116.349 7.896C116.349 7.879 116.269 7.825 116.172 7.774C116.074 7.724 115.995 7.696 115.995 7.712ZM116.615 8.071C116.68 8.124 116.786 8.193 116.851 8.225L116.969 8.283L116.851 8.187C116.777 8.1286 116.698 8.07705 116.615 8.033L116.497 7.974L116.615 8.071ZM117.117 8.361C117.117 8.378 117.197 8.433 117.294 8.483C117.392 8.533 117.471 8.561 117.471 8.545C117.471 8.529 117.392 8.475 117.294 8.425C117.197 8.373 117.117 8.345 117.117 8.362M117.53 8.598C117.53 8.615 117.61 8.669 117.707 8.719C117.805 8.769 117.885 8.798 117.885 8.781C117.885 8.765 117.805 8.711 117.707 8.661C117.61 8.61 117.53 8.581 117.53 8.598ZM117.22 9.905C116.999 10.025 117.013 10.075 117.235 9.96C117.332 9.91 117.412 9.856 117.412 9.84C117.412 9.802 117.406 9.804 117.22 9.905ZM116.807 10.141C116.586 10.261 116.6 10.311 116.821 10.196C116.919 10.146 116.999 10.092 116.999 10.076C116.999 10.038 116.992 10.04 116.807 10.141ZM116.216 10.495C115.995 10.615 116.009 10.665 116.231 10.55C116.329 10.5 116.408 10.446 116.408 10.43C116.408 10.393 116.402 10.395 116.216 10.496M115.685 10.791C115.464 10.911 115.477 10.961 115.7 10.846C115.797 10.796 115.877 10.741 115.877 10.726C115.877 10.688 115.87 10.69 115.685 10.791ZM115.271 11.027C115.05 11.147 115.064 11.197 115.286 11.082C115.383 11.032 115.463 10.978 115.463 10.962C115.463 10.924 115.457 10.926 115.271 11.027ZM114.636 11.411L114.489 11.532L114.681 11.438C114.786 11.387 114.872 11.332 114.872 11.316C114.872 11.258 114.779 11.296 114.636 11.411ZM113.721 11.938C113.623 12.003 113.57 12.055 113.603 12.055C113.662 12.054 113.983 11.824 113.928 11.822C113.854 11.8519 113.785 11.8909 113.721 11.938Z" fill="white"/>
<path fill-rule="evenodd" clip-rule="evenodd" d="M100.048 12.204C100.048 15.702 100.009 15.452 100.516 15.136C100.665 15.043 101.039 14.824 101.348 14.649C101.656 14.474 101.952 14.303 102.004 14.271C102.056 14.239 102.229 14.139 102.388 14.049C102.515 13.978 102.64 13.905 102.765 13.831L103.238 13.551C103.449 13.428 103.635 13.313 103.651 13.296C103.667 13.278 103.794 13.214 103.932 13.153C104.07 13.093 104.183 13.026 104.183 13.005C104.183 12.985 104.256 12.936 104.345 12.898C104.524 12.82 105.095 12.494 105.312 12.345C105.479 12.23 105.429 12.145 105.088 11.968C104.998 11.9248 104.913 11.874 104.832 11.816C104.768 11.7671 104.699 11.7252 104.626 11.691C104.528 11.641 104.289 11.508 104.094 11.394C103.909 11.2858 103.723 11.1795 103.536 11.075C103.439 11.0243 103.347 10.9654 103.26 10.899C103.177 10.8395 103.087 10.7908 102.992 10.754C102.902 10.7196 102.816 10.6753 102.736 10.622C102.641 10.54 102.222 10.295 101.997 10.19C101.912 10.1553 101.832 10.1081 101.761 10.05C101.672 9.97715 101.574 9.91475 101.471 9.864C101.119 9.67153 100.77 9.47216 100.426 9.266C100.275 9.176 100.128 9.103 100.1 9.103C100.071 9.103 100.048 10.475 100.048 12.204ZM118.032 12.567C117.773 12.717 117.48 12.887 117.383 12.947C117.285 13.007 116.96 13.19 116.661 13.356C116.361 13.522 116.1 13.683 116.081 13.713C116.062 13.743 115.968 13.769 115.872 13.769C115.708 13.769 115.043 14.094 115 14.195C114.99 14.221 114.962 14.241 114.938 14.241C114.902 14.241 114.022 14.736 113.41 15.101C113.125 15.271 113.258 15.441 113.928 15.758C114.018 15.801 115.125 16.441 115.286 16.543C115.724 16.8036 116.168 17.0563 116.615 17.301C116.712 17.351 116.805 17.41 116.821 17.431C116.838 17.453 117.085 17.601 117.371 17.761C117.657 17.921 117.989 18.109 118.109 18.179C118.569 18.449 118.534 18.681 118.534 15.304C118.534 13.648 118.528 12.294 118.52 12.294C118.511 12.295 118.292 12.418 118.032 12.567ZM28.969 14.952C28.872 15.012 28.553 15.197 28.261 15.362C27.968 15.526 27.623 15.727 27.493 15.807C27.363 15.887 27.17 15.998 27.065 16.053L26.873 16.153V21.778C26.873 24.871 26.889 27.444 26.908 27.496C26.955 27.616 29.222 27.638 29.341 27.518C29.391 27.468 29.412 27.131 29.412 26.381V25.315L29.684 25.02C29.8112 24.8836 29.9314 24.7407 30.044 24.592C30.151 24.435 30.229 24.422 30.28 24.555C30.3 24.609 30.42 24.801 30.547 24.984C30.674 25.166 30.832 25.402 30.898 25.507C30.964 25.613 31.042 25.699 31.072 25.699C31.101 25.699 31.125 25.726 31.125 25.759C31.125 25.793 31.232 25.973 31.362 26.159C31.492 26.344 31.722 26.683 31.874 26.909C32.369 27.655 32.194 27.589 33.677 27.589C35.215 27.589 35.171 27.619 34.657 26.913C34.498 26.6991 34.3475 26.4789 34.206 26.253C34.162 26.172 34.089 26.091 34.043 26.073C33.997 26.056 33.96 26.013 33.96 25.979C33.96 25.945 33.887 25.822 33.797 25.706C33.719 25.6058 33.6452 25.5024 33.576 25.396C33.4428 25.1989 33.3051 25.0048 33.163 24.814C33.003 24.599 32.849 24.381 32.699 24.159C32.639 24.064 32.566 23.986 32.537 23.986C32.507 23.986 32.483 23.956 32.483 23.918C32.483 23.881 32.402 23.741 32.303 23.608C31.674 22.765 31.617 22.663 31.713 22.558C31.763 22.503 31.874 22.37 31.96 22.263C32.126 22.054 32.749 21.309 32.897 21.141C32.946 21.086 33.058 20.953 33.147 20.845L33.435 20.502L33.775 20.091C33.892 19.946 34.029 19.785 34.078 19.732C34.127 19.68 34.246 19.537 34.344 19.414C34.441 19.291 34.561 19.149 34.609 19.098C34.819 18.878 35.081 18.518 35.081 18.449C35.081 18.392 34.755 18.376 33.64 18.376H32.198L32.028 18.597C31.935 18.719 31.819 18.876 31.772 18.945C31.725 19.015 31.526 19.277 31.332 19.528C31.142 19.773 30.955 20.019 30.771 20.268C30.588 20.518 30.03 21.258 29.902 21.418C29.876 21.45 29.749 21.618 29.619 21.79L29.383 22.104L29.367 18.468C29.351 14.427 29.381 14.694 28.969 14.952ZM61.012 14.926C60.899 14.975 60.792 15.037 60.775 15.064C60.758 15.092 60.651 15.159 60.537 15.213C60.367 15.298 60.199 15.388 60.035 15.484C59.873 15.58 59.646 15.706 59.533 15.764C59.419 15.821 59.211 15.943 59.071 16.034L58.816 16.197L58.839 21.081C58.863 26.303 58.865 26.335 59.159 26.808C59.303 27.038 59.689 27.398 59.844 27.446C59.916 27.468 59.99 27.509 60.008 27.536C60.121 27.712 62.276 27.703 62.453 27.526C62.4997 27.49 62.557 27.4706 62.616 27.471C62.714 27.471 62.722 27.396 62.722 26.518V25.565L62.353 25.602C61.89 25.649 61.572 25.565 61.437 25.359C61.342 25.214 61.333 24.829 61.318 20.017C61.309 17.166 61.283 14.833 61.258 14.835C61.1736 14.8579 61.0913 14.889 61.012 14.926ZM76.395 14.949C76.265 15.013 76.052 15.131 75.922 15.212C75.792 15.293 75.566 15.417 75.42 15.488C75.3165 15.5328 75.2177 15.5877 75.125 15.652C75.109 15.672 74.989 15.742 74.86 15.807C74.73 15.872 74.591 15.957 74.55 15.995C74.4924 16.0423 74.4267 16.0785 74.356 16.102C74.239 16.139 74.238 16.186 74.254 21.85L74.268 27.56H76.69L76.722 25.357L77.129 24.924L77.535 24.491L77.66 24.637C77.729 24.717 77.825 24.857 77.874 24.947C77.923 25.036 77.989 25.109 78.02 25.109C78.0356 25.1095 78.0503 25.1161 78.0611 25.1273C78.072 25.1385 78.078 25.1534 78.078 25.169C78.078 25.203 78.185 25.382 78.315 25.568C78.445 25.754 78.677 26.092 78.829 26.32C78.98 26.547 79.246 26.926 79.419 27.161L79.733 27.589H81.033C82.601 27.589 82.623 27.567 81.891 26.748C81.841 26.691 81.798 26.624 81.798 26.6C81.798 26.576 81.712 26.444 81.606 26.307C81.4895 26.1549 81.3765 26.0002 81.267 25.843C81.1929 25.734 81.1141 25.6283 81.031 25.526C80.9779 25.464 80.9285 25.3988 80.883 25.331C80.607 24.901 80.413 24.636 80.371 24.636C80.344 24.636 80.322 24.608 80.322 24.574C80.322 24.539 80.236 24.394 80.13 24.251C80.0145 24.0943 79.9011 23.9359 79.79 23.776C79.7161 23.6671 79.6377 23.5614 79.555 23.459C79.5016 23.3962 79.4521 23.33 79.407 23.261C79.3341 23.1493 79.2588 23.0393 79.181 22.931C78.991 22.666 79 22.63 79.337 22.244C79.45 22.114 79.857 21.636 80.242 21.182C80.504 20.872 80.767 20.564 81.031 20.256C81.5166 19.6918 81.9947 19.121 82.465 18.544L82.571 18.405L81.138 18.39C79.455 18.37 79.642 18.327 79.267 18.829C79.101 19.051 78.924 19.285 78.873 19.35C78.822 19.415 78.623 19.68 78.429 19.941C78.237 20.201 78.038 20.466 77.988 20.531L77.544 21.106C77.35 21.356 77.192 21.576 77.192 21.593C77.1707 21.6429 77.1402 21.6884 77.102 21.727C77.052 21.784 76.947 21.911 76.867 22.008L76.723 22.185L76.721 18.509C76.721 16.487 76.699 14.833 76.675 14.834C76.651 14.834 76.525 14.886 76.395 14.949ZM0.04 15.226C0.018 15.247 0 15.739 0 16.318V17.372H3.072V27.472H5.612V17.372H7.142C8.482 17.372 8.675 17.36 8.706 17.278C8.753 17.157 8.753 15.402 8.706 15.28C8.669 15.183 0.137 15.13 0.0410001 15.226M40.632 17.372H43.645V27.472H46.244V17.372H49.314V15.187H40.633L40.632 17.372ZM10.157 18.258H12.637V16.308H10.157V18.258ZM13.997 18.258H16.477V16.308H13.997V18.258ZM87.585 17.726C87.537 17.758 87.385 17.784 87.25 17.784C86.965 17.785 86.178 17.941 86.084 18.015C86.049 18.043 85.914 18.098 85.784 18.139C85.654 18.18 85.508 18.246 85.459 18.285C85.411 18.324 85.271 18.402 85.149 18.457C85.028 18.513 84.928 18.582 84.928 18.611C84.928 18.639 84.877 18.68 84.814 18.699C84.224 18.886 83.048 20.566 82.859 21.489C82.821 21.677 82.759 21.894 82.723 21.97C82.634 22.157 82.633 23.63 82.722 23.815C82.759 23.893 82.822 24.112 82.86 24.3C82.948 24.732 83.363 25.627 83.63 25.961C83.868 26.261 84.753 27.109 84.863 27.144C84.931 27.166 84.987 27.206 84.987 27.234C84.987 27.26 85.107 27.331 85.252 27.392C85.399 27.452 85.518 27.518 85.518 27.54C85.518 27.562 85.658 27.625 85.828 27.681C85.999 27.737 86.165 27.802 86.198 27.827C86.544 28.09 89.476 28.089 89.476 27.827C89.476 27.801 89.558 27.765 89.658 27.745C90.728 27.531 92.433 25.838 92.698 24.725C92.7158 24.6408 92.7465 24.5599 92.789 24.485C93.058 24.14 93.051 21.329 92.782 21.329C92.757 21.329 92.718 21.231 92.696 21.111C92.529 20.219 91.378 18.899 90.273 18.331C89.593 17.982 89.383 17.911 88.856 17.843C88.6057 17.8132 88.3568 17.7724 88.11 17.721C87.84 17.652 87.697 17.654 87.585 17.726ZM52.188 18.2C51.932 18.224 51.666 18.27 51.597 18.304C51.527 18.336 51.304 18.41 51.101 18.467C50.898 18.525 50.731 18.591 50.731 18.615C50.731 18.639 50.672 18.673 50.599 18.692C49.357 19.009 48.081 21.182 48.081 22.982C48.081 25.08 49.491 26.986 51.356 27.412C51.516 27.449 51.693 27.503 51.748 27.532C52.074 27.707 54.6 27.712 54.833 27.539C54.868 27.513 55.082 27.459 55.309 27.417C55.537 27.375 55.816 27.296 55.929 27.24C56.043 27.185 56.249 27.104 56.386 27.06C56.532 27.013 56.65 26.934 56.671 26.868C56.706 26.758 56.53 26.172 56.461 26.172C56.442 26.172 56.377 26.025 56.316 25.847C56.255 25.668 56.187 25.522 56.166 25.522C56.143 25.522 56.09 25.416 56.047 25.286C55.972 25.058 55.81 24.966 55.725 25.105C55.706 25.135 55.538 25.203 55.352 25.255C55.166 25.307 54.961 25.375 54.896 25.405C54.546 25.566 53.339 25.667 52.763 25.582C51.767 25.435 50.988 24.78 50.768 23.902L50.73 23.75H57.108L57.146 23.598C57.207 23.355 57.141 21.443 57.07 21.398C57.035 21.376 56.988 21.238 56.965 21.093C56.942 20.946 56.832 20.633 56.721 20.396C56.514 19.954 56.488 19.914 56.21 19.603C56.12 19.503 56.047 19.405 56.047 19.386C56.047 19.226 54.973 18.548 54.541 18.435C54.4164 18.4067 54.2955 18.3637 54.181 18.307C54.113 18.256 53.072 18.137 52.799 18.149C52.595 18.163 52.391 18.18 52.188 18.2ZM67.602 18.202C67.348 18.23 67.108 18.277 67.071 18.306C67.034 18.335 66.881 18.388 66.731 18.425C66.471 18.488 65.736 18.822 65.674 18.904C65.5978 18.9681 65.5157 19.025 65.429 19.074C64.922 19.382 64.096 20.474 63.951 21.026C63.9147 21.1593 63.8693 21.29 63.815 21.417C63.529 22.056 63.57 24.036 63.883 24.635C63.9223 24.7065 63.9487 24.7843 63.961 24.865C63.961 24.983 64.3 25.567 64.547 25.877C64.872 26.284 65.349 26.724 65.577 26.829C65.663 26.868 65.733 26.916 65.733 26.936C65.733 26.956 65.866 27.024 66.029 27.087C66.191 27.15 66.324 27.22 66.324 27.243C66.324 27.265 66.53 27.332 66.782 27.39C67.033 27.448 67.252 27.515 67.27 27.538C67.394 27.713 70.13 27.705 70.305 27.53C70.337 27.497 70.425 27.471 70.502 27.471C70.685 27.471 71.424 27.287 71.462 27.231C71.478 27.208 71.598 27.159 71.728 27.124C72.224 26.99 72.31 26.848 72.114 26.479C72.018 26.29 71.928 26.099 71.843 25.906C71.469 25.053 71.373 24.919 71.26 25.102C71.242 25.131 71.047 25.202 70.828 25.261C70.608 25.319 70.415 25.385 70.399 25.408C70.365 25.454 69.729 25.56 69.159 25.614C67.691 25.754 66.32 24.878 66.266 23.766C66.266 23.758 67.693 23.744 69.439 23.736L72.614 23.721L72.631 22.776C72.647 21.869 72.549 21.004 72.41 20.827C72.3596 20.7364 72.3194 20.6405 72.29 20.541C72.115 19.998 71.282 19.017 70.777 18.759C70.686 18.7161 70.599 18.6653 70.517 18.607C70.472 18.553 69.92 18.376 69.798 18.376C69.738 18.376 69.69 18.352 69.69 18.322C69.69 18.208 68.28 18.126 67.602 18.202ZM98.753 18.206C98.577 18.236 98.404 18.283 98.369 18.312C98.2728 18.3647 98.1698 18.4041 98.063 18.429C97.9267 18.466 97.7985 18.528 97.685 18.612C97.61 18.677 97.523 18.73 97.491 18.73C97.459 18.73 97.292 18.877 97.119 19.057L96.805 19.384L96.737 19.131C96.7118 19.0228 96.6735 18.918 96.623 18.819C96.5808 18.7404 96.5511 18.6557 96.535 18.568L96.495 18.376H94.614V27.412H97.09L97.124 21.358L97.281 21.06C97.803 20.066 99.272 19.865 99.735 20.723C99.792 20.829 99.855 20.915 99.877 20.915C99.981 20.915 100.008 21.482 100.041 24.4L100.077 27.56L101.25 27.576C102.066 27.586 102.449 27.571 102.506 27.524C102.573 27.468 102.587 26.948 102.587 24.551C102.587 21.45 102.609 21.184 102.888 20.882C102.95 20.815 103.001 20.735 103.002 20.705C103.007 20.603 103.542 20.308 103.819 20.255C104.492 20.125 105.159 20.415 105.344 20.915C105.398 21.061 105.464 21.21 105.491 21.245C105.517 21.281 105.546 22.716 105.554 24.435L105.569 27.56H107.991L108.007 24.43C108.022 21.485 107.989 20.607 107.853 20.416C107.791 20.2865 107.739 20.1524 107.698 20.015C107.638 19.828 107.567 19.675 107.543 19.675C107.517 19.675 107.48 19.621 107.459 19.555C107.396 19.358 106.826 18.754 106.647 18.696C106.591 18.678 106.544 18.642 106.544 18.616C106.544 18.59 106.418 18.524 106.264 18.469C106.131 18.4231 106.002 18.3696 105.875 18.309C105.548 18.131 103.863 18.132 103.622 18.31C103.523 18.3603 103.418 18.3995 103.31 18.427C102.891 18.547 102.377 18.936 102.031 19.395C101.844 19.643 101.784 19.665 101.733 19.507C101.654 19.257 100.752 18.441 100.55 18.436C100.47 18.417 100.393 18.3867 100.322 18.346C99.978 18.167 99.335 18.11 98.753 18.206ZM24.096 18.313C24.046 18.34 23.834 18.394 23.623 18.433C23.073 18.533 22.573 18.866 22.277 19.327L22.149 19.527L22.147 18.376H19.784V22.889C19.784 25.371 19.801 27.444 19.82 27.496C19.867 27.616 22.133 27.638 22.253 27.518C22.306 27.465 22.324 26.841 22.325 25.082C22.327 22.593 22.345 22.374 22.599 21.89C22.989 21.146 23.575 20.814 24.62 20.746L25.188 20.708V18.288L24.686 18.275C24.41 18.268 24.144 18.285 24.096 18.313ZM9.331 22.203C9.331 24.677 9.368 25.428 9.503 25.611C9.527 25.643 9.593 25.796 9.65 25.951C9.707 26.104 9.778 26.231 9.808 26.231C9.838 26.231 9.862 26.268 9.862 26.313C9.862 26.423 10.522 27.093 10.682 27.143C10.751 27.166 10.807 27.205 10.807 27.231C10.807 27.256 10.96 27.325 11.147 27.383C11.333 27.44 11.514 27.509 11.548 27.536C11.77 27.709 13.495 27.713 13.724 27.541C13.76 27.514 13.917 27.445 14.072 27.387C14.242 27.324 14.494 27.15 14.705 26.949C15.101 26.572 15.095 26.569 15.243 27.146C15.359 27.599 15.347 27.594 16.371 27.576L17.274 27.56L17.304 19.557H14.882V21.887C14.882 23.253 14.859 24.273 14.825 24.353C14.7775 24.4779 14.7375 24.6054 14.705 24.735C14.392 25.982 12.573 26.219 11.989 25.089L11.811 24.744V19.557H9.331V22.203ZM88.767 20.27C90.345 20.817 91.105 22.711 90.347 24.204C90.178 24.537 89.618 25.227 89.517 25.227C89.497 25.227 89.354 25.307 89.2 25.404C89.047 25.501 88.88 25.581 88.829 25.581C88.7341 25.5971 88.643 25.6303 88.56 25.679C88.36 25.788 87.253 25.824 87.183 25.724C87.161 25.692 86.99 25.619 86.803 25.562C86.616 25.504 86.463 25.434 86.463 25.405C86.463 25.376 86.407 25.335 86.337 25.313C86.006 25.208 85.373 24.437 85.223 23.957C85.1909 23.8461 85.1445 23.7399 85.085 23.641C85.001 23.535 84.997 22.376 85.081 22.268C85.117 22.222 85.191 22.045 85.246 21.873C85.353 21.535 85.387 21.487 85.876 20.977C86.573 20.25 87.826 19.943 88.767 20.27ZM53.434 20.263C54.104 20.39 54.661 21.015 54.774 21.768L54.814 22.038H52.774C50.449 22.038 50.623 22.088 50.904 21.485C51.344 20.548 52.357 20.059 53.434 20.263ZM68.968 20.268C69.558 20.404 70.062 20.909 70.203 21.506C70.341 22.095 70.551 22.037 68.266 22.037H66.25L66.288 21.847C66.507 20.755 67.793 19.998 68.968 20.268ZM79.672 33.141C79.672 35.309 79.685 35.74 79.753 35.74C79.866 35.74 80.174 35.593 80.558 35.355C80.736 35.245 80.982 35.11 81.104 35.056C81.225 35.003 81.325 34.939 81.325 34.916C81.325 34.891 81.425 34.826 81.547 34.772C81.723 34.6882 81.8955 34.5971 82.064 34.499L82.624 34.174C82.771 34.091 83.024 33.945 83.186 33.852C83.323 33.772 83.462 33.695 83.603 33.622C83.67 33.592 83.823 33.499 83.945 33.417C84.065 33.334 84.196 33.257 84.235 33.244C84.37 33.199 84.173 33.054 83.432 32.657C83.3438 32.6112 83.2592 32.5587 83.179 32.5C83.0769 32.4278 82.97 32.3626 82.859 32.305C82.689 32.211 82.519 32.116 82.351 32.019C82.211 31.938 81.89 31.753 81.637 31.609C81.4682 31.5189 81.3049 31.4187 81.148 31.309C81.0656 31.2487 80.9763 31.1983 80.882 31.159C80.7798 31.1132 80.6811 31.0597 80.587 30.999C80.437 30.878 79.826 30.542 79.753 30.542C79.685 30.542 79.672 30.972 79.672 33.141Z" fill="white"/>
<path fill-rule="evenodd" clip-rule="evenodd" d="M134.244 3.134C134.244 6.495 134.234 6.389 134.54 6.15C134.621 6.087 134.719 6.034 134.757 6.033C134.795 6.033 134.862 5.998 134.905 5.956C134.947 5.914 135.089 5.831 135.219 5.77C135.349 5.71 135.468 5.643 135.485 5.621C135.513 5.584 136.447 5.051 136.814 4.863C136.911 4.813 137.004 4.753 137.02 4.73C137.036 4.707 137.146 4.638 137.263 4.577C137.48 4.465 137.815 4.277 138.349 3.966C138.505 3.875 138.663 3.786 138.822 3.699C139.913 3.114 139.917 3.163 138.742 2.518C138.656 2.47451 138.574 2.42365 138.497 2.366C138.432 2.31771 138.363 2.27616 138.29 2.242C138.053 2.11514 137.819 1.98378 137.587 1.848C137.299 1.681 137.04 1.544 137.012 1.544C137.005 1.54413 136.999 1.54294 136.993 1.54048C136.986 1.53803 136.981 1.53437 136.976 1.52971C136.971 1.52506 136.967 1.5195 136.965 1.51337C136.962 1.50724 136.961 1.50065 136.961 1.494C136.961 1.466 136.848 1.394 136.71 1.333C136.612 1.29378 136.518 1.24487 136.43 1.187C136.326 1.11335 136.218 1.04654 136.105 0.987C135.781 0.804435 135.456 0.623765 135.13 0.445C135.047 0.403099 134.968 0.353552 134.894 0.297C134.853 0.247 134.537 0.0899999 134.377 0.0409999L134.244 0V3.134ZM118.047 12.504C117.826 12.624 117.84 12.673 118.062 12.558C118.159 12.508 118.239 12.454 118.239 12.438C118.239 12.4 118.233 12.403 118.047 12.504ZM117.501 12.824C117.403 12.888 117.35 12.941 117.383 12.941C117.442 12.939 117.763 12.709 117.707 12.708C117.634 12.7383 117.565 12.7772 117.501 12.824ZM117.014 13.094C116.875 13.177 116.763 13.257 116.763 13.272C116.763 13.315 117.223 13.068 117.264 13.002C117.316 12.917 117.295 12.925 117.014 13.094ZM115.995 13.681C115.893 13.739 115.877 13.766 115.943 13.767C116.009 13.7613 116.07 13.7301 116.113 13.68C116.203 13.572 116.184 13.573 115.995 13.681Z" fill="white"/>
</svg>
